<?xml version="1.0" encoding="UTF-8" standalone="no"?>
<svg xmlns="http://www.w3.org/2000/svg" height="378pt" width="378pt" version="1.1" xmlns:xlink="http://www.w3.org/1999/xlink" viewBox="0 0 378 378">
 <defs>
  <symbol id="b" overflow="visible">
   <path d="m5.75 0l-2.25-6.4062h-1.0625l-2.2812 6.4062h0.8593l0.6875-1.9219h2.4688l0.6562 1.9219zm-1.8125-2.6094h-2.0313l1.0469-2.9218z"/>
  </symbol>
  <symbol id="ag" overflow="visible">
   <path d="m5.4844-1.8281c0-0.7813-0.3594-1.2344-1.1719-1.5625 0.5781-0.2656 0.8906-0.75 0.8906-1.3906 0-0.9376-0.6875-1.625-1.9062-1.625h-2.6094v6.4062h2.9063c1.1406 0 1.8906-0.78125 1.8906-1.8281zm-1.1094-2.8438c0 0.6563-0.375 1.0157-1.2812 1.0157h-1.5782v-2.0313h1.5782c0.9062 0 1.2812 0.3594 1.2812 1.0156zm0.2812 2.8438c0 0.625-0.375 1.1094-1.1406 1.1094l-2-0.00005v-2.2032l2 0.0001c0.7656 0 1.1406 0.4688 1.1406 1.0938z"/>
  </symbol>
  <symbol id="d" overflow="visible">
   <path d="m5.9531-2.3438h-0.8437c-0.1875 1.2188-0.7032 1.7813-1.7813 1.7813-1.2812 0-2.0937-0.9844-2.0937-2.5781 0-1.6406 0.7812-2.7032 2.0156-2.7032 1 0 1.5312 0.4376 1.7344 1.4219h0.8437c-0.2656-1.4062-1.0625-2.1562-2.4687-2.1562-1.9532 0-2.9375 1.5781-2.9375 3.4531-0.00002 1.8594 1.0156 3.2812 2.8906 3.2812 1.5625 0.00005 2.4531-0.82808 2.6406-2.5z"/>
  </symbol>
  <symbol id="af" overflow="visible">
   <path d="m5.875-3.2031c0-2-1-3.2031-2.625-3.2031h-2.4688l0.00005 6.4062h2.4688c1.625 0 2.625-1.2188 2.625-3.2031zm-0.8281 0c0 1.625-0.6719 2.4844-1.9375 2.4844l-1.5156-0.00005v-4.9688l1.5156 0.0001c1.2656 0 1.9375 0.8437 1.9375 2.4844z"/>
  </symbol>
  <symbol id="ae" overflow="visible">
   <path d="m5.3906 0v-0.71875h-3.7812v-2.2032l3.5 0.0001v-0.7187h-3.5v-2.0469h3.625v-0.7187h-4.4375l-0.00002 6.4062z"/>
  </symbol>
  <symbol id="ad" overflow="visible">
   <path d="m5.0938-5.6875v-0.7187h-4.2969l-0.00002 6.4062h0.81252v-2.9219h3.0625v-0.7187h-3.0625v-2.0469z"/>
  </symbol>
  <symbol id="a" overflow="visible">
   <path d="m6.2344 0v-3.3906h-2.6719v0.7187h1.9531v0.1875c0 1.1406-0.8437 1.9219-2.0156 1.9219-1.4531 0-2.2969-1.0625-2.2969-2.625 0-1.5781 0.9063-2.6563 2.25-2.6563 0.9844 0 1.6875 0.5469 1.8594 1.375h0.8437c-0.2343-1.2968-1.2187-2.1093-2.6874-2.1093-1.9688 0-3.0782 1.5156-3.0782 3.4375 0.00002 1.9687 1.2032 3.2968 2.9375 3.2968 0.875 0.00005 1.5625-0.31245 2.1875-0.99995l0.2032 0.84375z"/>
  </symbol>
  <symbol id="ac" overflow="visible">
   <path d="m5.6719 0v-6.4062h-0.8281v2.7656h-3.2969v-2.7656h-0.81252v6.4062h0.81252v-2.9219h3.2969v2.9219z"/>
  </symbol>
  <symbol id="ab" overflow="visible">
   <path d="m1.7031 0v-6.4062h-0.8281v6.4062z"/>
  </symbol>
  <symbol id="an" overflow="visible">
   <path d="m3.75-1.6406v-4.7656h-0.8281v4.4687c0 1.0469-0.3594 1.4062-0.9844 1.4062-0.6094 0.00005-0.95312-0.4062-0.95312-1.1562v-0.375h-0.8125v0.5156c0 1.0469 0.64062 1.7032 1.7656 1.7032 1.1094-0.00005 1.8125-0.68755 1.8125-1.7969z"/>
  </symbol>
  <symbol id="am" overflow="visible">
   <path d="m5.7812 0l-2.625-3.7969 2.6094-2.6093h-1.0625l-3.1875 3.2343v-3.2343h-0.8281v6.4062h0.8281v-2.25l1.0469-1.0469 2.2656 3.2969z"/>
  </symbol>
  <symbol id="al" overflow="visible">
   <path d="m4.6875 0v-0.71875h-3.1719v-5.6874h-0.81248v6.4062z"/>
  </symbol>
  <symbol id="ak" overflow="visible">
   <path d="m6.6875 0v-6.4062h-1.125l-1.875 5.5781-1.8906-5.5781h-1.1406l-0.00005 6.4062h0.78125v-5.375l1.8125 5.375h0.8594l1.8125-5.375v5.375z"/>
  </symbol>
  <symbol id="aj" overflow="visible">
   <path d="m5.6875 0v-6.4062h-0.7813v5.2343l-3.3437-5.2343h-0.89062v6.4062h0.76562v-5.2031l3.3281 5.2031z"/>
  </symbol>
  <symbol id="ai" overflow="visible">
   <path d="m6.5312-3.1094c0-2.0625-1.2343-3.4687-3.1093-3.4687-1.8438 0-3.0938 1.4219-3.0938 3.4219 0.00002 2 1.25 3.3124 3.1094 3.3124 1.875 0.00005 3.0937-1.375 3.0937-3.2656zm-0.8281-0.0156c0 1.5469-0.9219 2.5625-2.2656 2.5625-1.375 0-2.2813-1.0156-2.2813-2.5937 0-1.5782 0.9063-2.6876 2.2657-2.6876 1.3906 0 2.2812 1.1094 2.2812 2.7188z"/>
  </symbol>
  <symbol id="ah" overflow="visible">
   <path d="m5.4219-4.5312c0-1.2032-0.7031-1.875-1.9688-1.875h-2.6562l-0.00002 6.4062h0.82812v-2.7188h2.0156c1.0469 0 1.7813-0.75 1.7813-1.8124zm-0.8438-0.0313c0 0.7031-0.4687 1.125-1.25 1.125h-1.7031v-2.25h1.7031c0.7813 0 1.25 0.4219 1.25 1.125z"/>
  </symbol>
  <symbol id="c" overflow="visible">
   <path d="m3.0469 0v-6.2344h-0.5c-0.2813 0.9532-0.4531 1.0938-1.6563 1.2344l0.00002 0.5625h1.3906v4.4375z"/>
  </symbol>
  <symbol id="f" overflow="visible">
   <path d="m4.5-4.4062c0-1.0626-0.8281-1.8282-2-1.8282-1.2812 0-2.0156 0.6406-2.0625 2.1563h0.7813c0.0624-1.0469 0.4843-1.4844 1.25-1.4844 0.7031 0 1.2343 0.5 1.2343 1.1719 0 0.5-0.2969 0.9218-0.8437 1.2344l-0.8125 0.4531c-1.2969 0.7343-1.6719 1.3281-1.75 2.7031h4.1562v-0.76562h-3.2812c0.0781-0.51558 0.3593-0.82818 1.125-1.2813l0.875-0.4843c0.875-0.4532 1.3281-1.1094 1.3281-1.875z"/>
  </symbol>
  <symbol id="h" overflow="visible">
   <path d="m4.4531-1.8125c0-0.75-0.3125-1.2031-1.0625-1.4531 0.5782-0.2344 0.875-0.625 0.875-1.25 0-1.0782-0.7187-1.7188-1.9062-1.7188-1.25 0-1.9219 0.6875-1.9532 2.0156h0.7813c0.0156-0.9218 0.3906-1.3437 1.1875-1.3437 0.6875 0 1.0938 0.4063 1.0938 1.0625 0 0.6719-0.2813 0.9531-1.5313 0.9531v0.6407h0.4219c0.8594 0 1.2968 0.4062 1.2968 1.1093 0 0.7813-0.4843 1.25-1.2968 1.25-0.8438 0.00002-1.25-0.42185-1.2969-1.3281h-0.78125c0.09375 1.375 0.78125 2 2.0626 2 1.2812 0 2.1093-0.76562 2.1093-1.9375z"/>
  </symbol>
  <symbol id="g" overflow="visible">
   <path d="m4.5781-1.5v-0.6875h-0.9219v-4.0469h-0.5781l-2.8281 3.9219v0.8125h2.625v1.5h0.7812v-1.5zm-1.7031-0.6875h-1.9531l1.9531-2.7344z"/>
  </symbol>
  <symbol id="n" overflow="visible">
   <path d="m4.5156-2.0625c0-1.2344-0.8281-2.0469-2.0156-2.0469-0.4375 0-0.7969 0.1094-1.1562 0.375l0.25-1.6094h2.5937v-0.7656h-3.2188l-0.4687 3.2656h0.7188c0.3593-0.4218 0.6562-0.5781 1.1406-0.5781 0.8281 0 1.3594 0.5313 1.3594 1.4531 0 0.9063-0.5157 1.4219-1.3594 1.4219-0.6719 0.00002-1.0938-0.34372-1.2813-1.0469h-0.7656c0.25 1.2344 0.9531 1.7188 2.0625 1.7188 1.2656 0 2.1406-0.875 2.1406-2.1875z"/>
  </symbol>
  <symbol id="m" overflow="visible">
   <path d="m4.5156-1.9375c0-1.1563-0.7968-1.9375-1.9062-1.9375-0.625 0-1.1094 0.2344-1.4375 0.6875 0-1.5156 0.5-2.3594 1.3906-2.3594 0.5469 0 0.9219 0.3438 1.0469 0.9375h0.7656c-0.1406-1.0156-0.8125-1.625-1.7656-1.625-1.4532 0-2.2344 1.2188-2.2344 3.3906 0 1.9532 0.6719 2.9688 2.0938 2.9688 1.1874 0 2.0468-0.84375 2.0468-2.0625zm-0.7968 0.0625c0 0.7812-0.5313 1.3281-1.2344 1.3281-0.7188 0.00002-1.2656-0.5781-1.2656-1.375 0-0.7656 0.5156-1.2656 1.2812-1.2656 0.75 0 1.2188 0.4844 1.2188 1.3125z"/>
  </symbol>
  <symbol id="l" overflow="visible">
   <path d="m4.5781-5.4531v-0.6563h-4.1718l-0.00005 0.7656h3.375c-1.25 1.5626-2.125 3.3907-2.5624 5.3438h0.8281c0.3437-2.0156 1.2187-3.8906 2.5312-5.4531z"/>
  </symbol>
  <symbol id="k" overflow="visible">
   <path d="m4.5156-1.7656c0-0.6875-0.3594-1.1719-1.0781-1.5156 0.6406-0.3907 0.8594-0.7032 0.8594-1.2969 0-0.9688-0.7657-1.6563-1.875-1.6563-1.1094 0-1.875 0.6875-1.875 1.6563-0.00002 0.5781 0.2031 0.9062 0.8437 1.2969-0.71872 0.3437-1.0625 0.8281-1.0625 1.5156 0.00002 1.1406 0.8594 1.8906 2.0938 1.8906 1.2343 0 2.0937-0.75 2.0937-1.8906zm-1.0156-2.7969c0 0.5937-0.4375 0.9687-1.0781 0.9687-0.6563 0-1.0781-0.375-1.0781-0.9687s0.4218-0.9844 1.0781-0.9844c0.6562 0 1.0781 0.3907 1.0781 0.9844zm0.2188 2.8125c0 0.7344-0.5313 1.2031-1.3126 1.2031-0.7656 0.00002-1.2812-0.4687-1.2812-1.2031s0.5156-1.1875 1.2969-1.1875c0.7656 0 1.2969 0.4531 1.2969 1.1875z"/>
  </symbol>
  <symbol id="j" overflow="visible">
   <path d="m4.4844-3.2656c0-1.9532-0.6875-2.9688-2.1094-2.9688-1.1875 0-2.0469 0.8438-2.0469 2.0625 0.00002 1.1563 0.7969 1.9531 1.9219 1.9531 0.5938 0 1.0156-0.2187 1.4219-0.7031 0 1.5157-0.5 2.375-1.3907 2.375-0.5468 0.00002-0.9218-0.34372-1.0468-0.9531h-0.76565c0.14063 1.0312 0.81245 1.625 1.7656 1.625 1.4531 0 2.25-1.2344 2.25-3.3906zm-0.8438-0.9219c0 0.7656-0.5468 1.2813-1.2968 1.2813s-1.2188-0.4844-1.2188-1.3282c0-0.7812 0.5312-1.3281 1.2344-1.3281 0.7344 0 1.2812 0.5625 1.2812 1.375z"/>
  </symbol>
  <symbol id="i" overflow="visible">
   <path d="m4.4531-3c0-2.1562-0.6719-3.2344-2.0312-3.2344-1.3438 0-2.0469 1.0938-2.0469 3.1875 0 2.0938 0.7031 3.1719 2.0469 3.1719 1.3125 0 2.0312-1.0781 2.0312-3.125zm-0.7812-0.0625c0 1.7656-0.4063 2.5469-1.2657 2.5469-0.8281-0.00002-1.2343-0.8282-1.2343-2.5313s0.4062-2.5 1.25-2.5c0.8281 0 1.25 0.8125 1.25 2.4844z"/>
  </symbol>
  <symbol id="e" overflow="visible">
   <path d="m5.2188-5.6875v-0.7187h-5.0313v0.7187h2.1094v5.6875h0.8125v-5.6875z"/>
  </symbol>
  <symbol id="aa" overflow="visible">
   <path d="m5.3438-5.7656h-1.0313l-1.625 4.6718-1.5469-4.6718h-1.0312l2.0312 5.7656h1z"/>
  </symbol>
  <symbol id="z" overflow="visible">
   <path d="m5.8906-0.015625v-0.70312c-0.1094 0.03124-0.1562 0.03124-0.2031 0.03124-0.3125 0-0.5-0.17188-0.5-0.4531v-3.2188c0-1.0156-0.75-1.5625-2.1563-1.5625-1.4062 0-2.2656 0.5313-2.3124 1.8594h0.9218c0.0782-0.7031 0.5-1.0156 1.3438-1.0156 0.8281 0 1.2968 0.2969 1.2968 0.8593v0.2344c0 0.3906-0.2343 0.5469-0.9531 0.6406-1.2969 0.1719-1.5 0.2032-1.8593 0.3594-0.67192 0.2656-1 0.7813-1 1.4844-0.00005 1.0469 0.7187 1.6719 1.8906 1.6719 0.7344-0.00002 1.4531-0.31252 1.9531-0.8594 0.0937 0.45312 0.5 0.76562 0.9531 0.76562 0.1719 0.000005 0.3282-0.01562 0.625-0.093745zm-1.6094-1.9688c0 0.8125-0.8437 1.3438-1.7343 1.3438-0.7031-0.00002-1.125-0.25002-1.125-0.875 0-0.6094 0.4062-0.875 1.3906-1.0156 0.9531-0.125 1.1563-0.1719 1.4687-0.3126z"/>
  </symbol>
  <symbol id="y" overflow="visible">
   <path d="m1.6562 0v-8.0156h-0.9062v8.0156z"/>
  </symbol>
  <symbol id="x" overflow="visible">
   <path d="m5.2969 0v-5.7656h-0.9063v3.1875c0 1.1719-0.625 1.9375-1.5781 1.9375-0.7187-0.00002-1.1875-0.4375-1.1875-1.125v-4h-0.90625v4.3594c0 0.95308 0.71875 1.5781 1.8282 1.5781 0.8592-0.00002 1.3905-0.2969 1.9374-1.0625v0.8906z"/>
  </symbol>
  <symbol id="w" overflow="visible">
   <path d="m5.6406-2.625c0-0.8281-0.0625-1.3594-0.2344-1.7812-0.375-0.9532-1.25-1.5157-2.3281-1.5157-1.6093 0-2.6406 1.1875-2.6406 3.0781 0 1.8907 1 3.0157 2.625 3.0157 1.3125-0.00002 2.2344-0.75002 2.4531-1.9219h-0.9218c-0.25 0.76562-0.7657 1.0625-1.5 1.0625-0.9532 0-1.6719-0.6094-1.7032-1.9375zm-0.9844-0.8125v0.0781h-3.2343c0.0781-1.0312 0.7187-1.7187 1.6406-1.7187 0.9063 0 1.5937 0.75 1.5937 1.6406z"/>
  </symbol>
  <symbol id="v" overflow="visible">
   <path d="m5.0469-1.6094c0-0.8594-0.4844-1.2968-1.625-1.5625l-0.875-0.2187c-0.75-0.1719-1.0781-0.4219-1.0781-0.8282 0-0.5156 0.4843-0.8593 1.2187-0.8593 0.75 0 1.1406 0.3125 1.1563 0.9219h0.9687c0-1.1407-0.75-1.7657-2.0781-1.7657-1.3438 0-2.2188 0.6875-2.2188 1.75 0.00002 0.9063 0.46878 1.3281 1.8282 1.6563l0.8593 0.2187c0.6407 0.1563 0.8907 0.3438 0.8907 0.75 0 0.5469-0.5469 0.8594-1.3438 0.8594-0.8281 0-1.2812-0.1875-1.4062-1.0781h-0.9688c0.04688 1.3437 0.7969 1.9375 2.2969 1.9375 1.4531-0.00002 2.375-0.6719 2.375-1.7813z"/>
  </symbol>
  <symbol id="u" overflow="visible">
   <path d="m2.5469 0v-9.625h-1.2188v9.625z"/>
  </symbol>
  <symbol id="t" overflow="visible">
   <path d="m8.5312 0v-9.625h-1.1562v7.875l-5.0312-7.875h-1.3438v9.625h1.1719v-7.7969l4.9687 7.7969z"/>
  </symbol>
  <symbol id="s" overflow="visible">
   <path d="m8.8125-4.8125c0-2.9844-1.4844-4.8125-3.9219-4.8125h-3.7187v9.625h3.7187c2.4219 0 3.9219-1.8281 3.9219-4.8125zm-1.2344 0c0 2.4375-1 3.7344-2.9062 3.7344h-2.2657v-7.4688h2.2657c1.9062 0 2.9062 1.2813 2.9062 3.7344z"/>
  </symbol>
  <symbol id="r" overflow="visible">
   <path d="m8.0938 0v-1.0781h-5.6719v-3.3125h5.2343v-1.0782h-5.2343v-3.0781h5.4375v-1.0781h-6.6719v9.625z"/>
  </symbol>
  <symbol id="q" overflow="visible">
   <path d="m8.5625 0l-3.4063-4.9375 3.25-4.6875h-1.4687l-2.4687 3.7812-2.4688-3.7812h-1.5l3.2031 4.6875-3.4062 4.9375h1.4843l2.6407-4.0156 2.625 4.0156z"/>
  </symbol>
  <symbol id="p" overflow="visible">
   <path d="m6.7656-3.1406c0-1-0.0781-1.6406-0.2656-2.1563-0.4531-1.1406-1.5156-1.8125-2.7969-1.8125-1.9375 0-3.1718 1.4219-3.1718 3.6875-0.00005 2.2657 1.2031 3.625 3.1406 3.625 1.5781 0.00002 2.6719-0.90622 2.9531-2.2969h-1.1094c-0.2968 0.9063-0.9218 1.2813-1.8125 1.2813-1.1406 0-2-0.75-2.0312-2.3281zm-1.1718-0.9844s0 0.0625-0.0157 0.0781h-3.875c0.0938-1.2187 0.875-2.0469 1.9844-2.0469 1.0781 0 1.9063 0.8907 1.9063 1.9688z"/>
  </symbol>
  <symbol id="o" overflow="visible">
   <path d="m6.0625-1.9375c0-1.0313-0.5781-1.5469-1.9531-1.875l-1.0625-0.25c-0.8907-0.2187-1.2813-0.5-1.2813-1 0-0.625 0.5782-1.0313 1.4688-1.0313s1.3594 0.375 1.3906 1.1094h1.1562c-0.0156-1.3594-0.9062-2.125-2.5-2.125-1.625 0-2.6562 0.8282-2.6562 2.1094 0 1.0781 0.5469 1.5938 2.1875 1.9844l1.0313 0.25c0.7656 0.1875 1.0624 0.4218 1.0624 0.9218 0 0.6407-0.6406 1.0313-1.6093 1.0313-0.9844 0-1.5469-0.25-1.6875-1.2969h-1.1563c0.0469 1.5938 0.9531 2.3125 2.75 2.3125 1.75 0.00002 2.8594-0.81248 2.8594-2.1406z"/>
  </symbol>
  <clipPath id="dy">
   <path d="m0 80.59h378v217.41h-378z"/>
  </clipPath>
  <clipPath id="dn">
   <path d="m32.891 102.82h247.11v163.18h-247.11z"/>
  </clipPath>
  <clipPath id="dc">
   <path d="m32.891 105h247.11v1h-247.11z"/>
  </clipPath>
  <clipPath id="cr">
   <path d="m32.891 109h247.11v2h-247.11z"/>
  </clipPath>
  <clipPath id="cg">
   <path d="m32.891 119h247.11v1h-247.11z"/>
  </clipPath>
  <clipPath id="bv">
   <path d="m32.891 128h247.11v1h-247.11z"/>
  </clipPath>
  <clipPath id="bk">
   <path d="m32.891 137h247.11v2h-247.11z"/>
  </clipPath>
  <clipPath id="az">
   <path d="m32.891 146h247.11v2h-247.11z"/>
  </clipPath>
  <clipPath id="ao">
   <path d="m32.891 156h247.11v1h-247.11z"/>
  </clipPath>
  <clipPath id="dx">
   <path d="m32.891 165h247.11v1h-247.11z"/>
  </clipPath>
  <clipPath id="dw">
   <path d="m32.891 174h247.11v2h-247.11z"/>
  </clipPath>
  <clipPath id="dv">
   <path d="m32.891 183h247.11v2h-247.11z"/>
  </clipPath>
  <clipPath id="du">
   <path d="m32.891 193h247.11v1h-247.11z"/>
  </clipPath>
  <clipPath id="dt">
   <path d="m32.891 202h247.11v1h-247.11z"/>
  </clipPath>
  <clipPath id="ds">
   <path d="m32.891 211h247.11v2h-247.11z"/>
  </clipPath>
  <clipPath id="dr">
   <path d="m32.891 220h247.11v2h-247.11z"/>
  </clipPath>
  <clipPath id="dq">
   <path d="m32.891 230h247.11v1h-247.11z"/>
  </clipPath>
  <clipPath id="dp">
   <path d="m32.891 239h247.11v1h-247.11z"/>
  </clipPath>
  <clipPath id="do">
   <path d="m32.891 248h247.11v2h-247.11z"/>
  </clipPath>
  <clipPath id="dm">
   <path d="m32.891 257h247.11v2h-247.11z"/>
  </clipPath>
  <clipPath id="dl">
   <path d="m32.891 262h247.11v2h-247.11z"/>
  </clipPath>
  <clipPath id="dk">
   <path d="m39 102.82h1v163.18h-1z"/>
  </clipPath>
  <clipPath id="dj">
   <path d="m43 102.82h2v163.18h-2z"/>
  </clipPath>
  <clipPath id="di">
   <path d="m53 102.82h1v163.18h-1z"/>
  </clipPath>
  <clipPath id="dh">
   <path d="m62 102.82h2v163.18h-2z"/>
  </clipPath>
  <clipPath id="dg">
   <path d="m71 102.82h2v163.18h-2z"/>
  </clipPath>
  <clipPath id="df">
   <path d="m81 102.82h1v163.18h-1z"/>
  </clipPath>
  <clipPath id="de">
   <path d="m90 102.82h2v163.18h-2z"/>
  </clipPath>
  <clipPath id="dd">
   <path d="m99 102.82h2v163.18h-2z"/>
  </clipPath>
  <clipPath id="db">
   <path d="m109 102.82h1v163.18h-1z"/>
  </clipPath>
  <clipPath id="da">
   <path d="m118 102.82h2v163.18h-2z"/>
  </clipPath>
  <clipPath id="cz">
   <path d="m127 102.82h2v163.18h-2z"/>
  </clipPath>
  <clipPath id="cy">
   <path d="m137 102.82h1v163.18h-1z"/>
  </clipPath>
  <clipPath id="cx">
   <path d="m146 102.82h2v163.18h-2z"/>
  </clipPath>
  <clipPath id="cw">
   <path d="m155 102.82h2v163.18h-2z"/>
  </clipPath>
  <clipPath id="cv">
   <path d="m165 102.82h1v163.18h-1z"/>
  </clipPath>
  <clipPath id="cu">
   <path d="m174 102.82h2v163.18h-2z"/>
  </clipPath>
  <clipPath id="ct">
   <path d="m183 102.82h2v163.18h-2z"/>
  </clipPath>
  <clipPath id="cs">
   <path d="m193 102.82h1v163.18h-1z"/>
  </clipPath>
  <clipPath id="cq">
   <path d="m202 102.82h2v163.18h-2z"/>
  </clipPath>
  <clipPath id="cp">
   <path d="m211 102.82h2v163.18h-2z"/>
  </clipPath>
  <clipPath id="co">
   <path d="m221 102.82h1v163.18h-1z"/>
  </clipPath>
  <clipPath id="cn">
   <path d="m230 102.82h2v163.18h-2z"/>
  </clipPath>
  <clipPath id="cm">
   <path d="m239 102.82h2v163.18h-2z"/>
  </clipPath>
  <clipPath id="cl">
   <path d="m249 102.82h1v163.18h-1z"/>
  </clipPath>
  <clipPath id="ck">
   <path d="m258 102.82h2v163.18h-2z"/>
  </clipPath>
  <clipPath id="cj">
   <path d="m267 102.82h2v163.18h-2z"/>
  </clipPath>
  <clipPath id="ci">
   <path d="m272 102.82h2v163.18h-2z"/>
  </clipPath>
  <clipPath id="ch">
   <path d="m32.891 114h247.11v2h-247.11z"/>
  </clipPath>
  <clipPath id="cf">
   <path d="m32.891 123h247.11v2h-247.11z"/>
  </clipPath>
  <clipPath id="ce">
   <path d="m32.891 132h247.11v2h-247.11z"/>
  </clipPath>
  <clipPath id="cd">
   <path d="m32.891 142h247.11v2h-247.11z"/>
  </clipPath>
  <clipPath id="cc">
   <path d="m32.891 151h247.11v2h-247.11z"/>
  </clipPath>
  <clipPath id="cb">
   <path d="m32.891 160h247.11v2h-247.11z"/>
  </clipPath>
  <clipPath id="ca">
   <path d="m32.891 169h247.11v2h-247.11z"/>
  </clipPath>
  <clipPath id="bz">
   <path d="m32.891 179h247.11v2h-247.11z"/>
  </clipPath>
  <clipPath id="by">
   <path d="m32.891 188h247.11v2h-247.11z"/>
  </clipPath>
  <clipPath id="bx">
   <path d="m32.891 197h247.11v2h-247.11z"/>
  </clipPath>
  <clipPath id="bw">
   <path d="m32.891 206h247.11v2h-247.11z"/>
  </clipPath>
  <clipPath id="bu">
   <path d="m32.891 215h247.11v3h-247.11z"/>
  </clipPath>
  <clipPath id="bt">
   <path d="m32.891 225h247.11v2h-247.11z"/>
  </clipPath>
  <clipPath id="bs">
   <path d="m32.891 234h247.11v2h-247.11z"/>
  </clipPath>
  <clipPath id="br">
   <path d="m32.891 243h247.11v2h-247.11z"/>
  </clipPath>
  <clipPath id="bq">
   <path d="m32.891 252h247.11v3h-247.11z"/>
  </clipPath>
  <clipPath id="bp">
   <path d="m48 102.82h2v163.7h-2z"/>
  </clipPath>
  <clipPath id="bo">
   <path d="m57 102.82h2v163.7h-2z"/>
  </clipPath>
  <clipPath id="bn">
   <path d="m66 102.82h2v163.7h-2z"/>
  </clipPath>
  <clipPath id="bm">
   <path d="m76 102.82h2v163.7h-2z"/>
  </clipPath>
  <clipPath id="bl">
   <path d="m85 102.82h2v163.7h-2z"/>
  </clipPath>
  <clipPath id="bj">
   <path d="m94 102.82h2v163.7h-2z"/>
  </clipPath>
  <clipPath id="bi">
   <path d="m104 102.82h2v163.7h-2z"/>
  </clipPath>
  <clipPath id="bh">
   <path d="m113 102.82h2v163.7h-2z"/>
  </clipPath>
  <clipPath id="bg">
   <path d="m122 102.82h3v163.7h-3z"/>
  </clipPath>
  <clipPath id="bf">
   <path d="m132 102.82h2v163.7h-2z"/>
  </clipPath>
  <clipPath id="be">
   <path d="m141 102.82h2v163.7h-2z"/>
  </clipPath>
  <clipPath id="bd">
   <path d="m150 102.82h3v163.7h-3z"/>
  </clipPath>
  <clipPath id="bc">
   <path d="m160 102.82h2v163.7h-2z"/>
  </clipPath>
  <clipPath id="bb">
   <path d="m169 102.82h2v163.7h-2z"/>
  </clipPath>
  <clipPath id="ba">
   <path d="m178 102.82h3v163.7h-3z"/>
  </clipPath>
  <clipPath id="ay">
   <path d="m188 102.82h2v163.7h-2z"/>
  </clipPath>
  <clipPath id="ax">
   <path d="m197 102.82h2v163.7h-2z"/>
  </clipPath>
  <clipPath id="aw">
   <path d="m206 102.82h3v163.7h-3z"/>
  </clipPath>
  <clipPath id="av">
   <path d="m216 102.82h2v163.7h-2z"/>
  </clipPath>
  <clipPath id="au">
   <path d="m225 102.82h2v163.7h-2z"/>
  </clipPath>
  <clipPath id="at">
   <path d="m235 102.82h2v163.7h-2z"/>
  </clipPath>
  <clipPath id="as">
   <path d="m244 102.82h2v163.7h-2z"/>
  </clipPath>
  <clipPath id="ar">
   <path d="m253 102.82h2v163.7h-2z"/>
  </clipPath>
  <clipPath id="aq">
   <path d="m263 102.82h2v163.7h-2z"/>
  </clipPath>
  <clipPath id="ap">
   <path d="m32.891 102.82h247.11v163.7h-247.11z"/>
  </clipPath>
 </defs>
 <rect height="378" width="378" y="0" x="0" fill="#fff"/>
 <g>
  <g clip-path="url(#dy)">
   <path stroke-linejoin="round" d="m0 297.41h378v-216.82l-378-0.004zm0 0" stroke="#fff" stroke-linecap="round" stroke-miterlimit="10" stroke-width="1.067" fill="#fff"/>
  </g>
  <g clip-path="url(#dn)">
   <path fill="#fff" d="m32.891 265.52h246.54v-162.7h-246.54z"/>
  </g>
  <g clip-path="url(#dc)">
   <path stroke-linejoin="round" d="m32.891 105.6h246.54" stroke="#ebebeb" stroke-miterlimit="10" stroke-width=".53349" fill="none"/>
  </g>
  <g clip-path="url(#cr)">
   <path stroke-linejoin="round" d="m32.891 110.22h246.54" stroke="#ebebeb" stroke-miterlimit="10" stroke-width=".53349" fill="none"/>
  </g>
  <g clip-path="url(#cg)">
   <path stroke-linejoin="round" d="m32.891 119.46h246.54" stroke="#ebebeb" stroke-miterlimit="10" stroke-width=".53349" fill="none"/>
  </g>
  <g clip-path="url(#bv)">
   <path stroke-linejoin="round" d="m32.891 128.71h246.54" stroke="#ebebeb" stroke-miterlimit="10" stroke-width=".53349" fill="none"/>
  </g>
  <g clip-path="url(#bk)">
   <path stroke-linejoin="round" d="m32.891 137.95h246.54" stroke="#ebebeb" stroke-miterlimit="10" stroke-width=".53349" fill="none"/>
  </g>
  <g clip-path="url(#az)">
   <path stroke-linejoin="round" d="m32.891 147.2h246.54" stroke="#ebebeb" stroke-miterlimit="10" stroke-width=".53349" fill="none"/>
  </g>
  <g clip-path="url(#ao)">
   <path stroke-linejoin="round" d="m32.891 156.44h246.54" stroke="#ebebeb" stroke-miterlimit="10" stroke-width=".53349" fill="none"/>
  </g>
  <g clip-path="url(#dx)">
   <path stroke-linejoin="round" d="m32.891 165.68h246.54" stroke="#ebebeb" stroke-miterlimit="10" stroke-width=".53349" fill="none"/>
  </g>
  <g clip-path="url(#dw)">
   <path stroke-linejoin="round" d="m32.891 174.93h246.54" stroke="#ebebeb" stroke-miterlimit="10" stroke-width=".53349" fill="none"/>
  </g>
  <g clip-path="url(#dv)">
   <path stroke-linejoin="round" d="m32.891 184.17h246.54" stroke="#ebebeb" stroke-miterlimit="10" stroke-width=".53349" fill="none"/>
  </g>
  <g clip-path="url(#du)">
   <path stroke-linejoin="round" d="m32.891 193.42h246.54" stroke="#ebebeb" stroke-miterlimit="10" stroke-width=".53349" fill="none"/>
  </g>
  <g clip-path="url(#dt)">
   <path stroke-linejoin="round" d="m32.891 202.66h246.54" stroke="#ebebeb" stroke-miterlimit="10" stroke-width=".53349" fill="none"/>
  </g>
  <g clip-path="url(#ds)">
   <path stroke-linejoin="round" d="m32.891 211.91h246.54" stroke="#ebebeb" stroke-miterlimit="10" stroke-width=".53349" fill="none"/>
  </g>
  <g clip-path="url(#dr)">
   <path stroke-linejoin="round" d="m32.891 221.15h246.54" stroke="#ebebeb" stroke-miterlimit="10" stroke-width=".53349" fill="none"/>
  </g>
  <g clip-path="url(#dq)">
   <path stroke-linejoin="round" d="m32.891 230.39h246.54" stroke="#ebebeb" stroke-miterlimit="10" stroke-width=".53349" fill="none"/>
  </g>
  <g clip-path="url(#dp)">
   <path stroke-linejoin="round" d="m32.891 239.64h246.54" stroke="#ebebeb" stroke-miterlimit="10" stroke-width=".53349" fill="none"/>
  </g>
  <g clip-path="url(#do)">
   <path stroke-linejoin="round" d="m32.891 248.88h246.54" stroke="#ebebeb" stroke-miterlimit="10" stroke-width=".53349" fill="none"/>
  </g>
  <g clip-path="url(#dm)">
   <path stroke-linejoin="round" d="m32.891 258.12h246.54" stroke="#ebebeb" stroke-miterlimit="10" stroke-width=".53349" fill="none"/>
  </g>
  <g clip-path="url(#dl)">
   <path stroke-linejoin="round" d="m32.891 262.75h246.54" stroke="#ebebeb" stroke-miterlimit="10" stroke-width=".53349" fill="none"/>
  </g>
  <g clip-path="url(#dk)">
   <path stroke-linejoin="round" d="m39.426 265.52v-162.7" stroke="#ebebeb" stroke-miterlimit="10" stroke-width=".53349" fill="none"/>
  </g>
  <g clip-path="url(#dj)">
   <path stroke-linejoin="round" d="m44.098 265.52v-162.7" stroke="#ebebeb" stroke-miterlimit="10" stroke-width=".53349" fill="none"/>
  </g>
  <g clip-path="url(#di)">
   <path stroke-linejoin="round" d="m53.434 265.52v-162.7" stroke="#ebebeb" stroke-miterlimit="10" stroke-width=".53349" fill="none"/>
  </g>
  <g clip-path="url(#dh)">
   <path stroke-linejoin="round" d="m62.773 265.52v-162.7" stroke="#ebebeb" stroke-miterlimit="10" stroke-width=".53349" fill="none"/>
  </g>
  <g clip-path="url(#dg)">
   <path stroke-linejoin="round" d="m72.113 265.52v-162.7" stroke="#ebebeb" stroke-miterlimit="10" stroke-width=".53349" fill="none"/>
  </g>
  <g clip-path="url(#df)">
   <path stroke-linejoin="round" d="m81.449 265.52v-162.7" stroke="#ebebeb" stroke-miterlimit="10" stroke-width=".53349" fill="none"/>
  </g>
  <g clip-path="url(#de)">
   <path stroke-linejoin="round" d="m90.789 265.52v-162.7" stroke="#ebebeb" stroke-miterlimit="10" stroke-width=".53349" fill="none"/>
  </g>
  <g clip-path="url(#dd)">
   <path stroke-linejoin="round" d="m100.13 265.52v-162.7" stroke="#ebebeb" stroke-miterlimit="10" stroke-width=".53349" fill="none"/>
  </g>
  <g clip-path="url(#db)">
   <path stroke-linejoin="round" d="m109.46 265.52v-162.7" stroke="#ebebeb" stroke-miterlimit="10" stroke-width=".53349" fill="none"/>
  </g>
  <g clip-path="url(#da)">
   <path stroke-linejoin="round" d="m118.8 265.52v-162.7" stroke="#ebebeb" stroke-miterlimit="10" stroke-width=".53349" fill="none"/>
  </g>
  <g clip-path="url(#cz)">
   <path stroke-linejoin="round" d="m128.14 265.52v-162.7" stroke="#ebebeb" stroke-miterlimit="10" stroke-width=".53349" fill="none"/>
  </g>
  <g clip-path="url(#cy)">
   <path stroke-linejoin="round" d="m137.48 265.52v-162.7" stroke="#ebebeb" stroke-miterlimit="10" stroke-width=".53349" fill="none"/>
  </g>
  <g clip-path="url(#cx)">
   <path stroke-linejoin="round" d="m146.82 265.52v-162.7" stroke="#ebebeb" stroke-miterlimit="10" stroke-width=".53349" fill="none"/>
  </g>
  <g clip-path="url(#cw)">
   <path stroke-linejoin="round" d="m156.16 265.52v-162.7" stroke="#ebebeb" stroke-miterlimit="10" stroke-width=".53349" fill="none"/>
  </g>
  <g clip-path="url(#cv)">
   <path stroke-linejoin="round" d="m165.5 265.52v-162.7" stroke="#ebebeb" stroke-miterlimit="10" stroke-width=".53349" fill="none"/>
  </g>
  <g clip-path="url(#cu)">
   <path stroke-linejoin="round" d="m174.84 265.52v-162.7" stroke="#ebebeb" stroke-miterlimit="10" stroke-width=".53349" fill="none"/>
  </g>
  <g clip-path="url(#ct)">
   <path stroke-linejoin="round" d="m184.18 265.52v-162.7" stroke="#ebebeb" stroke-miterlimit="10" stroke-width=".53349" fill="none"/>
  </g>
  <g clip-path="url(#cs)">
   <path stroke-linejoin="round" d="m193.51 265.52v-162.7" stroke="#ebebeb" stroke-miterlimit="10" stroke-width=".53349" fill="none"/>
  </g>
  <g clip-path="url(#cq)">
   <path stroke-linejoin="round" d="m202.85 265.52v-162.7" stroke="#ebebeb" stroke-miterlimit="10" stroke-width=".53349" fill="none"/>
  </g>
  <g clip-path="url(#cp)">
   <path stroke-linejoin="round" d="m212.19 265.52v-162.7" stroke="#ebebeb" stroke-miterlimit="10" stroke-width=".53349" fill="none"/>
  </g>
  <g clip-path="url(#co)">
   <path stroke-linejoin="round" d="m221.53 265.52v-162.7" stroke="#ebebeb" stroke-miterlimit="10" stroke-width=".53349" fill="none"/>
  </g>
  <g clip-path="url(#cn)">
   <path stroke-linejoin="round" d="m230.87 265.52v-162.7" stroke="#ebebeb" stroke-miterlimit="10" stroke-width=".53349" fill="none"/>
  </g>
  <g clip-path="url(#cm)">
   <path stroke-linejoin="round" d="m240.21 265.52v-162.7" stroke="#ebebeb" stroke-miterlimit="10" stroke-width=".53349" fill="none"/>
  </g>
  <g clip-path="url(#cl)">
   <path stroke-linejoin="round" d="m249.54 265.52v-162.7" stroke="#ebebeb" stroke-miterlimit="10" stroke-width=".53349" fill="none"/>
  </g>
  <g clip-path="url(#ck)">
   <path stroke-linejoin="round" d="m258.88 265.52v-162.7" stroke="#ebebeb" stroke-miterlimit="10" stroke-width=".53349" fill="none"/>
  </g>
  <g clip-path="url(#cj)">
   <path stroke-linejoin="round" d="m268.22 265.52v-162.7" stroke="#ebebeb" stroke-miterlimit="10" stroke-width=".53349" fill="none"/>
  </g>
  <g clip-path="url(#ci)">
   <path stroke-linejoin="round" d="m272.89 265.52v-162.7" stroke="#ebebeb" stroke-miterlimit="10" stroke-width=".53349" fill="none"/>
  </g>
  <g clip-path="url(#ch)">
   <path stroke-linejoin="round" d="m32.891 114.84h246.54" stroke="#ebebeb" stroke-miterlimit="10" stroke-width="1.067" fill="none"/>
  </g>
  <g clip-path="url(#cf)">
   <path stroke-linejoin="round" d="m32.891 124.09h246.54" stroke="#ebebeb" stroke-miterlimit="10" stroke-width="1.067" fill="none"/>
  </g>
  <g clip-path="url(#ce)">
   <path stroke-linejoin="round" d="m32.891 133.33h246.54" stroke="#ebebeb" stroke-miterlimit="10" stroke-width="1.067" fill="none"/>
  </g>
  <g clip-path="url(#cd)">
   <path stroke-linejoin="round" d="m32.891 142.57h246.54" stroke="#ebebeb" stroke-miterlimit="10" stroke-width="1.067" fill="none"/>
  </g>
  <g clip-path="url(#cc)">
   <path stroke-linejoin="round" d="m32.891 151.82h246.54" stroke="#ebebeb" stroke-miterlimit="10" stroke-width="1.067" fill="none"/>
  </g>
  <g clip-path="url(#cb)">
   <path stroke-linejoin="round" d="m32.891 161.06h246.54" stroke="#ebebeb" stroke-miterlimit="10" stroke-width="1.067" fill="none"/>
  </g>
  <g clip-path="url(#ca)">
   <path stroke-linejoin="round" d="m32.891 170.3h246.54" stroke="#ebebeb" stroke-miterlimit="10" stroke-width="1.067" fill="none"/>
  </g>
  <g clip-path="url(#bz)">
   <path stroke-linejoin="round" d="m32.891 179.55h246.54" stroke="#ebebeb" stroke-miterlimit="10" stroke-width="1.067" fill="none"/>
  </g>
  <g clip-path="url(#by)">
   <path stroke-linejoin="round" d="m32.891 188.79h246.54" stroke="#ebebeb" stroke-miterlimit="10" stroke-width="1.067" fill="none"/>
  </g>
  <g clip-path="url(#bx)">
   <path stroke-linejoin="round" d="m32.891 198.04h246.54" stroke="#ebebeb" stroke-miterlimit="10" stroke-width="1.067" fill="none"/>
  </g>
  <g clip-path="url(#bw)">
   <path stroke-linejoin="round" d="m32.891 207.28h246.54" stroke="#ebebeb" stroke-miterlimit="10" stroke-width="1.067" fill="none"/>
  </g>
  <g clip-path="url(#bu)">
   <path stroke-linejoin="round" d="m32.891 216.53h246.54" stroke="#ebebeb" stroke-miterlimit="10" stroke-width="1.067" fill="none"/>
  </g>
  <g clip-path="url(#bt)">
   <path stroke-linejoin="round" d="m32.891 225.77h246.54" stroke="#ebebeb" stroke-miterlimit="10" stroke-width="1.067" fill="none"/>
  </g>
  <g clip-path="url(#bs)">
   <path stroke-linejoin="round" d="m32.891 235.02h246.54" stroke="#ebebeb" stroke-miterlimit="10" stroke-width="1.067" fill="none"/>
  </g>
  <g clip-path="url(#br)">
   <path stroke-linejoin="round" d="m32.891 244.26h246.54" stroke="#ebebeb" stroke-miterlimit="10" stroke-width="1.067" fill="none"/>
  </g>
  <g clip-path="url(#bq)">
   <path stroke-linejoin="round" d="m32.891 253.5h246.54" stroke="#ebebeb" stroke-miterlimit="10" stroke-width="1.067" fill="none"/>
  </g>
  <g clip-path="url(#bp)">
   <path stroke-linejoin="round" d="m48.766 265.52v-162.7" stroke="#ebebeb" stroke-miterlimit="10" stroke-width="1.067" fill="none"/>
  </g>
  <g clip-path="url(#bo)">
   <path stroke-linejoin="round" d="m58.105 265.52v-162.7" stroke="#ebebeb" stroke-miterlimit="10" stroke-width="1.067" fill="none"/>
  </g>
  <g clip-path="url(#bn)">
   <path stroke-linejoin="round" d="m67.441 265.52v-162.7" stroke="#ebebeb" stroke-miterlimit="10" stroke-width="1.067" fill="none"/>
  </g>
  <g clip-path="url(#bm)">
   <path stroke-linejoin="round" d="m76.781 265.52v-162.7" stroke="#ebebeb" stroke-miterlimit="10" stroke-width="1.067" fill="none"/>
  </g>
  <g clip-path="url(#bl)">
   <path stroke-linejoin="round" d="m86.121 265.52v-162.7" stroke="#ebebeb" stroke-miterlimit="10" stroke-width="1.067" fill="none"/>
  </g>
  <g clip-path="url(#bj)">
   <path stroke-linejoin="round" d="m95.457 265.52v-162.7" stroke="#ebebeb" stroke-miterlimit="10" stroke-width="1.067" fill="none"/>
  </g>
  <g clip-path="url(#bi)">
   <path stroke-linejoin="round" d="m104.8 265.52v-162.7" stroke="#ebebeb" stroke-miterlimit="10" stroke-width="1.067" fill="none"/>
  </g>
  <g clip-path="url(#bh)">
   <path stroke-linejoin="round" d="m114.14 265.52v-162.7" stroke="#ebebeb" stroke-miterlimit="10" stroke-width="1.067" fill="none"/>
  </g>
  <g clip-path="url(#bg)">
   <path stroke-linejoin="round" d="m123.47 265.52v-162.7" stroke="#ebebeb" stroke-miterlimit="10" stroke-width="1.067" fill="none"/>
  </g>
  <g clip-path="url(#bf)">
   <path stroke-linejoin="round" d="m132.81 265.52v-162.7" stroke="#ebebeb" stroke-miterlimit="10" stroke-width="1.067" fill="none"/>
  </g>
  <g clip-path="url(#be)">
   <path stroke-linejoin="round" d="m142.15 265.52v-162.7" stroke="#ebebeb" stroke-miterlimit="10" stroke-width="1.067" fill="none"/>
  </g>
  <g clip-path="url(#bd)">
   <path stroke-linejoin="round" d="m151.49 265.52v-162.7" stroke="#ebebeb" stroke-miterlimit="10" stroke-width="1.067" fill="none"/>
  </g>
  <g clip-path="url(#bc)">
   <path stroke-linejoin="round" d="m160.83 265.52v-162.7" stroke="#ebebeb" stroke-miterlimit="10" stroke-width="1.067" fill="none"/>
  </g>
  <g clip-path="url(#bb)">
   <path stroke-linejoin="round" d="m170.17 265.52v-162.7" stroke="#ebebeb" stroke-miterlimit="10" stroke-width="1.067" fill="none"/>
  </g>
  <g clip-path="url(#ba)">
   <path stroke-linejoin="round" d="m179.5 265.52v-162.7" stroke="#ebebeb" stroke-miterlimit="10" stroke-width="1.067" fill="none"/>
  </g>
  <g clip-path="url(#ay)">
   <path stroke-linejoin="round" d="m188.84 265.52v-162.7" stroke="#ebebeb" stroke-miterlimit="10" stroke-width="1.067" fill="none"/>
  </g>
  <g clip-path="url(#ax)">
   <path stroke-linejoin="round" d="m198.18 265.52v-162.7" stroke="#ebebeb" stroke-miterlimit="10" stroke-width="1.067" fill="none"/>
  </g>
  <g clip-path="url(#aw)">
   <path stroke-linejoin="round" d="m207.52 265.52v-162.7" stroke="#ebebeb" stroke-miterlimit="10" stroke-width="1.067" fill="none"/>
  </g>
  <g clip-path="url(#av)">
   <path stroke-linejoin="round" d="m216.86 265.52v-162.7" stroke="#ebebeb" stroke-miterlimit="10" stroke-width="1.067" fill="none"/>
  </g>
  <g clip-path="url(#au)">
   <path stroke-linejoin="round" d="m226.2 265.52v-162.7" stroke="#ebebeb" stroke-miterlimit="10" stroke-width="1.067" fill="none"/>
  </g>
  <g clip-path="url(#at)">
   <path stroke-linejoin="round" d="m235.54 265.52v-162.7" stroke="#ebebeb" stroke-miterlimit="10" stroke-width="1.067" fill="none"/>
  </g>
  <g clip-path="url(#as)">
   <path stroke-linejoin="round" d="m244.88 265.52v-162.7" stroke="#ebebeb" stroke-miterlimit="10" stroke-width="1.067" fill="none"/>
  </g>
  <g clip-path="url(#ar)">
   <path stroke-linejoin="round" d="m254.21 265.52v-162.7" stroke="#ebebeb" stroke-miterlimit="10" stroke-width="1.067" fill="none"/>
  </g>
  <g clip-path="url(#aq)">
   <path stroke-linejoin="round" d="m263.55 265.52v-162.7" stroke="#ebebeb" stroke-miterlimit="10" stroke-width="1.067" fill="none"/>
  </g>
 </g>
 <g stroke-linejoin="round" stroke-opacity=".10196" fill-opacity=".10196" stroke="#e5e5e5" stroke-linecap="round" stroke-miterlimit="10" stroke-width=".70866" fill="#fff">
  <path d="m45.613 117.99h6.301v-6.3h-6.301z"/>
  <path d="m54.953 117.99h6.301v-6.3h-6.301z"/>
  <path d="m64.293 117.99h6.301v-6.3h-6.301z"/>
  <path d="m73.629 117.99h6.301v-6.3h-6.301z"/>
  <path d="m82.969 117.99h6.301v-6.3h-6.301z"/>
  <path d="m92.309 117.99h6.3v-6.3h-6.3z"/>
  <path d="m101.64 117.99h6.31v-6.3h-6.31z"/>
  <path d="m110.98 117.99h6.31v-6.3h-6.31z"/>
  <path d="m120.32 117.99h6.3v-6.3h-6.3z"/>
  <path d="m129.66 117.99h6.3v-6.3h-6.3z"/>
  <path d="m139 117.99h6.3v-6.3h-6.3z"/>
  <path d="m148.34 117.99h6.3v-6.3h-6.3z"/>
  <path d="m157.68 117.99h6.3v-6.3h-6.3z"/>
  <path d="m167.02 117.99h6.3v-6.3h-6.3z"/>
  <path d="m176.36 117.99h6.3v-6.3h-6.3z"/>
  <path d="m185.69 117.99h6.3v-6.3h-6.3z"/>
  <path d="m195.03 117.99h6.3v-6.3h-6.3z"/>
  <path d="m204.37 117.99h6.3v-6.3h-6.3z"/>
  <path d="m213.71 117.99h6.3v-6.3h-6.3z"/>
  <path d="m223.05 117.99h6.3v-6.3h-6.3z"/>
  <path d="m232.39 117.99h6.3v-6.3h-6.3z"/>
  <path d="m241.72 117.99h6.3v-6.3h-6.3z"/>
  <path d="m251.06 117.99h6.3v-6.3h-6.3z"/>
  <path d="m260.4 117.99h6.3v-6.3h-6.3z"/>
  <path d="m45.613 127.23h6.301v-6.3h-6.301z"/>
  <path d="m54.953 127.23h6.301v-6.3h-6.301z"/>
  <path d="m64.293 127.23h6.301v-6.3h-6.301z"/>
  <path d="m73.629 127.23h6.301v-6.3h-6.301z"/>
  <path d="m82.969 127.23h6.301v-6.3h-6.301z"/>
  <path d="m92.309 127.23h6.3v-6.3h-6.3z"/>
  <path d="m101.64 127.23h6.31v-6.3h-6.31z"/>
  <path d="m110.98 127.23h6.31v-6.3h-6.31z"/>
  <path d="m120.32 127.23h6.3v-6.3h-6.3z"/>
  <path d="m129.66 127.23h6.3v-6.3h-6.3z"/>
  <path d="m139 127.23h6.3v-6.3h-6.3z"/>
  <path d="m148.34 127.23h6.3v-6.3h-6.3z"/>
  <path d="m157.68 127.23h6.3v-6.3h-6.3z"/>
  <path d="m167.02 127.23h6.3v-6.3h-6.3z"/>
  <path d="m176.36 127.23h6.3v-6.3h-6.3z"/>
  <path d="m185.69 127.23h6.3v-6.3h-6.3z"/>
  <path d="m195.03 127.23h6.3v-6.3h-6.3z"/>
  <path d="m204.37 127.23h6.3v-6.3h-6.3z"/>
  <path d="m213.71 127.23h6.3v-6.3h-6.3z"/>
  <path d="m223.05 127.23h6.3v-6.3h-6.3z"/>
  <path d="m232.39 127.23h6.3v-6.3h-6.3z"/>
  <path d="m241.72 127.23h6.3v-6.3h-6.3z"/>
  <path d="m251.06 127.23h6.3v-6.3h-6.3z"/>
  <path d="m260.4 127.23h6.3v-6.3h-6.3z"/>
  <path d="m45.613 136.48h6.301v-6.3h-6.301z"/>
  <path d="m54.953 136.48h6.301v-6.3h-6.301z"/>
  <path d="m64.293 136.48h6.301v-6.3h-6.301z"/>
  <path d="m73.629 136.48h6.301v-6.3h-6.301z"/>
  <path d="m82.969 136.48h6.301v-6.3h-6.301z"/>
  <path d="m92.309 136.48h6.3v-6.3h-6.3z"/>
  <path d="m101.64 136.48h6.31v-6.3h-6.31z"/>
  <path d="m110.98 136.48h6.31v-6.3h-6.31z"/>
  <path d="m120.32 136.48h6.3v-6.3h-6.3z"/>
  <path d="m129.66 136.48h6.3v-6.3h-6.3z"/>
  <path d="m139 136.48h6.3v-6.3h-6.3z"/>
  <path d="m148.34 136.48h6.3v-6.3h-6.3z"/>
  <path d="m157.68 136.48h6.3v-6.3h-6.3z"/>
  <path d="m167.02 136.48h6.3v-6.3h-6.3z"/>
  <path d="m176.36 136.48h6.3v-6.3h-6.3z"/>
  <path d="m185.69 136.48h6.3v-6.3h-6.3z"/>
  <path d="m195.03 136.48h6.3v-6.3h-6.3z"/>
  <path d="m204.37 136.48h6.3v-6.3h-6.3z"/>
  <path d="m213.71 136.48h6.3v-6.3h-6.3z"/>
  <path d="m223.05 136.48h6.3v-6.3h-6.3z"/>
  <path d="m232.39 136.48h6.3v-6.3h-6.3z"/>
  <path d="m241.72 136.48h6.3v-6.3h-6.3z"/>
  <path d="m251.06 136.48h6.3v-6.3h-6.3z"/>
  <path d="m260.4 136.48h6.3v-6.3h-6.3z"/>
  <path d="m45.613 145.72h6.301v-6.3h-6.301z"/>
  <path d="m54.953 145.72h6.301v-6.3h-6.301z"/>
  <path d="m64.293 145.72h6.301v-6.3h-6.301z"/>
  <path d="m73.629 145.72h6.301v-6.3h-6.301z"/>
  <path d="m82.969 145.72h6.301v-6.3h-6.301z"/>
  <path d="m92.309 145.72h6.3v-6.3h-6.3z"/>
  <path d="m101.64 145.72h6.31v-6.3h-6.31z"/>
  <path d="m110.98 145.72h6.31v-6.3h-6.31z"/>
  <path d="m120.32 145.72h6.3v-6.3h-6.3z"/>
  <path d="m129.66 145.72h6.3v-6.3h-6.3z"/>
  <path d="m139 145.72h6.3v-6.3h-6.3z"/>
  <path d="m148.34 145.72h6.3v-6.3h-6.3z"/>
  <path d="m157.68 145.72h6.3v-6.3h-6.3z"/>
  <path d="m167.02 145.72h6.3v-6.3h-6.3z"/>
  <path d="m176.36 145.72h6.3v-6.3h-6.3z"/>
  <path d="m185.69 145.72h6.3v-6.3h-6.3z"/>
  <path d="m195.03 145.72h6.3v-6.3h-6.3z"/>
  <path d="m204.37 145.72h6.3v-6.3h-6.3z"/>
  <path d="m213.71 145.72h6.3v-6.3h-6.3z"/>
  <path d="m223.05 145.72h6.3v-6.3h-6.3z"/>
  <path d="m232.39 145.72h6.3v-6.3h-6.3z"/>
  <path d="m241.72 145.72h6.3v-6.3h-6.3z"/>
  <path d="m251.06 145.72h6.3v-6.3h-6.3z"/>
  <path d="m260.4 145.72h6.3v-6.3h-6.3z"/>
  <path d="m45.613 154.97h6.301v-6.3h-6.301z"/>
  <path d="m54.953 154.97h6.301v-6.3h-6.301z"/>
  <path d="m64.293 154.97h6.301v-6.3h-6.301z"/>
  <path d="m73.629 154.97h6.301v-6.3h-6.301z"/>
  <path d="m82.969 154.97h6.301v-6.3h-6.301z"/>
  <path d="m92.309 154.97h6.3v-6.3h-6.3z"/>
  <path d="m101.64 154.97h6.31v-6.3h-6.31z"/>
  <path d="m110.98 154.97h6.31v-6.3h-6.31z"/>
  <path d="m120.32 154.97h6.3v-6.3h-6.3z"/>
  <path d="m129.66 154.97h6.3v-6.3h-6.3z"/>
  <path d="m139 154.97h6.3v-6.3h-6.3z"/>
  <path d="m148.34 154.97h6.3v-6.3h-6.3z"/>
  <path d="m157.68 154.97h6.3v-6.3h-6.3z"/>
  <path d="m167.02 154.97h6.3v-6.3h-6.3z"/>
  <path d="m176.36 154.97h6.3v-6.3h-6.3z"/>
  <path d="m185.69 154.97h6.3v-6.3h-6.3z"/>
  <path d="m195.03 154.97h6.3v-6.3h-6.3z"/>
  <path d="m204.37 154.97h6.3v-6.3h-6.3z"/>
  <path d="m213.71 154.97h6.3v-6.3h-6.3z"/>
  <path d="m223.05 154.97h6.3v-6.3h-6.3z"/>
  <path d="m232.39 154.97h6.3v-6.3h-6.3z"/>
  <path d="m241.72 154.97h6.3v-6.3h-6.3z"/>
  <path d="m251.06 154.97h6.3v-6.3h-6.3z"/>
  <path d="m260.4 154.97h6.3v-6.3h-6.3z"/>
  <path d="m45.613 164.21h6.301v-6.3h-6.301z"/>
  <path d="m54.953 164.21h6.301v-6.3h-6.301z"/>
  <path d="m64.293 164.21h6.301v-6.3h-6.301z"/>
  <path d="m73.629 164.21h6.301v-6.3h-6.301z"/>
  <path d="m82.969 164.21h6.301v-6.3h-6.301z"/>
  <path d="m92.309 164.21h6.3v-6.3h-6.3z"/>
  <path d="m101.64 164.21h6.31v-6.3h-6.31z"/>
  <path d="m110.98 164.21h6.31v-6.3h-6.31z"/>
  <path d="m120.32 164.21h6.3v-6.3h-6.3z"/>
  <path d="m129.66 164.21h6.3v-6.3h-6.3z"/>
  <path d="m139 164.21h6.3v-6.3h-6.3z"/>
  <path d="m148.34 164.21h6.3v-6.3h-6.3z"/>
  <path d="m157.68 164.21h6.3v-6.3h-6.3z"/>
  <path d="m167.02 164.21h6.3v-6.3h-6.3z"/>
  <path d="m176.36 164.21h6.3v-6.3h-6.3z"/>
  <path d="m185.69 164.21h6.3v-6.3h-6.3z"/>
  <path d="m195.03 164.21h6.3v-6.3h-6.3z"/>
  <path d="m204.37 164.21h6.3v-6.3h-6.3z"/>
  <path d="m213.71 164.21h6.3v-6.3h-6.3z"/>
  <path d="m223.05 164.21h6.3v-6.3h-6.3z"/>
  <path d="m232.39 164.21h6.3v-6.3h-6.3z"/>
  <path d="m241.72 164.21h6.3v-6.3h-6.3z"/>
  <path d="m251.06 164.21h6.3v-6.3h-6.3z"/>
  <path d="m260.4 164.21h6.3v-6.3h-6.3z"/>
  <path d="m45.613 173.46h6.301v-6.3h-6.301z"/>
  <path d="m54.953 173.46h6.301v-6.3h-6.301z"/>
  <path d="m64.293 173.46h6.301v-6.3h-6.301z"/>
  <path d="m73.629 173.46h6.301v-6.3h-6.301z"/>
  <path d="m82.969 173.46h6.301v-6.3h-6.301z"/>
  <path d="m92.309 173.46h6.3v-6.3h-6.3z"/>
  <path d="m101.64 173.46h6.31v-6.3h-6.31z"/>
  <path d="m110.98 173.46h6.31v-6.3h-6.31z"/>
  <path d="m120.32 173.46h6.3v-6.3h-6.3z"/>
  <path d="m129.66 173.46h6.3v-6.3h-6.3z"/>
  <path d="m139 173.46h6.3v-6.3h-6.3z"/>
  <path d="m148.34 173.46h6.3v-6.3h-6.3z"/>
  <path d="m157.68 173.46h6.3v-6.3h-6.3z"/>
  <path d="m167.02 173.46h6.3v-6.3h-6.3z"/>
  <path d="m176.36 173.46h6.3v-6.3h-6.3z"/>
  <path d="m185.69 173.46h6.3v-6.3h-6.3z"/>
  <path d="m195.03 173.46h6.3v-6.3h-6.3z"/>
  <path d="m204.37 173.46h6.3v-6.3h-6.3z"/>
  <path d="m213.71 173.46h6.3v-6.3h-6.3z"/>
  <path d="m223.05 173.46h6.3v-6.3h-6.3z"/>
  <path d="m232.39 173.46h6.3v-6.3h-6.3z"/>
  <path d="m241.72 173.46h6.3v-6.3h-6.3z"/>
  <path d="m251.06 173.46h6.3v-6.3h-6.3z"/>
  <path d="m260.4 173.46h6.3v-6.3h-6.3z"/>
  <path d="m45.613 182.7h6.301v-6.3h-6.301z"/>
  <path d="m54.953 182.7h6.301v-6.3h-6.301z"/>
  <path d="m64.293 182.7h6.301v-6.3h-6.301z"/>
  <path d="m73.629 182.7h6.301v-6.3h-6.301z"/>
  <path d="m82.969 182.7h6.301v-6.3h-6.301z"/>
  <path d="m92.309 182.7h6.3v-6.3h-6.3z"/>
  <path d="m101.64 182.7h6.31v-6.3h-6.31z"/>
  <path d="m110.98 182.7h6.31v-6.3h-6.31z"/>
  <path d="m120.32 182.7h6.3v-6.3h-6.3z"/>
  <path d="m129.66 182.7h6.3v-6.3h-6.3z"/>
  <path d="m139 182.7h6.3v-6.3h-6.3z"/>
  <path d="m148.34 182.7h6.3v-6.3h-6.3z"/>
  <path d="m157.68 182.7h6.3v-6.3h-6.3z"/>
  <path d="m167.02 182.7h6.3v-6.3h-6.3z"/>
  <path d="m176.36 182.7h6.3v-6.3h-6.3z"/>
  <path d="m185.69 182.7h6.3v-6.3h-6.3z"/>
  <path d="m195.03 182.7h6.3v-6.3h-6.3z"/>
  <path d="m204.37 182.7h6.3v-6.3h-6.3z"/>
  <path d="m213.71 182.7h6.3v-6.3h-6.3z"/>
  <path d="m223.05 182.7h6.3v-6.3h-6.3z"/>
  <path d="m232.39 182.7h6.3v-6.3h-6.3z"/>
  <path d="m241.72 182.7h6.3v-6.3h-6.3z"/>
  <path d="m251.06 182.7h6.3v-6.3h-6.3z"/>
  <path d="m260.4 182.7h6.3v-6.3h-6.3z"/>
  <path d="m45.613 191.95h6.301v-6.31h-6.301z"/>
  <path d="m54.953 191.95h6.301v-6.31h-6.301z"/>
  <path d="m64.293 191.95h6.301v-6.31h-6.301z"/>
  <path d="m73.629 191.95h6.301v-6.31h-6.301z"/>
  <path d="m82.969 191.95h6.301v-6.31h-6.301z"/>
  <path d="m92.309 191.95h6.3v-6.31h-6.3z"/>
  <path d="m101.64 191.95h6.31v-6.31h-6.31z"/>
  <path d="m110.98 191.95h6.31v-6.31h-6.31z"/>
  <path d="m120.32 191.95h6.3v-6.31h-6.3z"/>
  <path d="m129.66 191.95h6.3v-6.31h-6.3z"/>
  <path d="m139 191.95h6.3v-6.31h-6.3z"/>
  <path d="m148.34 191.95h6.3v-6.31h-6.3z"/>
  <path d="m157.68 191.95h6.3v-6.31h-6.3z"/>
  <path d="m167.02 191.95h6.3v-6.31h-6.3z"/>
  <path d="m176.36 191.95h6.3v-6.31h-6.3z"/>
  <path d="m185.69 191.95h6.3v-6.31h-6.3z"/>
  <path d="m195.03 191.95h6.3v-6.31h-6.3z"/>
  <path d="m204.37 191.95h6.3v-6.31h-6.3z"/>
  <path d="m213.71 191.95h6.3v-6.31h-6.3z"/>
  <path d="m223.05 191.95h6.3v-6.31h-6.3z"/>
  <path d="m232.39 191.95h6.3v-6.31h-6.3z"/>
  <path d="m241.72 191.95h6.3v-6.31h-6.3z"/>
  <path d="m251.06 191.95h6.3v-6.31h-6.3z"/>
  <path d="m260.4 191.95h6.3v-6.31h-6.3z"/>
  <path d="m45.613 201.19h6.301v-6.3h-6.301z"/>
  <path d="m54.953 201.19h6.301v-6.3h-6.301z"/>
  <path d="m64.293 201.19h6.301v-6.3h-6.301z"/>
  <path d="m73.629 201.19h6.301v-6.3h-6.301z"/>
  <path d="m82.969 201.19h6.301v-6.3h-6.301z"/>
  <path d="m92.309 201.19h6.3v-6.3h-6.3z"/>
  <path d="m101.64 201.19h6.31v-6.3h-6.31z"/>
  <path d="m110.98 201.19h6.31v-6.3h-6.31z"/>
  <path d="m120.32 201.19h6.3v-6.3h-6.3z"/>
  <path d="m129.66 201.19h6.3v-6.3h-6.3z"/>
  <path d="m139 201.19h6.3v-6.3h-6.3z"/>
  <path d="m148.34 201.19h6.3v-6.3h-6.3z"/>
  <path d="m157.68 201.19h6.3v-6.3h-6.3z"/>
  <path d="m167.02 201.19h6.3v-6.3h-6.3z"/>
  <path d="m176.36 201.19h6.3v-6.3h-6.3z"/>
  <path d="m185.69 201.19h6.3v-6.3h-6.3z"/>
  <path d="m195.03 201.19h6.3v-6.3h-6.3z"/>
  <path d="m204.37 201.19h6.3v-6.3h-6.3z"/>
  <path d="m213.71 201.19h6.3v-6.3h-6.3z"/>
  <path d="m223.05 201.19h6.3v-6.3h-6.3z"/>
  <path d="m232.39 201.19h6.3v-6.3h-6.3z"/>
  <path d="m241.72 201.19h6.3v-6.3h-6.3z"/>
  <path d="m251.06 201.19h6.3v-6.3h-6.3z"/>
  <path d="m260.4 201.19h6.3v-6.3h-6.3z"/>
  <path d="m45.613 210.43h6.301v-6.3h-6.301z"/>
  <path d="m54.953 210.43h6.301v-6.3h-6.301z"/>
  <path d="m64.293 210.43h6.301v-6.3h-6.301z"/>
  <path d="m73.629 210.43h6.301v-6.3h-6.301z"/>
  <path d="m82.969 210.43h6.301v-6.3h-6.301z"/>
  <path d="m92.309 210.43h6.3v-6.3h-6.3z"/>
  <path d="m101.64 210.43h6.31v-6.3h-6.31z"/>
  <path d="m110.98 210.43h6.31v-6.3h-6.31z"/>
  <path d="m120.32 210.43h6.3v-6.3h-6.3z"/>
  <path d="m129.66 210.43h6.3v-6.3h-6.3z"/>
  <path d="m139 210.43h6.3v-6.3h-6.3z"/>
  <path d="m148.34 210.43h6.3v-6.3h-6.3z"/>
  <path d="m157.68 210.43h6.3v-6.3h-6.3z"/>
  <path d="m167.02 210.43h6.3v-6.3h-6.3z"/>
  <path d="m176.36 210.43h6.3v-6.3h-6.3z"/>
  <path d="m185.69 210.43h6.3v-6.3h-6.3z"/>
  <path d="m195.03 210.43h6.3v-6.3h-6.3z"/>
  <path d="m204.37 210.43h6.3v-6.3h-6.3z"/>
  <path d="m213.71 210.43h6.3v-6.3h-6.3z"/>
  <path d="m223.05 210.43h6.3v-6.3h-6.3z"/>
  <path d="m232.39 210.43h6.3v-6.3h-6.3z"/>
  <path d="m241.72 210.43h6.3v-6.3h-6.3z"/>
  <path d="m251.06 210.43h6.3v-6.3h-6.3z"/>
  <path d="m260.4 210.43h6.3v-6.3h-6.3z"/>
  <path d="m45.613 219.68h6.301v-6.3h-6.301z"/>
  <path d="m54.953 219.68h6.301v-6.3h-6.301z"/>
  <path d="m64.293 219.68h6.301v-6.3h-6.301z"/>
  <path d="m73.629 219.68h6.301v-6.3h-6.301z"/>
  <path d="m82.969 219.68h6.301v-6.3h-6.301z"/>
  <path d="m92.309 219.68h6.3v-6.3h-6.3z"/>
  <path d="m101.64 219.68h6.31v-6.3h-6.31z"/>
  <path d="m110.98 219.68h6.31v-6.3h-6.31z"/>
  <path d="m120.32 219.68h6.3v-6.3h-6.3z"/>
  <path d="m129.66 219.68h6.3v-6.3h-6.3z"/>
  <path d="m139 219.68h6.3v-6.3h-6.3z"/>
  <path d="m148.34 219.68h6.3v-6.3h-6.3z"/>
  <path d="m157.68 219.68h6.3v-6.3h-6.3z"/>
  <path d="m167.02 219.68h6.3v-6.3h-6.3z"/>
  <path d="m176.36 219.68h6.3v-6.3h-6.3z"/>
  <path d="m185.69 219.68h6.3v-6.3h-6.3z"/>
  <path d="m195.03 219.68h6.3v-6.3h-6.3z"/>
  <path d="m204.37 219.68h6.3v-6.3h-6.3z"/>
  <path d="m213.71 219.68h6.3v-6.3h-6.3z"/>
  <path d="m223.05 219.68h6.3v-6.3h-6.3z"/>
  <path d="m232.39 219.68h6.3v-6.3h-6.3z"/>
  <path d="m241.72 219.68h6.3v-6.3h-6.3z"/>
  <path d="m251.06 219.68h6.3v-6.3h-6.3z"/>
  <path d="m260.4 219.68h6.3v-6.3h-6.3z"/>
  <path d="m45.613 228.92h6.301v-6.3h-6.301z"/>
  <path d="m54.953 228.92h6.301v-6.3h-6.301z"/>
  <path d="m64.293 228.92h6.301v-6.3h-6.301z"/>
  <path d="m73.629 228.92h6.301v-6.3h-6.301z"/>
  <path d="m82.969 228.92h6.301v-6.3h-6.301z"/>
  <path d="m92.309 228.92h6.3v-6.3h-6.3z"/>
  <path d="m101.64 228.92h6.31v-6.3h-6.31z"/>
  <path d="m110.98 228.92h6.31v-6.3h-6.31z"/>
  <path d="m120.32 228.92h6.3v-6.3h-6.3z"/>
  <path d="m129.66 228.92h6.3v-6.3h-6.3z"/>
  <path d="m139 228.92h6.3v-6.3h-6.3z"/>
  <path d="m148.34 228.92h6.3v-6.3h-6.3z"/>
  <path d="m157.68 228.92h6.3v-6.3h-6.3z"/>
  <path d="m167.02 228.92h6.3v-6.3h-6.3z"/>
  <path d="m176.36 228.92h6.3v-6.3h-6.3z"/>
  <path d="m185.69 228.92h6.3v-6.3h-6.3z"/>
  <path d="m195.03 228.92h6.3v-6.3h-6.3z"/>
  <path d="m204.37 228.92h6.3v-6.3h-6.3z"/>
  <path d="m213.71 228.92h6.3v-6.3h-6.3z"/>
  <path d="m223.05 228.92h6.3v-6.3h-6.3z"/>
  <path d="m232.39 228.92h6.3v-6.3h-6.3z"/>
  <path d="m241.72 228.92h6.3v-6.3h-6.3z"/>
  <path d="m251.06 228.92h6.3v-6.3h-6.3z"/>
  <path d="m260.4 228.92h6.3v-6.3h-6.3z"/>
  <path d="m45.613 238.17h6.301v-6.3h-6.301z"/>
  <path d="m54.953 238.17h6.301v-6.3h-6.301z"/>
  <path d="m64.293 238.17h6.301v-6.3h-6.301z"/>
  <path d="m73.629 238.17h6.301v-6.3h-6.301z"/>
  <path d="m82.969 238.17h6.301v-6.3h-6.301z"/>
  <path d="m92.309 238.17h6.3v-6.3h-6.3z"/>
  <path d="m101.64 238.17h6.31v-6.3h-6.31z"/>
  <path d="m110.98 238.17h6.31v-6.3h-6.31z"/>
  <path d="m120.32 238.17h6.3v-6.3h-6.3z"/>
  <path d="m129.66 238.17h6.3v-6.3h-6.3z"/>
  <path d="m139 238.17h6.3v-6.3h-6.3z"/>
  <path d="m148.34 238.17h6.3v-6.3h-6.3z"/>
  <path d="m157.68 238.17h6.3v-6.3h-6.3z"/>
  <path d="m167.02 238.17h6.3v-6.3h-6.3z"/>
  <path d="m176.36 238.17h6.3v-6.3h-6.3z"/>
  <path d="m185.69 238.17h6.3v-6.3h-6.3z"/>
  <path d="m195.03 238.17h6.3v-6.3h-6.3z"/>
  <path d="m204.37 238.17h6.3v-6.3h-6.3z"/>
  <path d="m213.71 238.17h6.3v-6.3h-6.3z"/>
  <path d="m223.05 238.17h6.3v-6.3h-6.3z"/>
  <path d="m232.39 238.17h6.3v-6.3h-6.3z"/>
  <path d="m241.72 238.17h6.3v-6.3h-6.3z"/>
  <path d="m251.06 238.17h6.3v-6.3h-6.3z"/>
  <path d="m260.4 238.17h6.3v-6.3h-6.3z"/>
  <path d="m45.613 247.41h6.301v-6.3h-6.301z"/>
  <path d="m54.953 247.41h6.301v-6.3h-6.301z"/>
  <path d="m64.293 247.41h6.301v-6.3h-6.301z"/>
  <path d="m73.629 247.41h6.301v-6.3h-6.301z"/>
  <path d="m82.969 247.41h6.301v-6.3h-6.301z"/>
  <path d="m92.309 247.41h6.3v-6.3h-6.3z"/>
  <path d="m101.64 247.41h6.31v-6.3h-6.31z"/>
  <path d="m110.98 247.41h6.31v-6.3h-6.31z"/>
  <path d="m120.32 247.41h6.3v-6.3h-6.3z"/>
  <path d="m129.66 247.41h6.3v-6.3h-6.3z"/>
  <path d="m139 247.41h6.3v-6.3h-6.3z"/>
  <path d="m148.34 247.41h6.3v-6.3h-6.3z"/>
  <path d="m157.68 247.41h6.3v-6.3h-6.3z"/>
  <path d="m167.02 247.41h6.3v-6.3h-6.3z"/>
  <path d="m176.36 247.41h6.3v-6.3h-6.3z"/>
  <path d="m185.69 247.41h6.3v-6.3h-6.3z"/>
  <path d="m195.03 247.41h6.3v-6.3h-6.3z"/>
  <path d="m204.37 247.41h6.3v-6.3h-6.3z"/>
  <path d="m213.71 247.41h6.3v-6.3h-6.3z"/>
  <path d="m223.05 247.41h6.3v-6.3h-6.3z"/>
  <path d="m232.39 247.41h6.3v-6.3h-6.3z"/>
  <path d="m241.72 247.41h6.3v-6.3h-6.3z"/>
  <path d="m251.06 247.41h6.3v-6.3h-6.3z"/>
  <path d="m260.4 247.41h6.3v-6.3h-6.3z"/>
  <path d="m45.613 256.66h6.301v-6.3h-6.301z"/>
  <path d="m54.953 256.66h6.301v-6.3h-6.301z"/>
  <path d="m64.293 256.66h6.301v-6.3h-6.301z"/>
  <path d="m73.629 256.66h6.301v-6.3h-6.301z"/>
  <path d="m82.969 256.66h6.301v-6.3h-6.301z"/>
  <path d="m92.309 256.66h6.3v-6.3h-6.3z"/>
  <path d="m101.64 256.66h6.31v-6.3h-6.31z"/>
  <path d="m110.98 256.66h6.31v-6.3h-6.31z"/>
  <path d="m120.32 256.66h6.3v-6.3h-6.3z"/>
  <path d="m129.66 256.66h6.3v-6.3h-6.3z"/>
  <path d="m139 256.66h6.3v-6.3h-6.3z"/>
  <path d="m148.34 256.66h6.3v-6.3h-6.3z"/>
  <path d="m157.68 256.66h6.3v-6.3h-6.3z"/>
  <path d="m167.02 256.66h6.3v-6.3h-6.3z"/>
  <path d="m176.36 256.66h6.3v-6.3h-6.3z"/>
  <path d="m185.69 256.66h6.3v-6.3h-6.3z"/>
  <path d="m195.03 256.66h6.3v-6.3h-6.3z"/>
  <path d="m204.37 256.66h6.3v-6.3h-6.3z"/>
  <path d="m213.71 256.66h6.3v-6.3h-6.3z"/>
  <path d="m223.05 256.66h6.3v-6.3h-6.3z"/>
  <path d="m232.39 256.66h6.3v-6.3h-6.3z"/>
  <path d="m241.72 256.66h6.3v-6.3h-6.3z"/>
  <path d="m251.06 256.66h6.3v-6.3h-6.3z"/>
  <path d="m260.4 256.66h6.3v-6.3h-6.3z"/>
 </g>
 <g stroke-linejoin="round" stroke="#333" stroke-linecap="round" stroke-miterlimit="10" stroke-width=".70866" fill="#00bfc3">
  <path d="m43.723 119.88h10.082v-10.08h-10.082z"/>
  <path d="m53.062 119.88h10.083v-10.08h-10.083z"/>
  <path d="m62.402 119.88h10.082v-10.08h-10.082z"/>
  <path d="m71.738 119.88h10.082v-10.08h-10.082z"/>
  <path d="m81.078 119.88h10.082v-10.08h-10.082z"/>
  <path d="m90.418 119.88h10.082v-10.08h-10.082z"/>
  <path d="m99.754 119.88h10.086v-10.08h-10.086z"/>
  <path d="m109.09 119.88h10.09v-10.08h-10.09z"/>
  <path d="m43.723 138.37h10.082v-10.08h-10.082z"/>
  <path d="m53.062 138.37h10.083v-10.08h-10.083z"/>
  <path d="m62.402 138.37h10.082v-10.08h-10.082z"/>
  <path d="m71.738 138.37h10.082v-10.08h-10.082z"/>
  <path d="m81.078 138.37h10.082v-10.08h-10.082z"/>
  <path d="m90.418 138.37h10.082v-10.08h-10.082z"/>
  <path d="m99.754 138.37h10.086v-10.08h-10.086z"/>
  <path d="m109.09 138.37h10.09v-10.08h-10.09z"/>
  <path d="m43.723 156.86h10.082v-10.08h-10.082z"/>
  <path d="m53.062 156.86h10.083v-10.08h-10.083z"/>
  <path d="m62.402 156.86h10.082v-10.08h-10.082z"/>
  <path d="m71.738 156.86h10.082v-10.08h-10.082z"/>
  <path d="m81.078 156.86h10.082v-10.08h-10.082z"/>
  <path d="m90.418 156.86h10.082v-10.08h-10.082z"/>
  <path d="m99.754 156.86h10.086v-10.08h-10.086z"/>
  <path d="m109.09 156.86h10.09v-10.08h-10.09z"/>
  <path d="m43.723 175.35h10.082v-10.08h-10.082z"/>
  <path d="m53.062 175.35h10.083v-10.08h-10.083z"/>
  <path d="m62.402 175.35h10.082v-10.08h-10.082z"/>
  <path d="m71.738 175.35h10.082v-10.08h-10.082z"/>
  <path d="m81.078 175.35h10.082v-10.08h-10.082z"/>
  <path d="m90.418 175.35h10.082v-10.08h-10.082z"/>
  <path d="m99.754 175.35h10.086v-10.08h-10.086z"/>
  <path d="m109.09 175.35h10.09v-10.08h-10.09z"/>
  <path d="m43.723 193.84h10.082v-10.09h-10.082z"/>
  <path d="m53.062 193.84h10.083v-10.09h-10.083z"/>
  <path d="m62.402 193.84h10.082v-10.09h-10.082z"/>
  <path d="m71.738 193.84h10.082v-10.09h-10.082z"/>
  <path d="m81.078 193.84h10.082v-10.09h-10.082z"/>
  <path d="m90.418 193.84h10.082v-10.09h-10.082z"/>
  <path d="m99.754 193.84h10.086v-10.09h-10.086z"/>
  <path d="m109.09 193.84h10.09v-10.09h-10.09z"/>
  <path d="m43.723 212.32h10.082v-10.08h-10.082z"/>
  <path d="m53.062 212.32h10.083v-10.08h-10.083z"/>
  <path d="m62.402 212.32h10.082v-10.08h-10.082z"/>
  <path d="m71.738 212.32h10.082v-10.08h-10.082z"/>
  <path d="m81.078 212.32h10.082v-10.08h-10.082z"/>
  <path d="m90.418 212.32h10.082v-10.08h-10.082z"/>
  <path d="m99.754 212.32h10.086v-10.08h-10.086z"/>
  <path d="m109.09 212.32h10.09v-10.08h-10.09z"/>
  <path d="m43.723 230.81h10.082v-10.08h-10.082z"/>
  <path d="m53.062 230.81h10.083v-10.08h-10.083z"/>
  <path d="m62.402 230.81h10.082v-10.08h-10.082z"/>
  <path d="m71.738 230.81h10.082v-10.08h-10.082z"/>
  <path d="m81.078 230.81h10.082v-10.08h-10.082z"/>
  <path d="m90.418 230.81h10.082v-10.08h-10.082z"/>
  <path d="m99.754 230.81h10.086v-10.08h-10.086z"/>
  <path d="m109.09 230.81h10.09v-10.08h-10.09z"/>
  <path d="m43.723 249.3h10.082v-10.08h-10.082z"/>
  <path d="m53.062 249.3h10.083v-10.08h-10.083z"/>
  <path d="m62.402 249.3h10.082v-10.08h-10.082z"/>
  <path d="m71.738 249.3h10.082v-10.08h-10.082z"/>
  <path d="m81.078 249.3h10.082v-10.08h-10.082z"/>
  <path d="m90.418 249.3h10.082v-10.08h-10.082z"/>
  <path d="m99.754 249.3h10.086v-10.08h-10.086z"/>
  <path d="m109.09 249.3h10.09v-10.08h-10.09z"/>
 </g>
 <g stroke-linejoin="round" stroke="#333" stroke-linecap="round" stroke-miterlimit="10" stroke-width=".70866" fill="#b79e00">
  <path d="m43.723 129.12h10.082v-10.08h-10.082z"/>
  <path d="m53.062 129.12h10.083v-10.08h-10.083z"/>
  <path d="m62.402 129.12h10.082v-10.08h-10.082z"/>
  <path d="m71.738 129.12h10.082v-10.08h-10.082z"/>
  <path d="m81.078 129.12h10.082v-10.08h-10.082z"/>
  <path d="m90.418 129.12h10.082v-10.08h-10.082z"/>
  <path d="m99.754 129.12h10.086v-10.08h-10.086z"/>
  <path d="m109.09 129.12h10.09v-10.08h-10.09z"/>
  <path d="m43.723 147.62h10.082v-10.08h-10.082z"/>
  <path d="m53.062 147.62h10.083v-10.08h-10.083z"/>
  <path d="m62.402 147.62h10.082v-10.08h-10.082z"/>
  <path d="m71.738 147.62h10.082v-10.08h-10.082z"/>
  <path d="m81.078 147.62h10.082v-10.08h-10.082z"/>
  <path d="m90.418 147.62h10.082v-10.08h-10.082z"/>
  <path d="m99.754 147.62h10.086v-10.08h-10.086z"/>
  <path d="m109.09 147.62h10.09v-10.08h-10.09z"/>
  <path d="m43.723 166.11h10.082v-10.09h-10.082z"/>
  <path d="m53.062 166.11h10.083v-10.09h-10.083z"/>
  <path d="m62.402 166.11h10.082v-10.09h-10.082z"/>
  <path d="m71.738 166.11h10.082v-10.09h-10.082z"/>
  <path d="m81.078 166.11h10.082v-10.09h-10.082z"/>
  <path d="m90.418 166.11h10.082v-10.09h-10.082z"/>
  <path d="m99.754 166.11h10.086v-10.09h-10.086z"/>
  <path d="m109.09 166.11h10.09v-10.09h-10.09z"/>
  <path d="m43.723 184.59h10.082v-10.08h-10.082z"/>
  <path d="m53.062 184.59h10.083v-10.08h-10.083z"/>
  <path d="m62.402 184.59h10.082v-10.08h-10.082z"/>
  <path d="m71.738 184.59h10.082v-10.08h-10.082z"/>
  <path d="m81.078 184.59h10.082v-10.08h-10.082z"/>
  <path d="m90.418 184.59h10.082v-10.08h-10.082z"/>
  <path d="m99.754 184.59h10.086v-10.08h-10.086z"/>
  <path d="m109.09 184.59h10.09v-10.08h-10.09z"/>
  <path d="m43.723 203.08h10.082v-10.08h-10.082z"/>
  <path d="m53.062 203.08h10.083v-10.08h-10.083z"/>
  <path d="m62.402 203.08h10.082v-10.08h-10.082z"/>
  <path d="m71.738 203.08h10.082v-10.08h-10.082z"/>
  <path d="m81.078 203.08h10.082v-10.08h-10.082z"/>
  <path d="m90.418 203.08h10.082v-10.08h-10.082z"/>
  <path d="m99.754 203.08h10.086v-10.08h-10.086z"/>
  <path d="m109.09 203.08h10.09v-10.08h-10.09z"/>
  <path d="m43.723 221.57h10.082v-10.08h-10.082z"/>
  <path d="m53.062 221.57h10.083v-10.08h-10.083z"/>
  <path d="m62.402 221.57h10.082v-10.08h-10.082z"/>
  <path d="m71.738 221.57h10.082v-10.08h-10.082z"/>
  <path d="m81.078 221.57h10.082v-10.08h-10.082z"/>
  <path d="m90.418 221.57h10.082v-10.08h-10.082z"/>
  <path d="m99.754 221.57h10.086v-10.08h-10.086z"/>
  <path d="m109.09 221.57h10.09v-10.08h-10.09z"/>
  <path d="m43.723 240.06h10.082v-10.08h-10.082z"/>
  <path d="m53.062 240.06h10.083v-10.08h-10.083z"/>
  <path d="m62.402 240.06h10.082v-10.08h-10.082z"/>
  <path d="m71.738 240.06h10.082v-10.08h-10.082z"/>
  <path d="m81.078 240.06h10.082v-10.08h-10.082z"/>
  <path d="m90.418 240.06h10.082v-10.08h-10.082z"/>
  <path d="m99.754 240.06h10.086v-10.08h-10.086z"/>
  <path d="m109.09 240.06h10.09v-10.08h-10.09z"/>
  <path d="m43.723 258.55h10.082v-10.09h-10.082z"/>
  <path d="m53.062 258.55h10.083v-10.09h-10.083z"/>
  <path d="m62.402 258.55h10.082v-10.09h-10.082z"/>
  <path d="m71.738 258.55h10.082v-10.09h-10.082z"/>
  <path d="m81.078 258.55h10.082v-10.09h-10.082z"/>
  <path d="m90.418 258.55h10.082v-10.09h-10.082z"/>
  <path d="m99.754 258.55h10.086v-10.09h-10.086z"/>
  <path d="m109.09 258.55h10.09v-10.09h-10.09z"/>
 </g>
 <g stroke-linejoin="round" stroke="#333" stroke-linecap="round" stroke-miterlimit="10" stroke-width=".70866" fill="#f8766c">
  <path d="m118.43 119.88h10.09v-10.08h-10.09z"/>
  <path d="m127.77 119.88h10.08v-10.08h-10.08z"/>
  <path d="m137.11 119.88h10.08v-10.08h-10.08z"/>
  <path d="m146.45 119.88h10.08v-10.08h-10.08z"/>
  <path d="m155.79 119.88h10.08v-10.08h-10.08z"/>
  <path d="m165.12 119.88h10.09v-10.08h-10.09z"/>
  <path d="m174.46 119.88h10.09v-10.08h-10.09z"/>
  <path d="m183.8 119.88h10.08v-10.08h-10.08z"/>
  <path d="m118.43 138.37h10.09v-10.08h-10.09z"/>
  <path d="m127.77 138.37h10.08v-10.08h-10.08z"/>
  <path d="m137.11 138.37h10.08v-10.08h-10.08z"/>
  <path d="m146.45 138.37h10.08v-10.08h-10.08z"/>
  <path d="m155.79 138.37h10.08v-10.08h-10.08z"/>
  <path d="m165.12 138.37h10.09v-10.08h-10.09z"/>
  <path d="m174.46 138.37h10.09v-10.08h-10.09z"/>
  <path d="m183.8 138.37h10.08v-10.08h-10.08z"/>
  <path d="m118.43 156.86h10.09v-10.08h-10.09z"/>
  <path d="m127.77 156.86h10.08v-10.08h-10.08z"/>
  <path d="m137.11 156.86h10.08v-10.08h-10.08z"/>
  <path d="m146.45 156.86h10.08v-10.08h-10.08z"/>
  <path d="m155.79 156.86h10.08v-10.08h-10.08z"/>
  <path d="m165.12 156.86h10.09v-10.08h-10.09z"/>
  <path d="m174.46 156.86h10.09v-10.08h-10.09z"/>
  <path d="m183.8 156.86h10.08v-10.08h-10.08z"/>
  <path d="m118.43 175.35h10.09v-10.08h-10.09z"/>
  <path d="m127.77 175.35h10.08v-10.08h-10.08z"/>
  <path d="m137.11 175.35h10.08v-10.08h-10.08z"/>
  <path d="m146.45 175.35h10.08v-10.08h-10.08z"/>
  <path d="m155.79 175.35h10.08v-10.08h-10.08z"/>
  <path d="m165.12 175.35h10.09v-10.08h-10.09z"/>
  <path d="m174.46 175.35h10.09v-10.08h-10.09z"/>
  <path d="m183.8 175.35h10.08v-10.08h-10.08z"/>
  <path d="m118.43 193.84h10.09v-10.09h-10.09z"/>
  <path d="m127.77 193.84h10.08v-10.09h-10.08z"/>
  <path d="m137.11 193.84h10.08v-10.09h-10.08z"/>
  <path d="m146.45 193.84h10.08v-10.09h-10.08z"/>
  <path d="m155.79 193.84h10.08v-10.09h-10.08z"/>
  <path d="m165.12 193.84h10.09v-10.09h-10.09z"/>
  <path d="m174.46 193.84h10.09v-10.09h-10.09z"/>
  <path d="m183.8 193.84h10.08v-10.09h-10.08z"/>
  <path d="m118.43 212.32h10.09v-10.08h-10.09z"/>
  <path d="m127.77 212.32h10.08v-10.08h-10.08z"/>
  <path d="m137.11 212.32h10.08v-10.08h-10.08z"/>
  <path d="m146.45 212.32h10.08v-10.08h-10.08z"/>
  <path d="m155.79 212.32h10.08v-10.08h-10.08z"/>
  <path d="m165.12 212.32h10.09v-10.08h-10.09z"/>
  <path d="m174.46 212.32h10.09v-10.08h-10.09z"/>
  <path d="m183.8 212.32h10.08v-10.08h-10.08z"/>
  <path d="m118.43 230.81h10.09v-10.08h-10.09z"/>
  <path d="m127.77 230.81h10.08v-10.08h-10.08z"/>
  <path d="m137.11 230.81h10.08v-10.08h-10.08z"/>
  <path d="m146.45 230.81h10.08v-10.08h-10.08z"/>
  <path d="m155.79 230.81h10.08v-10.08h-10.08z"/>
  <path d="m165.12 230.81h10.09v-10.08h-10.09z"/>
  <path d="m174.46 230.81h10.09v-10.08h-10.09z"/>
  <path d="m183.8 230.81h10.08v-10.08h-10.08z"/>
  <path d="m118.43 249.3h10.09v-10.08h-10.09z"/>
  <path d="m127.77 249.3h10.08v-10.08h-10.08z"/>
  <path d="m137.11 249.3h10.08v-10.08h-10.08z"/>
  <path d="m146.45 249.3h10.08v-10.08h-10.08z"/>
  <path d="m155.79 249.3h10.08v-10.08h-10.08z"/>
  <path d="m165.12 249.3h10.09v-10.08h-10.09z"/>
  <path d="m174.46 249.3h10.09v-10.08h-10.09z"/>
  <path d="m183.8 249.3h10.08v-10.08h-10.08z"/>
 </g>
 <g stroke-linejoin="round" stroke="#333" stroke-linecap="round" stroke-miterlimit="10" stroke-width=".70866" fill="#f463e3">
  <path d="m118.43 129.12h10.09v-10.08h-10.09z"/>
  <path d="m127.77 129.12h10.08v-10.08h-10.08z"/>
  <path d="m137.11 129.12h10.08v-10.08h-10.08z"/>
  <path d="m146.45 129.12h10.08v-10.08h-10.08z"/>
  <path d="m155.79 129.12h10.08v-10.08h-10.08z"/>
  <path d="m165.12 129.12h10.09v-10.08h-10.09z"/>
  <path d="m174.46 129.12h10.09v-10.08h-10.09z"/>
  <path d="m183.8 129.12h10.08v-10.08h-10.08z"/>
  <path d="m118.43 147.62h10.09v-10.08h-10.09z"/>
  <path d="m127.77 147.62h10.08v-10.08h-10.08z"/>
  <path d="m137.11 147.62h10.08v-10.08h-10.08z"/>
  <path d="m146.45 147.62h10.08v-10.08h-10.08z"/>
  <path d="m155.79 147.62h10.08v-10.08h-10.08z"/>
  <path d="m165.12 147.62h10.09v-10.08h-10.09z"/>
  <path d="m174.46 147.62h10.09v-10.08h-10.09z"/>
  <path d="m183.8 147.62h10.08v-10.08h-10.08z"/>
  <path d="m118.43 166.11h10.09v-10.09h-10.09z"/>
  <path d="m127.77 166.11h10.08v-10.09h-10.08z"/>
  <path d="m137.11 166.11h10.08v-10.09h-10.08z"/>
  <path d="m146.45 166.11h10.08v-10.09h-10.08z"/>
  <path d="m155.79 166.11h10.08v-10.09h-10.08z"/>
  <path d="m165.12 166.11h10.09v-10.09h-10.09z"/>
  <path d="m174.46 166.11h10.09v-10.09h-10.09z"/>
  <path d="m183.8 166.11h10.08v-10.09h-10.08z"/>
  <path d="m118.43 184.59h10.09v-10.08h-10.09z"/>
  <path d="m127.77 184.59h10.08v-10.08h-10.08z"/>
  <path d="m137.11 184.59h10.08v-10.08h-10.08z"/>
  <path d="m146.45 184.59h10.08v-10.08h-10.08z"/>
  <path d="m155.79 184.59h10.08v-10.08h-10.08z"/>
  <path d="m165.12 184.59h10.09v-10.08h-10.09z"/>
  <path d="m174.46 184.59h10.09v-10.08h-10.09z"/>
  <path d="m183.8 184.59h10.08v-10.08h-10.08z"/>
  <path d="m118.43 203.08h10.09v-10.08h-10.09z"/>
  <path d="m127.77 203.08h10.08v-10.08h-10.08z"/>
  <path d="m137.11 203.08h10.08v-10.08h-10.08z"/>
  <path d="m146.45 203.08h10.08v-10.08h-10.08z"/>
  <path d="m155.79 203.08h10.08v-10.08h-10.08z"/>
  <path d="m165.12 203.08h10.09v-10.08h-10.09z"/>
  <path d="m174.46 203.08h10.09v-10.08h-10.09z"/>
  <path d="m183.8 203.08h10.08v-10.08h-10.08z"/>
  <path d="m118.43 221.57h10.09v-10.08h-10.09z"/>
  <path d="m127.77 221.57h10.08v-10.08h-10.08z"/>
  <path d="m137.11 221.57h10.08v-10.08h-10.08z"/>
  <path d="m146.45 221.57h10.08v-10.08h-10.08z"/>
  <path d="m155.79 221.57h10.08v-10.08h-10.08z"/>
  <path d="m165.12 221.57h10.09v-10.08h-10.09z"/>
  <path d="m174.46 221.57h10.09v-10.08h-10.09z"/>
  <path d="m183.8 221.57h10.08v-10.08h-10.08z"/>
  <path d="m118.43 240.06h10.09v-10.08h-10.09z"/>
  <path d="m127.77 240.06h10.08v-10.08h-10.08z"/>
  <path d="m137.11 240.06h10.08v-10.08h-10.08z"/>
  <path d="m146.45 240.06h10.08v-10.08h-10.08z"/>
  <path d="m155.79 240.06h10.08v-10.08h-10.08z"/>
  <path d="m165.12 240.06h10.09v-10.08h-10.09z"/>
  <path d="m174.46 240.06h10.09v-10.08h-10.09z"/>
  <path d="m183.8 240.06h10.08v-10.08h-10.08z"/>
  <path d="m118.43 258.55h10.09v-10.09h-10.09z"/>
  <path d="m127.77 258.55h10.08v-10.09h-10.08z"/>
  <path d="m137.11 258.55h10.08v-10.09h-10.08z"/>
  <path d="m146.45 258.55h10.08v-10.09h-10.08z"/>
  <path d="m155.79 258.55h10.08v-10.09h-10.08z"/>
  <path d="m165.12 258.55h10.09v-10.09h-10.09z"/>
  <path d="m174.46 258.55h10.09v-10.09h-10.09z"/>
  <path d="m183.8 258.55h10.08v-10.09h-10.08z"/>
 </g>
 <g stroke-linejoin="round" stroke="#333" stroke-linecap="round" stroke-miterlimit="10" stroke-width=".70866" fill="#00b937">
  <path d="m193.14 119.88h10.08v-10.08h-10.08z"/>
  <path d="m202.48 119.88h10.08v-10.08h-10.08z"/>
  <path d="m211.82 119.88h10.08v-10.08h-10.08z"/>
  <path d="m221.16 119.88h10.08v-10.08h-10.08z"/>
  <path d="m230.5 119.88h10.08v-10.08h-10.08z"/>
  <path d="m239.83 119.88h10.08v-10.08h-10.08z"/>
  <path d="m249.17 119.88h10.08v-10.08h-10.08z"/>
  <path d="m258.51 119.88h10.08v-10.08h-10.08z"/>
  <path d="m193.14 138.37h10.08v-10.08h-10.08z"/>
  <path d="m202.48 138.37h10.08v-10.08h-10.08z"/>
  <path d="m211.82 138.37h10.08v-10.08h-10.08z"/>
  <path d="m221.16 138.37h10.08v-10.08h-10.08z"/>
  <path d="m230.5 138.37h10.08v-10.08h-10.08z"/>
  <path d="m239.83 138.37h10.08v-10.08h-10.08z"/>
  <path d="m249.17 138.37h10.08v-10.08h-10.08z"/>
  <path d="m258.51 138.37h10.08v-10.08h-10.08z"/>
  <path d="m193.14 156.86h10.08v-10.08h-10.08z"/>
  <path d="m202.48 156.86h10.08v-10.08h-10.08z"/>
  <path d="m211.82 156.86h10.08v-10.08h-10.08z"/>
  <path d="m221.16 156.86h10.08v-10.08h-10.08z"/>
  <path d="m230.5 156.86h10.08v-10.08h-10.08z"/>
  <path d="m239.83 156.86h10.08v-10.08h-10.08z"/>
  <path d="m249.17 156.86h10.08v-10.08h-10.08z"/>
  <path d="m258.51 156.86h10.08v-10.08h-10.08z"/>
  <path d="m193.14 175.35h10.08v-10.08h-10.08z"/>
  <path d="m202.48 175.35h10.08v-10.08h-10.08z"/>
  <path d="m211.82 175.35h10.08v-10.08h-10.08z"/>
  <path d="m221.16 175.35h10.08v-10.08h-10.08z"/>
  <path d="m230.5 175.35h10.08v-10.08h-10.08z"/>
  <path d="m239.83 175.35h10.08v-10.08h-10.08z"/>
  <path d="m249.17 175.35h10.08v-10.08h-10.08z"/>
  <path d="m258.51 175.35h10.08v-10.08h-10.08z"/>
  <path d="m193.14 193.84h10.08v-10.09h-10.08z"/>
  <path d="m202.48 193.84h10.08v-10.09h-10.08z"/>
  <path d="m211.82 193.84h10.08v-10.09h-10.08z"/>
  <path d="m221.16 193.84h10.08v-10.09h-10.08z"/>
  <path d="m230.5 193.84h10.08v-10.09h-10.08z"/>
  <path d="m239.83 193.84h10.08v-10.09h-10.08z"/>
  <path d="m249.17 193.84h10.08v-10.09h-10.08z"/>
  <path d="m258.51 193.84h10.08v-10.09h-10.08z"/>
  <path d="m193.14 212.32h10.08v-10.08h-10.08z"/>
  <path d="m202.48 212.32h10.08v-10.08h-10.08z"/>
  <path d="m211.82 212.32h10.08v-10.08h-10.08z"/>
  <path d="m221.16 212.32h10.08v-10.08h-10.08z"/>
  <path d="m230.5 212.32h10.08v-10.08h-10.08z"/>
  <path d="m239.83 212.32h10.08v-10.08h-10.08z"/>
  <path d="m249.17 212.32h10.08v-10.08h-10.08z"/>
  <path d="m258.51 212.32h10.08v-10.08h-10.08z"/>
  <path d="m193.14 230.81h10.08v-10.08h-10.08z"/>
  <path d="m202.48 230.81h10.08v-10.08h-10.08z"/>
  <path d="m211.82 230.81h10.08v-10.08h-10.08z"/>
  <path d="m221.16 230.81h10.08v-10.08h-10.08z"/>
  <path d="m230.5 230.81h10.08v-10.08h-10.08z"/>
  <path d="m239.83 230.81h10.08v-10.08h-10.08z"/>
  <path d="m249.17 230.81h10.08v-10.08h-10.08z"/>
  <path d="m258.51 230.81h10.08v-10.08h-10.08z"/>
  <path d="m193.14 249.3h10.08v-10.08h-10.08z"/>
  <path d="m202.48 249.3h10.08v-10.08h-10.08z"/>
  <path d="m211.82 249.3h10.08v-10.08h-10.08z"/>
  <path d="m221.16 249.3h10.08v-10.08h-10.08z"/>
  <path d="m230.5 249.3h10.08v-10.08h-10.08z"/>
  <path d="m239.83 249.3h10.08v-10.08h-10.08z"/>
  <path d="m249.17 249.3h10.08v-10.08h-10.08z"/>
  <path d="m258.51 249.3h10.08v-10.08h-10.08z"/>
 </g>
 <g stroke-linejoin="round" stroke="#333" stroke-linecap="round" stroke-miterlimit="10" stroke-width=".70866" fill="#619cff">
  <path d="m193.14 129.12h10.08v-10.08h-10.08z"/>
  <path d="m202.48 129.12h10.08v-10.08h-10.08z"/>
  <path d="m211.82 129.12h10.08v-10.08h-10.08z"/>
  <path d="m221.16 129.12h10.08v-10.08h-10.08z"/>
  <path d="m230.5 129.12h10.08v-10.08h-10.08z"/>
  <path d="m239.83 129.12h10.08v-10.08h-10.08z"/>
  <path d="m249.17 129.12h10.08v-10.08h-10.08z"/>
  <path d="m258.51 129.12h10.08v-10.08h-10.08z"/>
  <path d="m193.14 147.62h10.08v-10.08h-10.08z"/>
  <path d="m202.48 147.62h10.08v-10.08h-10.08z"/>
  <path d="m211.82 147.62h10.08v-10.08h-10.08z"/>
  <path d="m221.16 147.62h10.08v-10.08h-10.08z"/>
  <path d="m230.5 147.62h10.08v-10.08h-10.08z"/>
  <path d="m239.83 147.62h10.08v-10.08h-10.08z"/>
  <path d="m249.17 147.62h10.08v-10.08h-10.08z"/>
  <path d="m258.51 147.62h10.08v-10.08h-10.08z"/>
  <path d="m193.14 166.11h10.08v-10.09h-10.08z"/>
  <path d="m202.48 166.11h10.08v-10.09h-10.08z"/>
  <path d="m211.82 166.11h10.08v-10.09h-10.08z"/>
  <path d="m221.16 166.11h10.08v-10.09h-10.08z"/>
  <path d="m230.5 166.11h10.08v-10.09h-10.08z"/>
  <path d="m239.83 166.11h10.08v-10.09h-10.08z"/>
  <path d="m249.17 166.11h10.08v-10.09h-10.08z"/>
  <path d="m258.51 166.11h10.08v-10.09h-10.08z"/>
  <path d="m193.14 184.59h10.08v-10.08h-10.08z"/>
  <path d="m202.48 184.59h10.08v-10.08h-10.08z"/>
  <path d="m211.82 184.59h10.08v-10.08h-10.08z"/>
  <path d="m221.16 184.59h10.08v-10.08h-10.08z"/>
  <path d="m230.5 184.59h10.08v-10.08h-10.08z"/>
  <path d="m239.83 184.59h10.08v-10.08h-10.08z"/>
  <path d="m249.17 184.59h10.08v-10.08h-10.08z"/>
  <path d="m258.51 184.59h10.08v-10.08h-10.08z"/>
  <path d="m193.14 203.08h10.08v-10.08h-10.08z"/>
  <path d="m202.48 203.08h10.08v-10.08h-10.08z"/>
  <path d="m211.82 203.08h10.08v-10.08h-10.08z"/>
  <path d="m221.16 203.08h10.08v-10.08h-10.08z"/>
  <path d="m230.5 203.08h10.08v-10.08h-10.08z"/>
  <path d="m239.83 203.08h10.08v-10.08h-10.08z"/>
  <path d="m249.17 203.08h10.08v-10.08h-10.08z"/>
  <path d="m258.51 203.08h10.08v-10.08h-10.08z"/>
  <path d="m193.14 221.57h10.08v-10.08h-10.08z"/>
  <path d="m202.48 221.57h10.08v-10.08h-10.08z"/>
  <path d="m211.82 221.57h10.08v-10.08h-10.08z"/>
  <path d="m221.16 221.57h10.08v-10.08h-10.08z"/>
  <path d="m230.5 221.57h10.08v-10.08h-10.08z"/>
  <path d="m239.83 221.57h10.08v-10.08h-10.08z"/>
  <path d="m249.17 221.57h10.08v-10.08h-10.08z"/>
  <path d="m258.51 221.57h10.08v-10.08h-10.08z"/>
  <path d="m193.14 240.06h10.08v-10.08h-10.08z"/>
  <path d="m202.48 240.06h10.08v-10.08h-10.08z"/>
  <path d="m211.82 240.06h10.08v-10.08h-10.08z"/>
  <path d="m221.16 240.06h10.08v-10.08h-10.08z"/>
  <path d="m230.5 240.06h10.08v-10.08h-10.08z"/>
  <path d="m239.83 240.06h10.08v-10.08h-10.08z"/>
  <path d="m249.17 240.06h10.08v-10.08h-10.08z"/>
  <path d="m258.51 240.06h10.08v-10.08h-10.08z"/>
  <path d="m193.14 258.55h10.08v-10.09h-10.08z"/>
  <path d="m202.48 258.55h10.08v-10.09h-10.08z"/>
  <path d="m211.82 258.55h10.08v-10.09h-10.08z"/>
  <path d="m221.16 258.55h10.08v-10.09h-10.08z"/>
  <path d="m230.5 258.55h10.08v-10.09h-10.08z"/>
  <path d="m239.83 258.55h10.08v-10.09h-10.08z"/>
  <path d="m249.17 258.55h10.08v-10.09h-10.08z"/>
  <path d="m258.51 258.55h10.08v-10.09h-10.08z"/>
 </g>
 <g clip-path="url(#ap)">
  <path stroke-linejoin="round" d="m32.891 265.52h246.54v-162.7h-246.54zm0 0" stroke="#333" stroke-linecap="round" stroke-miterlimit="10" stroke-width="1.067" fill="none"/>
 </g>
 <g fill="#4c4c4c">
  <use y="117.442383" x="21.957031" xlink:href="#b"/>
  <use y="126.688477" x="21.957031" xlink:href="#ag"/>
  <use y="135.930664" x="20.957031" xlink:href="#d"/>
  <use y="145.176758" x="20.957031" xlink:href="#af"/>
  <use y="154.418945" x="21.957031" xlink:href="#ae"/>
  <use y="163.665039" x="21.957031" xlink:href="#ad"/>
  <use y="172.907227" x="20.957031" xlink:href="#a"/>
  <use y="182.15332" x="20.957031" xlink:href="#ac"/>
  <use y="191.395508" x="24.957031" xlink:href="#ab"/>
  <use y="200.641602" x="22.957031" xlink:href="#an"/>
  <use y="209.883789" x="21.957031" xlink:href="#am"/>
  <use y="219.129883" x="22.957031" xlink:href="#al"/>
  <use y="228.37207" x="19.957031" xlink:href="#ak"/>
  <use y="237.618164" x="20.957031" xlink:href="#aj"/>
  <use y="246.860352" x="20.957031" xlink:href="#ai"/>
  <use y="256.106445" x="21.957031" xlink:href="#ah"/>
 </g>
 <g stroke-linejoin="round" stroke="#333" stroke-miterlimit="10" stroke-width="1.067" fill="none">
  <path d="m30.152 114.84h2.739"/>
  <path d="m30.152 124.09h2.739"/>
  <path d="m30.152 133.33h2.739"/>
  <path d="m30.152 142.57h2.739"/>
  <path d="m30.152 151.82h2.739"/>
  <path d="m30.152 161.06h2.739"/>
  <path d="m30.152 170.3h2.739"/>
  <path d="m30.152 179.55h2.739"/>
  <path d="m30.152 188.79h2.739"/>
  <path d="m30.152 198.04h2.739"/>
  <path d="m30.152 207.28h2.739"/>
  <path d="m30.152 216.53h2.739"/>
  <path d="m30.152 225.77h2.739"/>
  <path d="m30.152 235.02h2.739"/>
  <path d="m30.152 244.26h2.739"/>
  <path d="m30.152 253.5h2.739"/>
  <path d="m48.766 268.26v-2.74"/>
  <path d="m58.105 268.26v-2.74"/>
  <path d="m67.441 268.26v-2.74"/>
  <path d="m76.781 268.26v-2.74"/>
  <path d="m86.121 268.26v-2.74"/>
  <path d="m95.457 268.26v-2.74"/>
  <path d="m104.8 268.26v-2.74"/>
  <path d="m114.14 268.26v-2.74"/>
  <path d="m123.47 268.26v-2.74"/>
  <path d="m132.81 268.26v-2.74"/>
  <path d="m142.15 268.26v-2.74"/>
  <path d="m151.49 268.26v-2.74"/>
  <path d="m160.83 268.26v-2.74"/>
  <path d="m170.17 268.26v-2.74"/>
  <path d="m179.5 268.26v-2.74"/>
  <path d="m188.84 268.26v-2.74"/>
  <path d="m198.18 268.26v-2.74"/>
  <path d="m207.52 268.26v-2.74"/>
  <path d="m216.86 268.26v-2.74"/>
  <path d="m226.2 268.26v-2.74"/>
  <path d="m235.54 268.26v-2.74"/>
  <path d="m244.88 268.26v-2.74"/>
  <path d="m254.21 268.26v-2.74"/>
  <path d="m263.55 268.26v-2.74"/>
 </g>
 <g fill="#4c4c4c">
  <use y="276.555664" x="46.265625" xlink:href="#c"/>
  <use y="276.555664" x="55.605469" xlink:href="#f"/>
  <use y="276.555664" x="64.941406" xlink:href="#h"/>
  <use y="276.555664" x="74.28125" xlink:href="#g"/>
  <use y="276.555664" x="83.621094" xlink:href="#n"/>
  <use y="276.555664" x="92.957031" xlink:href="#m"/>
  <use y="276.555664" x="102.296875" xlink:href="#l"/>
  <use y="276.555664" x="111.636719" xlink:href="#k"/>
  <use y="276.555664" x="120.972656" xlink:href="#j"/>
  <use y="276.555664" x="127.8125" xlink:href="#c"/>
  <use y="276.555664" x="132.703125" xlink:href="#i"/>
  <use y="276.555664" x="137.152344" xlink:href="#c"/>
  <use y="276.555664" x="142.042969" xlink:href="#c"/>
  <use y="276.555664" x="146.488281" xlink:href="#c"/>
  <use y="276.555664" x="151.378906" xlink:href="#f"/>
  <use y="276.555664" x="155.828125" xlink:href="#c"/>
  <use y="276.555664" x="160.71875" xlink:href="#h"/>
  <use y="276.555664" x="165.167969" xlink:href="#c"/>
  <use y="276.555664" x="170.058594" xlink:href="#g"/>
  <use y="276.555664" x="174.503906" xlink:href="#c"/>
  <use y="276.555664" x="179.394531" xlink:href="#n"/>
  <use y="276.555664" x="183.84375" xlink:href="#c"/>
  <use y="276.555664" x="188.734375" xlink:href="#m"/>
  <use y="276.555664" x="193.183594" xlink:href="#c"/>
  <use y="276.555664" x="198.074219" xlink:href="#l"/>
  <use y="276.555664" x="202.519531" xlink:href="#c"/>
  <use y="276.555664" x="207.410156" xlink:href="#k"/>
  <use y="276.555664" x="211.859375" xlink:href="#c"/>
  <use y="276.555664" x="216.75" xlink:href="#j"/>
  <use y="276.555664" x="221.199219" xlink:href="#f"/>
  <use y="276.555664" x="226.089844" xlink:href="#i"/>
  <use y="276.555664" x="230.535156" xlink:href="#f"/>
  <use y="276.555664" x="235.425781" xlink:href="#c"/>
  <use y="276.555664" x="239.875" xlink:href="#f"/>
  <use y="276.555664" x="244.765625" xlink:href="#f"/>
  <use y="276.555664" x="249.214844" xlink:href="#f"/>
  <use y="276.555664" x="254.105469" xlink:href="#h"/>
  <use y="276.555664" x="258.550781" xlink:href="#f"/>
  <use y="276.555664" x="263.441406" xlink:href="#g"/>
 </g>
 <g>
  <path fill="#fff" d="m290.77 247.79h81.75v-127.24h-81.75z"/>
  <g>
   <use y="134.299805" x="296.433594" xlink:href="#aa"/>
   <use y="134.299805" x="301.713867" xlink:href="#z"/>
   <use y="134.299805" x="307.830078" xlink:href="#y"/>
   <use y="134.299805" x="310.272461" xlink:href="#x"/>
   <use y="134.299805" x="316.388672" xlink:href="#w"/>
   <use y="134.299805" x="322.504883" xlink:href="#v"/>
  </g>
  <g>
   <path fill="#fff" d="m296.43 155.72h17.28v-17.28h-17.28z"/>
   <path stroke-linejoin="round" d="m300.04 152.12h10.08v-10.08h-10.08zm0 0" stroke="#333" stroke-linecap="round" stroke-miterlimit="10" stroke-width=".70866" fill="#f8766c"/>
   <path fill="#fff" d="m296.43 173h17.28v-17.28h-17.28z"/>
   <path stroke-linejoin="round" d="m300.04 169.4h10.08v-10.08h-10.08zm0 0" stroke="#333" stroke-linecap="round" stroke-miterlimit="10" stroke-width=".70866" fill="#b79e00"/>
   <path fill="#fff" d="m296.43 190.28h17.28v-17.28h-17.28z"/>
   <path stroke-linejoin="round" d="m300.04 186.68h10.08v-10.08h-10.08zm0 0" stroke="#333" stroke-linecap="round" stroke-miterlimit="10" stroke-width=".70866" fill="#00b937"/>
   <path fill="#fff" d="m296.43 207.56h17.28v-17.28h-17.28z"/>
   <path stroke-linejoin="round" d="m300.04 203.96h10.08v-10.08h-10.08zm0 0" stroke="#333" stroke-linecap="round" stroke-miterlimit="10" stroke-width=".70866" fill="#00bfc3"/>
   <path fill="#fff" d="m296.43 224.84h17.28v-17.28h-17.28z"/>
   <path stroke-linejoin="round" d="m300.04 221.24h10.08v-10.08h-10.08zm0 0" stroke="#333" stroke-linecap="round" stroke-miterlimit="10" stroke-width=".70866" fill="#619cff"/>
   <path fill="#fff" d="m296.43 242.12h17.28v-17.28h-17.28z"/>
   <path stroke-linejoin="round" d="m300.04 238.52h10.08v-10.08h-10.08zm0 0" stroke="#333" stroke-linecap="round" stroke-miterlimit="10" stroke-width=".70866" fill="#f463e3"/>
  </g>
 </g>
 <g>
  <use y="149.68457" x="315.875" xlink:href="#b"/>
  <use y="149.68457" x="321.43457" xlink:href="#a"/>
  <use y="149.68457" x="328.27832" xlink:href="#a"/>
  <use y="149.68457" x="335.12207" xlink:href="#d"/>
  <use y="149.68457" x="341.209961" xlink:href="#b"/>
  <use y="149.68457" x="346.769531" xlink:href="#a"/>
  <use y="149.68457" x="353.569336" xlink:href="#b"/>
  <use y="149.68457" x="359.436523" xlink:href="#b"/>
  <use y="166.961914" x="315.875" xlink:href="#d"/>
  <use y="166.961914" x="322.226562" xlink:href="#a"/>
  <use y="166.961914" x="328.674805" xlink:href="#e"/>
  <use y="166.961914" x="333.213867" xlink:href="#b"/>
  <use y="166.961914" x="338.773438" xlink:href="#d"/>
  <use y="166.961914" x="345.125" xlink:href="#e"/>
  <use y="166.961914" x="349.664062" xlink:href="#b"/>
  <use y="166.961914" x="355.223633" xlink:href="#a"/>
  <use y="184.243164" x="315.875" xlink:href="#a"/>
  <use y="184.243164" x="322.71875" xlink:href="#a"/>
  <use y="184.243164" x="329.518555" xlink:href="#b"/>
  <use y="184.243164" x="335.078125" xlink:href="#d"/>
  <use y="184.243164" x="341.429688" xlink:href="#e"/>
  <use y="184.243164" x="346.40918" xlink:href="#d"/>
  <use y="184.243164" x="352.760742" xlink:href="#d"/>
  <use y="184.243164" x="359.112305" xlink:href="#e"/>
  <use y="201.524414" x="315.875" xlink:href="#e"/>
  <use y="201.524414" x="320.414062" xlink:href="#b"/>
  <use y="201.524414" x="326.28125" xlink:href="#b"/>
  <use y="201.524414" x="331.84082" xlink:href="#a"/>
  <use y="201.524414" x="338.68457" xlink:href="#a"/>
  <use y="201.524414" x="345.52832" xlink:href="#d"/>
  <use y="201.524414" x="351.879883" xlink:href="#a"/>
  <use y="201.524414" x="358.679688" xlink:href="#b"/>
  <use y="218.805664" x="315.875" xlink:href="#e"/>
  <use y="218.805664" x="320.414062" xlink:href="#b"/>
  <use y="218.805664" x="325.973633" xlink:href="#a"/>
  <use y="218.805664" x="332.817383" xlink:href="#a"/>
  <use y="218.805664" x="339.661133" xlink:href="#d"/>
  <use y="218.805664" x="345.749023" xlink:href="#b"/>
  <use y="218.805664" x="350.780273" xlink:href="#e"/>
  <use y="218.805664" x="355.759766" xlink:href="#a"/>
  <use y="236.083008" x="315.875" xlink:href="#e"/>
  <use y="236.083008" x="320.854492" xlink:href="#d"/>
  <use y="236.083008" x="327.206055" xlink:href="#d"/>
  <use y="236.083008" x="333.557617" xlink:href="#e"/>
  <use y="236.083008" x="338.537109" xlink:href="#a"/>
  <use y="236.083008" x="345.336914" xlink:href="#b"/>
  <use y="236.083008" x="350.896484" xlink:href="#a"/>
  <use y="236.083008" x="357.740234" xlink:href="#d"/>
  <use y="95.21875" x="32.890625" xlink:href="#u"/>
  <use y="95.21875" x="36.561523" xlink:href="#t"/>
  <use y="95.21875" x="46.09375" xlink:href="#s"/>
  <use y="95.21875" x="55.625977" xlink:href="#r"/>
  <use y="95.21875" x="64.432617" xlink:href="#q"/>
  <use y="95.21875" x="72.777344" xlink:href="#p"/>
  <use y="95.21875" x="80.118164" xlink:href="#o"/>
 </g>
</svg>
