<?xml version="1.0" encoding="UTF-8" standalone="no"?>
<svg xmlns="http://www.w3.org/2000/svg" height="216pt" width="378pt" version="1.1" xmlns:xlink="http://www.w3.org/1999/xlink" viewBox="0 0 378 216">
 <defs>
  <symbol id="b" overflow="visible">
   <path d="m3-5.5625l-1.1719 3.2031h2.3594zm-0.4844-0.8437h0.9844l2.4375 6.4062h-0.8906l-0.5938-1.6406h-2.8906l-0.57812 1.6406h-0.92188z"/>
  </symbol>
  <symbol id="ag" overflow="visible">
   <path d="m1.7344-3.0625v2.3438l1.3906-0.00005c0.4688 0 0.8125-0.09375 1.0312-0.28125 0.2266-0.1953 0.3438-0.4922 0.3438-0.8906 0-0.3946-0.1172-0.6875-0.3438-0.875-0.2187-0.1953-0.5624-0.2969-1.0312-0.2969zm0-2.6406v1.9375h1.2812c0.4258 0 0.7422-0.0782 0.9532-0.2344 0.207-0.1641 0.3124-0.4102 0.3124-0.7344 0-0.3203-0.1054-0.5625-0.3124-0.7187-0.211-0.1641-0.5274-0.25-0.9532-0.25zm-0.87502-0.7031h2.2187c0.6641 0 1.1758 0.1367 1.5313 0.4062 0.3515 0.2734 0.5312 0.6641 0.5312 1.1719 0 0.3984-0.0937 0.7109-0.2812 0.9375-0.1797 0.2304-0.4453 0.375-0.7969 0.4375 0.4258 0.0937 0.7539 0.289 0.9844 0.5781 0.2383 0.2812 0.3593 0.6406 0.3593 1.0781 0 0.5742-0.1953 1.0156-0.5781 1.3282-0.3867 0.31245-0.9375 0.4687-1.6562 0.4687h-2.3125z"/>
  </symbol>
  <symbol id="d" overflow="visible">
   <path d="m5.6719-5.9219v0.9219c-0.293-0.2695-0.6055-0.4727-0.9375-0.6094-0.336-0.1328-0.6875-0.2031-1.0625-0.2031-0.7305 0-1.293 0.2266-1.6875 0.6719-0.3867 0.4492-0.5782 1.0937-0.5782 1.9375 0 0.8437 0.1915 1.4922 0.5782 1.9375 0.3945 0.44919 0.957 0.67185 1.6875 0.67185 0.375 0 0.7265-0.06641 1.0625-0.20313 0.332-0.13281 0.6445-0.33592 0.9375-0.60932v0.9062c-0.3125 0.21094-0.6407 0.36719-0.9844 0.46875-0.3359 0.10156-0.6875 0.15625-1.0625 0.15625-0.9688 0-1.7344-0.29688-2.2969-0.89062-0.55466-0.59378-0.8281-1.4063-0.8281-2.4375 0-1.0313 0.27344-1.8438 0.8281-2.4375 0.5625-0.5938 1.3281-0.8906 2.2969-0.8906 0.3828 0 0.7422 0.0546 1.0781 0.1562 0.3438 0.1055 0.6641 0.2578 0.9688 0.4531z"/>
  </symbol>
  <symbol id="af" overflow="visible">
   <path d="m1.7344-5.7031v4.9844l1.0468-0.00005c0.8829 0 1.5313-0.19531 1.9376-0.59375 0.414-0.4063 0.625-1.0391 0.625-1.9063 0-0.8515-0.211-1.4765-0.625-1.875-0.4063-0.4062-1.0547-0.6093-1.9376-0.6093zm-0.87502-0.7031h1.7812c1.25 0 2.1602 0.2617 2.7344 0.7812 0.582 0.5117 0.875 1.3125 0.875 2.4062 0 1.1055-0.293 1.918-0.875 2.4376-0.5859 0.52339-1.4961 0.7812-2.7344 0.7812h-1.7812z"/>
  </symbol>
  <symbol id="ae" overflow="visible">
   <path d="m0.85938-6.4062h4.0625v0.7187h-3.1875v1.9063h3.0468v0.7343h-3.0468v2.3125l3.2656 0.00002v0.73438h-4.1406z"/>
  </symbol>
  <symbol id="ad" overflow="visible">
   <path d="m0.85938-6.4062h3.6875v0.7187h-2.8125v1.8906h2.5468v0.7344h-2.5468v3.0625h-0.87502z"/>
  </symbol>
  <symbol id="a" overflow="visible">
   <path d="m5.2344-0.92188v-1.7187h-1.4219v-0.7032h2.2813v2.75c-0.336 0.24224-0.7032 0.42192-1.1094 0.54692-0.4063 0.11329-0.8399 0.17188-1.2969 0.17188-1 0-1.7813-0.28906-2.3437-0.875-0.56255-0.582-0.8438-1.3984-0.8438-2.4531 0-1.0391 0.28125-1.8516 0.8438-2.4375 0.5624-0.5938 1.3437-0.8906 2.3437-0.8906 0.4258 0 0.8281 0.0546 1.2031 0.1562 0.375 0.1055 0.7188 0.2578 1.0313 0.4531v0.9219c-0.3125-0.2695-0.6524-0.4727-1.0157-0.6094-0.3671-0.1328-0.746-0.2031-1.1406-0.2031-0.7812 0-1.3711 0.2187-1.7656 0.6563-0.3984 0.4374-0.5938 1.0898-0.5938 1.9531 0 0.8672 0.1954 1.5156 0.5938 1.9531 0.3945 0.4375 0.9844 0.65625 1.7656 0.65625 0.3125 0 0.586-0.02344 0.8282-0.07813 0.2382-0.05078 0.4531-0.13281 0.6406-0.25z"/>
  </symbol>
  <symbol id="ac" overflow="visible">
   <path d="m0.85938-6.4062h0.87502v2.625h3.1562v-2.625h0.8594v6.4062h-0.8594v-3.0469h-3.1562v3.0469h-0.87502z"/>
  </symbol>
  <symbol id="ab" overflow="visible">
   <path d="m0.85938-6.4062h0.87502v6.4062h-0.87502z"/>
  </symbol>
  <symbol id="an" overflow="visible">
   <path d="m0.85938-6.4062h0.87502v5.9531c0 0.78122-0.1524 1.3437-0.4532 1.6875-0.29292 0.3515-0.76167 0.5312-1.4062 0.5312h-0.32812v-0.7344h0.26562c0.38281 0 0.65625-0.10932 0.8125-0.32808 0.15625-0.21093 0.23438-0.59374 0.23438-1.1562z"/>
  </symbol>
  <symbol id="am" overflow="visible">
   <path d="m0.85938-6.4062h0.87502v2.7031l2.875-2.7031h1.1094l-3.1719 2.9843 3.4062 3.4219h-1.1406l-3.0781-3.0938v3.0938h-0.87502z"/>
  </symbol>
  <symbol id="al" overflow="visible">
   <path d="m0.85938-6.4062h0.87502v5.6718l3.125 0.00002v0.73438h-4z"/>
  </symbol>
  <symbol id="ak" overflow="visible">
   <path d="m0.85938-6.4062h1.2968l1.6407 4.3593 1.6406-4.3593h1.2969v6.4062h-0.8438v-5.625l-1.6562 4.3906h-0.875l-1.6563-4.3906v5.625h-0.84372z"/>
  </symbol>
  <symbol id="aj" overflow="visible">
   <path d="m0.85938-6.4062h1.1718l2.8438 5.3593v-5.3593h0.8438v6.4062h-1.1719l-2.8438-5.3594v5.3594h-0.84372z"/>
  </symbol>
  <symbol id="ai" overflow="visible">
   <path d="m3.4688-5.8281c-0.6368 0-1.1407 0.2343-1.5157 0.7031-0.3672 0.4688-0.5469 1.1094-0.5469 1.9219s0.1797 1.4531 0.5469 1.9219c0.375 0.4687 0.8789 0.70308 1.5157 0.70308 0.625 0 1.1171-0.23438 1.4843-0.70308 0.375-0.4688 0.5625-1.1094 0.5625-1.9219s-0.1875-1.4531-0.5625-1.9219c-0.3672-0.4688-0.8593-0.7031-1.4843-0.7031zm0-0.7031c0.8945 0 1.6132 0.3046 2.1562 0.9062 0.5391 0.6055 0.8125 1.4141 0.8125 2.4219 0 1.0117-0.2734 1.8203-0.8125 2.4218-0.543 0.60552-1.2617 0.9063-2.1562 0.9063-0.9063 0-1.6329-0.29688-2.1719-0.89062-0.53128-0.60158-0.7969-1.4141-0.7969-2.4375 0-1.0078 0.26562-1.8164 0.7969-2.4219 0.539-0.6016 1.2656-0.9062 2.1719-0.9062z"/>
  </symbol>
  <symbol id="ah" overflow="visible">
   <path d="m1.7344-5.7031v2.4062h1.0937c0.3946 0 0.7031-0.1015 0.9219-0.3125 0.2266-0.207 0.3438-0.5039 0.3438-0.8906 0-0.3828-0.1172-0.6797-0.3438-0.8906-0.2188-0.2071-0.5273-0.3125-0.9219-0.3125zm-0.87502-0.7031h1.9687c0.7188 0 1.2578 0.164 1.625 0.4843 0.3633 0.3242 0.5469 0.7969 0.5469 1.4219 0 0.6367-0.1836 1.1172-0.5469 1.4375-0.3672 0.3242-0.9062 0.4844-1.625 0.4844h-1.0937v2.5781h-0.87502z"/>
  </symbol>
  <symbol id="c" overflow="visible">
   <path d="m1.0938-0.73438h1.4218v-4.8906l-1.5468 0.3125-0.00005-0.7969 1.5312-0.2968h0.875v5.6718l1.4062 0.00002v0.73438h-3.6874z"/>
  </symbol>
  <symbol id="f" overflow="visible">
   <path d="m1.6875-0.73438h3.0313v0.73438h-4.0782l0.00002-0.73438c0.33204-0.33202 0.78128-0.78512 1.3438-1.3594 0.5703-0.582 0.9297-0.957 1.0781-1.125 0.2813-0.3124 0.4727-0.5703 0.5781-0.7812 0.1133-0.2188 0.1719-0.4297 0.1719-0.6406 0-0.3438-0.1211-0.6172-0.3594-0.8282-0.2422-0.2187-0.5547-0.3281-0.9375-0.3281-0.2734 0-0.5586 0.0469-0.8594 0.1407-0.3046 0.0937-0.625 0.2343-0.9687 0.4218v-0.875c0.3516-0.1328 0.6797-0.2383 0.9844-0.3125 0.3008-0.0703 0.5781-0.1093 0.8281-0.1093 0.6641 0 1.1953 0.1679 1.5938 0.5 0.3945 0.3359 0.5937 0.7773 0.5937 1.3281 0 0.2734-0.0547 0.5273-0.1563 0.7656-0.0937 0.2305-0.2734 0.5078-0.5312 0.8281-0.0742 0.086-0.3047 0.3242-0.6875 0.7188-0.3867 0.3984-0.9297 0.9492-1.625 1.6562z"/>
  </symbol>
  <symbol id="h" overflow="visible">
   <path d="m3.5625-3.4531c0.4141 0.0859 0.7383 0.2656 0.9687 0.5469 0.2383 0.2812 0.3594 0.6328 0.3594 1.0468 0 0.625-0.2187 1.1172-0.6562 1.4688-0.4297 0.34372-1.043 0.5156-1.8438 0.5156-0.2734 0-0.5547-0.027344-0.8437-0.078125-0.2813-0.050781-0.57424-0.12891-0.87502-0.23438v-0.8437c0.23828 0.13667 0.50002 0.24214 0.78122 0.31245 0.2891 0.07422 0.5938 0.10937 0.9063 0.10937 0.539 0 0.9531-0.10156 1.2344-0.3125 0.289-0.21872 0.4374-0.53122 0.4374-0.93752 0-0.3828-0.1367-0.6797-0.4062-0.8906-0.2617-0.2188-0.625-0.3281-1.0938-0.3281h-0.75v-0.7031h0.7813c0.4258 0 0.75-0.0821 0.9687-0.25 0.2266-0.1758 0.3438-0.4258 0.3438-0.75 0-0.3204-0.1211-0.5704-0.3594-0.75-0.2304-0.1758-0.5586-0.2657-0.9844-0.2657-0.2421 0-0.496 0.0274-0.7656 0.0781-0.2734 0.0547-0.5742 0.1329-0.90622 0.2344v-0.7656c0.33202-0.0938 0.64062-0.1602 0.92182-0.2031 0.2891-0.0508 0.5665-0.0781 0.8282-0.0781 0.6562 0 1.1718 0.1523 1.5468 0.4531 0.3829 0.3047 0.5782 0.7109 0.5782 1.2187 0 0.3555-0.1055 0.6563-0.3125 0.9063-0.1992 0.2422-0.4844 0.4062-0.8594 0.5z"/>
  </symbol>
  <symbol id="g" overflow="visible">
   <path d="m3.3281-5.6562l-2.1875 3.4218h2.1875zm-0.2343-0.75h1.0937v4.1718h0.9219v0.7188h-0.9219v1.5156h-0.8594v-1.5156h-2.9062l-0.00002-0.8282z"/>
  </symbol>
  <symbol id="n" overflow="visible">
   <path d="m0.95312-6.4062h3.4063v0.7187h-2.6094v1.5781c0.125-0.039 0.25-0.0703 0.375-0.0937 0.125-0.0196 0.25-0.0313 0.375-0.0313 0.7188 0 1.2852 0.1992 1.7031 0.5938 0.4141 0.3867 0.625 0.914 0.625 1.5781 0 0.6992-0.2148 1.2422-0.6406 1.625-0.4297 0.375-1.0391 0.5625-1.8281 0.5625-0.2617 0-0.5313-0.027344-0.8125-0.078125-0.2813-0.042969-0.57424-0.10938-0.87502-0.20312v-0.85936c0.25781 0.13669 0.52342 0.24216 0.79692 0.31248 0.2812 0.0625 0.5703 0.09374 0.875 0.09374 0.5 0 0.8906-0.1289 1.1718-0.39062 0.2891-0.2578 0.4375-0.6133 0.4375-1.0625 0-0.4453-0.1484-0.8008-0.4375-1.0625-0.2812-0.2578-0.6718-0.3906-1.1718-0.3906-0.2305 0-0.461 0.0273-0.6876 0.0781-0.2304 0.0547-0.4648 0.1367-0.70308 0.25z"/>
  </symbol>
  <symbol id="m" overflow="visible">
   <path d="m2.9062-3.5469c-0.3984 0-0.7109 0.1367-0.9374 0.4063-0.2188 0.2617-0.3282 0.6211-0.3282 1.0781 0 0.4687 0.1094 0.8398 0.3282 1.1094 0.2265 0.26169 0.539 0.3906 0.9374 0.3906 0.3829 0 0.6915-0.12891 0.9219-0.39062 0.2266-0.26958 0.3438-0.64068 0.3438-1.1094 0-0.457-0.1172-0.8164-0.3438-1.0781-0.2304-0.2696-0.539-0.4063-0.9219-0.4063zm1.7188-2.7187v0.7812c-0.2188-0.1015-0.4375-0.1797-0.6562-0.2344-0.2188-0.0507-0.4376-0.0781-0.6563-0.0781-0.5742 0-1.0117 0.1953-1.3125 0.5781-0.3047 0.3868-0.4766 0.9688-0.5156 1.75 0.164-0.25 0.375-0.4374 0.625-0.5624 0.2578-0.1329 0.539-0.2032 0.8437-0.2032 0.6446 0 1.1563 0.1992 1.5313 0.5938 0.375 0.3867 0.5625 0.914 0.5625 1.5781 0 0.668-0.1992 1.1992-0.5938 1.5938-0.3867 0.39839-0.9023 0.5937-1.5469 0.5937-0.7421 0-1.3085-0.28125-1.7031-0.84375-0.39841-0.57035-0.59372-1.3984-0.59372-2.4844 0-1.0077 0.23828-1.8163 0.71872-2.4218 0.4883-0.6016 1.1328-0.9062 1.9375-0.9062 0.2188 0 0.4375 0.0234 0.6563 0.0624 0.2265 0.043 0.4609 0.1094 0.7031 0.2032z"/>
  </symbol>
  <symbol id="l" overflow="visible">
   <path d="m0.71875-6.4062h4.125v0.3593l-2.3282 6.0469h-0.9062l2.1875-5.6875h-3.0782z"/>
  </symbol>
  <symbol id="k" overflow="visible">
   <path d="m2.7969-3.0469c-0.418 0-0.7461 0.1094-0.9844 0.3281-0.2305 0.2188-0.3437 0.5274-0.3437 0.9219 0 0.3867 0.1132 0.6875 0.3437 0.90628 0.2383 0.21874 0.5664 0.32812 0.9844 0.32812 0.414 0 0.7383-0.10938 0.9687-0.32812 0.2383-0.22658 0.3594-0.53128 0.3594-0.90628 0-0.3945-0.1211-0.7031-0.3594-0.9219-0.2304-0.2187-0.5547-0.3281-0.9687-0.3281zm-0.875-0.375c-0.3672-0.082-0.6524-0.25-0.8594-0.5-0.21094-0.2578-0.3125-0.5703-0.3125-0.9375 0-0.5195 0.17969-0.9258 0.5469-1.2187 0.3633-0.3008 0.8633-0.4531 1.5-0.4531 0.6328 0 1.1328 0.1523 1.5 0.4531 0.3633 0.2929 0.5469 0.6992 0.5469 1.2187 0 0.3672-0.1055 0.6797-0.3126 0.9375-0.2109 0.25-0.496 0.418-0.8593 0.5 0.414 0.1055 0.7383 0.2969 0.9687 0.5781 0.2383 0.2813 0.3594 0.6329 0.3594 1.0469 0 0.6172-0.1953 1.0899-0.5781 1.4219-0.375 0.33594-0.918 0.5-1.625 0.5-0.711 0-1.2578-0.16406-1.6407-0.5-0.37495-0.33203-0.56245-0.8047-0.56245-1.4219 0-0.414 0.11328-0.7656 0.34375-1.0469 0.2383-0.2812 0.5664-0.4726 0.9844-0.5781zm-0.3125-1.3593c0 0.3359 0.1015 0.5937 0.3125 0.7812 0.207 0.1797 0.5 0.2656 0.875 0.2656s0.664-0.0859 0.875-0.2656c0.207-0.1875 0.3125-0.4453 0.3125-0.7812 0-0.3321-0.1055-0.5938-0.3125-0.7813-0.211-0.1875-0.5-0.2813-0.875-0.2813s-0.668 0.0938-0.875 0.2813c-0.211 0.1875-0.3125 0.4492-0.3125 0.7813z"/>
  </symbol>
  <symbol id="j" overflow="visible">
   <path d="m0.96875-0.14062v-0.78126c0.21875 0.10547 0.43745 0.1836 0.65625 0.23438 0.2266 0.05469 0.4453 0.07812 0.6562 0.07812 0.5704 0 1.0079-0.1914 1.3126-0.57812 0.3007-0.3828 0.4726-0.9687 0.5156-1.75-0.168 0.25-0.3828 0.4453-0.6406 0.5781-0.25 0.125-0.5274 0.1875-0.8282 0.1875-0.6484 0-1.1562-0.1914-1.5312-0.5781-0.37502-0.3945-0.56252-0.9258-0.56252-1.5938 0-0.6562 0.1914-1.1796 0.57812-1.5781 0.3945-0.4062 0.9141-0.6093 1.5625-0.6093 0.75 0 1.3164 0.289 1.7031 0.8593 0.3946 0.5625 0.5938 1.3867 0.5938 2.4688 0 1.0117-0.2422 1.8203-0.7188 2.4218-0.4804 0.60552-1.125 0.9063-1.9375 0.9063-0.2187 0-0.4453-0.02344-0.6719-0.0625-0.2187-0.042969-0.4492-0.10938-0.68745-0.20312zm1.7188-2.7188c0.3945 0 0.7031-0.1289 0.9219-0.3906 0.2265-0.2695 0.3437-0.6328 0.3437-1.0938 0-0.457-0.1172-0.8203-0.3437-1.0937-0.2188-0.2695-0.5274-0.4063-0.9219-0.4063-0.3867 0-0.6953 0.1368-0.9219 0.4063-0.2304 0.2734-0.3437 0.6367-0.3437 1.0937 0 0.461 0.1133 0.8243 0.3437 1.0938 0.2266 0.2617 0.5352 0.3906 0.9219 0.3906z"/>
  </symbol>
  <symbol id="i" overflow="visible">
   <path d="m2.7969-5.8438c-0.4492 0-0.7891 0.2266-1.0157 0.6719-0.2187 0.4375-0.3281 1.0938-0.3281 1.9688 0 0.8867 0.1094 1.5469 0.3281 1.9843 0.2266 0.43755 0.5665 0.6563 1.0157 0.6563 0.4453 0 0.7812-0.21875 1-0.6563 0.2265-0.4374 0.3437-1.0976 0.3437-1.9843 0-0.875-0.1172-1.5313-0.3437-1.9688-0.2188-0.4453-0.5547-0.6719-1-0.6719zm0-0.6874c0.7187 0 1.2656 0.289 1.6406 0.8593 0.3828 0.5625 0.5781 1.3867 0.5781 2.4688 0 1.0859-0.1953 1.914-0.5781 2.4844-0.375 0.56245-0.9219 0.8437-1.6406 0.8437-0.7188 0-1.2735-0.28125-1.6563-0.84375-0.37498-0.57035-0.56248-1.3984-0.56248-2.4844 0-1.082 0.1875-1.9062 0.56248-2.4687 0.3828-0.5703 0.9375-0.8593 1.6563-0.8593z"/>
  </symbol>
  <symbol id="e" overflow="visible">
   <path d="m-0.03125-6.4062h5.4374v0.7187h-2.2812v5.6875h-0.875v-5.6875h-2.2812z"/>
  </symbol>
  <symbol id="aa" overflow="visible">
   <path d="m0.32812-6.0156h1.0469l1.875 5.0468 1.8906-5.0468h1.0469l-2.2656 6.0156h-1.3438z"/>
  </symbol>
  <symbol id="z" overflow="visible">
   <path d="m3.7656-3.0312c-0.7929 0-1.3437 0.0937-1.6562 0.2812-0.3047 0.1875-0.4532 0.5-0.4532 0.9375 0 0.3437 0.1133 0.6211 0.3438 0.82812 0.2266 0.21094 0.5391 0.3125 0.9375 0.3125 0.5508 0 0.9883-0.1914 1.3125-0.57812 0.332-0.3945 0.5-0.9102 0.5-1.5469v-0.2343zm1.9688-0.4063v3.4375h-0.9844v-0.90625c-0.2188 0.36719-0.5 0.63672-0.8438 0.8125-0.3359 0.16406-0.746 0.25-1.2343 0.25-0.6172 0-1.1055-0.17188-1.4688-0.51563-0.36716-0.34374-0.54685-0.80472-0.54685-1.3906 0-0.6758 0.22266-1.1875 0.67185-1.5312 0.4571-0.3438 1.1407-0.5157 2.0469-0.5157h1.375v-0.0937c0-0.4571-0.1523-0.8125-0.4531-1.0625-0.293-0.25-0.711-0.375-1.25-0.375-0.3438 0-0.6836 0.0429-1.0157 0.125-0.3242 0.0859-0.6367 0.2109-0.9374 0.375v-0.9063c0.3632-0.1445 0.7187-0.25 1.0624-0.3125 0.3438-0.0703 0.6719-0.1093 0.9844-0.1093 0.875 0 1.5235 0.2265 1.9532 0.6718 0.4257 0.4492 0.6406 1.1328 0.6406 2.0469z"/>
  </symbol>
  <symbol id="y" overflow="visible">
   <path d="m1.0312-8.3594h1v8.3594h-1z"/>
  </symbol>
  <symbol id="x" overflow="visible">
   <path d="m0.9375-2.375v-3.6406h0.9844v3.6094c0 0.5624 0.1093 0.9921 0.3281 1.2812 0.2266 0.28125 0.5625 0.42188 1 0.42188 0.5391 0 0.9609-0.16407 1.2656-0.49998 0.3125-0.3438 0.4688-0.8125 0.4688-1.4063v-3.4062h0.9844v6.0156h-0.9844v-0.92188c-0.2422 0.36719-0.5235 0.63672-0.8438 0.8125-0.3125 0.17579-0.6797 0.26563-1.0937 0.26563-0.6875 0-1.2149-0.21094-1.5781-0.64063-0.3555-0.4375-0.5313-1.0664-0.5313-1.8906zm2.4844-3.7812z"/>
  </symbol>
  <symbol id="w" overflow="visible">
   <path d="m6.1875-3.25v0.4844h-4.5469c0.0391 0.6797 0.2422 1.1953 0.6094 1.5468 0.3633 0.35552 0.875 0.5313 1.5312 0.5313 0.3829 0 0.754-0.04688 1.1094-0.14062 0.3516-0.09376 0.7071-0.22658 1.0625-0.40628v0.9219c-0.3554 0.15625-0.7187 0.27344-1.0937 0.34375-0.375 0.08203-0.75 0.125-1.125 0.125-0.9688 0-1.7344-0.27344-2.2969-0.82813-0.55469-0.56252-0.82812-1.3203-0.82812-2.2812 0-0.9766 0.26562-1.7539 0.79682-2.3281 0.5313-0.5821 1.25-0.875 2.1563-0.875 0.8008 0 1.4375 0.2617 1.9063 0.7812 0.4765 0.5234 0.7187 1.2305 0.7187 2.125zm-1-0.2969c0-0.539-0.1523-0.9726-0.4531-1.2969-0.293-0.3203-0.6836-0.4843-1.1719-0.4843-0.5547 0-0.9961 0.1562-1.3281 0.4687-0.3242 0.3125-0.5117 0.75-0.5625 1.3125z"/>
  </symbol>
  <symbol id="v" overflow="visible">
   <path d="m4.875-5.8438v0.9376c-0.2812-0.1446-0.5742-0.25-0.875-0.3126-0.3047-0.0703-0.6172-0.1093-0.9375-0.1093-0.4922 0-0.8594 0.0781-1.1094 0.2343-0.2422 0.1485-0.3593 0.3672-0.3593 0.6563 0 0.2305 0.0859 0.4141 0.2656 0.5469 0.1758 0.125 0.5312 0.25 1.0625 0.375l0.3281 0.0781c0.707 0.1484 1.207 0.3594 1.5 0.6406 0.2891 0.2735 0.4375 0.6524 0.4375 1.1407 0 0.5546-0.2187 0.99604-0.6563 1.3281-0.4374 0.32419-1.0468 0.48435-1.8281 0.48435-0.3242 0-0.664-0.03125-1.0156-0.09375-0.3437-0.0625-0.71094-0.15625-1.0938-0.28125l0.00005-1.0156c0.36328 0.1875 0.72265 0.32815 1.0782 0.4219 0.3514 0.09375 0.7069 0.14062 1.0624 0.14062 0.457 0 0.8125-0.07812 1.0625-0.23437 0.25-0.16405 0.375-0.39065 0.375-0.67185 0-0.2696-0.0899-0.4766-0.2657-0.625-0.1796-0.1446-0.5742-0.2813-1.1874-0.4063l-0.3438-0.0937c-0.6172-0.125-1.0586-0.3164-1.3281-0.5781-0.27346-0.2696-0.40628-0.6407-0.40628-1.1094 0-0.5625 0.19532-0.9922 0.59378-1.2969 0.4062-0.3125 0.9765-0.4687 1.7187-0.4687 0.3633 0 0.7071 0.0273 1.0313 0.0781 0.3203 0.0547 0.6172 0.1328 0.8906 0.2343z"/>
  </symbol>
  <symbol id="u" overflow="visible">
   <path d="m1.2969-9.625h1.2969v9.625h-1.2969z"/>
  </symbol>
  <symbol id="t" overflow="visible">
   <path d="m1.2969-9.625h1.75l4.2656 8.0469v-8.0469h1.2656v9.625h-1.75l-4.2656-8.0469v8.0469h-1.2656z"/>
  </symbol>
  <symbol id="s" overflow="visible">
   <path d="m2.5938-8.5625v7.5h1.5781c1.3203 0 2.289-0.3008 2.9062-0.9063 0.625-0.6015 0.9375-1.5546 0.9375-2.8593 0-1.2813-0.3125-2.2227-0.9375-2.8281-0.6172-0.6016-1.5859-0.9063-2.9062-0.9063zm-1.2969-1.0625h2.6719c1.8632 0 3.2343 0.3906 4.1093 1.1719 0.875 0.7734 1.3125 1.9804 1.3125 3.625 0 1.6679-0.4453 2.8906-1.3281 3.6719-0.875 0.77339-2.2422 1.1562-4.0937 1.1562h-2.6719z"/>
  </symbol>
  <symbol id="r" overflow="visible">
   <path d="m1.2969-9.625h6.0781v1.0938h-4.7812v2.8593h4.5937v1.0938h-4.5937v3.4843h4.9062v1.0938h-6.2031z"/>
  </symbol>
  <symbol id="q" overflow="visible">
   <path d="m0.82812-9.625h1.4063l2.3906 3.5781 2.4062-3.5781h1.3907l-3.0938 4.625 3.2969 5h-1.3906l-2.7032-4.0938-2.7343 4.0938h-1.4063l3.4375-5.1406z"/>
  </symbol>
  <symbol id="p" overflow="visible">
   <path d="m7.4219-3.9062v0.5781h-5.4531c0.0507 0.8125 0.2968 1.4375 0.7343 1.875 0.4375 0.4297 1.0508 0.6406 1.8438 0.6406 0.457 0 0.8984-0.05469 1.3281-0.17188 0.4258-0.11332 0.8477-0.28122 1.2656-0.50002v1.1094c-0.4297 0.1875-0.8672 0.32812-1.3125 0.42188-0.4492 0.09374-0.9023 0.14062-1.3593 0.14062-1.1485 0-2.0586-0.33203-2.7344-1-0.668-0.6758-1-1.5859-1-2.7344-0.00002-1.1758 0.3164-2.1093 0.9531-2.7969 0.6328-0.6953 1.4922-1.0468 2.5781-1.0468 0.9688 0 1.7344 0.3125 2.2969 0.9375 0.5703 0.625 0.8594 1.4765 0.8594 2.5469zm-1.1875-0.3438c-0.0117-0.6562-0.1953-1.1758-0.5469-1.5625-0.3555-0.3828-0.8242-0.5781-1.4063-0.5781-0.6679 0-1.1992 0.1875-1.5937 0.5625-0.3984 0.375-0.625 0.9023-0.6875 1.5781z"/>
  </symbol>
  <symbol id="o" overflow="visible">
   <path d="m5.8438-7v1.1094c-0.336-0.1641-0.6836-0.2891-1.0469-0.375-0.3555-0.0938-0.7266-0.1406-1.1094-0.1406-0.5937 0-1.0391 0.0937-1.3281 0.2812-0.293 0.1797-0.4375 0.4492-0.4375 0.8125 0 0.2734 0.1015 0.4844 0.3125 0.6406 0.207 0.1563 0.6289 0.3086 1.2656 0.4531l0.4062 0.0938c0.8438 0.1797 1.4415 0.4336 1.7969 0.7656 0.3516 0.3242 0.5313 0.7813 0.5313 1.375 0 0.668-0.2656 1.1992-0.7969 1.5938-0.5313 0.38669-1.2617 0.5781-2.1875 0.5781-0.3867 0-0.793-0.03906-1.2188-0.10938-0.4179-0.074214-0.8554-0.1875-1.3124-0.34374l-0.00005-1.2188c0.43745 0.2305 0.86715 0.4024 1.2968 0.51565 0.4258 0.10547 0.8477 0.15625 1.2656 0.15625 0.5508 0 0.9766-0.09375 1.2813-0.2813 0.3008-0.1874 0.4531-0.457 0.4531-0.8124 0-0.3204-0.1094-0.5665-0.3281-0.7344-0.2187-0.1758-0.6953-0.3438-1.4219-0.5l-0.4218-0.0938c-0.7305-0.1562-1.2618-0.3906-1.5938-0.7031-0.32422-0.3203-0.48438-0.7656-0.48438-1.3281 0-0.6758 0.23828-1.1953 0.71878-1.5625 0.4883-0.375 1.1758-0.5625 2.0625-0.5625 0.4375 0 0.8476 0.0312 1.2343 0.0937 0.3829 0.0625 0.7383 0.1641 1.0626 0.2969z"/>
  </symbol>
  <clipPath id="dz">
   <path d="m2.3516 0h373.65v216h-373.65z"/>
  </clipPath>
  <clipPath id="do">
   <path d="m2.3516 0h374.3v216h-374.3z"/>
  </clipPath>
  <clipPath id="dd">
   <path d="m35.141 23.598h239.86v158.4h-239.86z"/>
  </clipPath>
  <clipPath id="cs">
   <path d="m35.141 26h239.86v1h-239.86z"/>
  </clipPath>
  <clipPath id="ch">
   <path d="m35.141 30h239.86v2h-239.86z"/>
  </clipPath>
  <clipPath id="bw">
   <path d="m35.141 39h239.86v2h-239.86z"/>
  </clipPath>
  <clipPath id="bl">
   <path d="m35.141 48h239.86v1h-239.86z"/>
  </clipPath>
  <clipPath id="ba">
   <path d="m35.141 57h239.86v1h-239.86z"/>
  </clipPath>
  <clipPath id="ap">
   <path d="m35.141 66h239.86v1h-239.86z"/>
  </clipPath>
  <clipPath id="dy">
   <path d="m35.141 75h239.86v1h-239.86z"/>
  </clipPath>
  <clipPath id="dx">
   <path d="m35.141 84h239.86v1h-239.86z"/>
  </clipPath>
  <clipPath id="dw">
   <path d="m35.141 93h239.86v1h-239.86z"/>
  </clipPath>
  <clipPath id="dv">
   <path d="m35.141 102h239.86v1h-239.86z"/>
  </clipPath>
  <clipPath id="du">
   <path d="m35.141 111h239.86v1h-239.86z"/>
  </clipPath>
  <clipPath id="dt">
   <path d="m35.141 120h239.86v1h-239.86z"/>
  </clipPath>
  <clipPath id="ds">
   <path d="m35.141 129h239.86v1h-239.86z"/>
  </clipPath>
  <clipPath id="dr">
   <path d="m35.141 138h239.86v1h-239.86z"/>
  </clipPath>
  <clipPath id="dq">
   <path d="m35.141 147h239.86v1h-239.86z"/>
  </clipPath>
  <clipPath id="dp">
   <path d="m35.141 156h239.86v1h-239.86z"/>
  </clipPath>
  <clipPath id="dn">
   <path d="m35.141 165h239.86v1h-239.86z"/>
  </clipPath>
  <clipPath id="dm">
   <path d="m35.141 174h239.86v1h-239.86z"/>
  </clipPath>
  <clipPath id="dl">
   <path d="m35.141 178h239.86v2h-239.86z"/>
  </clipPath>
  <clipPath id="dk">
   <path d="m41 23.598h1v158.4h-1z"/>
  </clipPath>
  <clipPath id="dj">
   <path d="m45 23.598h2v158.4h-2z"/>
  </clipPath>
  <clipPath id="di">
   <path d="m54 23.598h2v158.4h-2z"/>
  </clipPath>
  <clipPath id="dh">
   <path d="m63 23.598h2v158.4h-2z"/>
  </clipPath>
  <clipPath id="dg">
   <path d="m72 23.598h2v158.4h-2z"/>
  </clipPath>
  <clipPath id="df">
   <path d="m82 23.598h1v158.4h-1z"/>
  </clipPath>
  <clipPath id="de">
   <path d="m91 23.598h1v158.4h-1z"/>
  </clipPath>
  <clipPath id="dc">
   <path d="m100 23.598h1v158.4h-1z"/>
  </clipPath>
  <clipPath id="db">
   <path d="m109 23.598h1v158.4h-1z"/>
  </clipPath>
  <clipPath id="da">
   <path d="m118 23.598h1v158.4h-1z"/>
  </clipPath>
  <clipPath id="cz">
   <path d="m127 23.598h1v158.4h-1z"/>
  </clipPath>
  <clipPath id="cy">
   <path d="m136 23.598h1v158.4h-1z"/>
  </clipPath>
  <clipPath id="cx">
   <path d="m145 23.598h2v158.4h-2z"/>
  </clipPath>
  <clipPath id="cw">
   <path d="m154 23.598h2v158.4h-2z"/>
  </clipPath>
  <clipPath id="cv">
   <path d="m163 23.598h2v158.4h-2z"/>
  </clipPath>
  <clipPath id="cu">
   <path d="m172 23.598h2v158.4h-2z"/>
  </clipPath>
  <clipPath id="ct">
   <path d="m181 23.598h2v158.4h-2z"/>
  </clipPath>
  <clipPath id="cr">
   <path d="m190 23.598h2v158.4h-2z"/>
  </clipPath>
  <clipPath id="cq">
   <path d="m199 23.598h2v158.4h-2z"/>
  </clipPath>
  <clipPath id="cp">
   <path d="m208 23.598h2v158.4h-2z"/>
  </clipPath>
  <clipPath id="co">
   <path d="m218 23.598h1v158.4h-1z"/>
  </clipPath>
  <clipPath id="cn">
   <path d="m227 23.598h1v158.4h-1z"/>
  </clipPath>
  <clipPath id="cm">
   <path d="m236 23.598h1v158.4h-1z"/>
  </clipPath>
  <clipPath id="cl">
   <path d="m245 23.598h1v158.4h-1z"/>
  </clipPath>
  <clipPath id="ck">
   <path d="m254 23.598h1v158.4h-1z"/>
  </clipPath>
  <clipPath id="cj">
   <path d="m263 23.598h1v158.4h-1z"/>
  </clipPath>
  <clipPath id="ci">
   <path d="m267 23.598h2v158.4h-2z"/>
  </clipPath>
  <clipPath id="cg">
   <path d="m35.141 34h240.38v2h-240.38z"/>
  </clipPath>
  <clipPath id="cf">
   <path d="m35.141 43h240.38v2h-240.38z"/>
  </clipPath>
  <clipPath id="ce">
   <path d="m35.141 52h240.38v2h-240.38z"/>
  </clipPath>
  <clipPath id="cd">
   <path d="m35.141 61h240.38v2h-240.38z"/>
  </clipPath>
  <clipPath id="cc">
   <path d="m35.141 70h240.38v2h-240.38z"/>
  </clipPath>
  <clipPath id="cb">
   <path d="m35.141 79h240.38v2h-240.38z"/>
  </clipPath>
  <clipPath id="ca">
   <path d="m35.141 88h240.38v2h-240.38z"/>
  </clipPath>
  <clipPath id="bz">
   <path d="m35.141 97h240.38v2h-240.38z"/>
  </clipPath>
  <clipPath id="by">
   <path d="m35.141 106h240.38v2h-240.38z"/>
  </clipPath>
  <clipPath id="bx">
   <path d="m35.141 115h240.38v2h-240.38z"/>
  </clipPath>
  <clipPath id="bv">
   <path d="m35.141 124h240.38v2h-240.38z"/>
  </clipPath>
  <clipPath id="bu">
   <path d="m35.141 133h240.38v2h-240.38z"/>
  </clipPath>
  <clipPath id="bt">
   <path d="m35.141 142h240.38v2h-240.38z"/>
  </clipPath>
  <clipPath id="bs">
   <path d="m35.141 151h240.38v2h-240.38z"/>
  </clipPath>
  <clipPath id="br">
   <path d="m35.141 160h240.38v2h-240.38z"/>
  </clipPath>
  <clipPath id="bq">
   <path d="m35.141 169h240.38v2h-240.38z"/>
  </clipPath>
  <clipPath id="bp">
   <path d="m50 23.598h2v158.97h-2z"/>
  </clipPath>
  <clipPath id="bo">
   <path d="m59 23.598h2v158.97h-2z"/>
  </clipPath>
  <clipPath id="bn">
   <path d="m68 23.598h2v158.97h-2z"/>
  </clipPath>
  <clipPath id="bm">
   <path d="m77 23.598h2v158.97h-2z"/>
  </clipPath>
  <clipPath id="bk">
   <path d="m86 23.598h2v158.97h-2z"/>
  </clipPath>
  <clipPath id="bj">
   <path d="m95 23.598h2v158.97h-2z"/>
  </clipPath>
  <clipPath id="bi">
   <path d="m104 23.598h2v158.97h-2z"/>
  </clipPath>
  <clipPath id="bh">
   <path d="m113 23.598h2v158.97h-2z"/>
  </clipPath>
  <clipPath id="bg">
   <path d="m122 23.598h2v158.97h-2z"/>
  </clipPath>
  <clipPath id="bf">
   <path d="m131 23.598h2v158.97h-2z"/>
  </clipPath>
  <clipPath id="be">
   <path d="m140 23.598h2v158.97h-2z"/>
  </clipPath>
  <clipPath id="bd">
   <path d="m149 23.598h2v158.97h-2z"/>
  </clipPath>
  <clipPath id="bc">
   <path d="m158 23.598h2v158.97h-2z"/>
  </clipPath>
  <clipPath id="bb">
   <path d="m167 23.598h2v158.97h-2z"/>
  </clipPath>
  <clipPath id="az">
   <path d="m176 23.598h3v158.97h-3z"/>
  </clipPath>
  <clipPath id="ay">
   <path d="m186 23.598h2v158.97h-2z"/>
  </clipPath>
  <clipPath id="ax">
   <path d="m195 23.598h2v158.97h-2z"/>
  </clipPath>
  <clipPath id="aw">
   <path d="m204 23.598h2v158.97h-2z"/>
  </clipPath>
  <clipPath id="av">
   <path d="m213 23.598h2v158.97h-2z"/>
  </clipPath>
  <clipPath id="au">
   <path d="m222 23.598h2v158.97h-2z"/>
  </clipPath>
  <clipPath id="at">
   <path d="m231 23.598h2v158.97h-2z"/>
  </clipPath>
  <clipPath id="as">
   <path d="m240 23.598h2v158.97h-2z"/>
  </clipPath>
  <clipPath id="ar">
   <path d="m249 23.598h2v158.97h-2z"/>
  </clipPath>
  <clipPath id="aq">
   <path d="m258 23.598h2v158.97h-2z"/>
  </clipPath>
  <clipPath id="ao">
   <path d="m35.141 23.598h240.38v158.97h-240.38z"/>
  </clipPath>
 </defs>
 <rect height="216" width="378" y="0" x="0" fill="#fff"/>
 <g>
  <g clip-path="url(#dz)">
   <path fill="#fff" d="m2.3516 216h373.3v-216h-373.3z"/>
  </g>
  <g clip-path="url(#do)">
   <path stroke-linejoin="round" d="m2.3516 216h373.3v-216h-373.3zm0 0" stroke="#fff" stroke-linecap="round" stroke-miterlimit="10" stroke-width="1.067" fill="none"/>
  </g>
  <g clip-path="url(#dd)">
   <path fill="#fff" d="m35.141 181.57h239.38v-157.97l-239.38 0.002z"/>
  </g>
  <g clip-path="url(#cs)">
   <path stroke-linejoin="round" d="m35.141 26.293h239.38" stroke="#ebebeb" stroke-miterlimit="10" stroke-width=".53349" fill="none"/>
  </g>
  <g clip-path="url(#ch)">
   <path stroke-linejoin="round" d="m35.141 30.781h239.38" stroke="#ebebeb" stroke-miterlimit="10" stroke-width=".53349" fill="none"/>
  </g>
  <g clip-path="url(#bw)">
   <path stroke-linejoin="round" d="m35.141 39.754h239.38" stroke="#ebebeb" stroke-miterlimit="10" stroke-width=".53349" fill="none"/>
  </g>
  <g clip-path="url(#bl)">
   <path stroke-linejoin="round" d="m35.141 48.73h239.38" stroke="#ebebeb" stroke-miterlimit="10" stroke-width=".53349" fill="none"/>
  </g>
  <g clip-path="url(#ba)">
   <path stroke-linejoin="round" d="m35.141 57.707h239.38" stroke="#ebebeb" stroke-miterlimit="10" stroke-width=".53349" fill="none"/>
  </g>
  <g clip-path="url(#ap)">
   <path stroke-linejoin="round" d="m35.141 66.684h239.38" stroke="#ebebeb" stroke-miterlimit="10" stroke-width=".53349" fill="none"/>
  </g>
  <g clip-path="url(#dy)">
   <path stroke-linejoin="round" d="m35.141 75.656h239.38" stroke="#ebebeb" stroke-miterlimit="10" stroke-width=".53349" fill="none"/>
  </g>
  <g clip-path="url(#dx)">
   <path stroke-linejoin="round" d="m35.141 84.633h239.38" stroke="#ebebeb" stroke-miterlimit="10" stroke-width=".53349" fill="none"/>
  </g>
  <g clip-path="url(#dw)">
   <path stroke-linejoin="round" d="m35.141 93.609h239.38" stroke="#ebebeb" stroke-miterlimit="10" stroke-width=".53349" fill="none"/>
  </g>
  <g clip-path="url(#dv)">
   <path stroke-linejoin="round" d="m35.141 102.59h239.38" stroke="#ebebeb" stroke-miterlimit="10" stroke-width=".53349" fill="none"/>
  </g>
  <g clip-path="url(#du)">
   <path stroke-linejoin="round" d="m35.141 111.56h239.38" stroke="#ebebeb" stroke-miterlimit="10" stroke-width=".53349" fill="none"/>
  </g>
  <g clip-path="url(#dt)">
   <path stroke-linejoin="round" d="m35.141 120.54h239.38" stroke="#ebebeb" stroke-miterlimit="10" stroke-width=".53349" fill="none"/>
  </g>
  <g clip-path="url(#ds)">
   <path stroke-linejoin="round" d="m35.141 129.51h239.38" stroke="#ebebeb" stroke-miterlimit="10" stroke-width=".53349" fill="none"/>
  </g>
  <g clip-path="url(#dr)">
   <path stroke-linejoin="round" d="m35.141 138.49h239.38" stroke="#ebebeb" stroke-miterlimit="10" stroke-width=".53349" fill="none"/>
  </g>
  <g clip-path="url(#dq)">
   <path stroke-linejoin="round" d="m35.141 147.46h239.38" stroke="#ebebeb" stroke-miterlimit="10" stroke-width=".53349" fill="none"/>
  </g>
  <g clip-path="url(#dp)">
   <path stroke-linejoin="round" d="m35.141 156.44h239.38" stroke="#ebebeb" stroke-miterlimit="10" stroke-width=".53349" fill="none"/>
  </g>
  <g clip-path="url(#dn)">
   <path stroke-linejoin="round" d="m35.141 165.41h239.38" stroke="#ebebeb" stroke-miterlimit="10" stroke-width=".53349" fill="none"/>
  </g>
  <g clip-path="url(#dm)">
   <path stroke-linejoin="round" d="m35.141 174.39h239.38" stroke="#ebebeb" stroke-miterlimit="10" stroke-width=".53349" fill="none"/>
  </g>
  <g clip-path="url(#dl)">
   <path stroke-linejoin="round" d="m35.141 178.88h239.38" stroke="#ebebeb" stroke-miterlimit="10" stroke-width=".53349" fill="none"/>
  </g>
  <g clip-path="url(#dk)">
   <path stroke-linejoin="round" d="m41.488 181.57v-157.97" stroke="#ebebeb" stroke-miterlimit="10" stroke-width=".53349" fill="none"/>
  </g>
  <g clip-path="url(#dj)">
   <path stroke-linejoin="round" d="m46.023 181.57v-157.97" stroke="#ebebeb" stroke-miterlimit="10" stroke-width=".53349" fill="none"/>
  </g>
  <g clip-path="url(#di)">
   <path stroke-linejoin="round" d="m55.09 181.57v-157.97" stroke="#ebebeb" stroke-miterlimit="10" stroke-width=".53349" fill="none"/>
  </g>
  <g clip-path="url(#dh)">
   <path stroke-linejoin="round" d="m64.156 181.57v-157.97" stroke="#ebebeb" stroke-miterlimit="10" stroke-width=".53349" fill="none"/>
  </g>
  <g clip-path="url(#dg)">
   <path stroke-linejoin="round" d="m73.223 181.57v-157.97" stroke="#ebebeb" stroke-miterlimit="10" stroke-width=".53349" fill="none"/>
  </g>
  <g clip-path="url(#df)">
   <path stroke-linejoin="round" d="m82.293 181.57v-157.97" stroke="#ebebeb" stroke-miterlimit="10" stroke-width=".53349" fill="none"/>
  </g>
  <g clip-path="url(#de)">
   <path stroke-linejoin="round" d="m91.359 181.57v-157.97" stroke="#ebebeb" stroke-miterlimit="10" stroke-width=".53349" fill="none"/>
  </g>
  <g clip-path="url(#dc)">
   <path stroke-linejoin="round" d="m100.43 181.57v-157.97" stroke="#ebebeb" stroke-miterlimit="10" stroke-width=".53349" fill="none"/>
  </g>
  <g clip-path="url(#db)">
   <path stroke-linejoin="round" d="m109.49 181.57v-157.97" stroke="#ebebeb" stroke-miterlimit="10" stroke-width=".53349" fill="none"/>
  </g>
  <g clip-path="url(#da)">
   <path stroke-linejoin="round" d="m118.56 181.57v-157.97" stroke="#ebebeb" stroke-miterlimit="10" stroke-width=".53349" fill="none"/>
  </g>
  <g clip-path="url(#cz)">
   <path stroke-linejoin="round" d="m127.63 181.57v-157.97" stroke="#ebebeb" stroke-miterlimit="10" stroke-width=".53349" fill="none"/>
  </g>
  <g clip-path="url(#cy)">
   <path stroke-linejoin="round" d="m136.7 181.57v-157.97" stroke="#ebebeb" stroke-miterlimit="10" stroke-width=".53349" fill="none"/>
  </g>
  <g clip-path="url(#cx)">
   <path stroke-linejoin="round" d="m145.76 181.57v-157.97" stroke="#ebebeb" stroke-miterlimit="10" stroke-width=".53349" fill="none"/>
  </g>
  <g clip-path="url(#cw)">
   <path stroke-linejoin="round" d="m154.83 181.57v-157.97" stroke="#ebebeb" stroke-miterlimit="10" stroke-width=".53349" fill="none"/>
  </g>
  <g clip-path="url(#cv)">
   <path stroke-linejoin="round" d="m163.89 181.57v-157.97" stroke="#ebebeb" stroke-miterlimit="10" stroke-width=".53349" fill="none"/>
  </g>
  <g clip-path="url(#cu)">
   <path stroke-linejoin="round" d="m172.96 181.57v-157.97" stroke="#ebebeb" stroke-miterlimit="10" stroke-width=".53349" fill="none"/>
  </g>
  <g clip-path="url(#ct)">
   <path stroke-linejoin="round" d="m182.03 181.57v-157.97" stroke="#ebebeb" stroke-miterlimit="10" stroke-width=".53349" fill="none"/>
  </g>
  <g clip-path="url(#cr)">
   <path stroke-linejoin="round" d="m191.1 181.57v-157.97" stroke="#ebebeb" stroke-miterlimit="10" stroke-width=".53349" fill="none"/>
  </g>
  <g clip-path="url(#cq)">
   <path stroke-linejoin="round" d="m200.16 181.57v-157.97" stroke="#ebebeb" stroke-miterlimit="10" stroke-width=".53349" fill="none"/>
  </g>
  <g clip-path="url(#cp)">
   <path stroke-linejoin="round" d="m209.23 181.57v-157.97" stroke="#ebebeb" stroke-miterlimit="10" stroke-width=".53349" fill="none"/>
  </g>
  <g clip-path="url(#co)">
   <path stroke-linejoin="round" d="m218.3 181.57v-157.97" stroke="#ebebeb" stroke-miterlimit="10" stroke-width=".53349" fill="none"/>
  </g>
  <g clip-path="url(#cn)">
   <path stroke-linejoin="round" d="m227.37 181.57v-157.97" stroke="#ebebeb" stroke-miterlimit="10" stroke-width=".53349" fill="none"/>
  </g>
  <g clip-path="url(#cm)">
   <path stroke-linejoin="round" d="m236.43 181.57v-157.97" stroke="#ebebeb" stroke-miterlimit="10" stroke-width=".53349" fill="none"/>
  </g>
  <g clip-path="url(#cl)">
   <path stroke-linejoin="round" d="m245.5 181.57v-157.97" stroke="#ebebeb" stroke-miterlimit="10" stroke-width=".53349" fill="none"/>
  </g>
  <g clip-path="url(#ck)">
   <path stroke-linejoin="round" d="m254.57 181.57v-157.97" stroke="#ebebeb" stroke-miterlimit="10" stroke-width=".53349" fill="none"/>
  </g>
  <g clip-path="url(#cj)">
   <path stroke-linejoin="round" d="m263.64 181.57v-157.97" stroke="#ebebeb" stroke-miterlimit="10" stroke-width=".53349" fill="none"/>
  </g>
  <g clip-path="url(#ci)">
   <path stroke-linejoin="round" d="m268.17 181.57v-157.97" stroke="#ebebeb" stroke-miterlimit="10" stroke-width=".53349" fill="none"/>
  </g>
  <g clip-path="url(#cg)">
   <path stroke-linejoin="round" d="m35.141 35.266h239.38" stroke="#ebebeb" stroke-miterlimit="10" stroke-width="1.067" fill="none"/>
  </g>
  <g clip-path="url(#cf)">
   <path stroke-linejoin="round" d="m35.141 44.242h239.38" stroke="#ebebeb" stroke-miterlimit="10" stroke-width="1.067" fill="none"/>
  </g>
  <g clip-path="url(#ce)">
   <path stroke-linejoin="round" d="m35.141 53.219h239.38" stroke="#ebebeb" stroke-miterlimit="10" stroke-width="1.067" fill="none"/>
  </g>
  <g clip-path="url(#cd)">
   <path stroke-linejoin="round" d="m35.141 62.195h239.38" stroke="#ebebeb" stroke-miterlimit="10" stroke-width="1.067" fill="none"/>
  </g>
  <g clip-path="url(#cc)">
   <path stroke-linejoin="round" d="m35.141 71.168h239.38" stroke="#ebebeb" stroke-miterlimit="10" stroke-width="1.067" fill="none"/>
  </g>
  <g clip-path="url(#cb)">
   <path stroke-linejoin="round" d="m35.141 80.145h239.38" stroke="#ebebeb" stroke-miterlimit="10" stroke-width="1.067" fill="none"/>
  </g>
  <g clip-path="url(#ca)">
   <path stroke-linejoin="round" d="m35.141 89.121h239.38" stroke="#ebebeb" stroke-miterlimit="10" stroke-width="1.067" fill="none"/>
  </g>
  <g clip-path="url(#bz)">
   <path stroke-linejoin="round" d="m35.141 98.098h239.38" stroke="#ebebeb" stroke-miterlimit="10" stroke-width="1.067" fill="none"/>
  </g>
  <g clip-path="url(#by)">
   <path stroke-linejoin="round" d="m35.141 107.07h239.38" stroke="#ebebeb" stroke-miterlimit="10" stroke-width="1.067" fill="none"/>
  </g>
  <g clip-path="url(#bx)">
   <path stroke-linejoin="round" d="m35.141 116.05h239.38" stroke="#ebebeb" stroke-miterlimit="10" stroke-width="1.067" fill="none"/>
  </g>
  <g clip-path="url(#bv)">
   <path stroke-linejoin="round" d="m35.141 125.02h239.38" stroke="#ebebeb" stroke-miterlimit="10" stroke-width="1.067" fill="none"/>
  </g>
  <g clip-path="url(#bu)">
   <path stroke-linejoin="round" d="m35.141 134h239.38" stroke="#ebebeb" stroke-miterlimit="10" stroke-width="1.067" fill="none"/>
  </g>
  <g clip-path="url(#bt)">
   <path stroke-linejoin="round" d="m35.141 142.97h239.38" stroke="#ebebeb" stroke-miterlimit="10" stroke-width="1.067" fill="none"/>
  </g>
  <g clip-path="url(#bs)">
   <path stroke-linejoin="round" d="m35.141 151.95h239.38" stroke="#ebebeb" stroke-miterlimit="10" stroke-width="1.067" fill="none"/>
  </g>
  <g clip-path="url(#br)">
   <path stroke-linejoin="round" d="m35.141 160.93h239.38" stroke="#ebebeb" stroke-miterlimit="10" stroke-width="1.067" fill="none"/>
  </g>
  <g clip-path="url(#bq)">
   <path stroke-linejoin="round" d="m35.141 169.9h239.38" stroke="#ebebeb" stroke-miterlimit="10" stroke-width="1.067" fill="none"/>
  </g>
  <g clip-path="url(#bp)">
   <path stroke-linejoin="round" d="m50.555 181.57v-157.97" stroke="#ebebeb" stroke-miterlimit="10" stroke-width="1.067" fill="none"/>
  </g>
  <g clip-path="url(#bo)">
   <path stroke-linejoin="round" d="m59.625 181.57v-157.97" stroke="#ebebeb" stroke-miterlimit="10" stroke-width="1.067" fill="none"/>
  </g>
  <g clip-path="url(#bn)">
   <path stroke-linejoin="round" d="m68.691 181.57v-157.97" stroke="#ebebeb" stroke-miterlimit="10" stroke-width="1.067" fill="none"/>
  </g>
  <g clip-path="url(#bm)">
   <path stroke-linejoin="round" d="m77.758 181.57v-157.97" stroke="#ebebeb" stroke-miterlimit="10" stroke-width="1.067" fill="none"/>
  </g>
  <g clip-path="url(#bk)">
   <path stroke-linejoin="round" d="m86.824 181.57v-157.97" stroke="#ebebeb" stroke-miterlimit="10" stroke-width="1.067" fill="none"/>
  </g>
  <g clip-path="url(#bj)">
   <path stroke-linejoin="round" d="m95.891 181.57v-157.97" stroke="#ebebeb" stroke-miterlimit="10" stroke-width="1.067" fill="none"/>
  </g>
  <g clip-path="url(#bi)">
   <path stroke-linejoin="round" d="m104.96 181.57v-157.97" stroke="#ebebeb" stroke-miterlimit="10" stroke-width="1.067" fill="none"/>
  </g>
  <g clip-path="url(#bh)">
   <path stroke-linejoin="round" d="m114.03 181.57v-157.97" stroke="#ebebeb" stroke-miterlimit="10" stroke-width="1.067" fill="none"/>
  </g>
  <g clip-path="url(#bg)">
   <path stroke-linejoin="round" d="m123.09 181.57v-157.97" stroke="#ebebeb" stroke-miterlimit="10" stroke-width="1.067" fill="none"/>
  </g>
  <g clip-path="url(#bf)">
   <path stroke-linejoin="round" d="m132.16 181.57v-157.97" stroke="#ebebeb" stroke-miterlimit="10" stroke-width="1.067" fill="none"/>
  </g>
  <g clip-path="url(#be)">
   <path stroke-linejoin="round" d="m141.23 181.57v-157.97" stroke="#ebebeb" stroke-miterlimit="10" stroke-width="1.067" fill="none"/>
  </g>
  <g clip-path="url(#bd)">
   <path stroke-linejoin="round" d="m150.3 181.57v-157.97" stroke="#ebebeb" stroke-miterlimit="10" stroke-width="1.067" fill="none"/>
  </g>
  <g clip-path="url(#bc)">
   <path stroke-linejoin="round" d="m159.36 181.57v-157.97" stroke="#ebebeb" stroke-miterlimit="10" stroke-width="1.067" fill="none"/>
  </g>
  <g clip-path="url(#bb)">
   <path stroke-linejoin="round" d="m168.43 181.57v-157.97" stroke="#ebebeb" stroke-miterlimit="10" stroke-width="1.067" fill="none"/>
  </g>
  <g clip-path="url(#az)">
   <path stroke-linejoin="round" d="m177.5 181.57v-157.97" stroke="#ebebeb" stroke-miterlimit="10" stroke-width="1.067" fill="none"/>
  </g>
  <g clip-path="url(#ay)">
   <path stroke-linejoin="round" d="m186.56 181.57v-157.97" stroke="#ebebeb" stroke-miterlimit="10" stroke-width="1.067" fill="none"/>
  </g>
  <g clip-path="url(#ax)">
   <path stroke-linejoin="round" d="m195.63 181.57v-157.97" stroke="#ebebeb" stroke-miterlimit="10" stroke-width="1.067" fill="none"/>
  </g>
  <g clip-path="url(#aw)">
   <path stroke-linejoin="round" d="m204.7 181.57v-157.97" stroke="#ebebeb" stroke-miterlimit="10" stroke-width="1.067" fill="none"/>
  </g>
  <g clip-path="url(#av)">
   <path stroke-linejoin="round" d="m213.77 181.57v-157.97" stroke="#ebebeb" stroke-miterlimit="10" stroke-width="1.067" fill="none"/>
  </g>
  <g clip-path="url(#au)">
   <path stroke-linejoin="round" d="m222.83 181.57v-157.97" stroke="#ebebeb" stroke-miterlimit="10" stroke-width="1.067" fill="none"/>
  </g>
  <g clip-path="url(#at)">
   <path stroke-linejoin="round" d="m231.9 181.57v-157.97" stroke="#ebebeb" stroke-miterlimit="10" stroke-width="1.067" fill="none"/>
  </g>
  <g clip-path="url(#as)">
   <path stroke-linejoin="round" d="m240.97 181.57v-157.97" stroke="#ebebeb" stroke-miterlimit="10" stroke-width="1.067" fill="none"/>
  </g>
  <g clip-path="url(#ar)">
   <path stroke-linejoin="round" d="m250.04 181.57v-157.97" stroke="#ebebeb" stroke-miterlimit="10" stroke-width="1.067" fill="none"/>
  </g>
  <g clip-path="url(#aq)">
   <path stroke-linejoin="round" d="m259.1 181.57v-157.97" stroke="#ebebeb" stroke-miterlimit="10" stroke-width="1.067" fill="none"/>
  </g>
 </g>
 <g stroke-linejoin="round" stroke-opacity=".10196" fill-opacity=".10196" stroke="#e5e5e5" stroke-linecap="round" stroke-miterlimit="10" stroke-width=".70866" fill="#fff">
  <path d="m47.406 38.418h6.301v-6.301h-6.301z"/>
  <path d="m56.473 38.418h6.3v-6.301h-6.3z"/>
  <path d="m65.539 38.418h6.301v-6.301h-6.301z"/>
  <path d="m74.605 38.418h6.301v-6.301h-6.301z"/>
  <path d="m83.676 38.418h6.301v-6.301h-6.301z"/>
  <path d="m92.742 38.418h6.301v-6.301h-6.301z"/>
  <path d="m101.81 38.418h6.3v-6.301h-6.3z"/>
  <path d="m110.88 38.418h6.3v-6.301h-6.3z"/>
  <path d="m119.94 38.418h6.3v-6.301h-6.3z"/>
  <path d="m129.01 38.418h6.3v-6.301h-6.3z"/>
  <path d="m138.08 38.418h6.3v-6.301h-6.3z"/>
  <path d="m147.14 38.418h6.31v-6.301h-6.31z"/>
  <path d="m156.21 38.418h6.3v-6.301h-6.3z"/>
  <path d="m165.28 38.418h6.3v-6.301h-6.3z"/>
  <path d="m174.35 38.418h6.3v-6.301h-6.3z"/>
  <path d="m183.41 38.418h6.3v-6.301h-6.3z"/>
  <path d="m192.48 38.418h6.3v-6.301h-6.3z"/>
  <path d="m201.55 38.418h6.3v-6.301h-6.3z"/>
  <path d="m210.61 38.418h6.3v-6.301h-6.3z"/>
  <path d="m219.68 38.418h6.3v-6.301h-6.3z"/>
  <path d="m228.75 38.418h6.3v-6.301h-6.3z"/>
  <path d="m237.82 38.418h6.3v-6.301h-6.3z"/>
  <path d="m246.88 38.418h6.3v-6.301h-6.3z"/>
  <path d="m255.95 38.418h6.3v-6.301h-6.3z"/>
  <path d="m47.406 47.395h6.301v-6.301h-6.301z"/>
  <path d="m56.473 47.395h6.3v-6.301h-6.3z"/>
  <path d="m65.539 47.395h6.301v-6.301h-6.301z"/>
  <path d="m74.605 47.395h6.301v-6.301h-6.301z"/>
  <path d="m83.676 47.395h6.301v-6.301h-6.301z"/>
  <path d="m92.742 47.395h6.301v-6.301h-6.301z"/>
  <path d="m101.81 47.395h6.3v-6.301h-6.3z"/>
  <path d="m110.88 47.395h6.3v-6.301h-6.3z"/>
  <path d="m119.94 47.395h6.3v-6.301h-6.3z"/>
  <path d="m129.01 47.395h6.3v-6.301h-6.3z"/>
  <path d="m138.08 47.395h6.3v-6.301h-6.3z"/>
  <path d="m147.14 47.395h6.31v-6.301h-6.31z"/>
  <path d="m156.21 47.395h6.3v-6.301h-6.3z"/>
  <path d="m165.28 47.395h6.3v-6.301h-6.3z"/>
  <path d="m174.35 47.395h6.3v-6.301h-6.3z"/>
  <path d="m183.41 47.395h6.3v-6.301h-6.3z"/>
  <path d="m192.48 47.395h6.3v-6.301h-6.3z"/>
  <path d="m201.55 47.395h6.3v-6.301h-6.3z"/>
  <path d="m210.61 47.395h6.3v-6.301h-6.3z"/>
  <path d="m219.68 47.395h6.3v-6.301h-6.3z"/>
  <path d="m228.75 47.395h6.3v-6.301h-6.3z"/>
  <path d="m237.82 47.395h6.3v-6.301h-6.3z"/>
  <path d="m246.88 47.395h6.3v-6.301h-6.3z"/>
  <path d="m255.95 47.395h6.3v-6.301h-6.3z"/>
  <path d="m47.406 56.367h6.301v-6.301h-6.301z"/>
  <path d="m56.473 56.367h6.3v-6.301h-6.3z"/>
  <path d="m65.539 56.367h6.301v-6.301h-6.301z"/>
  <path d="m74.605 56.367h6.301v-6.301h-6.301z"/>
  <path d="m83.676 56.367h6.301v-6.301h-6.301z"/>
  <path d="m92.742 56.367h6.301v-6.301h-6.301z"/>
  <path d="m101.81 56.367h6.3v-6.301h-6.3z"/>
  <path d="m110.88 56.367h6.3v-6.301h-6.3z"/>
  <path d="m119.94 56.367h6.3v-6.301h-6.3z"/>
  <path d="m129.01 56.367h6.3v-6.301h-6.3z"/>
  <path d="m138.08 56.367h6.3v-6.301h-6.3z"/>
  <path d="m147.14 56.367h6.31v-6.301h-6.31z"/>
  <path d="m156.21 56.367h6.3v-6.301h-6.3z"/>
  <path d="m165.28 56.367h6.3v-6.301h-6.3z"/>
  <path d="m174.35 56.367h6.3v-6.301h-6.3z"/>
  <path d="m183.41 56.367h6.3v-6.301h-6.3z"/>
  <path d="m192.48 56.367h6.3v-6.301h-6.3z"/>
  <path d="m201.55 56.367h6.3v-6.301h-6.3z"/>
  <path d="m210.61 56.367h6.3v-6.301h-6.3z"/>
  <path d="m219.68 56.367h6.3v-6.301h-6.3z"/>
  <path d="m228.75 56.367h6.3v-6.301h-6.3z"/>
  <path d="m237.82 56.367h6.3v-6.301h-6.3z"/>
  <path d="m246.88 56.367h6.3v-6.301h-6.3z"/>
  <path d="m255.95 56.367h6.3v-6.301h-6.3z"/>
  <path d="m47.406 65.344h6.301v-6.301h-6.301z"/>
  <path d="m56.473 65.344h6.3v-6.301h-6.3z"/>
  <path d="m65.539 65.344h6.301v-6.301h-6.301z"/>
  <path d="m74.605 65.344h6.301v-6.301h-6.301z"/>
  <path d="m83.676 65.344h6.301v-6.301h-6.301z"/>
  <path d="m92.742 65.344h6.301v-6.301h-6.301z"/>
  <path d="m101.81 65.344h6.3v-6.301h-6.3z"/>
  <path d="m110.88 65.344h6.3v-6.301h-6.3z"/>
  <path d="m119.94 65.344h6.3v-6.301h-6.3z"/>
  <path d="m129.01 65.344h6.3v-6.301h-6.3z"/>
  <path d="m138.08 65.344h6.3v-6.301h-6.3z"/>
  <path d="m147.14 65.344h6.31v-6.301h-6.31z"/>
  <path d="m156.21 65.344h6.3v-6.301h-6.3z"/>
  <path d="m165.28 65.344h6.3v-6.301h-6.3z"/>
  <path d="m174.35 65.344h6.3v-6.301h-6.3z"/>
  <path d="m183.41 65.344h6.3v-6.301h-6.3z"/>
  <path d="m192.48 65.344h6.3v-6.301h-6.3z"/>
  <path d="m201.55 65.344h6.3v-6.301h-6.3z"/>
  <path d="m210.61 65.344h6.3v-6.301h-6.3z"/>
  <path d="m219.68 65.344h6.3v-6.301h-6.3z"/>
  <path d="m228.75 65.344h6.3v-6.301h-6.3z"/>
  <path d="m237.82 65.344h6.3v-6.301h-6.3z"/>
  <path d="m246.88 65.344h6.3v-6.301h-6.3z"/>
  <path d="m255.95 65.344h6.3v-6.301h-6.3z"/>
  <path d="m47.406 74.32h6.301v-6.3h-6.301z"/>
  <path d="m56.473 74.32h6.3v-6.3h-6.3z"/>
  <path d="m65.539 74.32h6.301v-6.3h-6.301z"/>
  <path d="m74.605 74.32h6.301v-6.3h-6.301z"/>
  <path d="m83.676 74.32h6.301v-6.3h-6.301z"/>
  <path d="m92.742 74.32h6.301v-6.3h-6.301z"/>
  <path d="m101.81 74.32h6.3v-6.3h-6.3z"/>
  <path d="m110.88 74.32h6.3v-6.3h-6.3z"/>
  <path d="m119.94 74.32h6.3v-6.3h-6.3z"/>
  <path d="m129.01 74.32h6.3v-6.3h-6.3z"/>
  <path d="m138.08 74.32h6.3v-6.3h-6.3z"/>
  <path d="m147.14 74.32h6.31v-6.3h-6.31z"/>
  <path d="m156.21 74.32h6.3v-6.3h-6.3z"/>
  <path d="m165.28 74.32h6.3v-6.3h-6.3z"/>
  <path d="m174.35 74.32h6.3v-6.3h-6.3z"/>
  <path d="m183.41 74.32h6.3v-6.3h-6.3z"/>
  <path d="m192.48 74.32h6.3v-6.3h-6.3z"/>
  <path d="m201.55 74.32h6.3v-6.3h-6.3z"/>
  <path d="m210.61 74.32h6.3v-6.3h-6.3z"/>
  <path d="m219.68 74.32h6.3v-6.3h-6.3z"/>
  <path d="m228.75 74.32h6.3v-6.3h-6.3z"/>
  <path d="m237.82 74.32h6.3v-6.3h-6.3z"/>
  <path d="m246.88 74.32h6.3v-6.3h-6.3z"/>
  <path d="m255.95 74.32h6.3v-6.3h-6.3z"/>
  <path d="m47.406 83.297h6.301v-6.301h-6.301z"/>
  <path d="m56.473 83.297h6.3v-6.301h-6.3z"/>
  <path d="m65.539 83.297h6.301v-6.301h-6.301z"/>
  <path d="m74.605 83.297h6.301v-6.301h-6.301z"/>
  <path d="m83.676 83.297h6.301v-6.301h-6.301z"/>
  <path d="m92.742 83.297h6.301v-6.301h-6.301z"/>
  <path d="m101.81 83.297h6.3v-6.301h-6.3z"/>
  <path d="m110.88 83.297h6.3v-6.301h-6.3z"/>
  <path d="m119.94 83.297h6.3v-6.301h-6.3z"/>
  <path d="m129.01 83.297h6.3v-6.301h-6.3z"/>
  <path d="m138.08 83.297h6.3v-6.301h-6.3z"/>
  <path d="m147.14 83.297h6.31v-6.301h-6.31z"/>
  <path d="m156.21 83.297h6.3v-6.301h-6.3z"/>
  <path d="m165.28 83.297h6.3v-6.301h-6.3z"/>
  <path d="m174.35 83.297h6.3v-6.301h-6.3z"/>
  <path d="m183.41 83.297h6.3v-6.301h-6.3z"/>
  <path d="m192.48 83.297h6.3v-6.301h-6.3z"/>
  <path d="m201.55 83.297h6.3v-6.301h-6.3z"/>
  <path d="m210.61 83.297h6.3v-6.301h-6.3z"/>
  <path d="m219.68 83.297h6.3v-6.301h-6.3z"/>
  <path d="m228.75 83.297h6.3v-6.301h-6.3z"/>
  <path d="m237.82 83.297h6.3v-6.301h-6.3z"/>
  <path d="m246.88 83.297h6.3v-6.301h-6.3z"/>
  <path d="m255.95 83.297h6.3v-6.301h-6.3z"/>
  <path d="m47.406 92.273h6.301v-6.3h-6.301z"/>
  <path d="m56.473 92.273h6.3v-6.3h-6.3z"/>
  <path d="m65.539 92.273h6.301v-6.3h-6.301z"/>
  <path d="m74.605 92.273h6.301v-6.3h-6.301z"/>
  <path d="m83.676 92.273h6.301v-6.3h-6.301z"/>
  <path d="m92.742 92.273h6.301v-6.3h-6.301z"/>
  <path d="m101.81 92.273h6.3v-6.3h-6.3z"/>
  <path d="m110.88 92.273h6.3v-6.3h-6.3z"/>
  <path d="m119.94 92.273h6.3v-6.3h-6.3z"/>
  <path d="m129.01 92.273h6.3v-6.3h-6.3z"/>
  <path d="m138.08 92.273h6.3v-6.3h-6.3z"/>
  <path d="m147.14 92.273h6.31v-6.3h-6.31z"/>
  <path d="m156.21 92.273h6.3v-6.3h-6.3z"/>
  <path d="m165.28 92.273h6.3v-6.3h-6.3z"/>
  <path d="m174.35 92.273h6.3v-6.3h-6.3z"/>
  <path d="m183.41 92.273h6.3v-6.3h-6.3z"/>
  <path d="m192.48 92.273h6.3v-6.3h-6.3z"/>
  <path d="m201.55 92.273h6.3v-6.3h-6.3z"/>
  <path d="m210.61 92.273h6.3v-6.3h-6.3z"/>
  <path d="m219.68 92.273h6.3v-6.3h-6.3z"/>
  <path d="m228.75 92.273h6.3v-6.3h-6.3z"/>
  <path d="m237.82 92.273h6.3v-6.3h-6.3z"/>
  <path d="m246.88 92.273h6.3v-6.3h-6.3z"/>
  <path d="m255.95 92.273h6.3v-6.3h-6.3z"/>
  <path d="m47.406 101.25h6.301v-6.305h-6.301z"/>
  <path d="m56.473 101.25h6.3v-6.305h-6.3z"/>
  <path d="m65.539 101.25h6.301v-6.305h-6.301z"/>
  <path d="m74.605 101.25h6.301v-6.305h-6.301z"/>
  <path d="m83.676 101.25h6.301v-6.305h-6.301z"/>
  <path d="m92.742 101.25h6.301v-6.305h-6.301z"/>
  <path d="m101.81 101.25h6.3v-6.305h-6.3z"/>
  <path d="m110.88 101.25h6.3v-6.305h-6.3z"/>
  <path d="m119.94 101.25h6.3v-6.305h-6.3z"/>
  <path d="m129.01 101.25h6.3v-6.305h-6.3z"/>
  <path d="m138.08 101.25h6.3v-6.305h-6.3z"/>
  <path d="m147.14 101.25h6.31v-6.305h-6.31z"/>
  <path d="m156.21 101.25h6.3v-6.305h-6.3z"/>
  <path d="m165.28 101.25h6.3v-6.305h-6.3z"/>
  <path d="m174.35 101.25h6.3v-6.305h-6.3z"/>
  <path d="m183.41 101.25h6.3v-6.305h-6.3z"/>
  <path d="m192.48 101.25h6.3v-6.305h-6.3z"/>
  <path d="m201.55 101.25h6.3v-6.305h-6.3z"/>
  <path d="m210.61 101.25h6.3v-6.305h-6.3z"/>
  <path d="m219.68 101.25h6.3v-6.305h-6.3z"/>
  <path d="m228.75 101.25h6.3v-6.305h-6.3z"/>
  <path d="m237.82 101.25h6.3v-6.305h-6.3z"/>
  <path d="m246.88 101.25h6.3v-6.305h-6.3z"/>
  <path d="m255.95 101.25h6.3v-6.305h-6.3z"/>
  <path d="m47.406 110.22h6.301v-6.3h-6.301z"/>
  <path d="m56.473 110.22h6.3v-6.3h-6.3z"/>
  <path d="m65.539 110.22h6.301v-6.3h-6.301z"/>
  <path d="m74.605 110.22h6.301v-6.3h-6.301z"/>
  <path d="m83.676 110.22h6.301v-6.3h-6.301z"/>
  <path d="m92.742 110.22h6.301v-6.3h-6.301z"/>
  <path d="m101.81 110.22h6.3v-6.3h-6.3z"/>
  <path d="m110.88 110.22h6.3v-6.3h-6.3z"/>
  <path d="m119.94 110.22h6.3v-6.3h-6.3z"/>
  <path d="m129.01 110.22h6.3v-6.3h-6.3z"/>
  <path d="m138.08 110.22h6.3v-6.3h-6.3z"/>
  <path d="m147.14 110.22h6.31v-6.3h-6.31z"/>
  <path d="m156.21 110.22h6.3v-6.3h-6.3z"/>
  <path d="m165.28 110.22h6.3v-6.3h-6.3z"/>
  <path d="m174.35 110.22h6.3v-6.3h-6.3z"/>
  <path d="m183.41 110.22h6.3v-6.3h-6.3z"/>
  <path d="m192.48 110.22h6.3v-6.3h-6.3z"/>
  <path d="m201.55 110.22h6.3v-6.3h-6.3z"/>
  <path d="m210.61 110.22h6.3v-6.3h-6.3z"/>
  <path d="m219.68 110.22h6.3v-6.3h-6.3z"/>
  <path d="m228.75 110.22h6.3v-6.3h-6.3z"/>
  <path d="m237.82 110.22h6.3v-6.3h-6.3z"/>
  <path d="m246.88 110.22h6.3v-6.3h-6.3z"/>
  <path d="m255.95 110.22h6.3v-6.3h-6.3z"/>
  <path d="m47.406 119.2h6.301v-6.3h-6.301z"/>
  <path d="m56.473 119.2h6.3v-6.3h-6.3z"/>
  <path d="m65.539 119.2h6.301v-6.3h-6.301z"/>
  <path d="m74.605 119.2h6.301v-6.3h-6.301z"/>
  <path d="m83.676 119.2h6.301v-6.3h-6.301z"/>
  <path d="m92.742 119.2h6.301v-6.3h-6.301z"/>
  <path d="m101.81 119.2h6.3v-6.3h-6.3z"/>
  <path d="m110.88 119.2h6.3v-6.3h-6.3z"/>
  <path d="m119.94 119.2h6.3v-6.3h-6.3z"/>
  <path d="m129.01 119.2h6.3v-6.3h-6.3z"/>
  <path d="m138.08 119.2h6.3v-6.3h-6.3z"/>
  <path d="m147.14 119.2h6.31v-6.3h-6.31z"/>
  <path d="m156.21 119.2h6.3v-6.3h-6.3z"/>
  <path d="m165.28 119.2h6.3v-6.3h-6.3z"/>
  <path d="m174.35 119.2h6.3v-6.3h-6.3z"/>
  <path d="m183.41 119.2h6.3v-6.3h-6.3z"/>
  <path d="m192.48 119.2h6.3v-6.3h-6.3z"/>
  <path d="m201.55 119.2h6.3v-6.3h-6.3z"/>
  <path d="m210.61 119.2h6.3v-6.3h-6.3z"/>
  <path d="m219.68 119.2h6.3v-6.3h-6.3z"/>
  <path d="m228.75 119.2h6.3v-6.3h-6.3z"/>
  <path d="m237.82 119.2h6.3v-6.3h-6.3z"/>
  <path d="m246.88 119.2h6.3v-6.3h-6.3z"/>
  <path d="m255.95 119.2h6.3v-6.3h-6.3z"/>
  <path d="m47.406 128.18h6.301v-6.3h-6.301z"/>
  <path d="m56.473 128.18h6.3v-6.3h-6.3z"/>
  <path d="m65.539 128.18h6.301v-6.3h-6.301z"/>
  <path d="m74.605 128.18h6.301v-6.3h-6.301z"/>
  <path d="m83.676 128.18h6.301v-6.3h-6.301z"/>
  <path d="m92.742 128.18h6.301v-6.3h-6.301z"/>
  <path d="m101.81 128.18h6.3v-6.3h-6.3z"/>
  <path d="m110.88 128.18h6.3v-6.3h-6.3z"/>
  <path d="m119.94 128.18h6.3v-6.3h-6.3z"/>
  <path d="m129.01 128.18h6.3v-6.3h-6.3z"/>
  <path d="m138.08 128.18h6.3v-6.3h-6.3z"/>
  <path d="m147.14 128.18h6.31v-6.3h-6.31z"/>
  <path d="m156.21 128.18h6.3v-6.3h-6.3z"/>
  <path d="m165.28 128.18h6.3v-6.3h-6.3z"/>
  <path d="m174.35 128.18h6.3v-6.3h-6.3z"/>
  <path d="m183.41 128.18h6.3v-6.3h-6.3z"/>
  <path d="m192.48 128.18h6.3v-6.3h-6.3z"/>
  <path d="m201.55 128.18h6.3v-6.3h-6.3z"/>
  <path d="m210.61 128.18h6.3v-6.3h-6.3z"/>
  <path d="m219.68 128.18h6.3v-6.3h-6.3z"/>
  <path d="m228.75 128.18h6.3v-6.3h-6.3z"/>
  <path d="m237.82 128.18h6.3v-6.3h-6.3z"/>
  <path d="m246.88 128.18h6.3v-6.3h-6.3z"/>
  <path d="m255.95 128.18h6.3v-6.3h-6.3z"/>
  <path d="m47.406 137.15h6.301v-6.3h-6.301z"/>
  <path d="m56.473 137.15h6.3v-6.3h-6.3z"/>
  <path d="m65.539 137.15h6.301v-6.3h-6.301z"/>
  <path d="m74.605 137.15h6.301v-6.3h-6.301z"/>
  <path d="m83.676 137.15h6.301v-6.3h-6.301z"/>
  <path d="m92.742 137.15h6.301v-6.3h-6.301z"/>
  <path d="m101.81 137.15h6.3v-6.3h-6.3z"/>
  <path d="m110.88 137.15h6.3v-6.3h-6.3z"/>
  <path d="m119.94 137.15h6.3v-6.3h-6.3z"/>
  <path d="m129.01 137.15h6.3v-6.3h-6.3z"/>
  <path d="m138.08 137.15h6.3v-6.3h-6.3z"/>
  <path d="m147.14 137.15h6.31v-6.3h-6.31z"/>
  <path d="m156.21 137.15h6.3v-6.3h-6.3z"/>
  <path d="m165.28 137.15h6.3v-6.3h-6.3z"/>
  <path d="m174.35 137.15h6.3v-6.3h-6.3z"/>
  <path d="m183.41 137.15h6.3v-6.3h-6.3z"/>
  <path d="m192.48 137.15h6.3v-6.3h-6.3z"/>
  <path d="m201.55 137.15h6.3v-6.3h-6.3z"/>
  <path d="m210.61 137.15h6.3v-6.3h-6.3z"/>
  <path d="m219.68 137.15h6.3v-6.3h-6.3z"/>
  <path d="m228.75 137.15h6.3v-6.3h-6.3z"/>
  <path d="m237.82 137.15h6.3v-6.3h-6.3z"/>
  <path d="m246.88 137.15h6.3v-6.3h-6.3z"/>
  <path d="m255.95 137.15h6.3v-6.3h-6.3z"/>
  <path d="m47.406 146.12h6.301v-6.3h-6.301z"/>
  <path d="m56.473 146.12h6.3v-6.3h-6.3z"/>
  <path d="m65.539 146.12h6.301v-6.3h-6.301z"/>
  <path d="m74.605 146.12h6.301v-6.3h-6.301z"/>
  <path d="m83.676 146.12h6.301v-6.3h-6.301z"/>
  <path d="m92.742 146.12h6.301v-6.3h-6.301z"/>
  <path d="m101.81 146.12h6.3v-6.3h-6.3z"/>
  <path d="m110.88 146.12h6.3v-6.3h-6.3z"/>
  <path d="m119.94 146.12h6.3v-6.3h-6.3z"/>
  <path d="m129.01 146.12h6.3v-6.3h-6.3z"/>
  <path d="m138.08 146.12h6.3v-6.3h-6.3z"/>
  <path d="m147.14 146.12h6.31v-6.3h-6.31z"/>
  <path d="m156.21 146.12h6.3v-6.3h-6.3z"/>
  <path d="m165.28 146.12h6.3v-6.3h-6.3z"/>
  <path d="m174.35 146.12h6.3v-6.3h-6.3z"/>
  <path d="m183.41 146.12h6.3v-6.3h-6.3z"/>
  <path d="m192.48 146.12h6.3v-6.3h-6.3z"/>
  <path d="m201.55 146.12h6.3v-6.3h-6.3z"/>
  <path d="m210.61 146.12h6.3v-6.3h-6.3z"/>
  <path d="m219.68 146.12h6.3v-6.3h-6.3z"/>
  <path d="m228.75 146.12h6.3v-6.3h-6.3z"/>
  <path d="m237.82 146.12h6.3v-6.3h-6.3z"/>
  <path d="m246.88 146.12h6.3v-6.3h-6.3z"/>
  <path d="m255.95 146.12h6.3v-6.3h-6.3z"/>
  <path d="m47.406 155.1h6.301v-6.3h-6.301z"/>
  <path d="m56.473 155.1h6.3v-6.3h-6.3z"/>
  <path d="m65.539 155.1h6.301v-6.3h-6.301z"/>
  <path d="m74.605 155.1h6.301v-6.3h-6.301z"/>
  <path d="m83.676 155.1h6.301v-6.3h-6.301z"/>
  <path d="m92.742 155.1h6.301v-6.3h-6.301z"/>
  <path d="m101.81 155.1h6.3v-6.3h-6.3z"/>
  <path d="m110.88 155.1h6.3v-6.3h-6.3z"/>
  <path d="m119.94 155.1h6.3v-6.3h-6.3z"/>
  <path d="m129.01 155.1h6.3v-6.3h-6.3z"/>
  <path d="m138.08 155.1h6.3v-6.3h-6.3z"/>
  <path d="m147.14 155.1h6.31v-6.3h-6.31z"/>
  <path d="m156.21 155.1h6.3v-6.3h-6.3z"/>
  <path d="m165.28 155.1h6.3v-6.3h-6.3z"/>
  <path d="m174.35 155.1h6.3v-6.3h-6.3z"/>
  <path d="m183.41 155.1h6.3v-6.3h-6.3z"/>
  <path d="m192.48 155.1h6.3v-6.3h-6.3z"/>
  <path d="m201.55 155.1h6.3v-6.3h-6.3z"/>
  <path d="m210.61 155.1h6.3v-6.3h-6.3z"/>
  <path d="m219.68 155.1h6.3v-6.3h-6.3z"/>
  <path d="m228.75 155.1h6.3v-6.3h-6.3z"/>
  <path d="m237.82 155.1h6.3v-6.3h-6.3z"/>
  <path d="m246.88 155.1h6.3v-6.3h-6.3z"/>
  <path d="m255.95 155.1h6.3v-6.3h-6.3z"/>
  <path d="m47.406 164.08h6.301v-6.3h-6.301z"/>
  <path d="m56.473 164.08h6.3v-6.3h-6.3z"/>
  <path d="m65.539 164.08h6.301v-6.3h-6.301z"/>
  <path d="m74.605 164.08h6.301v-6.3h-6.301z"/>
  <path d="m83.676 164.08h6.301v-6.3h-6.301z"/>
  <path d="m92.742 164.08h6.301v-6.3h-6.301z"/>
  <path d="m101.81 164.08h6.3v-6.3h-6.3z"/>
  <path d="m110.88 164.08h6.3v-6.3h-6.3z"/>
  <path d="m119.94 164.08h6.3v-6.3h-6.3z"/>
  <path d="m129.01 164.08h6.3v-6.3h-6.3z"/>
  <path d="m138.08 164.08h6.3v-6.3h-6.3z"/>
  <path d="m147.14 164.08h6.31v-6.3h-6.31z"/>
  <path d="m156.21 164.08h6.3v-6.3h-6.3z"/>
  <path d="m165.28 164.08h6.3v-6.3h-6.3z"/>
  <path d="m174.35 164.08h6.3v-6.3h-6.3z"/>
  <path d="m183.41 164.08h6.3v-6.3h-6.3z"/>
  <path d="m192.48 164.08h6.3v-6.3h-6.3z"/>
  <path d="m201.55 164.08h6.3v-6.3h-6.3z"/>
  <path d="m210.61 164.08h6.3v-6.3h-6.3z"/>
  <path d="m219.68 164.08h6.3v-6.3h-6.3z"/>
  <path d="m228.75 164.08h6.3v-6.3h-6.3z"/>
  <path d="m237.82 164.08h6.3v-6.3h-6.3z"/>
  <path d="m246.88 164.08h6.3v-6.3h-6.3z"/>
  <path d="m255.95 164.08h6.3v-6.3h-6.3z"/>
  <path d="m47.406 173.05h6.301v-6.3h-6.301z"/>
  <path d="m56.473 173.05h6.3v-6.3h-6.3z"/>
  <path d="m65.539 173.05h6.301v-6.3h-6.301z"/>
  <path d="m74.605 173.05h6.301v-6.3h-6.301z"/>
  <path d="m83.676 173.05h6.301v-6.3h-6.301z"/>
  <path d="m92.742 173.05h6.301v-6.3h-6.301z"/>
  <path d="m101.81 173.05h6.3v-6.3h-6.3z"/>
  <path d="m110.88 173.05h6.3v-6.3h-6.3z"/>
  <path d="m119.94 173.05h6.3v-6.3h-6.3z"/>
  <path d="m129.01 173.05h6.3v-6.3h-6.3z"/>
  <path d="m138.08 173.05h6.3v-6.3h-6.3z"/>
  <path d="m147.14 173.05h6.31v-6.3h-6.31z"/>
  <path d="m156.21 173.05h6.3v-6.3h-6.3z"/>
  <path d="m165.28 173.05h6.3v-6.3h-6.3z"/>
  <path d="m174.35 173.05h6.3v-6.3h-6.3z"/>
  <path d="m183.41 173.05h6.3v-6.3h-6.3z"/>
  <path d="m192.48 173.05h6.3v-6.3h-6.3z"/>
  <path d="m201.55 173.05h6.3v-6.3h-6.3z"/>
  <path d="m210.61 173.05h6.3v-6.3h-6.3z"/>
  <path d="m219.68 173.05h6.3v-6.3h-6.3z"/>
  <path d="m228.75 173.05h6.3v-6.3h-6.3z"/>
  <path d="m237.82 173.05h6.3v-6.3h-6.3z"/>
  <path d="m246.88 173.05h6.3v-6.3h-6.3z"/>
  <path d="m255.95 173.05h6.3v-6.3h-6.3z"/>
 </g>
 <g stroke-linejoin="round" stroke="#333" stroke-linecap="round" stroke-miterlimit="10" stroke-width=".70866" fill="#00bfc3">
  <path d="m45.516 40.309h10.082v-10.082h-10.082z"/>
  <path d="m54.582 40.309h10.082v-10.082h-10.082z"/>
  <path d="m63.648 40.309h10.082v-10.082h-10.082z"/>
  <path d="m72.715 40.309h10.082v-10.082h-10.082z"/>
  <path d="m81.781 40.309h10.082v-10.082h-10.082z"/>
  <path d="m90.852 40.309h10.078v-10.082h-10.078z"/>
  <path d="m99.918 40.309h10.082v-10.082h-10.082z"/>
  <path d="m108.98 40.309h10.09v-10.082h-10.09z"/>
  <path d="m45.516 58.262h10.082v-10.082h-10.082z"/>
  <path d="m54.582 58.262h10.082v-10.082h-10.082z"/>
  <path d="m63.648 58.262h10.082v-10.082h-10.082z"/>
  <path d="m72.715 58.262h10.082v-10.082h-10.082z"/>
  <path d="m81.781 58.262h10.082v-10.082h-10.082z"/>
  <path d="m90.852 58.262h10.078v-10.082h-10.078z"/>
  <path d="m99.918 58.262h10.082v-10.082h-10.082z"/>
  <path d="m108.98 58.262h10.09v-10.082h-10.09z"/>
  <path d="m45.516 76.211h10.082v-10.082h-10.082z"/>
  <path d="m54.582 76.211h10.082v-10.082h-10.082z"/>
  <path d="m63.648 76.211h10.082v-10.082h-10.082z"/>
  <path d="m72.715 76.211h10.082v-10.082h-10.082z"/>
  <path d="m81.781 76.211h10.082v-10.082h-10.082z"/>
  <path d="m90.852 76.211h10.078v-10.082h-10.078z"/>
  <path d="m99.918 76.211h10.082v-10.082h-10.082z"/>
  <path d="m108.98 76.211h10.09v-10.082h-10.09z"/>
  <path d="m45.516 94.164h10.082v-10.082h-10.082z"/>
  <path d="m54.582 94.164h10.082v-10.082h-10.082z"/>
  <path d="m63.648 94.164h10.082v-10.082h-10.082z"/>
  <path d="m72.715 94.164h10.082v-10.082h-10.082z"/>
  <path d="m81.781 94.164h10.082v-10.082h-10.082z"/>
  <path d="m90.852 94.164h10.078v-10.082h-10.078z"/>
  <path d="m99.918 94.164h10.082v-10.082h-10.082z"/>
  <path d="m108.98 94.164h10.09v-10.082h-10.09z"/>
  <path d="m45.516 112.11h10.082v-10.08h-10.082z"/>
  <path d="m54.582 112.11h10.082v-10.08h-10.082z"/>
  <path d="m63.648 112.11h10.082v-10.08h-10.082z"/>
  <path d="m72.715 112.11h10.082v-10.08h-10.082z"/>
  <path d="m81.781 112.11h10.082v-10.08h-10.082z"/>
  <path d="m90.852 112.11h10.078v-10.08h-10.078z"/>
  <path d="m99.918 112.11h10.082v-10.08h-10.082z"/>
  <path d="m108.98 112.11h10.09v-10.08h-10.09z"/>
  <path d="m45.516 130.07h10.082v-10.09h-10.082z"/>
  <path d="m54.582 130.07h10.082v-10.09h-10.082z"/>
  <path d="m63.648 130.07h10.082v-10.09h-10.082z"/>
  <path d="m72.715 130.07h10.082v-10.09h-10.082z"/>
  <path d="m81.781 130.07h10.082v-10.09h-10.082z"/>
  <path d="m90.852 130.07h10.078v-10.09h-10.078z"/>
  <path d="m99.918 130.07h10.082v-10.09h-10.082z"/>
  <path d="m108.98 130.07h10.09v-10.09h-10.09z"/>
  <path d="m45.516 148.02h10.082v-10.09h-10.082z"/>
  <path d="m54.582 148.02h10.082v-10.09h-10.082z"/>
  <path d="m63.648 148.02h10.082v-10.09h-10.082z"/>
  <path d="m72.715 148.02h10.082v-10.09h-10.082z"/>
  <path d="m81.781 148.02h10.082v-10.09h-10.082z"/>
  <path d="m90.852 148.02h10.078v-10.09h-10.078z"/>
  <path d="m99.918 148.02h10.082v-10.09h-10.082z"/>
  <path d="m108.98 148.02h10.09v-10.09h-10.09z"/>
  <path d="m45.516 165.97h10.082v-10.08h-10.082z"/>
  <path d="m54.582 165.97h10.082v-10.08h-10.082z"/>
  <path d="m63.648 165.97h10.082v-10.08h-10.082z"/>
  <path d="m72.715 165.97h10.082v-10.08h-10.082z"/>
  <path d="m81.781 165.97h10.082v-10.08h-10.082z"/>
  <path d="m90.852 165.97h10.078v-10.08h-10.078z"/>
  <path d="m99.918 165.97h10.082v-10.08h-10.082z"/>
  <path d="m108.98 165.97h10.09v-10.08h-10.09z"/>
 </g>
 <g stroke-linejoin="round" stroke="#333" stroke-linecap="round" stroke-miterlimit="10" stroke-width=".70866" fill="#b79e00">
  <path d="m45.516 49.285h10.082v-10.082h-10.082z"/>
  <path d="m54.582 49.285h10.082v-10.082h-10.082z"/>
  <path d="m63.648 49.285h10.082v-10.082h-10.082z"/>
  <path d="m72.715 49.285h10.082v-10.082h-10.082z"/>
  <path d="m81.781 49.285h10.082v-10.082h-10.082z"/>
  <path d="m90.852 49.285h10.078v-10.082h-10.078z"/>
  <path d="m99.918 49.285h10.082v-10.082h-10.082z"/>
  <path d="m108.98 49.285h10.09v-10.082h-10.09z"/>
  <path d="m45.516 67.234h10.082v-10.082h-10.082z"/>
  <path d="m54.582 67.234h10.082v-10.082h-10.082z"/>
  <path d="m63.648 67.234h10.082v-10.082h-10.082z"/>
  <path d="m72.715 67.234h10.082v-10.082h-10.082z"/>
  <path d="m81.781 67.234h10.082v-10.082h-10.082z"/>
  <path d="m90.852 67.234h10.078v-10.082h-10.078z"/>
  <path d="m99.918 67.234h10.082v-10.082h-10.082z"/>
  <path d="m108.98 67.234h10.09v-10.082h-10.09z"/>
  <path d="m45.516 85.188h10.082v-10.083h-10.082z"/>
  <path d="m54.582 85.188h10.082v-10.083h-10.082z"/>
  <path d="m63.648 85.188h10.082v-10.083h-10.082z"/>
  <path d="m72.715 85.188h10.082v-10.083h-10.082z"/>
  <path d="m81.781 85.188h10.082v-10.083h-10.082z"/>
  <path d="m90.852 85.188h10.078v-10.083h-10.078z"/>
  <path d="m99.918 85.188h10.082v-10.083h-10.082z"/>
  <path d="m108.98 85.188h10.09v-10.083h-10.09z"/>
  <path d="m45.516 103.14h10.082v-10.085h-10.082z"/>
  <path d="m54.582 103.14h10.082v-10.085h-10.082z"/>
  <path d="m63.648 103.14h10.082v-10.085h-10.082z"/>
  <path d="m72.715 103.14h10.082v-10.085h-10.082z"/>
  <path d="m81.781 103.14h10.082v-10.085h-10.082z"/>
  <path d="m90.852 103.14h10.078v-10.085h-10.078z"/>
  <path d="m99.918 103.14h10.082v-10.085h-10.082z"/>
  <path d="m108.98 103.14h10.09v-10.085h-10.09z"/>
  <path d="m45.516 121.09h10.082v-10.08h-10.082z"/>
  <path d="m54.582 121.09h10.082v-10.08h-10.082z"/>
  <path d="m63.648 121.09h10.082v-10.08h-10.082z"/>
  <path d="m72.715 121.09h10.082v-10.08h-10.082z"/>
  <path d="m81.781 121.09h10.082v-10.08h-10.082z"/>
  <path d="m90.852 121.09h10.078v-10.08h-10.078z"/>
  <path d="m99.918 121.09h10.082v-10.08h-10.082z"/>
  <path d="m108.98 121.09h10.09v-10.08h-10.09z"/>
  <path d="m45.516 139.04h10.082v-10.08h-10.082z"/>
  <path d="m54.582 139.04h10.082v-10.08h-10.082z"/>
  <path d="m63.648 139.04h10.082v-10.08h-10.082z"/>
  <path d="m72.715 139.04h10.082v-10.08h-10.082z"/>
  <path d="m81.781 139.04h10.082v-10.08h-10.082z"/>
  <path d="m90.852 139.04h10.078v-10.08h-10.078z"/>
  <path d="m99.918 139.04h10.082v-10.08h-10.082z"/>
  <path d="m108.98 139.04h10.09v-10.08h-10.09z"/>
  <path d="m45.516 156.99h10.082v-10.08h-10.082z"/>
  <path d="m54.582 156.99h10.082v-10.08h-10.082z"/>
  <path d="m63.648 156.99h10.082v-10.08h-10.082z"/>
  <path d="m72.715 156.99h10.082v-10.08h-10.082z"/>
  <path d="m81.781 156.99h10.082v-10.08h-10.082z"/>
  <path d="m90.852 156.99h10.078v-10.08h-10.078z"/>
  <path d="m99.918 156.99h10.082v-10.08h-10.082z"/>
  <path d="m108.98 156.99h10.09v-10.08h-10.09z"/>
  <path d="m45.516 174.94h10.082v-10.08h-10.082z"/>
  <path d="m54.582 174.94h10.082v-10.08h-10.082z"/>
  <path d="m63.648 174.94h10.082v-10.08h-10.082z"/>
  <path d="m72.715 174.94h10.082v-10.08h-10.082z"/>
  <path d="m81.781 174.94h10.082v-10.08h-10.082z"/>
  <path d="m90.852 174.94h10.078v-10.08h-10.078z"/>
  <path d="m99.918 174.94h10.082v-10.08h-10.082z"/>
  <path d="m108.98 174.94h10.09v-10.08h-10.09z"/>
 </g>
 <g stroke-linejoin="round" stroke="#333" stroke-linecap="round" stroke-miterlimit="10" stroke-width=".70866" fill="#f8766c">
  <path d="m118.05 40.309h10.08v-10.082h-10.08z"/>
  <path d="m127.12 40.309h10.08v-10.082h-10.08z"/>
  <path d="m136.19 40.309h10.08v-10.082h-10.08z"/>
  <path d="m145.25 40.309h10.09v-10.082h-10.09z"/>
  <path d="m154.32 40.309h10.08v-10.082h-10.08z"/>
  <path d="m163.39 40.309h10.08v-10.082h-10.08z"/>
  <path d="m172.45 40.309h10.09v-10.082h-10.09z"/>
  <path d="m181.52 40.309h10.09v-10.082h-10.09z"/>
  <path d="m118.05 58.262h10.08v-10.082h-10.08z"/>
  <path d="m127.12 58.262h10.08v-10.082h-10.08z"/>
  <path d="m136.19 58.262h10.08v-10.082h-10.08z"/>
  <path d="m145.25 58.262h10.09v-10.082h-10.09z"/>
  <path d="m154.32 58.262h10.08v-10.082h-10.08z"/>
  <path d="m163.39 58.262h10.08v-10.082h-10.08z"/>
  <path d="m172.45 58.262h10.09v-10.082h-10.09z"/>
  <path d="m181.52 58.262h10.09v-10.082h-10.09z"/>
  <path d="m118.05 76.211h10.08v-10.082h-10.08z"/>
  <path d="m127.12 76.211h10.08v-10.082h-10.08z"/>
  <path d="m136.19 76.211h10.08v-10.082h-10.08z"/>
  <path d="m145.25 76.211h10.09v-10.082h-10.09z"/>
  <path d="m154.32 76.211h10.08v-10.082h-10.08z"/>
  <path d="m163.39 76.211h10.08v-10.082h-10.08z"/>
  <path d="m172.45 76.211h10.09v-10.082h-10.09z"/>
  <path d="m181.52 76.211h10.09v-10.082h-10.09z"/>
  <path d="m118.05 94.164h10.08v-10.082h-10.08z"/>
  <path d="m127.12 94.164h10.08v-10.082h-10.08z"/>
  <path d="m136.19 94.164h10.08v-10.082h-10.08z"/>
  <path d="m145.25 94.164h10.09v-10.082h-10.09z"/>
  <path d="m154.32 94.164h10.08v-10.082h-10.08z"/>
  <path d="m163.39 94.164h10.08v-10.082h-10.08z"/>
  <path d="m172.45 94.164h10.09v-10.082h-10.09z"/>
  <path d="m181.52 94.164h10.09v-10.082h-10.09z"/>
  <path d="m118.05 112.11h10.08v-10.08h-10.08z"/>
  <path d="m127.12 112.11h10.08v-10.08h-10.08z"/>
  <path d="m136.19 112.11h10.08v-10.08h-10.08z"/>
  <path d="m145.25 112.11h10.09v-10.08h-10.09z"/>
  <path d="m154.32 112.11h10.08v-10.08h-10.08z"/>
  <path d="m163.39 112.11h10.08v-10.08h-10.08z"/>
  <path d="m172.45 112.11h10.09v-10.08h-10.09z"/>
  <path d="m181.52 112.11h10.09v-10.08h-10.09z"/>
  <path d="m118.05 130.07h10.08v-10.09h-10.08z"/>
  <path d="m127.12 130.07h10.08v-10.09h-10.08z"/>
  <path d="m136.19 130.07h10.08v-10.09h-10.08z"/>
  <path d="m145.25 130.07h10.09v-10.09h-10.09z"/>
  <path d="m154.32 130.07h10.08v-10.09h-10.08z"/>
  <path d="m163.39 130.07h10.08v-10.09h-10.08z"/>
  <path d="m172.45 130.07h10.09v-10.09h-10.09z"/>
  <path d="m181.52 130.07h10.09v-10.09h-10.09z"/>
  <path d="m118.05 148.02h10.08v-10.09h-10.08z"/>
  <path d="m127.12 148.02h10.08v-10.09h-10.08z"/>
  <path d="m136.19 148.02h10.08v-10.09h-10.08z"/>
  <path d="m145.25 148.02h10.09v-10.09h-10.09z"/>
  <path d="m154.32 148.02h10.08v-10.09h-10.08z"/>
  <path d="m163.39 148.02h10.08v-10.09h-10.08z"/>
  <path d="m172.45 148.02h10.09v-10.09h-10.09z"/>
  <path d="m181.52 148.02h10.09v-10.09h-10.09z"/>
  <path d="m118.05 165.97h10.08v-10.08h-10.08z"/>
  <path d="m127.12 165.97h10.08v-10.08h-10.08z"/>
  <path d="m136.19 165.97h10.08v-10.08h-10.08z"/>
  <path d="m145.25 165.97h10.09v-10.08h-10.09z"/>
  <path d="m154.32 165.97h10.08v-10.08h-10.08z"/>
  <path d="m163.39 165.97h10.08v-10.08h-10.08z"/>
  <path d="m172.45 165.97h10.09v-10.08h-10.09z"/>
  <path d="m181.52 165.97h10.09v-10.08h-10.09z"/>
 </g>
 <g stroke-linejoin="round" stroke="#333" stroke-linecap="round" stroke-miterlimit="10" stroke-width=".70866" fill="#f463e3">
  <path d="m118.05 49.285h10.08v-10.082h-10.08z"/>
  <path d="m127.12 49.285h10.08v-10.082h-10.08z"/>
  <path d="m136.19 49.285h10.08v-10.082h-10.08z"/>
  <path d="m145.25 49.285h10.09v-10.082h-10.09z"/>
  <path d="m154.32 49.285h10.08v-10.082h-10.08z"/>
  <path d="m163.39 49.285h10.08v-10.082h-10.08z"/>
  <path d="m172.45 49.285h10.09v-10.082h-10.09z"/>
  <path d="m181.52 49.285h10.09v-10.082h-10.09z"/>
  <path d="m118.05 67.234h10.08v-10.082h-10.08z"/>
  <path d="m127.12 67.234h10.08v-10.082h-10.08z"/>
  <path d="m136.19 67.234h10.08v-10.082h-10.08z"/>
  <path d="m145.25 67.234h10.09v-10.082h-10.09z"/>
  <path d="m154.32 67.234h10.08v-10.082h-10.08z"/>
  <path d="m163.39 67.234h10.08v-10.082h-10.08z"/>
  <path d="m172.45 67.234h10.09v-10.082h-10.09z"/>
  <path d="m181.52 67.234h10.09v-10.082h-10.09z"/>
  <path d="m118.05 85.188h10.08v-10.083h-10.08z"/>
  <path d="m127.12 85.188h10.08v-10.083h-10.08z"/>
  <path d="m136.19 85.188h10.08v-10.083h-10.08z"/>
  <path d="m145.25 85.188h10.09v-10.083h-10.09z"/>
  <path d="m154.32 85.188h10.08v-10.083h-10.08z"/>
  <path d="m163.39 85.188h10.08v-10.083h-10.08z"/>
  <path d="m172.45 85.188h10.09v-10.083h-10.09z"/>
  <path d="m181.52 85.188h10.09v-10.083h-10.09z"/>
  <path d="m118.05 103.14h10.08v-10.085h-10.08z"/>
  <path d="m127.12 103.14h10.08v-10.085h-10.08z"/>
  <path d="m136.19 103.14h10.08v-10.085h-10.08z"/>
  <path d="m145.25 103.14h10.09v-10.085h-10.09z"/>
  <path d="m154.32 103.14h10.08v-10.085h-10.08z"/>
  <path d="m163.39 103.14h10.08v-10.085h-10.08z"/>
  <path d="m172.45 103.14h10.09v-10.085h-10.09z"/>
  <path d="m181.52 103.14h10.09v-10.085h-10.09z"/>
  <path d="m118.05 121.09h10.08v-10.08h-10.08z"/>
  <path d="m127.12 121.09h10.08v-10.08h-10.08z"/>
  <path d="m136.19 121.09h10.08v-10.08h-10.08z"/>
  <path d="m145.25 121.09h10.09v-10.08h-10.09z"/>
  <path d="m154.32 121.09h10.08v-10.08h-10.08z"/>
  <path d="m163.39 121.09h10.08v-10.08h-10.08z"/>
  <path d="m172.45 121.09h10.09v-10.08h-10.09z"/>
  <path d="m181.52 121.09h10.09v-10.08h-10.09z"/>
  <path d="m118.05 139.04h10.08v-10.08h-10.08z"/>
  <path d="m127.12 139.04h10.08v-10.08h-10.08z"/>
  <path d="m136.19 139.04h10.08v-10.08h-10.08z"/>
  <path d="m145.25 139.04h10.09v-10.08h-10.09z"/>
  <path d="m154.32 139.04h10.08v-10.08h-10.08z"/>
  <path d="m163.39 139.04h10.08v-10.08h-10.08z"/>
  <path d="m172.45 139.04h10.09v-10.08h-10.09z"/>
  <path d="m181.52 139.04h10.09v-10.08h-10.09z"/>
  <path d="m118.05 156.99h10.08v-10.08h-10.08z"/>
  <path d="m127.12 156.99h10.08v-10.08h-10.08z"/>
  <path d="m136.19 156.99h10.08v-10.08h-10.08z"/>
  <path d="m145.25 156.99h10.09v-10.08h-10.09z"/>
  <path d="m154.32 156.99h10.08v-10.08h-10.08z"/>
  <path d="m163.39 156.99h10.08v-10.08h-10.08z"/>
  <path d="m172.45 156.99h10.09v-10.08h-10.09z"/>
  <path d="m181.52 156.99h10.09v-10.08h-10.09z"/>
  <path d="m118.05 174.94h10.08v-10.08h-10.08z"/>
  <path d="m127.12 174.94h10.08v-10.08h-10.08z"/>
  <path d="m136.19 174.94h10.08v-10.08h-10.08z"/>
  <path d="m145.25 174.94h10.09v-10.08h-10.09z"/>
  <path d="m154.32 174.94h10.08v-10.08h-10.08z"/>
  <path d="m163.39 174.94h10.08v-10.08h-10.08z"/>
  <path d="m172.45 174.94h10.09v-10.08h-10.09z"/>
  <path d="m181.52 174.94h10.09v-10.08h-10.09z"/>
 </g>
 <g stroke-linejoin="round" stroke="#333" stroke-linecap="round" stroke-miterlimit="10" stroke-width=".70866" fill="#00b937">
  <path d="m190.59 40.309h10.08v-10.082h-10.08z"/>
  <path d="m199.66 40.309h10.08v-10.082h-10.08z"/>
  <path d="m208.72 40.309h10.08v-10.082h-10.08z"/>
  <path d="m217.79 40.309h10.08v-10.082h-10.08z"/>
  <path d="m226.86 40.309h10.08v-10.082h-10.08z"/>
  <path d="m235.93 40.309h10.08v-10.082h-10.08z"/>
  <path d="m244.99 40.309h10.08v-10.082h-10.08z"/>
  <path d="m254.06 40.309h10.08v-10.082h-10.08z"/>
  <path d="m190.59 58.262h10.08v-10.082h-10.08z"/>
  <path d="m199.66 58.262h10.08v-10.082h-10.08z"/>
  <path d="m208.72 58.262h10.08v-10.082h-10.08z"/>
  <path d="m217.79 58.262h10.08v-10.082h-10.08z"/>
  <path d="m226.86 58.262h10.08v-10.082h-10.08z"/>
  <path d="m235.93 58.262h10.08v-10.082h-10.08z"/>
  <path d="m244.99 58.262h10.08v-10.082h-10.08z"/>
  <path d="m254.06 58.262h10.08v-10.082h-10.08z"/>
  <path d="m190.59 76.211h10.08v-10.082h-10.08z"/>
  <path d="m199.66 76.211h10.08v-10.082h-10.08z"/>
  <path d="m208.72 76.211h10.08v-10.082h-10.08z"/>
  <path d="m217.79 76.211h10.08v-10.082h-10.08z"/>
  <path d="m226.86 76.211h10.08v-10.082h-10.08z"/>
  <path d="m235.93 76.211h10.08v-10.082h-10.08z"/>
  <path d="m244.99 76.211h10.08v-10.082h-10.08z"/>
  <path d="m254.06 76.211h10.08v-10.082h-10.08z"/>
  <path d="m190.59 94.164h10.08v-10.082h-10.08z"/>
  <path d="m199.66 94.164h10.08v-10.082h-10.08z"/>
  <path d="m208.72 94.164h10.08v-10.082h-10.08z"/>
  <path d="m217.79 94.164h10.08v-10.082h-10.08z"/>
  <path d="m226.86 94.164h10.08v-10.082h-10.08z"/>
  <path d="m235.93 94.164h10.08v-10.082h-10.08z"/>
  <path d="m244.99 94.164h10.08v-10.082h-10.08z"/>
  <path d="m254.06 94.164h10.08v-10.082h-10.08z"/>
  <path d="m190.59 112.11h10.08v-10.08h-10.08z"/>
  <path d="m199.66 112.11h10.08v-10.08h-10.08z"/>
  <path d="m208.72 112.11h10.08v-10.08h-10.08z"/>
  <path d="m217.79 112.11h10.08v-10.08h-10.08z"/>
  <path d="m226.86 112.11h10.08v-10.08h-10.08z"/>
  <path d="m235.93 112.11h10.08v-10.08h-10.08z"/>
  <path d="m244.99 112.11h10.08v-10.08h-10.08z"/>
  <path d="m254.06 112.11h10.08v-10.08h-10.08z"/>
  <path d="m190.59 130.07h10.08v-10.09h-10.08z"/>
  <path d="m199.66 130.07h10.08v-10.09h-10.08z"/>
  <path d="m208.72 130.07h10.08v-10.09h-10.08z"/>
  <path d="m217.79 130.07h10.08v-10.09h-10.08z"/>
  <path d="m226.86 130.07h10.08v-10.09h-10.08z"/>
  <path d="m235.93 130.07h10.08v-10.09h-10.08z"/>
  <path d="m244.99 130.07h10.08v-10.09h-10.08z"/>
  <path d="m254.06 130.07h10.08v-10.09h-10.08z"/>
  <path d="m190.59 148.02h10.08v-10.09h-10.08z"/>
  <path d="m199.66 148.02h10.08v-10.09h-10.08z"/>
  <path d="m208.72 148.02h10.08v-10.09h-10.08z"/>
  <path d="m217.79 148.02h10.08v-10.09h-10.08z"/>
  <path d="m226.86 148.02h10.08v-10.09h-10.08z"/>
  <path d="m235.93 148.02h10.08v-10.09h-10.08z"/>
  <path d="m244.99 148.02h10.08v-10.09h-10.08z"/>
  <path d="m254.06 148.02h10.08v-10.09h-10.08z"/>
  <path d="m190.59 165.97h10.08v-10.08h-10.08z"/>
  <path d="m199.66 165.97h10.08v-10.08h-10.08z"/>
  <path d="m208.72 165.97h10.08v-10.08h-10.08z"/>
  <path d="m217.79 165.97h10.08v-10.08h-10.08z"/>
  <path d="m226.86 165.97h10.08v-10.08h-10.08z"/>
  <path d="m235.93 165.97h10.08v-10.08h-10.08z"/>
  <path d="m244.99 165.97h10.08v-10.08h-10.08z"/>
  <path d="m254.06 165.97h10.08v-10.08h-10.08z"/>
 </g>
 <g stroke-linejoin="round" stroke="#333" stroke-linecap="round" stroke-miterlimit="10" stroke-width=".70866" fill="#619cff">
  <path d="m190.59 49.285h10.08v-10.082h-10.08z"/>
  <path d="m199.66 49.285h10.08v-10.082h-10.08z"/>
  <path d="m208.72 49.285h10.08v-10.082h-10.08z"/>
  <path d="m217.79 49.285h10.08v-10.082h-10.08z"/>
  <path d="m226.86 49.285h10.08v-10.082h-10.08z"/>
  <path d="m235.93 49.285h10.08v-10.082h-10.08z"/>
  <path d="m244.99 49.285h10.08v-10.082h-10.08z"/>
  <path d="m254.06 49.285h10.08v-10.082h-10.08z"/>
  <path d="m190.59 67.234h10.08v-10.082h-10.08z"/>
  <path d="m199.66 67.234h10.08v-10.082h-10.08z"/>
  <path d="m208.72 67.234h10.08v-10.082h-10.08z"/>
  <path d="m217.79 67.234h10.08v-10.082h-10.08z"/>
  <path d="m226.86 67.234h10.08v-10.082h-10.08z"/>
  <path d="m235.93 67.234h10.08v-10.082h-10.08z"/>
  <path d="m244.99 67.234h10.08v-10.082h-10.08z"/>
  <path d="m254.06 67.234h10.08v-10.082h-10.08z"/>
  <path d="m190.59 85.188h10.08v-10.083h-10.08z"/>
  <path d="m199.66 85.188h10.08v-10.083h-10.08z"/>
  <path d="m208.72 85.188h10.08v-10.083h-10.08z"/>
  <path d="m217.79 85.188h10.08v-10.083h-10.08z"/>
  <path d="m226.86 85.188h10.08v-10.083h-10.08z"/>
  <path d="m235.93 85.188h10.08v-10.083h-10.08z"/>
  <path d="m244.99 85.188h10.08v-10.083h-10.08z"/>
  <path d="m254.06 85.188h10.08v-10.083h-10.08z"/>
  <path d="m190.59 103.14h10.08v-10.085h-10.08z"/>
  <path d="m199.66 103.14h10.08v-10.085h-10.08z"/>
  <path d="m208.72 103.14h10.08v-10.085h-10.08z"/>
  <path d="m217.79 103.14h10.08v-10.085h-10.08z"/>
  <path d="m226.86 103.14h10.08v-10.085h-10.08z"/>
  <path d="m235.93 103.14h10.08v-10.085h-10.08z"/>
  <path d="m244.99 103.14h10.08v-10.085h-10.08z"/>
  <path d="m254.06 103.14h10.08v-10.085h-10.08z"/>
  <path d="m190.59 121.09h10.08v-10.08h-10.08z"/>
  <path d="m199.66 121.09h10.08v-10.08h-10.08z"/>
  <path d="m208.72 121.09h10.08v-10.08h-10.08z"/>
  <path d="m217.79 121.09h10.08v-10.08h-10.08z"/>
  <path d="m226.86 121.09h10.08v-10.08h-10.08z"/>
  <path d="m235.93 121.09h10.08v-10.08h-10.08z"/>
  <path d="m244.99 121.09h10.08v-10.08h-10.08z"/>
  <path d="m254.06 121.09h10.08v-10.08h-10.08z"/>
  <path d="m190.59 139.04h10.08v-10.08h-10.08z"/>
  <path d="m199.66 139.04h10.08v-10.08h-10.08z"/>
  <path d="m208.72 139.04h10.08v-10.08h-10.08z"/>
  <path d="m217.79 139.04h10.08v-10.08h-10.08z"/>
  <path d="m226.86 139.04h10.08v-10.08h-10.08z"/>
  <path d="m235.93 139.04h10.08v-10.08h-10.08z"/>
  <path d="m244.99 139.04h10.08v-10.08h-10.08z"/>
  <path d="m254.06 139.04h10.08v-10.08h-10.08z"/>
  <path d="m190.59 156.99h10.08v-10.08h-10.08z"/>
  <path d="m199.66 156.99h10.08v-10.08h-10.08z"/>
  <path d="m208.72 156.99h10.08v-10.08h-10.08z"/>
  <path d="m217.79 156.99h10.08v-10.08h-10.08z"/>
  <path d="m226.86 156.99h10.08v-10.08h-10.08z"/>
  <path d="m235.93 156.99h10.08v-10.08h-10.08z"/>
  <path d="m244.99 156.99h10.08v-10.08h-10.08z"/>
  <path d="m254.06 156.99h10.08v-10.08h-10.08z"/>
  <path d="m190.59 174.94h10.08v-10.08h-10.08z"/>
  <path d="m199.66 174.94h10.08v-10.08h-10.08z"/>
  <path d="m208.72 174.94h10.08v-10.08h-10.08z"/>
  <path d="m217.79 174.94h10.08v-10.08h-10.08z"/>
  <path d="m226.86 174.94h10.08v-10.08h-10.08z"/>
  <path d="m235.93 174.94h10.08v-10.08h-10.08z"/>
  <path d="m244.99 174.94h10.08v-10.08h-10.08z"/>
  <path d="m254.06 174.94h10.08v-10.08h-10.08z"/>
 </g>
 <g clip-path="url(#ao)">
  <path stroke-linejoin="round" d="m35.141 181.57h239.38v-157.97l-239.38 0.002zm0 0" stroke="#333" stroke-linecap="round" stroke-miterlimit="10" stroke-width="1.067" fill="none"/>
 </g>
 <g fill="#4c4c4c">
  <use y="37.933594" x="23.210938" xlink:href="#b"/>
  <use y="46.910156" x="23.210938" xlink:href="#ag"/>
  <use y="55.886719" x="23.210938" xlink:href="#d"/>
  <use y="64.863281" x="23.210938" xlink:href="#af"/>
  <use y="73.835938" x="24.210938" xlink:href="#ae"/>
  <use y="82.8125" x="24.210938" xlink:href="#ad"/>
  <use y="91.789062" x="23.210938" xlink:href="#a"/>
  <use y="100.765625" x="23.210938" xlink:href="#ac"/>
  <use y="109.738281" x="27.210938" xlink:href="#ab"/>
  <use y="118.714844" x="27.210938" xlink:href="#an"/>
  <use y="127.691406" x="24.210938" xlink:href="#am"/>
  <use y="136.667969" x="25.210938" xlink:href="#al"/>
  <use y="145.640625" x="22.210938" xlink:href="#ak"/>
  <use y="154.617188" x="23.210938" xlink:href="#aj"/>
  <use y="163.59375" x="23.210938" xlink:href="#ai"/>
  <use y="172.570312" x="24.210938" xlink:href="#ah"/>
 </g>
 <g stroke-linejoin="round" stroke="#333" stroke-miterlimit="10" stroke-width="1.067" fill="none">
  <path d="m32.402 35.266h2.739"/>
  <path d="m32.402 44.242h2.739"/>
  <path d="m32.402 53.219h2.739"/>
  <path d="m32.402 62.195h2.739"/>
  <path d="m32.402 71.168h2.739"/>
  <path d="m32.402 80.145h2.739"/>
  <path d="m32.402 89.121h2.739"/>
  <path d="m32.402 98.098h2.739"/>
  <path d="m32.402 107.07h2.739"/>
  <path d="m32.402 116.05h2.739"/>
  <path d="m32.402 125.02h2.739"/>
  <path d="m32.402 134h2.739"/>
  <path d="m32.402 142.97h2.739"/>
  <path d="m32.402 151.95h2.739"/>
  <path d="m32.402 160.93h2.739"/>
  <path d="m32.402 169.9h2.739"/>
  <path d="m50.555 184.31v-2.74"/>
  <path d="m59.625 184.31v-2.74"/>
  <path d="m68.691 184.31v-2.74"/>
  <path d="m77.758 184.31v-2.74"/>
  <path d="m86.824 184.31v-2.74"/>
  <path d="m95.891 184.31v-2.74"/>
  <path d="m104.96 184.31v-2.74"/>
  <path d="m114.03 184.31v-2.74"/>
  <path d="m123.09 184.31v-2.74"/>
  <path d="m132.16 184.31v-2.74"/>
  <path d="m141.23 184.31v-2.74"/>
  <path d="m150.3 184.31v-2.74"/>
  <path d="m159.36 184.31v-2.74"/>
  <path d="m168.43 184.31v-2.74"/>
  <path d="m177.5 184.31v-2.74"/>
  <path d="m186.56 184.31v-2.74"/>
  <path d="m195.63 184.31v-2.74"/>
  <path d="m204.7 184.31v-2.74"/>
  <path d="m213.77 184.31v-2.74"/>
  <path d="m222.83 184.31v-2.74"/>
  <path d="m231.9 184.31v-2.74"/>
  <path d="m240.97 184.31v-2.74"/>
  <path d="m250.04 184.31v-2.74"/>
  <path d="m259.1 184.31v-2.74"/>
 </g>
 <g fill="#4c4c4c">
  <use y="192.667969" x="47.554688" xlink:href="#c"/>
  <use y="192.667969" x="56.625" xlink:href="#f"/>
  <use y="192.667969" x="65.691406" xlink:href="#h"/>
  <use y="192.667969" x="74.757812" xlink:href="#g"/>
  <use y="192.667969" x="83.824219" xlink:href="#n"/>
  <use y="192.667969" x="92.890625" xlink:href="#m"/>
  <use y="192.667969" x="101.960938" xlink:href="#l"/>
  <use y="192.667969" x="111.027344" xlink:href="#k"/>
  <use y="192.667969" x="120.09375" xlink:href="#j"/>
  <use y="192.667969" x="126.160156" xlink:href="#c"/>
  <use y="192.667969" x="131.758789" xlink:href="#i"/>
  <use y="192.667969" x="135.226562" xlink:href="#c"/>
  <use y="192.667969" x="140.825195" xlink:href="#c"/>
  <use y="192.667969" x="144.296875" xlink:href="#c"/>
  <use y="192.667969" x="149.895508" xlink:href="#f"/>
  <use y="192.667969" x="153.363281" xlink:href="#c"/>
  <use y="192.667969" x="158.961914" xlink:href="#h"/>
  <use y="192.667969" x="162.429688" xlink:href="#c"/>
  <use y="192.667969" x="168.02832" xlink:href="#g"/>
  <use y="192.667969" x="171.496094" xlink:href="#c"/>
  <use y="192.667969" x="177.094727" xlink:href="#n"/>
  <use y="192.667969" x="180.5625" xlink:href="#c"/>
  <use y="192.667969" x="186.161133" xlink:href="#m"/>
  <use y="192.667969" x="189.632812" xlink:href="#c"/>
  <use y="192.667969" x="195.231445" xlink:href="#l"/>
  <use y="192.667969" x="198.699219" xlink:href="#c"/>
  <use y="192.667969" x="204.297852" xlink:href="#k"/>
  <use y="192.667969" x="207.765625" xlink:href="#c"/>
  <use y="192.667969" x="213.364258" xlink:href="#j"/>
  <use y="192.667969" x="216.832031" xlink:href="#f"/>
  <use y="192.667969" x="222.430664" xlink:href="#i"/>
  <use y="192.667969" x="225.898438" xlink:href="#f"/>
  <use y="192.667969" x="231.49707" xlink:href="#c"/>
  <use y="192.667969" x="234.96875" xlink:href="#f"/>
  <use y="192.667969" x="240.567383" xlink:href="#f"/>
  <use y="192.667969" x="244.035156" xlink:href="#f"/>
  <use y="192.667969" x="249.633789" xlink:href="#h"/>
  <use y="192.667969" x="253.101562" xlink:href="#f"/>
  <use y="192.667969" x="258.700195" xlink:href="#g"/>
 </g>
 <g>
  <path fill="#fff" d="m285.48 167.91h84.69v-130.65l-84.69-0.002z"/>
  <g>
   <use y="51.714844" x="290.953125" xlink:href="#aa"/>
   <use y="51.714844" x="297.462891" xlink:href="#z"/>
   <use y="51.714844" x="304.204102" xlink:href="#y"/>
   <use y="51.714844" x="307.260742" xlink:href="#x"/>
   <use y="51.714844" x="314.232422" xlink:href="#w"/>
   <use y="51.714844" x="321" xlink:href="#v"/>
  </g>
  <g>
   <path fill="#fff" d="m290.95 76.031h17.28v-17.281h-17.28z"/>
   <path stroke-linejoin="round" d="m294.55 72.434h10.08v-10.082h-10.08zm0 0" stroke="#333" stroke-linecap="round" stroke-miterlimit="10" stroke-width=".70866" fill="#f8766c"/>
   <path fill="#fff" d="m290.95 93.312h17.28v-17.281h-17.28z"/>
   <path stroke-linejoin="round" d="m294.55 89.715h10.08v-10.082h-10.08zm0 0" stroke="#333" stroke-linecap="round" stroke-miterlimit="10" stroke-width=".70866" fill="#b79e00"/>
   <path fill="#fff" d="m290.95 110.59h17.28v-17.278h-17.28z"/>
   <path stroke-linejoin="round" d="m294.55 107h10.08v-10.086h-10.08zm0 0" stroke="#333" stroke-linecap="round" stroke-miterlimit="10" stroke-width=".70866" fill="#00b937"/>
   <path fill="#fff" d="m290.95 127.87h17.28v-17.28h-17.28z"/>
   <path stroke-linejoin="round" d="m294.55 124.27h10.08v-10.08h-10.08zm0 0" stroke="#333" stroke-linecap="round" stroke-miterlimit="10" stroke-width=".70866" fill="#00bfc3"/>
   <path fill="#fff" d="m290.95 145.15h17.28v-17.28h-17.28z"/>
   <path stroke-linejoin="round" d="m294.55 141.55h10.08v-10.08h-10.08zm0 0" stroke="#333" stroke-linecap="round" stroke-miterlimit="10" stroke-width=".70866" fill="#619cff"/>
   <path fill="#fff" d="m290.95 162.43h17.28v-17.28h-17.28z"/>
   <path stroke-linejoin="round" d="m294.55 158.84h10.08v-10.09h-10.08zm0 0" stroke="#333" stroke-linecap="round" stroke-miterlimit="10" stroke-width=".70866" fill="#f463e3"/>
  </g>
 </g>
 <g>
  <use y="70.0625" x="313.714844" xlink:href="#b"/>
  <use y="70.0625" x="319.580078" xlink:href="#a"/>
  <use y="70.0625" x="326.399414" xlink:href="#a"/>
  <use y="70.0625" x="333.21875" xlink:href="#d"/>
  <use y="70.0625" x="339.363281" xlink:href="#b"/>
  <use y="70.0625" x="345.228516" xlink:href="#a"/>
  <use y="70.0625" x="352.047852" xlink:href="#b"/>
  <use y="70.0625" x="358.3125" xlink:href="#b"/>
  <use y="87.339844" x="313.714844" xlink:href="#d"/>
  <use y="87.339844" x="319.859375" xlink:href="#a"/>
  <use y="87.339844" x="326.365234" xlink:href="#e"/>
  <use y="87.339844" x="331.057617" xlink:href="#b"/>
  <use y="87.339844" x="336.922852" xlink:href="#d"/>
  <use y="87.339844" x="343.067383" xlink:href="#e"/>
  <use y="87.339844" x="347.759766" xlink:href="#b"/>
  <use y="87.339844" x="353.625" xlink:href="#a"/>
  <use y="104.621094" x="313.714844" xlink:href="#a"/>
  <use y="104.621094" x="320.53418" xlink:href="#a"/>
  <use y="104.621094" x="327.353516" xlink:href="#b"/>
  <use y="104.621094" x="333.21875" xlink:href="#d"/>
  <use y="104.621094" x="339.363281" xlink:href="#e"/>
  <use y="104.621094" x="344.222656" xlink:href="#d"/>
  <use y="104.621094" x="350.367188" xlink:href="#d"/>
  <use y="104.621094" x="356.511719" xlink:href="#e"/>
  <use y="121.902344" x="313.714844" xlink:href="#e"/>
  <use y="121.902344" x="318.407227" xlink:href="#b"/>
  <use y="121.902344" x="324.671875" xlink:href="#b"/>
  <use y="121.902344" x="330.537109" xlink:href="#a"/>
  <use y="121.902344" x="337.356445" xlink:href="#a"/>
  <use y="121.902344" x="344.175781" xlink:href="#d"/>
  <use y="121.902344" x="350.320312" xlink:href="#a"/>
  <use y="121.902344" x="357.139648" xlink:href="#b"/>
  <use y="139.179688" x="313.714844" xlink:href="#e"/>
  <use y="139.179688" x="318.407227" xlink:href="#b"/>
  <use y="139.179688" x="324.272461" xlink:href="#a"/>
  <use y="139.179688" x="331.091797" xlink:href="#a"/>
  <use y="139.179688" x="337.911133" xlink:href="#d"/>
  <use y="139.179688" x="344.055664" xlink:href="#b"/>
  <use y="139.179688" x="349.392578" xlink:href="#e"/>
  <use y="139.179688" x="354.767578" xlink:href="#a"/>
  <use y="156.460938" x="313.714844" xlink:href="#e"/>
  <use y="156.460938" x="318.574219" xlink:href="#d"/>
  <use y="156.460938" x="324.71875" xlink:href="#d"/>
  <use y="156.460938" x="330.863281" xlink:href="#e"/>
  <use y="156.460938" x="336.238281" xlink:href="#a"/>
  <use y="156.460938" x="343.057617" xlink:href="#b"/>
  <use y="156.460938" x="348.922852" xlink:href="#a"/>
  <use y="156.460938" x="355.742188" xlink:href="#d"/>
  <use y="14.732422" x="35.140625" xlink:href="#u"/>
  <use y="14.732422" x="39.033203" xlink:href="#t"/>
  <use y="14.732422" x="48.907227" xlink:href="#s"/>
  <use y="14.732422" x="59.071289" xlink:href="#r"/>
  <use y="14.732422" x="67.411133" xlink:href="#q"/>
  <use y="14.732422" x="75.860352" xlink:href="#p"/>
  <use y="14.732422" x="83.981445" xlink:href="#o"/>
 </g>
</svg>
