<?xml version="1.0" encoding="UTF-8" standalone="no"?>
<svg xmlns="http://www.w3.org/2000/svg" height="216pt" width="378pt" version="1.1" xmlns:xlink="http://www.w3.org/1999/xlink" viewBox="0 0 378 216">
 <defs>
  <symbol id="ag" overflow="visible">
   <path d="m3-5.5625l-1.1719 3.2031h2.3594zm-0.4844-0.8437h0.9844l2.4375 6.4062h-0.8906l-0.5938-1.6406h-2.8906l-0.57812 1.6406h-0.92188z"/>
  </symbol>
  <symbol id="y" overflow="visible">
   <path d="m1.7344-3.0625v2.3438l1.3906-0.00005c0.4688 0 0.8125-0.09375 1.0312-0.28125 0.2266-0.1953 0.3438-0.4922 0.3438-0.8906 0-0.3946-0.1172-0.6875-0.3438-0.875-0.2187-0.1953-0.5624-0.2969-1.0312-0.2969zm0-2.6406v1.9375h1.2812c0.4258 0 0.7422-0.0782 0.9532-0.2344 0.207-0.1641 0.3124-0.4102 0.3124-0.7344 0-0.3203-0.1054-0.5625-0.3124-0.7187-0.211-0.1641-0.5274-0.25-0.9532-0.25zm-0.87502-0.7031h2.2187c0.6641 0 1.1758 0.1367 1.5313 0.4062 0.3515 0.2734 0.5312 0.6641 0.5312 1.1719 0 0.3984-0.0937 0.7109-0.2812 0.9375-0.1797 0.2304-0.4453 0.375-0.7969 0.4375 0.4258 0.0937 0.7539 0.289 0.9844 0.5781 0.2383 0.2812 0.3593 0.6406 0.3593 1.0781 0 0.5742-0.1953 1.0156-0.5781 1.3282-0.3867 0.31245-0.9375 0.4687-1.6562 0.4687h-2.3125z"/>
  </symbol>
  <symbol id="x" overflow="visible">
   <path d="m5.6719-5.9219v0.9219c-0.293-0.2695-0.6055-0.4727-0.9375-0.6094-0.336-0.1328-0.6875-0.2031-1.0625-0.2031-0.7305 0-1.293 0.2266-1.6875 0.6719-0.3867 0.4492-0.5782 1.0937-0.5782 1.9375 0 0.8437 0.1915 1.4922 0.5782 1.9375 0.3945 0.44919 0.957 0.67185 1.6875 0.67185 0.375 0 0.7265-0.06641 1.0625-0.20313 0.332-0.13281 0.6445-0.33592 0.9375-0.60932v0.9062c-0.3125 0.21094-0.6407 0.36719-0.9844 0.46875-0.3359 0.10156-0.6875 0.15625-1.0625 0.15625-0.9688 0-1.7344-0.29688-2.2969-0.89062-0.55466-0.59378-0.8281-1.4063-0.8281-2.4375 0-1.0313 0.27344-1.8438 0.8281-2.4375 0.5625-0.5938 1.3281-0.8906 2.2969-0.8906 0.3828 0 0.7422 0.0546 1.0781 0.1562 0.3438 0.1055 0.6641 0.2578 0.9688 0.4531z"/>
  </symbol>
  <symbol id="w" overflow="visible">
   <path d="m1.7344-5.7031v4.9844l1.0468-0.00005c0.8829 0 1.5313-0.19531 1.9376-0.59375 0.414-0.4063 0.625-1.0391 0.625-1.9063 0-0.8515-0.211-1.4765-0.625-1.875-0.4063-0.4062-1.0547-0.6093-1.9376-0.6093zm-0.87502-0.7031h1.7812c1.25 0 2.1602 0.2617 2.7344 0.7812 0.582 0.5117 0.875 1.3125 0.875 2.4062 0 1.1055-0.293 1.918-0.875 2.4376-0.5859 0.52339-1.4961 0.7812-2.7344 0.7812h-1.7812z"/>
  </symbol>
  <symbol id="v" overflow="visible">
   <path d="m0.85938-6.4062h4.0625v0.7187h-3.1875v1.9063h3.0468v0.7343h-3.0468v2.3125l3.2656 0.00002v0.73438h-4.1406z"/>
  </symbol>
  <symbol id="u" overflow="visible">
   <path d="m0.85938-6.4062h3.6875v0.7187h-2.8125v1.8906h2.5468v0.7344h-2.5468v3.0625h-0.87502z"/>
  </symbol>
  <symbol id="t" overflow="visible">
   <path d="m5.2344-0.92188v-1.7187h-1.4219v-0.7032h2.2813v2.75c-0.336 0.24224-0.7032 0.42192-1.1094 0.54692-0.4063 0.11329-0.8399 0.17188-1.2969 0.17188-1 0-1.7813-0.28906-2.3437-0.875-0.56255-0.582-0.8438-1.3984-0.8438-2.4531 0-1.0391 0.28125-1.8516 0.8438-2.4375 0.5624-0.5938 1.3437-0.8906 2.3437-0.8906 0.4258 0 0.8281 0.0546 1.2031 0.1562 0.375 0.1055 0.7188 0.2578 1.0313 0.4531v0.9219c-0.3125-0.2695-0.6524-0.4727-1.0157-0.6094-0.3671-0.1328-0.746-0.2031-1.1406-0.2031-0.7812 0-1.3711 0.2187-1.7656 0.6563-0.3984 0.4374-0.5938 1.0898-0.5938 1.9531 0 0.8672 0.1954 1.5156 0.5938 1.9531 0.3945 0.4375 0.9844 0.65625 1.7656 0.65625 0.3125 0 0.586-0.02344 0.8282-0.07813 0.2382-0.05078 0.4531-0.13281 0.6406-0.25z"/>
  </symbol>
  <symbol id="s" overflow="visible">
   <path d="m0.85938-6.4062h0.87502v2.625h3.1562v-2.625h0.8594v6.4062h-0.8594v-3.0469h-3.1562v3.0469h-0.87502z"/>
  </symbol>
  <symbol id="r" overflow="visible">
   <path d="m0.85938-6.4062h0.87502v6.4062h-0.87502z"/>
  </symbol>
  <symbol id="af" overflow="visible">
   <path d="m0.85938-6.4062h0.87502v5.9531c0 0.78122-0.1524 1.3437-0.4532 1.6875-0.29292 0.3515-0.76167 0.5312-1.4062 0.5312h-0.32812v-0.7344h0.26562c0.38281 0 0.65625-0.10932 0.8125-0.32808 0.15625-0.21093 0.23438-0.59374 0.23438-1.1562z"/>
  </symbol>
  <symbol id="ae" overflow="visible">
   <path d="m0.85938-6.4062h0.87502v2.7031l2.875-2.7031h1.1094l-3.1719 2.9843 3.4062 3.4219h-1.1406l-3.0781-3.0938v3.0938h-0.87502z"/>
  </symbol>
  <symbol id="ad" overflow="visible">
   <path d="m0.85938-6.4062h0.87502v5.6718l3.125 0.00002v0.73438h-4z"/>
  </symbol>
  <symbol id="ac" overflow="visible">
   <path d="m0.85938-6.4062h1.2968l1.6407 4.3593 1.6406-4.3593h1.2969v6.4062h-0.8438v-5.625l-1.6562 4.3906h-0.875l-1.6563-4.3906v5.625h-0.84372z"/>
  </symbol>
  <symbol id="ab" overflow="visible">
   <path d="m0.85938-6.4062h1.1718l2.8438 5.3593v-5.3593h0.8438v6.4062h-1.1719l-2.8438-5.3594v5.3594h-0.84372z"/>
  </symbol>
  <symbol id="aa" overflow="visible">
   <path d="m3.4688-5.8281c-0.6368 0-1.1407 0.2343-1.5157 0.7031-0.3672 0.4688-0.5469 1.1094-0.5469 1.9219s0.1797 1.4531 0.5469 1.9219c0.375 0.4687 0.8789 0.70308 1.5157 0.70308 0.625 0 1.1171-0.23438 1.4843-0.70308 0.375-0.4688 0.5625-1.1094 0.5625-1.9219s-0.1875-1.4531-0.5625-1.9219c-0.3672-0.4688-0.8593-0.7031-1.4843-0.7031zm0-0.7031c0.8945 0 1.6132 0.3046 2.1562 0.9062 0.5391 0.6055 0.8125 1.4141 0.8125 2.4219 0 1.0117-0.2734 1.8203-0.8125 2.4218-0.543 0.60552-1.2617 0.9063-2.1562 0.9063-0.9063 0-1.6329-0.29688-2.1719-0.89062-0.53128-0.60158-0.7969-1.4141-0.7969-2.4375 0-1.0078 0.26562-1.8164 0.7969-2.4219 0.539-0.6016 1.2656-0.9062 2.1719-0.9062z"/>
  </symbol>
  <symbol id="z" overflow="visible">
   <path d="m1.7344-5.7031v2.4062h1.0937c0.3946 0 0.7031-0.1015 0.9219-0.3125 0.2266-0.207 0.3438-0.5039 0.3438-0.8906 0-0.3828-0.1172-0.6797-0.3438-0.8906-0.2188-0.2071-0.5273-0.3125-0.9219-0.3125zm-0.87502-0.7031h1.9687c0.7188 0 1.2578 0.164 1.625 0.4843 0.3633 0.3242 0.5469 0.7969 0.5469 1.4219 0 0.6367-0.1836 1.1172-0.5469 1.4375-0.3672 0.3242-0.9062 0.4844-1.625 0.4844h-1.0937v2.5781h-0.87502z"/>
  </symbol>
  <symbol id="a" overflow="visible">
   <path d="m1.0938-0.73438h1.4218v-4.8906l-1.5468 0.3125-0.00005-0.7969 1.5312-0.2968h0.875v5.6718l1.4062 0.00002v0.73438h-3.6874z"/>
  </symbol>
  <symbol id="b" overflow="visible">
   <path d="m1.6875-0.73438h3.0313v0.73438h-4.0782l0.00002-0.73438c0.33204-0.33202 0.78128-0.78512 1.3438-1.3594 0.5703-0.582 0.9297-0.957 1.0781-1.125 0.2813-0.3124 0.4727-0.5703 0.5781-0.7812 0.1133-0.2188 0.1719-0.4297 0.1719-0.6406 0-0.3438-0.1211-0.6172-0.3594-0.8282-0.2422-0.2187-0.5547-0.3281-0.9375-0.3281-0.2734 0-0.5586 0.0469-0.8594 0.1407-0.3046 0.0937-0.625 0.2343-0.9687 0.4218v-0.875c0.3516-0.1328 0.6797-0.2383 0.9844-0.3125 0.3008-0.0703 0.5781-0.1093 0.8281-0.1093 0.6641 0 1.1953 0.1679 1.5938 0.5 0.3945 0.3359 0.5937 0.7773 0.5937 1.3281 0 0.2734-0.0547 0.5273-0.1563 0.7656-0.0937 0.2305-0.2734 0.5078-0.5312 0.8281-0.0742 0.086-0.3047 0.3242-0.6875 0.7188-0.3867 0.3984-0.9297 0.9492-1.625 1.6562z"/>
  </symbol>
  <symbol id="d" overflow="visible">
   <path d="m3.5625-3.4531c0.4141 0.0859 0.7383 0.2656 0.9687 0.5469 0.2383 0.2812 0.3594 0.6328 0.3594 1.0468 0 0.625-0.2187 1.1172-0.6562 1.4688-0.4297 0.34372-1.043 0.5156-1.8438 0.5156-0.2734 0-0.5547-0.027344-0.8437-0.078125-0.2813-0.050781-0.57424-0.12891-0.87502-0.23438v-0.8437c0.23828 0.13667 0.50002 0.24214 0.78122 0.31245 0.2891 0.07422 0.5938 0.10937 0.9063 0.10937 0.539 0 0.9531-0.10156 1.2344-0.3125 0.289-0.21872 0.4374-0.53122 0.4374-0.93752 0-0.3828-0.1367-0.6797-0.4062-0.8906-0.2617-0.2188-0.625-0.3281-1.0938-0.3281h-0.75v-0.7031h0.7813c0.4258 0 0.75-0.0821 0.9687-0.25 0.2266-0.1758 0.3438-0.4258 0.3438-0.75 0-0.3204-0.1211-0.5704-0.3594-0.75-0.2304-0.1758-0.5586-0.2657-0.9844-0.2657-0.2421 0-0.496 0.0274-0.7656 0.0781-0.2734 0.0547-0.5742 0.1329-0.90622 0.2344v-0.7656c0.33202-0.0938 0.64062-0.1602 0.92182-0.2031 0.2891-0.0508 0.5665-0.0781 0.8282-0.0781 0.6562 0 1.1718 0.1523 1.5468 0.4531 0.3829 0.3047 0.5782 0.7109 0.5782 1.2187 0 0.3555-0.1055 0.6563-0.3125 0.9063-0.1992 0.2422-0.4844 0.4062-0.8594 0.5z"/>
  </symbol>
  <symbol id="c" overflow="visible">
   <path d="m3.3281-5.6562l-2.1875 3.4218h2.1875zm-0.2343-0.75h1.0937v4.1718h0.9219v0.7188h-0.9219v1.5156h-0.8594v-1.5156h-2.9062l-0.00002-0.8282z"/>
  </symbol>
  <symbol id="j" overflow="visible">
   <path d="m0.95312-6.4062h3.4063v0.7187h-2.6094v1.5781c0.125-0.039 0.25-0.0703 0.375-0.0937 0.125-0.0196 0.25-0.0313 0.375-0.0313 0.7188 0 1.2852 0.1992 1.7031 0.5938 0.4141 0.3867 0.625 0.914 0.625 1.5781 0 0.6992-0.2148 1.2422-0.6406 1.625-0.4297 0.375-1.0391 0.5625-1.8281 0.5625-0.2617 0-0.5313-0.027344-0.8125-0.078125-0.2813-0.042969-0.57424-0.10938-0.87502-0.20312v-0.85936c0.25781 0.13669 0.52342 0.24216 0.79692 0.31248 0.2812 0.0625 0.5703 0.09374 0.875 0.09374 0.5 0 0.8906-0.1289 1.1718-0.39062 0.2891-0.2578 0.4375-0.6133 0.4375-1.0625 0-0.4453-0.1484-0.8008-0.4375-1.0625-0.2812-0.2578-0.6718-0.3906-1.1718-0.3906-0.2305 0-0.461 0.0273-0.6876 0.0781-0.2304 0.0547-0.4648 0.1367-0.70308 0.25z"/>
  </symbol>
  <symbol id="i" overflow="visible">
   <path d="m2.9062-3.5469c-0.3984 0-0.7109 0.1367-0.9374 0.4063-0.2188 0.2617-0.3282 0.6211-0.3282 1.0781 0 0.4687 0.1094 0.8398 0.3282 1.1094 0.2265 0.26169 0.539 0.3906 0.9374 0.3906 0.3829 0 0.6915-0.12891 0.9219-0.39062 0.2266-0.26958 0.3438-0.64068 0.3438-1.1094 0-0.457-0.1172-0.8164-0.3438-1.0781-0.2304-0.2696-0.539-0.4063-0.9219-0.4063zm1.7188-2.7187v0.7812c-0.2188-0.1015-0.4375-0.1797-0.6562-0.2344-0.2188-0.0507-0.4376-0.0781-0.6563-0.0781-0.5742 0-1.0117 0.1953-1.3125 0.5781-0.3047 0.3868-0.4766 0.9688-0.5156 1.75 0.164-0.25 0.375-0.4374 0.625-0.5624 0.2578-0.1329 0.539-0.2032 0.8437-0.2032 0.6446 0 1.1563 0.1992 1.5313 0.5938 0.375 0.3867 0.5625 0.914 0.5625 1.5781 0 0.668-0.1992 1.1992-0.5938 1.5938-0.3867 0.39839-0.9023 0.5937-1.5469 0.5937-0.7421 0-1.3085-0.28125-1.7031-0.84375-0.39841-0.57035-0.59372-1.3984-0.59372-2.4844 0-1.0077 0.23828-1.8163 0.71872-2.4218 0.4883-0.6016 1.1328-0.9062 1.9375-0.9062 0.2188 0 0.4375 0.0234 0.6563 0.0624 0.2265 0.043 0.4609 0.1094 0.7031 0.2032z"/>
  </symbol>
  <symbol id="h" overflow="visible">
   <path d="m0.71875-6.4062h4.125v0.3593l-2.3282 6.0469h-0.9062l2.1875-5.6875h-3.0782z"/>
  </symbol>
  <symbol id="g" overflow="visible">
   <path d="m2.7969-3.0469c-0.418 0-0.7461 0.1094-0.9844 0.3281-0.2305 0.2188-0.3437 0.5274-0.3437 0.9219 0 0.3867 0.1132 0.6875 0.3437 0.90628 0.2383 0.21874 0.5664 0.32812 0.9844 0.32812 0.414 0 0.7383-0.10938 0.9687-0.32812 0.2383-0.22658 0.3594-0.53128 0.3594-0.90628 0-0.3945-0.1211-0.7031-0.3594-0.9219-0.2304-0.2187-0.5547-0.3281-0.9687-0.3281zm-0.875-0.375c-0.3672-0.082-0.6524-0.25-0.8594-0.5-0.21094-0.2578-0.3125-0.5703-0.3125-0.9375 0-0.5195 0.17969-0.9258 0.5469-1.2187 0.3633-0.3008 0.8633-0.4531 1.5-0.4531 0.6328 0 1.1328 0.1523 1.5 0.4531 0.3633 0.2929 0.5469 0.6992 0.5469 1.2187 0 0.3672-0.1055 0.6797-0.3126 0.9375-0.2109 0.25-0.496 0.418-0.8593 0.5 0.414 0.1055 0.7383 0.2969 0.9687 0.5781 0.2383 0.2813 0.3594 0.6329 0.3594 1.0469 0 0.6172-0.1953 1.0899-0.5781 1.4219-0.375 0.33594-0.918 0.5-1.625 0.5-0.711 0-1.2578-0.16406-1.6407-0.5-0.37495-0.33203-0.56245-0.8047-0.56245-1.4219 0-0.414 0.11328-0.7656 0.34375-1.0469 0.2383-0.2812 0.5664-0.4726 0.9844-0.5781zm-0.3125-1.3593c0 0.3359 0.1015 0.5937 0.3125 0.7812 0.207 0.1797 0.5 0.2656 0.875 0.2656s0.664-0.0859 0.875-0.2656c0.207-0.1875 0.3125-0.4453 0.3125-0.7812 0-0.3321-0.1055-0.5938-0.3125-0.7813-0.211-0.1875-0.5-0.2813-0.875-0.2813s-0.668 0.0938-0.875 0.2813c-0.211 0.1875-0.3125 0.4492-0.3125 0.7813z"/>
  </symbol>
  <symbol id="f" overflow="visible">
   <path d="m0.96875-0.14062v-0.78126c0.21875 0.10547 0.43745 0.1836 0.65625 0.23438 0.2266 0.05469 0.4453 0.07812 0.6562 0.07812 0.5704 0 1.0079-0.1914 1.3126-0.57812 0.3007-0.3828 0.4726-0.9687 0.5156-1.75-0.168 0.25-0.3828 0.4453-0.6406 0.5781-0.25 0.125-0.5274 0.1875-0.8282 0.1875-0.6484 0-1.1562-0.1914-1.5312-0.5781-0.37502-0.3945-0.56252-0.9258-0.56252-1.5938 0-0.6562 0.1914-1.1796 0.57812-1.5781 0.3945-0.4062 0.9141-0.6093 1.5625-0.6093 0.75 0 1.3164 0.289 1.7031 0.8593 0.3946 0.5625 0.5938 1.3867 0.5938 2.4688 0 1.0117-0.2422 1.8203-0.7188 2.4218-0.4804 0.60552-1.125 0.9063-1.9375 0.9063-0.2187 0-0.4453-0.02344-0.6719-0.0625-0.2187-0.042969-0.4492-0.10938-0.68745-0.20312zm1.7188-2.7188c0.3945 0 0.7031-0.1289 0.9219-0.3906 0.2265-0.2695 0.3437-0.6328 0.3437-1.0938 0-0.457-0.1172-0.8203-0.3437-1.0937-0.2188-0.2695-0.5274-0.4063-0.9219-0.4063-0.3867 0-0.6953 0.1368-0.9219 0.4063-0.2304 0.2734-0.3437 0.6367-0.3437 1.0937 0 0.461 0.1133 0.8243 0.3437 1.0938 0.2266 0.2617 0.5352 0.3906 0.9219 0.3906z"/>
  </symbol>
  <symbol id="e" overflow="visible">
   <path d="m2.7969-5.8438c-0.4492 0-0.7891 0.2266-1.0157 0.6719-0.2187 0.4375-0.3281 1.0938-0.3281 1.9688 0 0.8867 0.1094 1.5469 0.3281 1.9843 0.2266 0.43755 0.5665 0.6563 1.0157 0.6563 0.4453 0 0.7812-0.21875 1-0.6563 0.2265-0.4374 0.3437-1.0976 0.3437-1.9843 0-0.875-0.1172-1.5313-0.3437-1.9688-0.2188-0.4453-0.5547-0.6719-1-0.6719zm0-0.6874c0.7187 0 1.2656 0.289 1.6406 0.8593 0.3828 0.5625 0.5781 1.3867 0.5781 2.4688 0 1.0859-0.1953 1.914-0.5781 2.4844-0.375 0.56245-0.9219 0.8437-1.6406 0.8437-0.7188 0-1.2735-0.28125-1.6563-0.84375-0.37498-0.57035-0.56248-1.3984-0.56248-2.4844 0-1.082 0.1875-1.9062 0.56248-2.4687 0.3828-0.5703 0.9375-0.8593 1.6563-0.8593z"/>
  </symbol>
  <symbol id="q" overflow="visible">
   <path d="m1.2969-9.625h1.2969v9.625h-1.2969z"/>
  </symbol>
  <symbol id="p" overflow="visible">
   <path d="m1.2969-9.625h1.75l4.2656 8.0469v-8.0469h1.2656v9.625h-1.75l-4.2656-8.0469v8.0469h-1.2656z"/>
  </symbol>
  <symbol id="o" overflow="visible">
   <path d="m2.5938-8.5625v7.5h1.5781c1.3203 0 2.289-0.3008 2.9062-0.9063 0.625-0.6015 0.9375-1.5546 0.9375-2.8593 0-1.2813-0.3125-2.2227-0.9375-2.8281-0.6172-0.6016-1.5859-0.9063-2.9062-0.9063zm-1.2969-1.0625h2.6719c1.8632 0 3.2343 0.3906 4.1093 1.1719 0.875 0.7734 1.3125 1.9804 1.3125 3.625 0 1.6679-0.4453 2.8906-1.3281 3.6719-0.875 0.77339-2.2422 1.1562-4.0937 1.1562h-2.6719z"/>
  </symbol>
  <symbol id="n" overflow="visible">
   <path d="m1.2969-9.625h6.0781v1.0938h-4.7812v2.8593h4.5937v1.0938h-4.5937v3.4843h4.9062v1.0938h-6.2031z"/>
  </symbol>
  <symbol id="m" overflow="visible">
   <path d="m0.82812-9.625h1.4063l2.3906 3.5781 2.4062-3.5781h1.3907l-3.0938 4.625 3.2969 5h-1.3906l-2.7032-4.0938-2.7343 4.0938h-1.4063l3.4375-5.1406z"/>
  </symbol>
  <symbol id="l" overflow="visible">
   <path d="m7.4219-3.9062v0.5781h-5.4531c0.0507 0.8125 0.2968 1.4375 0.7343 1.875 0.4375 0.4297 1.0508 0.6406 1.8438 0.6406 0.457 0 0.8984-0.05469 1.3281-0.17188 0.4258-0.11332 0.8477-0.28122 1.2656-0.50002v1.1094c-0.4297 0.1875-0.8672 0.32812-1.3125 0.42188-0.4492 0.09374-0.9023 0.14062-1.3593 0.14062-1.1485 0-2.0586-0.33203-2.7344-1-0.668-0.6758-1-1.5859-1-2.7344-0.00002-1.1758 0.3164-2.1093 0.9531-2.7969 0.6328-0.6953 1.4922-1.0468 2.5781-1.0468 0.9688 0 1.7344 0.3125 2.2969 0.9375 0.5703 0.625 0.8594 1.4765 0.8594 2.5469zm-1.1875-0.3438c-0.0117-0.6562-0.1953-1.1758-0.5469-1.5625-0.3555-0.3828-0.8242-0.5781-1.4063-0.5781-0.6679 0-1.1992 0.1875-1.5937 0.5625-0.3984 0.375-0.625 0.9023-0.6875 1.5781z"/>
  </symbol>
  <symbol id="k" overflow="visible">
   <path d="m5.8438-7v1.1094c-0.336-0.1641-0.6836-0.2891-1.0469-0.375-0.3555-0.0938-0.7266-0.1406-1.1094-0.1406-0.5937 0-1.0391 0.0937-1.3281 0.2812-0.293 0.1797-0.4375 0.4492-0.4375 0.8125 0 0.2734 0.1015 0.4844 0.3125 0.6406 0.207 0.1563 0.6289 0.3086 1.2656 0.4531l0.4062 0.0938c0.8438 0.1797 1.4415 0.4336 1.7969 0.7656 0.3516 0.3242 0.5313 0.7813 0.5313 1.375 0 0.668-0.2656 1.1992-0.7969 1.5938-0.5313 0.38669-1.2617 0.5781-2.1875 0.5781-0.3867 0-0.793-0.03906-1.2188-0.10938-0.4179-0.074214-0.8554-0.1875-1.3124-0.34374l-0.00005-1.2188c0.43745 0.2305 0.86715 0.4024 1.2968 0.51565 0.4258 0.10547 0.8477 0.15625 1.2656 0.15625 0.5508 0 0.9766-0.09375 1.2813-0.2813 0.3008-0.1874 0.4531-0.457 0.4531-0.8124 0-0.3204-0.1094-0.5665-0.3281-0.7344-0.2187-0.1758-0.6953-0.3438-1.4219-0.5l-0.4218-0.0938c-0.7305-0.1562-1.2618-0.3906-1.5938-0.7031-0.32422-0.3203-0.48438-0.7656-0.48438-1.3281 0-0.6758 0.23828-1.1953 0.71878-1.5625 0.4883-0.375 1.1758-0.5625 2.0625-0.5625 0.4375 0 0.8476 0.0312 1.2343 0.0937 0.3829 0.0625 0.7383 0.1641 1.0626 0.2969z"/>
  </symbol>
  <clipPath id="ds">
   <path d="m50.18 0h277.82v216h-277.82z"/>
  </clipPath>
  <clipPath id="dh">
   <path d="m50.18 0h278.64v216h-278.64z"/>
  </clipPath>
  <clipPath id="cw">
   <path d="m82.969 23.598h240.03v158.4h-240.03z"/>
  </clipPath>
  <clipPath id="cl">
   <path d="m82.969 26h240.03v1h-240.03z"/>
  </clipPath>
  <clipPath id="ca">
   <path d="m82.969 30h240.03v2h-240.03z"/>
  </clipPath>
  <clipPath id="bp">
   <path d="m82.969 39h240.03v2h-240.03z"/>
  </clipPath>
  <clipPath id="be">
   <path d="m82.969 48h240.03v1h-240.03z"/>
  </clipPath>
  <clipPath id="at">
   <path d="m82.969 57h240.03v1h-240.03z"/>
  </clipPath>
  <clipPath id="ai">
   <path d="m82.969 66h240.03v1h-240.03z"/>
  </clipPath>
  <clipPath id="dr">
   <path d="m82.969 75h240.03v1h-240.03z"/>
  </clipPath>
  <clipPath id="dq">
   <path d="m82.969 84h240.03v1h-240.03z"/>
  </clipPath>
  <clipPath id="dp">
   <path d="m82.969 93h240.03v1h-240.03z"/>
  </clipPath>
  <clipPath id="do">
   <path d="m82.969 102h240.03v1h-240.03z"/>
  </clipPath>
  <clipPath id="dn">
   <path d="m82.969 111h240.03v1h-240.03z"/>
  </clipPath>
  <clipPath id="dm">
   <path d="m82.969 120h240.03v1h-240.03z"/>
  </clipPath>
  <clipPath id="dl">
   <path d="m82.969 129h240.03v1h-240.03z"/>
  </clipPath>
  <clipPath id="dk">
   <path d="m82.969 138h240.03v1h-240.03z"/>
  </clipPath>
  <clipPath id="dj">
   <path d="m82.969 147h240.03v1h-240.03z"/>
  </clipPath>
  <clipPath id="di">
   <path d="m82.969 156h240.03v1h-240.03z"/>
  </clipPath>
  <clipPath id="dg">
   <path d="m82.969 165h240.03v1h-240.03z"/>
  </clipPath>
  <clipPath id="df">
   <path d="m82.969 174h240.03v1h-240.03z"/>
  </clipPath>
  <clipPath id="de">
   <path d="m82.969 178h240.03v2h-240.03z"/>
  </clipPath>
  <clipPath id="dd">
   <path d="m89 23.598h1v158.4h-1z"/>
  </clipPath>
  <clipPath id="dc">
   <path d="m93 23.598h2v158.4h-2z"/>
  </clipPath>
  <clipPath id="db">
   <path d="m102 23.598h2v158.4h-2z"/>
  </clipPath>
  <clipPath id="da">
   <path d="m111 23.598h2v158.4h-2z"/>
  </clipPath>
  <clipPath id="cz">
   <path d="m120 23.598h2v158.4h-2z"/>
  </clipPath>
  <clipPath id="cy">
   <path d="m129 23.598h2v158.4h-2z"/>
  </clipPath>
  <clipPath id="cx">
   <path d="m138 23.598h2v158.4h-2z"/>
  </clipPath>
  <clipPath id="cv">
   <path d="m147 23.598h2v158.4h-2z"/>
  </clipPath>
  <clipPath id="cu">
   <path d="m157 23.598h1v158.4h-1z"/>
  </clipPath>
  <clipPath id="ct">
   <path d="m166 23.598h1v158.4h-1z"/>
  </clipPath>
  <clipPath id="cs">
   <path d="m175 23.598h1v158.4h-1z"/>
  </clipPath>
  <clipPath id="cr">
   <path d="m184 23.598h1v158.4h-1z"/>
  </clipPath>
  <clipPath id="cq">
   <path d="m193 23.598h1v158.4h-1z"/>
  </clipPath>
  <clipPath id="cp">
   <path d="m202 23.598h1v158.4h-1z"/>
  </clipPath>
  <clipPath id="co">
   <path d="m211 23.598h1v158.4h-1z"/>
  </clipPath>
  <clipPath id="cn">
   <path d="m220 23.598h2v158.4h-2z"/>
  </clipPath>
  <clipPath id="cm">
   <path d="m229 23.598h2v158.4h-2z"/>
  </clipPath>
  <clipPath id="ck">
   <path d="m238 23.598h2v158.4h-2z"/>
  </clipPath>
  <clipPath id="cj">
   <path d="m247 23.598h2v158.4h-2z"/>
  </clipPath>
  <clipPath id="ci">
   <path d="m256 23.598h2v158.4h-2z"/>
  </clipPath>
  <clipPath id="ch">
   <path d="m265 23.598h2v158.4h-2z"/>
  </clipPath>
  <clipPath id="cg">
   <path d="m274 23.598h2v158.4h-2z"/>
  </clipPath>
  <clipPath id="cf">
   <path d="m283 23.598h2v158.4h-2z"/>
  </clipPath>
  <clipPath id="ce">
   <path d="m293 23.598h1v158.4h-1z"/>
  </clipPath>
  <clipPath id="cd">
   <path d="m302 23.598h1v158.4h-1z"/>
  </clipPath>
  <clipPath id="cc">
   <path d="m311 23.598h1v158.4h-1z"/>
  </clipPath>
  <clipPath id="cb">
   <path d="m315 23.598h2v158.4h-2z"/>
  </clipPath>
  <clipPath id="bz">
   <path d="m82.969 34h240.03v2h-240.03z"/>
  </clipPath>
  <clipPath id="by">
   <path d="m82.969 43h240.03v2h-240.03z"/>
  </clipPath>
  <clipPath id="bx">
   <path d="m82.969 52h240.03v2h-240.03z"/>
  </clipPath>
  <clipPath id="bw">
   <path d="m82.969 61h240.03v2h-240.03z"/>
  </clipPath>
  <clipPath id="bv">
   <path d="m82.969 70h240.03v2h-240.03z"/>
  </clipPath>
  <clipPath id="bu">
   <path d="m82.969 79h240.03v2h-240.03z"/>
  </clipPath>
  <clipPath id="bt">
   <path d="m82.969 88h240.03v2h-240.03z"/>
  </clipPath>
  <clipPath id="bs">
   <path d="m82.969 97h240.03v2h-240.03z"/>
  </clipPath>
  <clipPath id="br">
   <path d="m82.969 106h240.03v2h-240.03z"/>
  </clipPath>
  <clipPath id="bq">
   <path d="m82.969 115h240.03v2h-240.03z"/>
  </clipPath>
  <clipPath id="bo">
   <path d="m82.969 124h240.03v2h-240.03z"/>
  </clipPath>
  <clipPath id="bn">
   <path d="m82.969 133h240.03v2h-240.03z"/>
  </clipPath>
  <clipPath id="bm">
   <path d="m82.969 142h240.03v2h-240.03z"/>
  </clipPath>
  <clipPath id="bl">
   <path d="m82.969 151h240.03v2h-240.03z"/>
  </clipPath>
  <clipPath id="bk">
   <path d="m82.969 160h240.03v2h-240.03z"/>
  </clipPath>
  <clipPath id="bj">
   <path d="m82.969 169h240.03v2h-240.03z"/>
  </clipPath>
  <clipPath id="bi">
   <path d="m97 23.598h2v158.97h-2z"/>
  </clipPath>
  <clipPath id="bh">
   <path d="m106 23.598h2v158.97h-2z"/>
  </clipPath>
  <clipPath id="bg">
   <path d="m115 23.598h3v158.97h-3z"/>
  </clipPath>
  <clipPath id="bf">
   <path d="m125 23.598h2v158.97h-2z"/>
  </clipPath>
  <clipPath id="bd">
   <path d="m134 23.598h2v158.97h-2z"/>
  </clipPath>
  <clipPath id="bc">
   <path d="m143 23.598h2v158.97h-2z"/>
  </clipPath>
  <clipPath id="bb">
   <path d="m152 23.598h2v158.97h-2z"/>
  </clipPath>
  <clipPath id="ba">
   <path d="m161 23.598h2v158.97h-2z"/>
  </clipPath>
  <clipPath id="az">
   <path d="m170 23.598h2v158.97h-2z"/>
  </clipPath>
  <clipPath id="ay">
   <path d="m179 23.598h2v158.97h-2z"/>
  </clipPath>
  <clipPath id="ax">
   <path d="m188 23.598h2v158.97h-2z"/>
  </clipPath>
  <clipPath id="aw">
   <path d="m197 23.598h2v158.97h-2z"/>
  </clipPath>
  <clipPath id="av">
   <path d="m206 23.598h2v158.97h-2z"/>
  </clipPath>
  <clipPath id="au">
   <path d="m215 23.598h2v158.97h-2z"/>
  </clipPath>
  <clipPath id="as">
   <path d="m224 23.598h2v158.97h-2z"/>
  </clipPath>
  <clipPath id="ar">
   <path d="m233 23.598h2v158.97h-2z"/>
  </clipPath>
  <clipPath id="aq">
   <path d="m242 23.598h2v158.97h-2z"/>
  </clipPath>
  <clipPath id="ap">
   <path d="m251 23.598h3v158.97h-3z"/>
  </clipPath>
  <clipPath id="ao">
   <path d="m261 23.598h2v158.97h-2z"/>
  </clipPath>
  <clipPath id="an">
   <path d="m270 23.598h2v158.97h-2z"/>
  </clipPath>
  <clipPath id="am">
   <path d="m279 23.598h2v158.97h-2z"/>
  </clipPath>
  <clipPath id="al">
   <path d="m288 23.598h2v158.97h-2z"/>
  </clipPath>
  <clipPath id="ak">
   <path d="m297 23.598h2v158.97h-2z"/>
  </clipPath>
  <clipPath id="aj">
   <path d="m306 23.598h2v158.97h-2z"/>
  </clipPath>
  <clipPath id="ah">
   <path d="m82.969 23.598h240.03v158.97h-240.03z"/>
  </clipPath>
 </defs>
 <rect height="216" width="378" y="0" x="0" fill="#fff"/>
 <g>
  <g clip-path="url(#ds)">
   <path fill="#fff" d="m50.18 216h277.64v-216h-277.64z"/>
  </g>
  <g clip-path="url(#dh)">
   <path stroke-linejoin="round" d="m50.18 216h277.64v-216h-277.64zm0 0" stroke="#fff" stroke-linecap="round" stroke-miterlimit="10" stroke-width="1.067" fill="none"/>
  </g>
  <g clip-path="url(#cw)">
   <path fill="#fff" d="m82.969 181.57h239.37v-157.97l-239.37 0.002z"/>
  </g>
  <g clip-path="url(#cl)">
   <path stroke-linejoin="round" d="m82.969 26.293h239.37" stroke="#ebebeb" stroke-miterlimit="10" stroke-width=".53349" fill="none"/>
  </g>
  <g clip-path="url(#ca)">
   <path stroke-linejoin="round" d="m82.969 30.781h239.37" stroke="#ebebeb" stroke-miterlimit="10" stroke-width=".53349" fill="none"/>
  </g>
  <g clip-path="url(#bp)">
   <path stroke-linejoin="round" d="m82.969 39.754h239.37" stroke="#ebebeb" stroke-miterlimit="10" stroke-width=".53349" fill="none"/>
  </g>
  <g clip-path="url(#be)">
   <path stroke-linejoin="round" d="m82.969 48.73h239.37" stroke="#ebebeb" stroke-miterlimit="10" stroke-width=".53349" fill="none"/>
  </g>
  <g clip-path="url(#at)">
   <path stroke-linejoin="round" d="m82.969 57.707h239.37" stroke="#ebebeb" stroke-miterlimit="10" stroke-width=".53349" fill="none"/>
  </g>
  <g clip-path="url(#ai)">
   <path stroke-linejoin="round" d="m82.969 66.684h239.37" stroke="#ebebeb" stroke-miterlimit="10" stroke-width=".53349" fill="none"/>
  </g>
  <g clip-path="url(#dr)">
   <path stroke-linejoin="round" d="m82.969 75.656h239.37" stroke="#ebebeb" stroke-miterlimit="10" stroke-width=".53349" fill="none"/>
  </g>
  <g clip-path="url(#dq)">
   <path stroke-linejoin="round" d="m82.969 84.633h239.37" stroke="#ebebeb" stroke-miterlimit="10" stroke-width=".53349" fill="none"/>
  </g>
  <g clip-path="url(#dp)">
   <path stroke-linejoin="round" d="m82.969 93.609h239.37" stroke="#ebebeb" stroke-miterlimit="10" stroke-width=".53349" fill="none"/>
  </g>
  <g clip-path="url(#do)">
   <path stroke-linejoin="round" d="m82.969 102.59h239.37" stroke="#ebebeb" stroke-miterlimit="10" stroke-width=".53349" fill="none"/>
  </g>
  <g clip-path="url(#dn)">
   <path stroke-linejoin="round" d="m82.969 111.56h239.37" stroke="#ebebeb" stroke-miterlimit="10" stroke-width=".53349" fill="none"/>
  </g>
  <g clip-path="url(#dm)">
   <path stroke-linejoin="round" d="m82.969 120.54h239.37" stroke="#ebebeb" stroke-miterlimit="10" stroke-width=".53349" fill="none"/>
  </g>
  <g clip-path="url(#dl)">
   <path stroke-linejoin="round" d="m82.969 129.51h239.37" stroke="#ebebeb" stroke-miterlimit="10" stroke-width=".53349" fill="none"/>
  </g>
  <g clip-path="url(#dk)">
   <path stroke-linejoin="round" d="m82.969 138.49h239.37" stroke="#ebebeb" stroke-miterlimit="10" stroke-width=".53349" fill="none"/>
  </g>
  <g clip-path="url(#dj)">
   <path stroke-linejoin="round" d="m82.969 147.46h239.37" stroke="#ebebeb" stroke-miterlimit="10" stroke-width=".53349" fill="none"/>
  </g>
  <g clip-path="url(#di)">
   <path stroke-linejoin="round" d="m82.969 156.44h239.37" stroke="#ebebeb" stroke-miterlimit="10" stroke-width=".53349" fill="none"/>
  </g>
  <g clip-path="url(#dg)">
   <path stroke-linejoin="round" d="m82.969 165.41h239.37" stroke="#ebebeb" stroke-miterlimit="10" stroke-width=".53349" fill="none"/>
  </g>
  <g clip-path="url(#df)">
   <path stroke-linejoin="round" d="m82.969 174.39h239.37" stroke="#ebebeb" stroke-miterlimit="10" stroke-width=".53349" fill="none"/>
  </g>
  <g clip-path="url(#de)">
   <path stroke-linejoin="round" d="m82.969 178.88h239.37" stroke="#ebebeb" stroke-miterlimit="10" stroke-width=".53349" fill="none"/>
  </g>
  <g clip-path="url(#dd)">
   <path stroke-linejoin="round" d="m89.316 181.57v-157.97" stroke="#ebebeb" stroke-miterlimit="10" stroke-width=".53349" fill="none"/>
  </g>
  <g clip-path="url(#dc)">
   <path stroke-linejoin="round" d="m93.848 181.57v-157.97" stroke="#ebebeb" stroke-miterlimit="10" stroke-width=".53349" fill="none"/>
  </g>
  <g clip-path="url(#db)">
   <path stroke-linejoin="round" d="m102.92 181.57v-157.97" stroke="#ebebeb" stroke-miterlimit="10" stroke-width=".53349" fill="none"/>
  </g>
  <g clip-path="url(#da)">
   <path stroke-linejoin="round" d="m111.98 181.57v-157.97" stroke="#ebebeb" stroke-miterlimit="10" stroke-width=".53349" fill="none"/>
  </g>
  <g clip-path="url(#cz)">
   <path stroke-linejoin="round" d="m121.05 181.57v-157.97" stroke="#ebebeb" stroke-miterlimit="10" stroke-width=".53349" fill="none"/>
  </g>
  <g clip-path="url(#cy)">
   <path stroke-linejoin="round" d="m130.12 181.57v-157.97" stroke="#ebebeb" stroke-miterlimit="10" stroke-width=".53349" fill="none"/>
  </g>
  <g clip-path="url(#cx)">
   <path stroke-linejoin="round" d="m139.18 181.57v-157.97" stroke="#ebebeb" stroke-miterlimit="10" stroke-width=".53349" fill="none"/>
  </g>
  <g clip-path="url(#cv)">
   <path stroke-linejoin="round" d="m148.25 181.57v-157.97" stroke="#ebebeb" stroke-miterlimit="10" stroke-width=".53349" fill="none"/>
  </g>
  <g clip-path="url(#cu)">
   <path stroke-linejoin="round" d="m157.32 181.57v-157.97" stroke="#ebebeb" stroke-miterlimit="10" stroke-width=".53349" fill="none"/>
  </g>
  <g clip-path="url(#ct)">
   <path stroke-linejoin="round" d="m166.39 181.57v-157.97" stroke="#ebebeb" stroke-miterlimit="10" stroke-width=".53349" fill="none"/>
  </g>
  <g clip-path="url(#cs)">
   <path stroke-linejoin="round" d="m175.45 181.57v-157.97" stroke="#ebebeb" stroke-miterlimit="10" stroke-width=".53349" fill="none"/>
  </g>
  <g clip-path="url(#cr)">
   <path stroke-linejoin="round" d="m184.52 181.57v-157.97" stroke="#ebebeb" stroke-miterlimit="10" stroke-width=".53349" fill="none"/>
  </g>
  <g clip-path="url(#cq)">
   <path stroke-linejoin="round" d="m193.59 181.57v-157.97" stroke="#ebebeb" stroke-miterlimit="10" stroke-width=".53349" fill="none"/>
  </g>
  <g clip-path="url(#cp)">
   <path stroke-linejoin="round" d="m202.66 181.57v-157.97" stroke="#ebebeb" stroke-miterlimit="10" stroke-width=".53349" fill="none"/>
  </g>
  <g clip-path="url(#co)">
   <path stroke-linejoin="round" d="m211.72 181.57v-157.97" stroke="#ebebeb" stroke-miterlimit="10" stroke-width=".53349" fill="none"/>
  </g>
  <g clip-path="url(#cn)">
   <path stroke-linejoin="round" d="m220.79 181.57v-157.97" stroke="#ebebeb" stroke-miterlimit="10" stroke-width=".53349" fill="none"/>
  </g>
  <g clip-path="url(#cm)">
   <path stroke-linejoin="round" d="m229.86 181.57v-157.97" stroke="#ebebeb" stroke-miterlimit="10" stroke-width=".53349" fill="none"/>
  </g>
  <g clip-path="url(#ck)">
   <path stroke-linejoin="round" d="m238.93 181.57v-157.97" stroke="#ebebeb" stroke-miterlimit="10" stroke-width=".53349" fill="none"/>
  </g>
  <g clip-path="url(#cj)">
   <path stroke-linejoin="round" d="m247.99 181.57v-157.97" stroke="#ebebeb" stroke-miterlimit="10" stroke-width=".53349" fill="none"/>
  </g>
  <g clip-path="url(#ci)">
   <path stroke-linejoin="round" d="m257.06 181.57v-157.97" stroke="#ebebeb" stroke-miterlimit="10" stroke-width=".53349" fill="none"/>
  </g>
  <g clip-path="url(#ch)">
   <path stroke-linejoin="round" d="m266.12 181.57v-157.97" stroke="#ebebeb" stroke-miterlimit="10" stroke-width=".53349" fill="none"/>
  </g>
  <g clip-path="url(#cg)">
   <path stroke-linejoin="round" d="m275.19 181.57v-157.97" stroke="#ebebeb" stroke-miterlimit="10" stroke-width=".53349" fill="none"/>
  </g>
  <g clip-path="url(#cf)">
   <path stroke-linejoin="round" d="m284.26 181.57v-157.97" stroke="#ebebeb" stroke-miterlimit="10" stroke-width=".53349" fill="none"/>
  </g>
  <g clip-path="url(#ce)">
   <path stroke-linejoin="round" d="m293.33 181.57v-157.97" stroke="#ebebeb" stroke-miterlimit="10" stroke-width=".53349" fill="none"/>
  </g>
  <g clip-path="url(#cd)">
   <path stroke-linejoin="round" d="m302.39 181.57v-157.97" stroke="#ebebeb" stroke-miterlimit="10" stroke-width=".53349" fill="none"/>
  </g>
  <g clip-path="url(#cc)">
   <path stroke-linejoin="round" d="m311.46 181.57v-157.97" stroke="#ebebeb" stroke-miterlimit="10" stroke-width=".53349" fill="none"/>
  </g>
  <g clip-path="url(#cb)">
   <path stroke-linejoin="round" d="m316 181.57v-157.97" stroke="#ebebeb" stroke-miterlimit="10" stroke-width=".53349" fill="none"/>
  </g>
  <g clip-path="url(#bz)">
   <path stroke-linejoin="round" d="m82.969 35.266h239.37" stroke="#ebebeb" stroke-miterlimit="10" stroke-width="1.067" fill="none"/>
  </g>
  <g clip-path="url(#by)">
   <path stroke-linejoin="round" d="m82.969 44.242h239.37" stroke="#ebebeb" stroke-miterlimit="10" stroke-width="1.067" fill="none"/>
  </g>
  <g clip-path="url(#bx)">
   <path stroke-linejoin="round" d="m82.969 53.219h239.37" stroke="#ebebeb" stroke-miterlimit="10" stroke-width="1.067" fill="none"/>
  </g>
  <g clip-path="url(#bw)">
   <path stroke-linejoin="round" d="m82.969 62.195h239.37" stroke="#ebebeb" stroke-miterlimit="10" stroke-width="1.067" fill="none"/>
  </g>
  <g clip-path="url(#bv)">
   <path stroke-linejoin="round" d="m82.969 71.168h239.37" stroke="#ebebeb" stroke-miterlimit="10" stroke-width="1.067" fill="none"/>
  </g>
  <g clip-path="url(#bu)">
   <path stroke-linejoin="round" d="m82.969 80.145h239.37" stroke="#ebebeb" stroke-miterlimit="10" stroke-width="1.067" fill="none"/>
  </g>
  <g clip-path="url(#bt)">
   <path stroke-linejoin="round" d="m82.969 89.121h239.37" stroke="#ebebeb" stroke-miterlimit="10" stroke-width="1.067" fill="none"/>
  </g>
  <g clip-path="url(#bs)">
   <path stroke-linejoin="round" d="m82.969 98.098h239.37" stroke="#ebebeb" stroke-miterlimit="10" stroke-width="1.067" fill="none"/>
  </g>
  <g clip-path="url(#br)">
   <path stroke-linejoin="round" d="m82.969 107.07h239.37" stroke="#ebebeb" stroke-miterlimit="10" stroke-width="1.067" fill="none"/>
  </g>
  <g clip-path="url(#bq)">
   <path stroke-linejoin="round" d="m82.969 116.05h239.37" stroke="#ebebeb" stroke-miterlimit="10" stroke-width="1.067" fill="none"/>
  </g>
  <g clip-path="url(#bo)">
   <path stroke-linejoin="round" d="m82.969 125.02h239.37" stroke="#ebebeb" stroke-miterlimit="10" stroke-width="1.067" fill="none"/>
  </g>
  <g clip-path="url(#bn)">
   <path stroke-linejoin="round" d="m82.969 134h239.37" stroke="#ebebeb" stroke-miterlimit="10" stroke-width="1.067" fill="none"/>
  </g>
  <g clip-path="url(#bm)">
   <path stroke-linejoin="round" d="m82.969 142.97h239.37" stroke="#ebebeb" stroke-miterlimit="10" stroke-width="1.067" fill="none"/>
  </g>
  <g clip-path="url(#bl)">
   <path stroke-linejoin="round" d="m82.969 151.95h239.37" stroke="#ebebeb" stroke-miterlimit="10" stroke-width="1.067" fill="none"/>
  </g>
  <g clip-path="url(#bk)">
   <path stroke-linejoin="round" d="m82.969 160.93h239.37" stroke="#ebebeb" stroke-miterlimit="10" stroke-width="1.067" fill="none"/>
  </g>
  <g clip-path="url(#bj)">
   <path stroke-linejoin="round" d="m82.969 169.9h239.37" stroke="#ebebeb" stroke-miterlimit="10" stroke-width="1.067" fill="none"/>
  </g>
  <g clip-path="url(#bi)">
   <path stroke-linejoin="round" d="m98.383 181.57v-157.97" stroke="#ebebeb" stroke-miterlimit="10" stroke-width="1.067" fill="none"/>
  </g>
  <g clip-path="url(#bh)">
   <path stroke-linejoin="round" d="m107.45 181.57v-157.97" stroke="#ebebeb" stroke-miterlimit="10" stroke-width="1.067" fill="none"/>
  </g>
  <g clip-path="url(#bg)">
   <path stroke-linejoin="round" d="m116.52 181.57v-157.97" stroke="#ebebeb" stroke-miterlimit="10" stroke-width="1.067" fill="none"/>
  </g>
  <g clip-path="url(#bf)">
   <path stroke-linejoin="round" d="m125.59 181.57v-157.97" stroke="#ebebeb" stroke-miterlimit="10" stroke-width="1.067" fill="none"/>
  </g>
  <g clip-path="url(#bd)">
   <path stroke-linejoin="round" d="m134.65 181.57v-157.97" stroke="#ebebeb" stroke-miterlimit="10" stroke-width="1.067" fill="none"/>
  </g>
  <g clip-path="url(#bc)">
   <path stroke-linejoin="round" d="m143.72 181.57v-157.97" stroke="#ebebeb" stroke-miterlimit="10" stroke-width="1.067" fill="none"/>
  </g>
  <g clip-path="url(#bb)">
   <path stroke-linejoin="round" d="m152.79 181.57v-157.97" stroke="#ebebeb" stroke-miterlimit="10" stroke-width="1.067" fill="none"/>
  </g>
  <g clip-path="url(#ba)">
   <path stroke-linejoin="round" d="m161.85 181.57v-157.97" stroke="#ebebeb" stroke-miterlimit="10" stroke-width="1.067" fill="none"/>
  </g>
  <g clip-path="url(#az)">
   <path stroke-linejoin="round" d="m170.92 181.57v-157.97" stroke="#ebebeb" stroke-miterlimit="10" stroke-width="1.067" fill="none"/>
  </g>
  <g clip-path="url(#ay)">
   <path stroke-linejoin="round" d="m179.99 181.57v-157.97" stroke="#ebebeb" stroke-miterlimit="10" stroke-width="1.067" fill="none"/>
  </g>
  <g clip-path="url(#ax)">
   <path stroke-linejoin="round" d="m189.05 181.57v-157.97" stroke="#ebebeb" stroke-miterlimit="10" stroke-width="1.067" fill="none"/>
  </g>
  <g clip-path="url(#aw)">
   <path stroke-linejoin="round" d="m198.12 181.57v-157.97" stroke="#ebebeb" stroke-miterlimit="10" stroke-width="1.067" fill="none"/>
  </g>
  <g clip-path="url(#av)">
   <path stroke-linejoin="round" d="m207.19 181.57v-157.97" stroke="#ebebeb" stroke-miterlimit="10" stroke-width="1.067" fill="none"/>
  </g>
  <g clip-path="url(#au)">
   <path stroke-linejoin="round" d="m216.26 181.57v-157.97" stroke="#ebebeb" stroke-miterlimit="10" stroke-width="1.067" fill="none"/>
  </g>
  <g clip-path="url(#as)">
   <path stroke-linejoin="round" d="m225.32 181.57v-157.97" stroke="#ebebeb" stroke-miterlimit="10" stroke-width="1.067" fill="none"/>
  </g>
  <g clip-path="url(#ar)">
   <path stroke-linejoin="round" d="m234.39 181.57v-157.97" stroke="#ebebeb" stroke-miterlimit="10" stroke-width="1.067" fill="none"/>
  </g>
  <g clip-path="url(#aq)">
   <path stroke-linejoin="round" d="m243.46 181.57v-157.97" stroke="#ebebeb" stroke-miterlimit="10" stroke-width="1.067" fill="none"/>
  </g>
  <g clip-path="url(#ap)">
   <path stroke-linejoin="round" d="m252.52 181.57v-157.97" stroke="#ebebeb" stroke-miterlimit="10" stroke-width="1.067" fill="none"/>
  </g>
  <g clip-path="url(#ao)">
   <path stroke-linejoin="round" d="m261.59 181.57v-157.97" stroke="#ebebeb" stroke-miterlimit="10" stroke-width="1.067" fill="none"/>
  </g>
  <g clip-path="url(#an)">
   <path stroke-linejoin="round" d="m270.66 181.57v-157.97" stroke="#ebebeb" stroke-miterlimit="10" stroke-width="1.067" fill="none"/>
  </g>
  <g clip-path="url(#am)">
   <path stroke-linejoin="round" d="m279.73 181.57v-157.97" stroke="#ebebeb" stroke-miterlimit="10" stroke-width="1.067" fill="none"/>
  </g>
  <g clip-path="url(#al)">
   <path stroke-linejoin="round" d="m288.79 181.57v-157.97" stroke="#ebebeb" stroke-miterlimit="10" stroke-width="1.067" fill="none"/>
  </g>
  <g clip-path="url(#ak)">
   <path stroke-linejoin="round" d="m297.86 181.57v-157.97" stroke="#ebebeb" stroke-miterlimit="10" stroke-width="1.067" fill="none"/>
  </g>
  <g clip-path="url(#aj)">
   <path stroke-linejoin="round" d="m306.93 181.57v-157.97" stroke="#ebebeb" stroke-miterlimit="10" stroke-width="1.067" fill="none"/>
  </g>
 </g>
 <g stroke-linejoin="round" stroke-opacity=".10196" fill-opacity=".10196" stroke="#e5e5e5" stroke-linecap="round" stroke-miterlimit="10" stroke-width=".70866" fill="#fff">
  <path d="m95.23 38.418h6.3v-6.301h-6.3z"/>
  <path d="m104.3 38.418h6.3v-6.301h-6.3z"/>
  <path d="m113.37 38.418h6.3v-6.301h-6.3z"/>
  <path d="m122.43 38.418h6.3v-6.301h-6.3z"/>
  <path d="m131.5 38.418h6.3v-6.301h-6.3z"/>
  <path d="m140.57 38.418h6.3v-6.301h-6.3z"/>
  <path d="m149.64 38.418h6.3v-6.301h-6.3z"/>
  <path d="m158.7 38.418h6.3v-6.301h-6.3z"/>
  <path d="m167.77 38.418h6.3v-6.301h-6.3z"/>
  <path d="m176.84 38.418h6.3v-6.301h-6.3z"/>
  <path d="m185.9 38.418h6.3v-6.301h-6.3z"/>
  <path d="m194.97 38.418h6.3v-6.301h-6.3z"/>
  <path d="m204.04 38.418h6.3v-6.301h-6.3z"/>
  <path d="m213.11 38.418h6.3v-6.301h-6.3z"/>
  <path d="m222.17 38.418h6.3v-6.301h-6.3z"/>
  <path d="m231.24 38.418h6.3v-6.301h-6.3z"/>
  <path d="m240.31 38.418h6.3v-6.301h-6.3z"/>
  <path d="m249.38 38.418h6.3v-6.301h-6.3z"/>
  <path d="m258.44 38.418h6.3v-6.301h-6.3z"/>
  <path d="m267.51 38.418h6.3v-6.301h-6.3z"/>
  <path d="m276.57 38.418h6.31v-6.301h-6.31z"/>
  <path d="m285.64 38.418h6.31v-6.301h-6.31z"/>
  <path d="m294.71 38.418h6.3v-6.301h-6.3z"/>
  <path d="m303.78 38.418h6.3v-6.301h-6.3z"/>
  <path d="m95.23 47.395h6.3v-6.301h-6.3z"/>
  <path d="m104.3 47.395h6.3v-6.301h-6.3z"/>
  <path d="m113.37 47.395h6.3v-6.301h-6.3z"/>
  <path d="m122.43 47.395h6.3v-6.301h-6.3z"/>
  <path d="m131.5 47.395h6.3v-6.301h-6.3z"/>
  <path d="m140.57 47.395h6.3v-6.301h-6.3z"/>
  <path d="m149.64 47.395h6.3v-6.301h-6.3z"/>
  <path d="m158.7 47.395h6.3v-6.301h-6.3z"/>
  <path d="m167.77 47.395h6.3v-6.301h-6.3z"/>
  <path d="m176.84 47.395h6.3v-6.301h-6.3z"/>
  <path d="m185.9 47.395h6.3v-6.301h-6.3z"/>
  <path d="m194.97 47.395h6.3v-6.301h-6.3z"/>
  <path d="m204.04 47.395h6.3v-6.301h-6.3z"/>
  <path d="m213.11 47.395h6.3v-6.301h-6.3z"/>
  <path d="m222.17 47.395h6.3v-6.301h-6.3z"/>
  <path d="m231.24 47.395h6.3v-6.301h-6.3z"/>
  <path d="m240.31 47.395h6.3v-6.301h-6.3z"/>
  <path d="m249.38 47.395h6.3v-6.301h-6.3z"/>
  <path d="m258.44 47.395h6.3v-6.301h-6.3z"/>
  <path d="m267.51 47.395h6.3v-6.301h-6.3z"/>
  <path d="m276.57 47.395h6.31v-6.301h-6.31z"/>
  <path d="m285.64 47.395h6.31v-6.301h-6.31z"/>
  <path d="m294.71 47.395h6.3v-6.301h-6.3z"/>
  <path d="m303.78 47.395h6.3v-6.301h-6.3z"/>
  <path d="m95.23 56.367h6.3v-6.301h-6.3z"/>
  <path d="m104.3 56.367h6.3v-6.301h-6.3z"/>
  <path d="m113.37 56.367h6.3v-6.301h-6.3z"/>
  <path d="m122.43 56.367h6.3v-6.301h-6.3z"/>
  <path d="m131.5 56.367h6.3v-6.301h-6.3z"/>
  <path d="m140.57 56.367h6.3v-6.301h-6.3z"/>
  <path d="m149.64 56.367h6.3v-6.301h-6.3z"/>
  <path d="m158.7 56.367h6.3v-6.301h-6.3z"/>
  <path d="m167.77 56.367h6.3v-6.301h-6.3z"/>
  <path d="m176.84 56.367h6.3v-6.301h-6.3z"/>
  <path d="m185.9 56.367h6.3v-6.301h-6.3z"/>
  <path d="m194.97 56.367h6.3v-6.301h-6.3z"/>
  <path d="m204.04 56.367h6.3v-6.301h-6.3z"/>
  <path d="m213.11 56.367h6.3v-6.301h-6.3z"/>
  <path d="m222.17 56.367h6.3v-6.301h-6.3z"/>
  <path d="m231.24 56.367h6.3v-6.301h-6.3z"/>
  <path d="m240.31 56.367h6.3v-6.301h-6.3z"/>
  <path d="m249.38 56.367h6.3v-6.301h-6.3z"/>
  <path d="m258.44 56.367h6.3v-6.301h-6.3z"/>
  <path d="m267.51 56.367h6.3v-6.301h-6.3z"/>
  <path d="m276.57 56.367h6.31v-6.301h-6.31z"/>
  <path d="m285.64 56.367h6.31v-6.301h-6.31z"/>
  <path d="m294.71 56.367h6.3v-6.301h-6.3z"/>
  <path d="m303.78 56.367h6.3v-6.301h-6.3z"/>
  <path d="m95.23 65.344h6.3v-6.301h-6.3z"/>
  <path d="m104.3 65.344h6.3v-6.301h-6.3z"/>
  <path d="m113.37 65.344h6.3v-6.301h-6.3z"/>
  <path d="m122.43 65.344h6.3v-6.301h-6.3z"/>
  <path d="m131.5 65.344h6.3v-6.301h-6.3z"/>
  <path d="m140.57 65.344h6.3v-6.301h-6.3z"/>
  <path d="m149.64 65.344h6.3v-6.301h-6.3z"/>
  <path d="m158.7 65.344h6.3v-6.301h-6.3z"/>
  <path d="m167.77 65.344h6.3v-6.301h-6.3z"/>
  <path d="m176.84 65.344h6.3v-6.301h-6.3z"/>
  <path d="m185.9 65.344h6.3v-6.301h-6.3z"/>
  <path d="m194.97 65.344h6.3v-6.301h-6.3z"/>
  <path d="m204.04 65.344h6.3v-6.301h-6.3z"/>
  <path d="m213.11 65.344h6.3v-6.301h-6.3z"/>
  <path d="m222.17 65.344h6.3v-6.301h-6.3z"/>
  <path d="m231.24 65.344h6.3v-6.301h-6.3z"/>
  <path d="m240.31 65.344h6.3v-6.301h-6.3z"/>
  <path d="m249.38 65.344h6.3v-6.301h-6.3z"/>
  <path d="m258.44 65.344h6.3v-6.301h-6.3z"/>
  <path d="m267.51 65.344h6.3v-6.301h-6.3z"/>
  <path d="m276.57 65.344h6.31v-6.301h-6.31z"/>
  <path d="m285.64 65.344h6.31v-6.301h-6.31z"/>
  <path d="m294.71 65.344h6.3v-6.301h-6.3z"/>
  <path d="m303.78 65.344h6.3v-6.301h-6.3z"/>
  <path d="m95.23 74.32h6.3v-6.3h-6.3z"/>
  <path d="m104.3 74.32h6.3v-6.3h-6.3z"/>
  <path d="m113.37 74.32h6.3v-6.3h-6.3z"/>
  <path d="m122.43 74.32h6.3v-6.3h-6.3z"/>
  <path d="m131.5 74.32h6.3v-6.3h-6.3z"/>
  <path d="m140.57 74.32h6.3v-6.3h-6.3z"/>
  <path d="m149.64 74.32h6.3v-6.3h-6.3z"/>
  <path d="m158.7 74.32h6.3v-6.3h-6.3z"/>
  <path d="m167.77 74.32h6.3v-6.3h-6.3z"/>
  <path d="m176.84 74.32h6.3v-6.3h-6.3z"/>
  <path d="m185.9 74.32h6.3v-6.3h-6.3z"/>
  <path d="m194.97 74.32h6.3v-6.3h-6.3z"/>
  <path d="m204.04 74.32h6.3v-6.3h-6.3z"/>
  <path d="m213.11 74.32h6.3v-6.3h-6.3z"/>
  <path d="m222.17 74.32h6.3v-6.3h-6.3z"/>
  <path d="m231.24 74.32h6.3v-6.3h-6.3z"/>
  <path d="m240.31 74.32h6.3v-6.3h-6.3z"/>
  <path d="m249.38 74.32h6.3v-6.3h-6.3z"/>
  <path d="m258.44 74.32h6.3v-6.3h-6.3z"/>
  <path d="m267.51 74.32h6.3v-6.3h-6.3z"/>
  <path d="m276.57 74.32h6.31v-6.3h-6.31z"/>
  <path d="m285.64 74.32h6.31v-6.3h-6.31z"/>
  <path d="m294.71 74.32h6.3v-6.3h-6.3z"/>
  <path d="m303.78 74.32h6.3v-6.3h-6.3z"/>
  <path d="m95.23 83.297h6.3v-6.301h-6.3z"/>
  <path d="m104.3 83.297h6.3v-6.301h-6.3z"/>
  <path d="m113.37 83.297h6.3v-6.301h-6.3z"/>
  <path d="m122.43 83.297h6.3v-6.301h-6.3z"/>
  <path d="m131.5 83.297h6.3v-6.301h-6.3z"/>
  <path d="m140.57 83.297h6.3v-6.301h-6.3z"/>
  <path d="m149.64 83.297h6.3v-6.301h-6.3z"/>
  <path d="m158.7 83.297h6.3v-6.301h-6.3z"/>
  <path d="m167.77 83.297h6.3v-6.301h-6.3z"/>
  <path d="m176.84 83.297h6.3v-6.301h-6.3z"/>
  <path d="m185.9 83.297h6.3v-6.301h-6.3z"/>
  <path d="m194.97 83.297h6.3v-6.301h-6.3z"/>
  <path d="m204.04 83.297h6.3v-6.301h-6.3z"/>
  <path d="m213.11 83.297h6.3v-6.301h-6.3z"/>
  <path d="m222.17 83.297h6.3v-6.301h-6.3z"/>
  <path d="m231.24 83.297h6.3v-6.301h-6.3z"/>
  <path d="m240.31 83.297h6.3v-6.301h-6.3z"/>
  <path d="m249.38 83.297h6.3v-6.301h-6.3z"/>
  <path d="m258.44 83.297h6.3v-6.301h-6.3z"/>
  <path d="m267.51 83.297h6.3v-6.301h-6.3z"/>
  <path d="m276.57 83.297h6.31v-6.301h-6.31z"/>
  <path d="m285.64 83.297h6.31v-6.301h-6.31z"/>
  <path d="m294.71 83.297h6.3v-6.301h-6.3z"/>
  <path d="m303.78 83.297h6.3v-6.301h-6.3z"/>
  <path d="m95.23 92.273h6.3v-6.3h-6.3z"/>
  <path d="m104.3 92.273h6.3v-6.3h-6.3z"/>
  <path d="m113.37 92.273h6.3v-6.3h-6.3z"/>
  <path d="m122.43 92.273h6.3v-6.3h-6.3z"/>
  <path d="m131.5 92.273h6.3v-6.3h-6.3z"/>
  <path d="m140.57 92.273h6.3v-6.3h-6.3z"/>
  <path d="m149.64 92.273h6.3v-6.3h-6.3z"/>
  <path d="m158.7 92.273h6.3v-6.3h-6.3z"/>
  <path d="m167.77 92.273h6.3v-6.3h-6.3z"/>
  <path d="m176.84 92.273h6.3v-6.3h-6.3z"/>
  <path d="m185.9 92.273h6.3v-6.3h-6.3z"/>
  <path d="m194.97 92.273h6.3v-6.3h-6.3z"/>
  <path d="m204.04 92.273h6.3v-6.3h-6.3z"/>
  <path d="m213.11 92.273h6.3v-6.3h-6.3z"/>
  <path d="m222.17 92.273h6.3v-6.3h-6.3z"/>
  <path d="m231.24 92.273h6.3v-6.3h-6.3z"/>
  <path d="m240.31 92.273h6.3v-6.3h-6.3z"/>
  <path d="m249.38 92.273h6.3v-6.3h-6.3z"/>
  <path d="m258.44 92.273h6.3v-6.3h-6.3z"/>
  <path d="m267.51 92.273h6.3v-6.3h-6.3z"/>
  <path d="m276.57 92.273h6.31v-6.3h-6.31z"/>
  <path d="m285.64 92.273h6.31v-6.3h-6.31z"/>
  <path d="m294.71 92.273h6.3v-6.3h-6.3z"/>
  <path d="m303.78 92.273h6.3v-6.3h-6.3z"/>
  <path d="m95.23 101.25h6.3v-6.305h-6.3z"/>
  <path d="m104.3 101.25h6.3v-6.305h-6.3z"/>
  <path d="m113.37 101.25h6.3v-6.305h-6.3z"/>
  <path d="m122.43 101.25h6.3v-6.305h-6.3z"/>
  <path d="m131.5 101.25h6.3v-6.305h-6.3z"/>
  <path d="m140.57 101.25h6.3v-6.305h-6.3z"/>
  <path d="m149.64 101.25h6.3v-6.305h-6.3z"/>
  <path d="m158.7 101.25h6.3v-6.305h-6.3z"/>
  <path d="m167.77 101.25h6.3v-6.305h-6.3z"/>
  <path d="m176.84 101.25h6.3v-6.305h-6.3z"/>
  <path d="m185.9 101.25h6.3v-6.305h-6.3z"/>
  <path d="m194.97 101.25h6.3v-6.305h-6.3z"/>
  <path d="m204.04 101.25h6.3v-6.305h-6.3z"/>
  <path d="m213.11 101.25h6.3v-6.305h-6.3z"/>
  <path d="m222.17 101.25h6.3v-6.305h-6.3z"/>
  <path d="m231.24 101.25h6.3v-6.305h-6.3z"/>
  <path d="m240.31 101.25h6.3v-6.305h-6.3z"/>
  <path d="m249.38 101.25h6.3v-6.305h-6.3z"/>
  <path d="m258.44 101.25h6.3v-6.305h-6.3z"/>
  <path d="m267.51 101.25h6.3v-6.305h-6.3z"/>
  <path d="m276.57 101.25h6.31v-6.305h-6.31z"/>
  <path d="m285.64 101.25h6.31v-6.305h-6.31z"/>
  <path d="m294.71 101.25h6.3v-6.305h-6.3z"/>
  <path d="m303.78 101.25h6.3v-6.305h-6.3z"/>
  <path d="m95.23 110.22h6.3v-6.3h-6.3z"/>
  <path d="m104.3 110.22h6.3v-6.3h-6.3z"/>
  <path d="m113.37 110.22h6.3v-6.3h-6.3z"/>
  <path d="m122.43 110.22h6.3v-6.3h-6.3z"/>
  <path d="m131.5 110.22h6.3v-6.3h-6.3z"/>
  <path d="m140.57 110.22h6.3v-6.3h-6.3z"/>
  <path d="m149.64 110.22h6.3v-6.3h-6.3z"/>
  <path d="m158.7 110.22h6.3v-6.3h-6.3z"/>
  <path d="m167.77 110.22h6.3v-6.3h-6.3z"/>
  <path d="m176.84 110.22h6.3v-6.3h-6.3z"/>
  <path d="m185.9 110.22h6.3v-6.3h-6.3z"/>
  <path d="m194.97 110.22h6.3v-6.3h-6.3z"/>
  <path d="m204.04 110.22h6.3v-6.3h-6.3z"/>
  <path d="m213.11 110.22h6.3v-6.3h-6.3z"/>
  <path d="m222.17 110.22h6.3v-6.3h-6.3z"/>
  <path d="m231.24 110.22h6.3v-6.3h-6.3z"/>
  <path d="m240.31 110.22h6.3v-6.3h-6.3z"/>
  <path d="m249.38 110.22h6.3v-6.3h-6.3z"/>
  <path d="m258.44 110.22h6.3v-6.3h-6.3z"/>
  <path d="m267.51 110.22h6.3v-6.3h-6.3z"/>
  <path d="m276.57 110.22h6.31v-6.3h-6.31z"/>
  <path d="m285.64 110.22h6.31v-6.3h-6.31z"/>
  <path d="m294.71 110.22h6.3v-6.3h-6.3z"/>
  <path d="m303.78 110.22h6.3v-6.3h-6.3z"/>
  <path d="m95.23 119.2h6.3v-6.3h-6.3z"/>
  <path d="m104.3 119.2h6.3v-6.3h-6.3z"/>
  <path d="m113.37 119.2h6.3v-6.3h-6.3z"/>
  <path d="m122.43 119.2h6.3v-6.3h-6.3z"/>
  <path d="m131.5 119.2h6.3v-6.3h-6.3z"/>
  <path d="m140.57 119.2h6.3v-6.3h-6.3z"/>
  <path d="m149.64 119.2h6.3v-6.3h-6.3z"/>
  <path d="m158.7 119.2h6.3v-6.3h-6.3z"/>
  <path d="m167.77 119.2h6.3v-6.3h-6.3z"/>
  <path d="m176.84 119.2h6.3v-6.3h-6.3z"/>
  <path d="m185.9 119.2h6.3v-6.3h-6.3z"/>
  <path d="m194.97 119.2h6.3v-6.3h-6.3z"/>
  <path d="m204.04 119.2h6.3v-6.3h-6.3z"/>
  <path d="m213.11 119.2h6.3v-6.3h-6.3z"/>
  <path d="m222.17 119.2h6.3v-6.3h-6.3z"/>
  <path d="m231.24 119.2h6.3v-6.3h-6.3z"/>
  <path d="m240.31 119.2h6.3v-6.3h-6.3z"/>
  <path d="m249.38 119.2h6.3v-6.3h-6.3z"/>
  <path d="m258.44 119.2h6.3v-6.3h-6.3z"/>
  <path d="m267.51 119.2h6.3v-6.3h-6.3z"/>
  <path d="m276.57 119.2h6.31v-6.3h-6.31z"/>
  <path d="m285.64 119.2h6.31v-6.3h-6.31z"/>
  <path d="m294.71 119.2h6.3v-6.3h-6.3z"/>
  <path d="m303.78 119.2h6.3v-6.3h-6.3z"/>
  <path d="m95.23 128.18h6.3v-6.3h-6.3z"/>
  <path d="m104.3 128.18h6.3v-6.3h-6.3z"/>
  <path d="m113.37 128.18h6.3v-6.3h-6.3z"/>
  <path d="m122.43 128.18h6.3v-6.3h-6.3z"/>
  <path d="m131.5 128.18h6.3v-6.3h-6.3z"/>
  <path d="m140.57 128.18h6.3v-6.3h-6.3z"/>
  <path d="m149.64 128.18h6.3v-6.3h-6.3z"/>
  <path d="m158.7 128.18h6.3v-6.3h-6.3z"/>
  <path d="m167.77 128.18h6.3v-6.3h-6.3z"/>
  <path d="m176.84 128.18h6.3v-6.3h-6.3z"/>
  <path d="m185.9 128.18h6.3v-6.3h-6.3z"/>
  <path d="m194.97 128.18h6.3v-6.3h-6.3z"/>
  <path d="m204.04 128.18h6.3v-6.3h-6.3z"/>
  <path d="m213.11 128.18h6.3v-6.3h-6.3z"/>
  <path d="m222.17 128.18h6.3v-6.3h-6.3z"/>
  <path d="m231.24 128.18h6.3v-6.3h-6.3z"/>
  <path d="m240.31 128.18h6.3v-6.3h-6.3z"/>
  <path d="m249.38 128.18h6.3v-6.3h-6.3z"/>
  <path d="m258.44 128.18h6.3v-6.3h-6.3z"/>
  <path d="m267.51 128.18h6.3v-6.3h-6.3z"/>
  <path d="m276.57 128.18h6.31v-6.3h-6.31z"/>
  <path d="m285.64 128.18h6.31v-6.3h-6.31z"/>
  <path d="m294.71 128.18h6.3v-6.3h-6.3z"/>
  <path d="m303.78 128.18h6.3v-6.3h-6.3z"/>
  <path d="m95.23 137.15h6.3v-6.3h-6.3z"/>
  <path d="m104.3 137.15h6.3v-6.3h-6.3z"/>
  <path d="m113.37 137.15h6.3v-6.3h-6.3z"/>
  <path d="m122.43 137.15h6.3v-6.3h-6.3z"/>
  <path d="m131.5 137.15h6.3v-6.3h-6.3z"/>
  <path d="m140.57 137.15h6.3v-6.3h-6.3z"/>
  <path d="m149.64 137.15h6.3v-6.3h-6.3z"/>
  <path d="m158.7 137.15h6.3v-6.3h-6.3z"/>
  <path d="m167.77 137.15h6.3v-6.3h-6.3z"/>
  <path d="m176.84 137.15h6.3v-6.3h-6.3z"/>
  <path d="m185.9 137.15h6.3v-6.3h-6.3z"/>
  <path d="m194.97 137.15h6.3v-6.3h-6.3z"/>
  <path d="m204.04 137.15h6.3v-6.3h-6.3z"/>
  <path d="m213.11 137.15h6.3v-6.3h-6.3z"/>
  <path d="m222.17 137.15h6.3v-6.3h-6.3z"/>
  <path d="m231.24 137.15h6.3v-6.3h-6.3z"/>
  <path d="m240.31 137.15h6.3v-6.3h-6.3z"/>
  <path d="m249.38 137.15h6.3v-6.3h-6.3z"/>
  <path d="m258.44 137.15h6.3v-6.3h-6.3z"/>
  <path d="m267.51 137.15h6.3v-6.3h-6.3z"/>
  <path d="m276.57 137.15h6.31v-6.3h-6.31z"/>
  <path d="m285.64 137.15h6.31v-6.3h-6.31z"/>
  <path d="m294.71 137.15h6.3v-6.3h-6.3z"/>
  <path d="m303.78 137.15h6.3v-6.3h-6.3z"/>
  <path d="m95.23 146.12h6.3v-6.3h-6.3z"/>
  <path d="m104.3 146.12h6.3v-6.3h-6.3z"/>
  <path d="m113.37 146.12h6.3v-6.3h-6.3z"/>
  <path d="m122.43 146.12h6.3v-6.3h-6.3z"/>
  <path d="m131.5 146.12h6.3v-6.3h-6.3z"/>
  <path d="m140.57 146.12h6.3v-6.3h-6.3z"/>
  <path d="m149.64 146.12h6.3v-6.3h-6.3z"/>
  <path d="m158.7 146.12h6.3v-6.3h-6.3z"/>
  <path d="m167.77 146.12h6.3v-6.3h-6.3z"/>
  <path d="m176.84 146.12h6.3v-6.3h-6.3z"/>
  <path d="m185.9 146.12h6.3v-6.3h-6.3z"/>
  <path d="m194.97 146.12h6.3v-6.3h-6.3z"/>
  <path d="m204.04 146.12h6.3v-6.3h-6.3z"/>
  <path d="m213.11 146.12h6.3v-6.3h-6.3z"/>
  <path d="m222.17 146.12h6.3v-6.3h-6.3z"/>
  <path d="m231.24 146.12h6.3v-6.3h-6.3z"/>
  <path d="m240.31 146.12h6.3v-6.3h-6.3z"/>
  <path d="m249.38 146.12h6.3v-6.3h-6.3z"/>
  <path d="m258.44 146.12h6.3v-6.3h-6.3z"/>
  <path d="m267.51 146.12h6.3v-6.3h-6.3z"/>
  <path d="m276.57 146.12h6.31v-6.3h-6.31z"/>
  <path d="m285.64 146.12h6.31v-6.3h-6.31z"/>
  <path d="m294.71 146.12h6.3v-6.3h-6.3z"/>
  <path d="m303.78 146.12h6.3v-6.3h-6.3z"/>
  <path d="m95.23 155.1h6.3v-6.3h-6.3z"/>
  <path d="m104.3 155.1h6.3v-6.3h-6.3z"/>
  <path d="m113.37 155.1h6.3v-6.3h-6.3z"/>
  <path d="m122.43 155.1h6.3v-6.3h-6.3z"/>
  <path d="m131.5 155.1h6.3v-6.3h-6.3z"/>
  <path d="m140.57 155.1h6.3v-6.3h-6.3z"/>
  <path d="m149.64 155.1h6.3v-6.3h-6.3z"/>
  <path d="m158.7 155.1h6.3v-6.3h-6.3z"/>
  <path d="m167.77 155.1h6.3v-6.3h-6.3z"/>
  <path d="m176.84 155.1h6.3v-6.3h-6.3z"/>
  <path d="m185.9 155.1h6.3v-6.3h-6.3z"/>
  <path d="m194.97 155.1h6.3v-6.3h-6.3z"/>
  <path d="m204.04 155.1h6.3v-6.3h-6.3z"/>
  <path d="m213.11 155.1h6.3v-6.3h-6.3z"/>
  <path d="m222.17 155.1h6.3v-6.3h-6.3z"/>
  <path d="m231.24 155.1h6.3v-6.3h-6.3z"/>
  <path d="m240.31 155.1h6.3v-6.3h-6.3z"/>
  <path d="m249.38 155.1h6.3v-6.3h-6.3z"/>
  <path d="m258.44 155.1h6.3v-6.3h-6.3z"/>
  <path d="m267.51 155.1h6.3v-6.3h-6.3z"/>
  <path d="m276.57 155.1h6.31v-6.3h-6.31z"/>
  <path d="m285.64 155.1h6.31v-6.3h-6.31z"/>
  <path d="m294.71 155.1h6.3v-6.3h-6.3z"/>
  <path d="m303.78 155.1h6.3v-6.3h-6.3z"/>
  <path d="m95.23 164.08h6.3v-6.3h-6.3z"/>
  <path d="m104.3 164.08h6.3v-6.3h-6.3z"/>
  <path d="m113.37 164.08h6.3v-6.3h-6.3z"/>
  <path d="m122.43 164.08h6.3v-6.3h-6.3z"/>
  <path d="m131.5 164.08h6.3v-6.3h-6.3z"/>
  <path d="m140.57 164.08h6.3v-6.3h-6.3z"/>
  <path d="m149.64 164.08h6.3v-6.3h-6.3z"/>
  <path d="m158.7 164.08h6.3v-6.3h-6.3z"/>
  <path d="m167.77 164.08h6.3v-6.3h-6.3z"/>
  <path d="m176.84 164.08h6.3v-6.3h-6.3z"/>
  <path d="m185.9 164.08h6.3v-6.3h-6.3z"/>
  <path d="m194.97 164.08h6.3v-6.3h-6.3z"/>
  <path d="m204.04 164.08h6.3v-6.3h-6.3z"/>
  <path d="m213.11 164.08h6.3v-6.3h-6.3z"/>
  <path d="m222.17 164.08h6.3v-6.3h-6.3z"/>
  <path d="m231.24 164.08h6.3v-6.3h-6.3z"/>
  <path d="m240.31 164.08h6.3v-6.3h-6.3z"/>
  <path d="m249.38 164.08h6.3v-6.3h-6.3z"/>
  <path d="m258.44 164.08h6.3v-6.3h-6.3z"/>
  <path d="m267.51 164.08h6.3v-6.3h-6.3z"/>
  <path d="m276.57 164.08h6.31v-6.3h-6.31z"/>
  <path d="m285.64 164.08h6.31v-6.3h-6.31z"/>
  <path d="m294.71 164.08h6.3v-6.3h-6.3z"/>
  <path d="m303.78 164.08h6.3v-6.3h-6.3z"/>
  <path d="m95.23 173.05h6.3v-6.3h-6.3z"/>
  <path d="m104.3 173.05h6.3v-6.3h-6.3z"/>
  <path d="m113.37 173.05h6.3v-6.3h-6.3z"/>
  <path d="m122.43 173.05h6.3v-6.3h-6.3z"/>
  <path d="m131.5 173.05h6.3v-6.3h-6.3z"/>
  <path d="m140.57 173.05h6.3v-6.3h-6.3z"/>
  <path d="m149.64 173.05h6.3v-6.3h-6.3z"/>
  <path d="m158.7 173.05h6.3v-6.3h-6.3z"/>
  <path d="m167.77 173.05h6.3v-6.3h-6.3z"/>
  <path d="m176.84 173.05h6.3v-6.3h-6.3z"/>
  <path d="m185.9 173.05h6.3v-6.3h-6.3z"/>
  <path d="m194.97 173.05h6.3v-6.3h-6.3z"/>
  <path d="m204.04 173.05h6.3v-6.3h-6.3z"/>
  <path d="m213.11 173.05h6.3v-6.3h-6.3z"/>
  <path d="m222.17 173.05h6.3v-6.3h-6.3z"/>
  <path d="m231.24 173.05h6.3v-6.3h-6.3z"/>
  <path d="m240.31 173.05h6.3v-6.3h-6.3z"/>
  <path d="m249.38 173.05h6.3v-6.3h-6.3z"/>
  <path d="m258.44 173.05h6.3v-6.3h-6.3z"/>
  <path d="m267.51 173.05h6.3v-6.3h-6.3z"/>
  <path d="m276.57 173.05h6.31v-6.3h-6.31z"/>
  <path d="m285.64 173.05h6.31v-6.3h-6.31z"/>
  <path d="m294.71 173.05h6.3v-6.3h-6.3z"/>
  <path d="m303.78 173.05h6.3v-6.3h-6.3z"/>
 </g>
 <g stroke-linejoin="round" stroke="#333" stroke-linecap="round" stroke-miterlimit="10" stroke-width=".70866" fill="#00bfc3">
  <path d="m93.34 40.309h10.08v-10.082h-10.08z"/>
  <path d="m102.41 40.309h10.08v-10.082h-10.08z"/>
  <path d="m111.48 40.309h10.08v-10.082h-10.08z"/>
  <path d="m120.54 40.309h10.08v-10.082h-10.08z"/>
  <path d="m129.61 40.309h10.08v-10.082h-10.08z"/>
  <path d="m138.68 40.309h10.08v-10.082h-10.08z"/>
  <path d="m147.75 40.309h10.08v-10.082h-10.08z"/>
  <path d="m156.81 40.309h10.08v-10.082h-10.08z"/>
  <path d="m93.34 58.262h10.08v-10.082h-10.08z"/>
  <path d="m102.41 58.262h10.08v-10.082h-10.08z"/>
  <path d="m111.48 58.262h10.08v-10.082h-10.08z"/>
  <path d="m120.54 58.262h10.08v-10.082h-10.08z"/>
  <path d="m129.61 58.262h10.08v-10.082h-10.08z"/>
  <path d="m138.68 58.262h10.08v-10.082h-10.08z"/>
  <path d="m147.75 58.262h10.08v-10.082h-10.08z"/>
  <path d="m156.81 58.262h10.08v-10.082h-10.08z"/>
  <path d="m93.34 76.211h10.08v-10.082h-10.08z"/>
  <path d="m102.41 76.211h10.08v-10.082h-10.08z"/>
  <path d="m111.48 76.211h10.08v-10.082h-10.08z"/>
  <path d="m120.54 76.211h10.08v-10.082h-10.08z"/>
  <path d="m129.61 76.211h10.08v-10.082h-10.08z"/>
  <path d="m138.68 76.211h10.08v-10.082h-10.08z"/>
  <path d="m147.75 76.211h10.08v-10.082h-10.08z"/>
  <path d="m156.81 76.211h10.08v-10.082h-10.08z"/>
  <path d="m93.34 94.164h10.08v-10.082h-10.08z"/>
  <path d="m102.41 94.164h10.08v-10.082h-10.08z"/>
  <path d="m111.48 94.164h10.08v-10.082h-10.08z"/>
  <path d="m120.54 94.164h10.08v-10.082h-10.08z"/>
  <path d="m129.61 94.164h10.08v-10.082h-10.08z"/>
  <path d="m138.68 94.164h10.08v-10.082h-10.08z"/>
  <path d="m147.75 94.164h10.08v-10.082h-10.08z"/>
  <path d="m156.81 94.164h10.08v-10.082h-10.08z"/>
  <path d="m93.34 112.11h10.08v-10.08h-10.08z"/>
  <path d="m102.41 112.11h10.08v-10.08h-10.08z"/>
  <path d="m111.48 112.11h10.08v-10.08h-10.08z"/>
  <path d="m120.54 112.11h10.08v-10.08h-10.08z"/>
  <path d="m129.61 112.11h10.08v-10.08h-10.08z"/>
  <path d="m138.68 112.11h10.08v-10.08h-10.08z"/>
  <path d="m147.75 112.11h10.08v-10.08h-10.08z"/>
  <path d="m156.81 112.11h10.08v-10.08h-10.08z"/>
  <path d="m93.34 130.07h10.08v-10.09h-10.08z"/>
  <path d="m102.41 130.07h10.08v-10.09h-10.08z"/>
  <path d="m111.48 130.07h10.08v-10.09h-10.08z"/>
  <path d="m120.54 130.07h10.08v-10.09h-10.08z"/>
  <path d="m129.61 130.07h10.08v-10.09h-10.08z"/>
  <path d="m138.68 130.07h10.08v-10.09h-10.08z"/>
  <path d="m147.75 130.07h10.08v-10.09h-10.08z"/>
  <path d="m156.81 130.07h10.08v-10.09h-10.08z"/>
  <path d="m93.34 148.02h10.08v-10.09h-10.08z"/>
  <path d="m102.41 148.02h10.08v-10.09h-10.08z"/>
  <path d="m111.48 148.02h10.08v-10.09h-10.08z"/>
  <path d="m120.54 148.02h10.08v-10.09h-10.08z"/>
  <path d="m129.61 148.02h10.08v-10.09h-10.08z"/>
  <path d="m138.68 148.02h10.08v-10.09h-10.08z"/>
  <path d="m147.75 148.02h10.08v-10.09h-10.08z"/>
  <path d="m156.81 148.02h10.08v-10.09h-10.08z"/>
  <path d="m93.34 165.97h10.08v-10.08h-10.08z"/>
  <path d="m102.41 165.97h10.08v-10.08h-10.08z"/>
  <path d="m111.48 165.97h10.08v-10.08h-10.08z"/>
  <path d="m120.54 165.97h10.08v-10.08h-10.08z"/>
  <path d="m129.61 165.97h10.08v-10.08h-10.08z"/>
  <path d="m138.68 165.97h10.08v-10.08h-10.08z"/>
  <path d="m147.75 165.97h10.08v-10.08h-10.08z"/>
  <path d="m156.81 165.97h10.08v-10.08h-10.08z"/>
 </g>
 <g stroke-linejoin="round" stroke="#333" stroke-linecap="round" stroke-miterlimit="10" stroke-width=".70866" fill="#b79e00">
  <path d="m93.34 49.285h10.08v-10.082h-10.08z"/>
  <path d="m102.41 49.285h10.08v-10.082h-10.08z"/>
  <path d="m111.48 49.285h10.08v-10.082h-10.08z"/>
  <path d="m120.54 49.285h10.08v-10.082h-10.08z"/>
  <path d="m129.61 49.285h10.08v-10.082h-10.08z"/>
  <path d="m138.68 49.285h10.08v-10.082h-10.08z"/>
  <path d="m147.75 49.285h10.08v-10.082h-10.08z"/>
  <path d="m156.81 49.285h10.08v-10.082h-10.08z"/>
  <path d="m93.34 67.234h10.08v-10.082h-10.08z"/>
  <path d="m102.41 67.234h10.08v-10.082h-10.08z"/>
  <path d="m111.48 67.234h10.08v-10.082h-10.08z"/>
  <path d="m120.54 67.234h10.08v-10.082h-10.08z"/>
  <path d="m129.61 67.234h10.08v-10.082h-10.08z"/>
  <path d="m138.68 67.234h10.08v-10.082h-10.08z"/>
  <path d="m147.75 67.234h10.08v-10.082h-10.08z"/>
  <path d="m156.81 67.234h10.08v-10.082h-10.08z"/>
  <path d="m93.34 85.188h10.08v-10.083h-10.08z"/>
  <path d="m102.41 85.188h10.08v-10.083h-10.08z"/>
  <path d="m111.48 85.188h10.08v-10.083h-10.08z"/>
  <path d="m120.54 85.188h10.08v-10.083h-10.08z"/>
  <path d="m129.61 85.188h10.08v-10.083h-10.08z"/>
  <path d="m138.68 85.188h10.08v-10.083h-10.08z"/>
  <path d="m147.75 85.188h10.08v-10.083h-10.08z"/>
  <path d="m156.81 85.188h10.08v-10.083h-10.08z"/>
  <path d="m93.34 103.14h10.08v-10.085h-10.08z"/>
  <path d="m102.41 103.14h10.08v-10.085h-10.08z"/>
  <path d="m111.48 103.14h10.08v-10.085h-10.08z"/>
  <path d="m120.54 103.14h10.08v-10.085h-10.08z"/>
  <path d="m129.61 103.14h10.08v-10.085h-10.08z"/>
  <path d="m138.68 103.14h10.08v-10.085h-10.08z"/>
  <path d="m147.75 103.14h10.08v-10.085h-10.08z"/>
  <path d="m156.81 103.14h10.08v-10.085h-10.08z"/>
  <path d="m93.34 121.09h10.08v-10.08h-10.08z"/>
  <path d="m102.41 121.09h10.08v-10.08h-10.08z"/>
  <path d="m111.48 121.09h10.08v-10.08h-10.08z"/>
  <path d="m120.54 121.09h10.08v-10.08h-10.08z"/>
  <path d="m129.61 121.09h10.08v-10.08h-10.08z"/>
  <path d="m138.68 121.09h10.08v-10.08h-10.08z"/>
  <path d="m147.75 121.09h10.08v-10.08h-10.08z"/>
  <path d="m156.81 121.09h10.08v-10.08h-10.08z"/>
  <path d="m93.34 139.04h10.08v-10.08h-10.08z"/>
  <path d="m102.41 139.04h10.08v-10.08h-10.08z"/>
  <path d="m111.48 139.04h10.08v-10.08h-10.08z"/>
  <path d="m120.54 139.04h10.08v-10.08h-10.08z"/>
  <path d="m129.61 139.04h10.08v-10.08h-10.08z"/>
  <path d="m138.68 139.04h10.08v-10.08h-10.08z"/>
  <path d="m147.75 139.04h10.08v-10.08h-10.08z"/>
  <path d="m156.81 139.04h10.08v-10.08h-10.08z"/>
  <path d="m93.34 156.99h10.08v-10.08h-10.08z"/>
  <path d="m102.41 156.99h10.08v-10.08h-10.08z"/>
  <path d="m111.48 156.99h10.08v-10.08h-10.08z"/>
  <path d="m120.54 156.99h10.08v-10.08h-10.08z"/>
  <path d="m129.61 156.99h10.08v-10.08h-10.08z"/>
  <path d="m138.68 156.99h10.08v-10.08h-10.08z"/>
  <path d="m147.75 156.99h10.08v-10.08h-10.08z"/>
  <path d="m156.81 156.99h10.08v-10.08h-10.08z"/>
  <path d="m93.34 174.94h10.08v-10.08h-10.08z"/>
  <path d="m102.41 174.94h10.08v-10.08h-10.08z"/>
  <path d="m111.48 174.94h10.08v-10.08h-10.08z"/>
  <path d="m120.54 174.94h10.08v-10.08h-10.08z"/>
  <path d="m129.61 174.94h10.08v-10.08h-10.08z"/>
  <path d="m138.68 174.94h10.08v-10.08h-10.08z"/>
  <path d="m147.75 174.94h10.08v-10.08h-10.08z"/>
  <path d="m156.81 174.94h10.08v-10.08h-10.08z"/>
 </g>
 <g stroke-linejoin="round" stroke="#333" stroke-linecap="round" stroke-miterlimit="10" stroke-width=".70866" fill="#f8766c">
  <path d="m165.88 40.309h10.08v-10.082h-10.08z"/>
  <path d="m174.95 40.309h10.08v-10.082h-10.08z"/>
  <path d="m184.01 40.309h10.08v-10.082h-10.08z"/>
  <path d="m193.08 40.309h10.08v-10.082h-10.08z"/>
  <path d="m202.15 40.309h10.08v-10.082h-10.08z"/>
  <path d="m211.21 40.309h10.09v-10.082h-10.09z"/>
  <path d="m220.28 40.309h10.08v-10.082h-10.08z"/>
  <path d="m229.35 40.309h10.08v-10.082h-10.08z"/>
  <path d="m165.88 58.262h10.08v-10.082h-10.08z"/>
  <path d="m174.95 58.262h10.08v-10.082h-10.08z"/>
  <path d="m184.01 58.262h10.08v-10.082h-10.08z"/>
  <path d="m193.08 58.262h10.08v-10.082h-10.08z"/>
  <path d="m202.15 58.262h10.08v-10.082h-10.08z"/>
  <path d="m211.21 58.262h10.09v-10.082h-10.09z"/>
  <path d="m220.28 58.262h10.08v-10.082h-10.08z"/>
  <path d="m229.35 58.262h10.08v-10.082h-10.08z"/>
  <path d="m165.88 76.211h10.08v-10.082h-10.08z"/>
  <path d="m174.95 76.211h10.08v-10.082h-10.08z"/>
  <path d="m184.01 76.211h10.08v-10.082h-10.08z"/>
  <path d="m193.08 76.211h10.08v-10.082h-10.08z"/>
  <path d="m202.15 76.211h10.08v-10.082h-10.08z"/>
  <path d="m211.21 76.211h10.09v-10.082h-10.09z"/>
  <path d="m220.28 76.211h10.08v-10.082h-10.08z"/>
  <path d="m229.35 76.211h10.08v-10.082h-10.08z"/>
  <path d="m165.88 94.164h10.08v-10.082h-10.08z"/>
  <path d="m174.95 94.164h10.08v-10.082h-10.08z"/>
  <path d="m184.01 94.164h10.08v-10.082h-10.08z"/>
  <path d="m193.08 94.164h10.08v-10.082h-10.08z"/>
  <path d="m202.15 94.164h10.08v-10.082h-10.08z"/>
  <path d="m211.21 94.164h10.09v-10.082h-10.09z"/>
  <path d="m220.28 94.164h10.08v-10.082h-10.08z"/>
  <path d="m229.35 94.164h10.08v-10.082h-10.08z"/>
  <path d="m165.88 112.11h10.08v-10.08h-10.08z"/>
  <path d="m174.95 112.11h10.08v-10.08h-10.08z"/>
  <path d="m184.01 112.11h10.08v-10.08h-10.08z"/>
  <path d="m193.08 112.11h10.08v-10.08h-10.08z"/>
  <path d="m202.15 112.11h10.08v-10.08h-10.08z"/>
  <path d="m211.21 112.11h10.09v-10.08h-10.09z"/>
  <path d="m220.28 112.11h10.08v-10.08h-10.08z"/>
  <path d="m229.35 112.11h10.08v-10.08h-10.08z"/>
  <path d="m165.88 130.07h10.08v-10.09h-10.08z"/>
  <path d="m174.95 130.07h10.08v-10.09h-10.08z"/>
  <path d="m184.01 130.07h10.08v-10.09h-10.08z"/>
  <path d="m193.08 130.07h10.08v-10.09h-10.08z"/>
  <path d="m202.15 130.07h10.08v-10.09h-10.08z"/>
  <path d="m211.21 130.07h10.09v-10.09h-10.09z"/>
  <path d="m220.28 130.07h10.08v-10.09h-10.08z"/>
  <path d="m229.35 130.07h10.08v-10.09h-10.08z"/>
  <path d="m165.88 148.02h10.08v-10.09h-10.08z"/>
  <path d="m174.95 148.02h10.08v-10.09h-10.08z"/>
  <path d="m184.01 148.02h10.08v-10.09h-10.08z"/>
  <path d="m193.08 148.02h10.08v-10.09h-10.08z"/>
  <path d="m202.15 148.02h10.08v-10.09h-10.08z"/>
  <path d="m211.21 148.02h10.09v-10.09h-10.09z"/>
  <path d="m220.28 148.02h10.08v-10.09h-10.08z"/>
  <path d="m229.35 148.02h10.08v-10.09h-10.08z"/>
  <path d="m165.88 165.97h10.08v-10.08h-10.08z"/>
  <path d="m174.95 165.97h10.08v-10.08h-10.08z"/>
  <path d="m184.01 165.97h10.08v-10.08h-10.08z"/>
  <path d="m193.08 165.97h10.08v-10.08h-10.08z"/>
  <path d="m202.15 165.97h10.08v-10.08h-10.08z"/>
  <path d="m211.21 165.97h10.09v-10.08h-10.09z"/>
  <path d="m220.28 165.97h10.08v-10.08h-10.08z"/>
  <path d="m229.35 165.97h10.08v-10.08h-10.08z"/>
 </g>
 <g stroke-linejoin="round" stroke="#333" stroke-linecap="round" stroke-miterlimit="10" stroke-width=".70866" fill="#f463e3">
  <path d="m165.88 49.285h10.08v-10.082h-10.08z"/>
  <path d="m174.95 49.285h10.08v-10.082h-10.08z"/>
  <path d="m184.01 49.285h10.08v-10.082h-10.08z"/>
  <path d="m193.08 49.285h10.08v-10.082h-10.08z"/>
  <path d="m202.15 49.285h10.08v-10.082h-10.08z"/>
  <path d="m211.21 49.285h10.09v-10.082h-10.09z"/>
  <path d="m220.28 49.285h10.08v-10.082h-10.08z"/>
  <path d="m229.35 49.285h10.08v-10.082h-10.08z"/>
  <path d="m165.88 67.234h10.08v-10.082h-10.08z"/>
  <path d="m174.95 67.234h10.08v-10.082h-10.08z"/>
  <path d="m184.01 67.234h10.08v-10.082h-10.08z"/>
  <path d="m193.08 67.234h10.08v-10.082h-10.08z"/>
  <path d="m202.15 67.234h10.08v-10.082h-10.08z"/>
  <path d="m211.21 67.234h10.09v-10.082h-10.09z"/>
  <path d="m220.28 67.234h10.08v-10.082h-10.08z"/>
  <path d="m229.35 67.234h10.08v-10.082h-10.08z"/>
  <path d="m165.88 85.188h10.08v-10.083h-10.08z"/>
  <path d="m174.95 85.188h10.08v-10.083h-10.08z"/>
  <path d="m184.01 85.188h10.08v-10.083h-10.08z"/>
  <path d="m193.08 85.188h10.08v-10.083h-10.08z"/>
  <path d="m202.15 85.188h10.08v-10.083h-10.08z"/>
  <path d="m211.21 85.188h10.09v-10.083h-10.09z"/>
  <path d="m220.28 85.188h10.08v-10.083h-10.08z"/>
  <path d="m229.35 85.188h10.08v-10.083h-10.08z"/>
  <path d="m165.88 103.14h10.08v-10.085h-10.08z"/>
  <path d="m174.95 103.14h10.08v-10.085h-10.08z"/>
  <path d="m184.01 103.14h10.08v-10.085h-10.08z"/>
  <path d="m193.08 103.14h10.08v-10.085h-10.08z"/>
  <path d="m202.15 103.14h10.08v-10.085h-10.08z"/>
  <path d="m211.21 103.14h10.09v-10.085h-10.09z"/>
  <path d="m220.28 103.14h10.08v-10.085h-10.08z"/>
  <path d="m229.35 103.14h10.08v-10.085h-10.08z"/>
  <path d="m165.88 121.09h10.08v-10.08h-10.08z"/>
  <path d="m174.95 121.09h10.08v-10.08h-10.08z"/>
  <path d="m184.01 121.09h10.08v-10.08h-10.08z"/>
  <path d="m193.08 121.09h10.08v-10.08h-10.08z"/>
  <path d="m202.15 121.09h10.08v-10.08h-10.08z"/>
  <path d="m211.21 121.09h10.09v-10.08h-10.09z"/>
  <path d="m220.28 121.09h10.08v-10.08h-10.08z"/>
  <path d="m229.35 121.09h10.08v-10.08h-10.08z"/>
  <path d="m165.88 139.04h10.08v-10.08h-10.08z"/>
  <path d="m174.95 139.04h10.08v-10.08h-10.08z"/>
  <path d="m184.01 139.04h10.08v-10.08h-10.08z"/>
  <path d="m193.08 139.04h10.08v-10.08h-10.08z"/>
  <path d="m202.15 139.04h10.08v-10.08h-10.08z"/>
  <path d="m211.21 139.04h10.09v-10.08h-10.09z"/>
  <path d="m220.28 139.04h10.08v-10.08h-10.08z"/>
  <path d="m229.35 139.04h10.08v-10.08h-10.08z"/>
  <path d="m165.88 156.99h10.08v-10.08h-10.08z"/>
  <path d="m174.95 156.99h10.08v-10.08h-10.08z"/>
  <path d="m184.01 156.99h10.08v-10.08h-10.08z"/>
  <path d="m193.08 156.99h10.08v-10.08h-10.08z"/>
  <path d="m202.15 156.99h10.08v-10.08h-10.08z"/>
  <path d="m211.21 156.99h10.09v-10.08h-10.09z"/>
  <path d="m220.28 156.99h10.08v-10.08h-10.08z"/>
  <path d="m229.35 156.99h10.08v-10.08h-10.08z"/>
  <path d="m165.88 174.94h10.08v-10.08h-10.08z"/>
  <path d="m174.95 174.94h10.08v-10.08h-10.08z"/>
  <path d="m184.01 174.94h10.08v-10.08h-10.08z"/>
  <path d="m193.08 174.94h10.08v-10.08h-10.08z"/>
  <path d="m202.15 174.94h10.08v-10.08h-10.08z"/>
  <path d="m211.21 174.94h10.09v-10.08h-10.09z"/>
  <path d="m220.28 174.94h10.08v-10.08h-10.08z"/>
  <path d="m229.35 174.94h10.08v-10.08h-10.08z"/>
 </g>
 <g stroke-linejoin="round" stroke="#333" stroke-linecap="round" stroke-miterlimit="10" stroke-width=".70866" fill="#00b937">
  <path d="m238.41 40.309h10.09v-10.082h-10.09z"/>
  <path d="m247.48 40.309h10.09v-10.082h-10.09z"/>
  <path d="m256.55 40.309h10.08v-10.082h-10.08z"/>
  <path d="m265.62 40.309h10.08v-10.082h-10.08z"/>
  <path d="m274.68 40.309h10.09v-10.082h-10.09z"/>
  <path d="m283.75 40.309h10.08v-10.082h-10.08z"/>
  <path d="m292.82 40.309h10.08v-10.082h-10.08z"/>
  <path d="m301.89 40.309h10.08v-10.082h-10.08z"/>
  <path d="m238.41 58.262h10.09v-10.082h-10.09z"/>
  <path d="m247.48 58.262h10.09v-10.082h-10.09z"/>
  <path d="m256.55 58.262h10.08v-10.082h-10.08z"/>
  <path d="m265.62 58.262h10.08v-10.082h-10.08z"/>
  <path d="m274.68 58.262h10.09v-10.082h-10.09z"/>
  <path d="m283.75 58.262h10.08v-10.082h-10.08z"/>
  <path d="m292.82 58.262h10.08v-10.082h-10.08z"/>
  <path d="m301.89 58.262h10.08v-10.082h-10.08z"/>
  <path d="m238.41 76.211h10.09v-10.082h-10.09z"/>
  <path d="m247.48 76.211h10.09v-10.082h-10.09z"/>
  <path d="m256.55 76.211h10.08v-10.082h-10.08z"/>
  <path d="m265.62 76.211h10.08v-10.082h-10.08z"/>
  <path d="m274.68 76.211h10.09v-10.082h-10.09z"/>
  <path d="m283.75 76.211h10.08v-10.082h-10.08z"/>
  <path d="m292.82 76.211h10.08v-10.082h-10.08z"/>
  <path d="m301.89 76.211h10.08v-10.082h-10.08z"/>
  <path d="m238.41 94.164h10.09v-10.082h-10.09z"/>
  <path d="m247.48 94.164h10.09v-10.082h-10.09z"/>
  <path d="m256.55 94.164h10.08v-10.082h-10.08z"/>
  <path d="m265.62 94.164h10.08v-10.082h-10.08z"/>
  <path d="m274.68 94.164h10.09v-10.082h-10.09z"/>
  <path d="m283.75 94.164h10.08v-10.082h-10.08z"/>
  <path d="m292.82 94.164h10.08v-10.082h-10.08z"/>
  <path d="m301.89 94.164h10.08v-10.082h-10.08z"/>
  <path d="m238.41 112.11h10.09v-10.08h-10.09z"/>
  <path d="m247.48 112.11h10.09v-10.08h-10.09z"/>
  <path d="m256.55 112.11h10.08v-10.08h-10.08z"/>
  <path d="m265.62 112.11h10.08v-10.08h-10.08z"/>
  <path d="m274.68 112.11h10.09v-10.08h-10.09z"/>
  <path d="m283.75 112.11h10.08v-10.08h-10.08z"/>
  <path d="m292.82 112.11h10.08v-10.08h-10.08z"/>
  <path d="m301.89 112.11h10.08v-10.08h-10.08z"/>
  <path d="m238.41 130.07h10.09v-10.09h-10.09z"/>
  <path d="m247.48 130.07h10.09v-10.09h-10.09z"/>
  <path d="m256.55 130.07h10.08v-10.09h-10.08z"/>
  <path d="m265.62 130.07h10.08v-10.09h-10.08z"/>
  <path d="m274.68 130.07h10.09v-10.09h-10.09z"/>
  <path d="m283.75 130.07h10.08v-10.09h-10.08z"/>
  <path d="m292.82 130.07h10.08v-10.09h-10.08z"/>
  <path d="m301.89 130.07h10.08v-10.09h-10.08z"/>
  <path d="m238.41 148.02h10.09v-10.09h-10.09z"/>
  <path d="m247.48 148.02h10.09v-10.09h-10.09z"/>
  <path d="m256.55 148.02h10.08v-10.09h-10.08z"/>
  <path d="m265.62 148.02h10.08v-10.09h-10.08z"/>
  <path d="m274.68 148.02h10.09v-10.09h-10.09z"/>
  <path d="m283.75 148.02h10.08v-10.09h-10.08z"/>
  <path d="m292.82 148.02h10.08v-10.09h-10.08z"/>
  <path d="m301.89 148.02h10.08v-10.09h-10.08z"/>
  <path d="m238.41 165.97h10.09v-10.08h-10.09z"/>
  <path d="m247.48 165.97h10.09v-10.08h-10.09z"/>
  <path d="m256.55 165.97h10.08v-10.08h-10.08z"/>
  <path d="m265.62 165.97h10.08v-10.08h-10.08z"/>
  <path d="m274.68 165.97h10.09v-10.08h-10.09z"/>
  <path d="m283.75 165.97h10.08v-10.08h-10.08z"/>
  <path d="m292.82 165.97h10.08v-10.08h-10.08z"/>
  <path d="m301.89 165.97h10.08v-10.08h-10.08z"/>
 </g>
 <g stroke-linejoin="round" stroke="#333" stroke-linecap="round" stroke-miterlimit="10" stroke-width=".70866" fill="#619cff">
  <path d="m238.41 49.285h10.09v-10.082h-10.09z"/>
  <path d="m247.48 49.285h10.09v-10.082h-10.09z"/>
  <path d="m256.55 49.285h10.08v-10.082h-10.08z"/>
  <path d="m265.62 49.285h10.08v-10.082h-10.08z"/>
  <path d="m274.68 49.285h10.09v-10.082h-10.09z"/>
  <path d="m283.75 49.285h10.08v-10.082h-10.08z"/>
  <path d="m292.82 49.285h10.08v-10.082h-10.08z"/>
  <path d="m301.89 49.285h10.08v-10.082h-10.08z"/>
  <path d="m238.41 67.234h10.09v-10.082h-10.09z"/>
  <path d="m247.48 67.234h10.09v-10.082h-10.09z"/>
  <path d="m256.55 67.234h10.08v-10.082h-10.08z"/>
  <path d="m265.62 67.234h10.08v-10.082h-10.08z"/>
  <path d="m274.68 67.234h10.09v-10.082h-10.09z"/>
  <path d="m283.75 67.234h10.08v-10.082h-10.08z"/>
  <path d="m292.82 67.234h10.08v-10.082h-10.08z"/>
  <path d="m301.89 67.234h10.08v-10.082h-10.08z"/>
  <path d="m238.41 85.188h10.09v-10.083h-10.09z"/>
  <path d="m247.48 85.188h10.09v-10.083h-10.09z"/>
  <path d="m256.55 85.188h10.08v-10.083h-10.08z"/>
  <path d="m265.62 85.188h10.08v-10.083h-10.08z"/>
  <path d="m274.68 85.188h10.09v-10.083h-10.09z"/>
  <path d="m283.75 85.188h10.08v-10.083h-10.08z"/>
  <path d="m292.82 85.188h10.08v-10.083h-10.08z"/>
  <path d="m301.89 85.188h10.08v-10.083h-10.08z"/>
  <path d="m238.41 103.14h10.09v-10.085h-10.09z"/>
  <path d="m247.48 103.14h10.09v-10.085h-10.09z"/>
  <path d="m256.55 103.14h10.08v-10.085h-10.08z"/>
  <path d="m265.62 103.14h10.08v-10.085h-10.08z"/>
  <path d="m274.68 103.14h10.09v-10.085h-10.09z"/>
  <path d="m283.75 103.14h10.08v-10.085h-10.08z"/>
  <path d="m292.82 103.14h10.08v-10.085h-10.08z"/>
  <path d="m301.89 103.14h10.08v-10.085h-10.08z"/>
  <path d="m238.41 121.09h10.09v-10.08h-10.09z"/>
  <path d="m247.48 121.09h10.09v-10.08h-10.09z"/>
  <path d="m256.55 121.09h10.08v-10.08h-10.08z"/>
  <path d="m265.62 121.09h10.08v-10.08h-10.08z"/>
  <path d="m274.68 121.09h10.09v-10.08h-10.09z"/>
  <path d="m283.75 121.09h10.08v-10.08h-10.08z"/>
  <path d="m292.82 121.09h10.08v-10.08h-10.08z"/>
  <path d="m301.89 121.09h10.08v-10.08h-10.08z"/>
  <path d="m238.41 139.04h10.09v-10.08h-10.09z"/>
  <path d="m247.48 139.04h10.09v-10.08h-10.09z"/>
  <path d="m256.55 139.04h10.08v-10.08h-10.08z"/>
  <path d="m265.62 139.04h10.08v-10.08h-10.08z"/>
  <path d="m274.68 139.04h10.09v-10.08h-10.09z"/>
  <path d="m283.75 139.04h10.08v-10.08h-10.08z"/>
  <path d="m292.82 139.04h10.08v-10.08h-10.08z"/>
  <path d="m301.89 139.04h10.08v-10.08h-10.08z"/>
  <path d="m238.41 156.99h10.09v-10.08h-10.09z"/>
  <path d="m247.48 156.99h10.09v-10.08h-10.09z"/>
  <path d="m256.55 156.99h10.08v-10.08h-10.08z"/>
  <path d="m265.62 156.99h10.08v-10.08h-10.08z"/>
  <path d="m274.68 156.99h10.09v-10.08h-10.09z"/>
  <path d="m283.75 156.99h10.08v-10.08h-10.08z"/>
  <path d="m292.82 156.99h10.08v-10.08h-10.08z"/>
  <path d="m301.89 156.99h10.08v-10.08h-10.08z"/>
  <path d="m238.41 174.94h10.09v-10.08h-10.09z"/>
  <path d="m247.48 174.94h10.09v-10.08h-10.09z"/>
  <path d="m256.55 174.94h10.08v-10.08h-10.08z"/>
  <path d="m265.62 174.94h10.08v-10.08h-10.08z"/>
  <path d="m274.68 174.94h10.09v-10.08h-10.09z"/>
  <path d="m283.75 174.94h10.08v-10.08h-10.08z"/>
  <path d="m292.82 174.94h10.08v-10.08h-10.08z"/>
  <path d="m301.89 174.94h10.08v-10.08h-10.08z"/>
 </g>
 <g clip-path="url(#ah)">
  <path stroke-linejoin="round" d="m82.969 181.57h239.37v-157.97l-239.37 0.002zm0 0" stroke="#333" stroke-linecap="round" stroke-miterlimit="10" stroke-width="1.067" fill="none"/>
 </g>
 <g fill="#4c4c4c">
  <use y="37.933594" x="71.039062" xlink:href="#ag"/>
  <use y="46.910156" x="71.039062" xlink:href="#y"/>
  <use y="55.886719" x="71.039062" xlink:href="#x"/>
  <use y="64.863281" x="71.039062" xlink:href="#w"/>
  <use y="73.835938" x="72.039062" xlink:href="#v"/>
  <use y="82.8125" x="72.039062" xlink:href="#u"/>
  <use y="91.789062" x="71.039062" xlink:href="#t"/>
  <use y="100.765625" x="71.039062" xlink:href="#s"/>
  <use y="109.738281" x="75.039062" xlink:href="#r"/>
  <use y="118.714844" x="75.039062" xlink:href="#af"/>
  <use y="127.691406" x="72.039062" xlink:href="#ae"/>
  <use y="136.667969" x="73.039062" xlink:href="#ad"/>
  <use y="145.640625" x="70.039062" xlink:href="#ac"/>
  <use y="154.617188" x="71.039062" xlink:href="#ab"/>
  <use y="163.59375" x="71.039062" xlink:href="#aa"/>
  <use y="172.570312" x="72.039062" xlink:href="#z"/>
 </g>
 <g stroke-linejoin="round" stroke="#333" stroke-miterlimit="10" stroke-width="1.067" fill="none">
  <path d="m80.23 35.266h2.739"/>
  <path d="m80.23 44.242h2.739"/>
  <path d="m80.23 53.219h2.739"/>
  <path d="m80.23 62.195h2.739"/>
  <path d="m80.23 71.168h2.739"/>
  <path d="m80.23 80.145h2.739"/>
  <path d="m80.23 89.121h2.739"/>
  <path d="m80.23 98.098h2.739"/>
  <path d="m80.23 107.07h2.739"/>
  <path d="m80.23 116.05h2.739"/>
  <path d="m80.23 125.02h2.739"/>
  <path d="m80.23 134h2.739"/>
  <path d="m80.23 142.97h2.739"/>
  <path d="m80.23 151.95h2.739"/>
  <path d="m80.23 160.93h2.739"/>
  <path d="m80.23 169.9h2.739"/>
  <path d="m98.383 184.31v-2.74"/>
  <path d="m107.45 184.31v-2.74"/>
  <path d="m116.52 184.31v-2.74"/>
  <path d="m125.59 184.31v-2.74"/>
  <path d="m134.65 184.31v-2.74"/>
  <path d="m143.72 184.31v-2.74"/>
  <path d="m152.79 184.31v-2.74"/>
  <path d="m161.85 184.31v-2.74"/>
  <path d="m170.92 184.31v-2.74"/>
  <path d="m179.99 184.31v-2.74"/>
  <path d="m189.05 184.31v-2.74"/>
  <path d="m198.12 184.31v-2.74"/>
  <path d="m207.19 184.31v-2.74"/>
  <path d="m216.26 184.31v-2.74"/>
  <path d="m225.32 184.31v-2.74"/>
  <path d="m234.39 184.31v-2.74"/>
  <path d="m243.46 184.31v-2.74"/>
  <path d="m252.52 184.31v-2.74"/>
  <path d="m261.59 184.31v-2.74"/>
  <path d="m270.66 184.31v-2.74"/>
  <path d="m279.73 184.31v-2.74"/>
  <path d="m288.79 184.31v-2.74"/>
  <path d="m297.86 184.31v-2.74"/>
  <path d="m306.93 184.31v-2.74"/>
 </g>
 <g fill="#4c4c4c">
  <use y="192.667969" x="95.382812" xlink:href="#a"/>
  <use y="192.667969" x="104.449219" xlink:href="#b"/>
  <use y="192.667969" x="113.515625" xlink:href="#d"/>
  <use y="192.667969" x="122.585938" xlink:href="#c"/>
  <use y="192.667969" x="131.652344" xlink:href="#j"/>
  <use y="192.667969" x="140.71875" xlink:href="#i"/>
  <use y="192.667969" x="149.785156" xlink:href="#h"/>
  <use y="192.667969" x="158.851562" xlink:href="#g"/>
  <use y="192.667969" x="167.921875" xlink:href="#f"/>
  <use y="192.667969" x="173.988281" xlink:href="#a"/>
  <use y="192.667969" x="179.586914" xlink:href="#e"/>
  <use y="192.667969" x="183.054688" xlink:href="#a"/>
  <use y="192.667969" x="188.65332" xlink:href="#a"/>
  <use y="192.667969" x="192.121094" xlink:href="#a"/>
  <use y="192.667969" x="197.719727" xlink:href="#b"/>
  <use y="192.667969" x="201.1875" xlink:href="#a"/>
  <use y="192.667969" x="206.786133" xlink:href="#d"/>
  <use y="192.667969" x="210.257812" xlink:href="#a"/>
  <use y="192.667969" x="215.856445" xlink:href="#c"/>
  <use y="192.667969" x="219.324219" xlink:href="#a"/>
  <use y="192.667969" x="224.922852" xlink:href="#j"/>
  <use y="192.667969" x="228.390625" xlink:href="#a"/>
  <use y="192.667969" x="233.989258" xlink:href="#i"/>
  <use y="192.667969" x="237.457031" xlink:href="#a"/>
  <use y="192.667969" x="243.055664" xlink:href="#h"/>
  <use y="192.667969" x="246.523438" xlink:href="#a"/>
  <use y="192.667969" x="252.12207" xlink:href="#g"/>
  <use y="192.667969" x="255.59375" xlink:href="#a"/>
  <use y="192.667969" x="261.192383" xlink:href="#f"/>
  <use y="192.667969" x="264.660156" xlink:href="#b"/>
  <use y="192.667969" x="270.258789" xlink:href="#e"/>
  <use y="192.667969" x="273.726562" xlink:href="#b"/>
  <use y="192.667969" x="279.325195" xlink:href="#a"/>
  <use y="192.667969" x="282.792969" xlink:href="#b"/>
  <use y="192.667969" x="288.391602" xlink:href="#b"/>
  <use y="192.667969" x="291.859375" xlink:href="#b"/>
  <use y="192.667969" x="297.458008" xlink:href="#d"/>
  <use y="192.667969" x="300.929688" xlink:href="#b"/>
  <use y="192.667969" x="306.52832" xlink:href="#c"/>
 </g>
 <g>
  <use y="14.732422" x="82.96875" xlink:href="#q"/>
  <use y="14.732422" x="86.861328" xlink:href="#p"/>
  <use y="14.732422" x="96.735352" xlink:href="#o"/>
  <use y="14.732422" x="106.899414" xlink:href="#n"/>
  <use y="14.732422" x="115.239258" xlink:href="#m"/>
  <use y="14.732422" x="123.688477" xlink:href="#l"/>
  <use y="14.732422" x="131.80957" xlink:href="#k"/>
 </g>
</svg>
