<?xml version="1.0" encoding="UTF-8" standalone="no"?>
<svg xmlns="http://www.w3.org/2000/svg" height="378pt" width="378pt" version="1.1" xmlns:xlink="http://www.w3.org/1999/xlink" viewBox="0 0 378 378">
 <defs>
  <symbol id="q" overflow="visible">
   <path d="m5.75 0l-2.25-6.4062h-1.0625l-2.2812 6.4062h0.8593l0.6875-1.9219h2.4688l0.6562 1.9219zm-1.8125-2.6094h-2.0313l1.0469-2.9218z"/>
  </symbol>
  <symbol id="ak" overflow="visible">
   <path d="m5.4844-1.8281c0-0.7813-0.3594-1.2344-1.1719-1.5625 0.5781-0.2656 0.8906-0.75 0.8906-1.3906 0-0.9376-0.6875-1.625-1.9062-1.625h-2.6094v6.4062h2.9063c1.1406 0 1.8906-0.78125 1.8906-1.8281zm-1.1094-2.8438c0 0.6563-0.375 1.0157-1.2812 1.0157h-1.5782v-2.0313h1.5782c0.9062 0 1.2812 0.3594 1.2812 1.0156zm0.2812 2.8438c0 0.625-0.375 1.1094-1.1406 1.1094l-2-0.00005v-2.2032l2 0.0001c0.7656 0 1.1406 0.4688 1.1406 1.0938z"/>
  </symbol>
  <symbol id="aj" overflow="visible">
   <path d="m5.9531-2.3438h-0.8437c-0.1875 1.2188-0.7032 1.7813-1.7813 1.7813-1.2812 0-2.0937-0.9844-2.0937-2.5781 0-1.6406 0.7812-2.7032 2.0156-2.7032 1 0 1.5312 0.4376 1.7344 1.4219h0.8437c-0.2656-1.4062-1.0625-2.1562-2.4687-2.1562-1.9532 0-2.9375 1.5781-2.9375 3.4531-0.00002 1.8594 1.0156 3.2812 2.8906 3.2812 1.5625 0.00005 2.4531-0.82808 2.6406-2.5z"/>
  </symbol>
  <symbol id="ai" overflow="visible">
   <path d="m5.875-3.2031c0-2-1-3.2031-2.625-3.2031h-2.4688l0.00005 6.4062h2.4688c1.625 0 2.625-1.2188 2.625-3.2031zm-0.8281 0c0 1.625-0.6719 2.4844-1.9375 2.4844l-1.5156-0.00005v-4.9688l1.5156 0.0001c1.2656 0 1.9375 0.8437 1.9375 2.4844z"/>
  </symbol>
  <symbol id="ah" overflow="visible">
   <path d="m5.3906 0v-0.71875h-3.7812v-2.2032l3.5 0.0001v-0.7187h-3.5v-2.0469h3.625v-0.7187h-4.4375l-0.00002 6.4062z"/>
  </symbol>
  <symbol id="ag" overflow="visible">
   <path d="m5.0938-5.6875v-0.7187h-4.2969l-0.00002 6.4062h0.81252v-2.9219h3.0625v-0.7187h-3.0625v-2.0469z"/>
  </symbol>
  <symbol id="af" overflow="visible">
   <path d="m6.2344 0v-3.3906h-2.6719v0.7187h1.9531v0.1875c0 1.1406-0.8437 1.9219-2.0156 1.9219-1.4531 0-2.2969-1.0625-2.2969-2.625 0-1.5781 0.9063-2.6563 2.25-2.6563 0.9844 0 1.6875 0.5469 1.8594 1.375h0.8437c-0.2343-1.2968-1.2187-2.1093-2.6874-2.1093-1.9688 0-3.0782 1.5156-3.0782 3.4375 0.00002 1.9687 1.2032 3.2968 2.9375 3.2968 0.875 0.00005 1.5625-0.31245 2.1875-0.99995l0.2032 0.84375z"/>
  </symbol>
  <symbol id="ae" overflow="visible">
   <path d="m5.6719 0v-6.4062h-0.8281v2.7656h-3.2969v-2.7656h-0.81252v6.4062h0.81252v-2.9219h3.2969v2.9219z"/>
  </symbol>
  <symbol id="ad" overflow="visible">
   <path d="m1.7031 0v-6.4062h-0.8281v6.4062z"/>
  </symbol>
  <symbol id="aq" overflow="visible">
   <path d="m3.75-1.6406v-4.7656h-0.8281v4.4687c0 1.0469-0.3594 1.4062-0.9844 1.4062-0.6094 0.00005-0.95312-0.4062-0.95312-1.1562v-0.375h-0.8125v0.5156c0 1.0469 0.64062 1.7032 1.7656 1.7032 1.1094-0.00005 1.8125-0.68755 1.8125-1.7969z"/>
  </symbol>
  <symbol id="ap" overflow="visible">
   <path d="m5.7812 0l-2.625-3.7969 2.6094-2.6093h-1.0625l-3.1875 3.2343v-3.2343h-0.8281v6.4062h0.8281v-2.25l1.0469-1.0469 2.2656 3.2969z"/>
  </symbol>
  <symbol id="ao" overflow="visible">
   <path d="m4.6875 0v-0.71875h-3.1719v-5.6874h-0.81248v6.4062z"/>
  </symbol>
  <symbol id="an" overflow="visible">
   <path d="m6.6875 0v-6.4062h-1.125l-1.875 5.5781-1.8906-5.5781h-1.1406l-0.00005 6.4062h0.78125v-5.375l1.8125 5.375h0.8594l1.8125-5.375v5.375z"/>
  </symbol>
  <symbol id="p" overflow="visible">
   <path d="m5.6875 0v-6.4062h-0.7813v5.2343l-3.3437-5.2343h-0.89062v6.4062h0.76562v-5.2031l3.3281 5.2031z"/>
  </symbol>
  <symbol id="am" overflow="visible">
   <path d="m6.5312-3.1094c0-2.0625-1.2343-3.4687-3.1093-3.4687-1.8438 0-3.0938 1.4219-3.0938 3.4219 0.00002 2 1.25 3.3124 3.1094 3.3124 1.875 0.00005 3.0937-1.375 3.0937-3.2656zm-0.8281-0.0156c0 1.5469-0.9219 2.5625-2.2656 2.5625-1.375 0-2.2813-1.0156-2.2813-2.5937 0-1.5782 0.9063-2.6876 2.2657-2.6876 1.3906 0 2.2812 1.1094 2.2812 2.7188z"/>
  </symbol>
  <symbol id="al" overflow="visible">
   <path d="m5.4219-4.5312c0-1.2032-0.7031-1.875-1.9688-1.875h-2.6562l-0.00002 6.4062h0.82812v-2.7188h2.0156c1.0469 0 1.7813-0.75 1.7813-1.8124zm-0.8438-0.0313c0 0.7031-0.4687 1.125-1.25 1.125h-1.7031v-2.25h1.7031c0.7813 0 1.25 0.4219 1.25 1.125z"/>
  </symbol>
  <symbol id="a" overflow="visible">
   <path d="m3.0469 0v-6.2344h-0.5c-0.2813 0.9532-0.4531 1.0938-1.6563 1.2344l0.00002 0.5625h1.3906v4.4375z"/>
  </symbol>
  <symbol id="b" overflow="visible">
   <path d="m4.5-4.4062c0-1.0626-0.8281-1.8282-2-1.8282-1.2812 0-2.0156 0.6406-2.0625 2.1563h0.7813c0.0624-1.0469 0.4843-1.4844 1.25-1.4844 0.7031 0 1.2343 0.5 1.2343 1.1719 0 0.5-0.2969 0.9218-0.8437 1.2344l-0.8125 0.4531c-1.2969 0.7343-1.6719 1.3281-1.75 2.7031h4.1562v-0.76562h-3.2812c0.0781-0.51558 0.3593-0.82818 1.125-1.2813l0.875-0.4843c0.875-0.4532 1.3281-1.1094 1.3281-1.875z"/>
  </symbol>
  <symbol id="d" overflow="visible">
   <path d="m4.4531-1.8125c0-0.75-0.3125-1.2031-1.0625-1.4531 0.5782-0.2344 0.875-0.625 0.875-1.25 0-1.0782-0.7187-1.7188-1.9062-1.7188-1.25 0-1.9219 0.6875-1.9532 2.0156h0.7813c0.0156-0.9218 0.3906-1.3437 1.1875-1.3437 0.6875 0 1.0938 0.4063 1.0938 1.0625 0 0.6719-0.2813 0.9531-1.5313 0.9531v0.6407h0.4219c0.8594 0 1.2968 0.4062 1.2968 1.1093 0 0.7813-0.4843 1.25-1.2968 1.25-0.8438 0.00002-1.25-0.42185-1.2969-1.3281h-0.78125c0.09375 1.375 0.78125 2 2.0626 2 1.2812 0 2.1093-0.76562 2.1093-1.9375z"/>
  </symbol>
  <symbol id="c" overflow="visible">
   <path d="m4.5781-1.5v-0.6875h-0.9219v-4.0469h-0.5781l-2.8281 3.9219v0.8125h2.625v1.5h0.7812v-1.5zm-1.7031-0.6875h-1.9531l1.9531-2.7344z"/>
  </symbol>
  <symbol id="i" overflow="visible">
   <path d="m4.5156-2.0625c0-1.2344-0.8281-2.0469-2.0156-2.0469-0.4375 0-0.7969 0.1094-1.1562 0.375l0.25-1.6094h2.5937v-0.7656h-3.2188l-0.4687 3.2656h0.7188c0.3593-0.4218 0.6562-0.5781 1.1406-0.5781 0.8281 0 1.3594 0.5313 1.3594 1.4531 0 0.9063-0.5157 1.4219-1.3594 1.4219-0.6719 0.00002-1.0938-0.34372-1.2813-1.0469h-0.7656c0.25 1.2344 0.9531 1.7188 2.0625 1.7188 1.2656 0 2.1406-0.875 2.1406-2.1875z"/>
  </symbol>
  <symbol id="h" overflow="visible">
   <path d="m4.5156-1.9375c0-1.1563-0.7968-1.9375-1.9062-1.9375-0.625 0-1.1094 0.2344-1.4375 0.6875 0-1.5156 0.5-2.3594 1.3906-2.3594 0.5469 0 0.9219 0.3438 1.0469 0.9375h0.7656c-0.1406-1.0156-0.8125-1.625-1.7656-1.625-1.4532 0-2.2344 1.2188-2.2344 3.3906 0 1.9532 0.6719 2.9688 2.0938 2.9688 1.1874 0 2.0468-0.84375 2.0468-2.0625zm-0.7968 0.0625c0 0.7812-0.5313 1.3281-1.2344 1.3281-0.7188 0.00002-1.2656-0.5781-1.2656-1.375 0-0.7656 0.5156-1.2656 1.2812-1.2656 0.75 0 1.2188 0.4844 1.2188 1.3125z"/>
  </symbol>
  <symbol id="g" overflow="visible">
   <path d="m4.5781-5.4531v-0.6563h-4.1718l-0.00005 0.7656h3.375c-1.25 1.5626-2.125 3.3907-2.5624 5.3438h0.8281c0.3437-2.0156 1.2187-3.8906 2.5312-5.4531z"/>
  </symbol>
  <symbol id="o" overflow="visible">
   <path d="m4.5156-1.7656c0-0.6875-0.3594-1.1719-1.0781-1.5156 0.6406-0.3907 0.8594-0.7032 0.8594-1.2969 0-0.9688-0.7657-1.6563-1.875-1.6563-1.1094 0-1.875 0.6875-1.875 1.6563-0.00002 0.5781 0.2031 0.9062 0.8437 1.2969-0.71872 0.3437-1.0625 0.8281-1.0625 1.5156 0.00002 1.1406 0.8594 1.8906 2.0938 1.8906 1.2343 0 2.0937-0.75 2.0937-1.8906zm-1.0156-2.7969c0 0.5937-0.4375 0.9687-1.0781 0.9687-0.6563 0-1.0781-0.375-1.0781-0.9687s0.4218-0.9844 1.0781-0.9844c0.6562 0 1.0781 0.3907 1.0781 0.9844zm0.2188 2.8125c0 0.7344-0.5313 1.2031-1.3126 1.2031-0.7656 0.00002-1.2812-0.4687-1.2812-1.2031s0.5156-1.1875 1.2969-1.1875c0.7656 0 1.2969 0.4531 1.2969 1.1875z"/>
  </symbol>
  <symbol id="n" overflow="visible">
   <path d="m4.4844-3.2656c0-1.9532-0.6875-2.9688-2.1094-2.9688-1.1875 0-2.0469 0.8438-2.0469 2.0625 0.00002 1.1563 0.7969 1.9531 1.9219 1.9531 0.5938 0 1.0156-0.2187 1.4219-0.7031 0 1.5157-0.5 2.375-1.3907 2.375-0.5468 0.00002-0.9218-0.34372-1.0468-0.9531h-0.76565c0.14063 1.0312 0.81245 1.625 1.7656 1.625 1.4531 0 2.25-1.2344 2.25-3.3906zm-0.8438-0.9219c0 0.7656-0.5468 1.2813-1.2968 1.2813s-1.2188-0.4844-1.2188-1.3282c0-0.7812 0.5312-1.3281 1.2344-1.3281 0.7344 0 1.2812 0.5625 1.2812 1.375z"/>
  </symbol>
  <symbol id="m" overflow="visible">
   <path d="m4.4531-3c0-2.1562-0.6719-3.2344-2.0312-3.2344-1.3438 0-2.0469 1.0938-2.0469 3.1875 0 2.0938 0.7031 3.1719 2.0469 3.1719 1.3125 0 2.0312-1.0781 2.0312-3.125zm-0.7812-0.0625c0 1.7656-0.4063 2.5469-1.2657 2.5469-0.8281-0.00002-1.2343-0.8282-1.2343-2.5313s0.4062-2.5 1.25-2.5c0.8281 0 1.25 0.8125 1.25 2.4844z"/>
  </symbol>
  <symbol id="ac" overflow="visible">
   <path d="m5.3438-5.7656h-1.0313l-1.625 4.6718-1.5469-4.6718h-1.0312l2.0312 5.7656h1z"/>
  </symbol>
  <symbol id="ab" overflow="visible">
   <path d="m5.8906-0.015625v-0.70312c-0.1094 0.03124-0.1562 0.03124-0.2031 0.03124-0.3125 0-0.5-0.17188-0.5-0.4531v-3.2188c0-1.0156-0.75-1.5625-2.1563-1.5625-1.4062 0-2.2656 0.5313-2.3124 1.8594h0.9218c0.0782-0.7031 0.5-1.0156 1.3438-1.0156 0.8281 0 1.2968 0.2969 1.2968 0.8593v0.2344c0 0.3906-0.2343 0.5469-0.9531 0.6406-1.2969 0.1719-1.5 0.2032-1.8593 0.3594-0.67192 0.2656-1 0.7813-1 1.4844-0.00005 1.0469 0.7187 1.6719 1.8906 1.6719 0.7344-0.00002 1.4531-0.31252 1.9531-0.8594 0.0937 0.45312 0.5 0.76562 0.9531 0.76562 0.1719 0.000005 0.3282-0.01562 0.625-0.093745zm-1.6094-1.9688c0 0.8125-0.8437 1.3438-1.7343 1.3438-0.7031-0.00002-1.125-0.25002-1.125-0.875 0-0.6094 0.4062-0.875 1.3906-1.0156 0.9531-0.125 1.1563-0.1719 1.4687-0.3126z"/>
  </symbol>
  <symbol id="aa" overflow="visible">
   <path d="m1.6562 0v-8.0156h-0.9062v8.0156z"/>
  </symbol>
  <symbol id="z" overflow="visible">
   <path d="m5.2969 0v-5.7656h-0.9063v3.1875c0 1.1719-0.625 1.9375-1.5781 1.9375-0.7187-0.00002-1.1875-0.4375-1.1875-1.125v-4h-0.90625v4.3594c0 0.95308 0.71875 1.5781 1.8282 1.5781 0.8592-0.00002 1.3905-0.2969 1.9374-1.0625v0.8906z"/>
  </symbol>
  <symbol id="y" overflow="visible">
   <path d="m5.6406-2.625c0-0.8281-0.0625-1.3594-0.2344-1.7812-0.375-0.9532-1.25-1.5157-2.3281-1.5157-1.6093 0-2.6406 1.1875-2.6406 3.0781 0 1.8907 1 3.0157 2.625 3.0157 1.3125-0.00002 2.2344-0.75002 2.4531-1.9219h-0.9218c-0.25 0.76562-0.7657 1.0625-1.5 1.0625-0.9532 0-1.6719-0.6094-1.7032-1.9375zm-0.9844-0.8125v0.0781h-3.2343c0.0781-1.0312 0.7187-1.7187 1.6406-1.7187 0.9063 0 1.5937 0.75 1.5937 1.6406z"/>
  </symbol>
  <symbol id="x" overflow="visible">
   <path d="m5.0469-1.6094c0-0.8594-0.4844-1.2968-1.625-1.5625l-0.875-0.2187c-0.75-0.1719-1.0781-0.4219-1.0781-0.8282 0-0.5156 0.4843-0.8593 1.2187-0.8593 0.75 0 1.1406 0.3125 1.1563 0.9219h0.9687c0-1.1407-0.75-1.7657-2.0781-1.7657-1.3438 0-2.2188 0.6875-2.2188 1.75 0.00002 0.9063 0.46878 1.3281 1.8282 1.6563l0.8593 0.2187c0.6407 0.1563 0.8907 0.3438 0.8907 0.75 0 0.5469-0.5469 0.8594-1.3438 0.8594-0.8281 0-1.2812-0.1875-1.4062-1.0781h-0.9688c0.04688 1.3437 0.7969 1.9375 2.2969 1.9375 1.4531-0.00002 2.375-0.6719 2.375-1.7813z"/>
  </symbol>
  <symbol id="w" overflow="visible">
   <path d="m8.2188-2.75c0-1.1562-0.5157-1.8594-1.75-2.3281 0.875-0.4219 1.3281-1.125 1.3281-2.1094 0-1.3906-1.0313-2.4375-2.8438-2.4375h-3.9062v9.625h4.3437c1.7188 0 2.8282-1.1562 2.8282-2.75zm-1.6407-4.2656c0 0.9844-0.5781 1.5312-1.9375 1.5312h-2.375v-3.0625h2.375c1.3594 0 1.9375 0.5625 1.9375 1.5313zm0.4219 4.2812c0 0.9219-0.5625 1.6563-1.7344 1.6563h-3v-3.3125h3c1.1719 0 1.7344 0.7187 1.7344 1.6562z"/>
  </symbol>
  <symbol id="t" overflow="visible">
   <path d="m7.0625-0.03125v-0.82813c-0.125 0.03126-0.1719 0.03126-0.2344 0.03126-0.3906 0-0.5937-0.20308-0.5937-0.54688v-3.8594c0-1.2187-0.9063-1.875-2.6094-1.875-1.6719 0-2.7031 0.6406-2.7656 2.2344h1.1094c0.0937-0.8438 0.5937-1.2188 1.625-1.2188 0.9843 0 1.5468 0.3594 1.5468 1.0313v0.2813c0 0.4687-0.2812 0.6562-1.1562 0.7656-1.5625 0.2031-1.7969 0.25-2.2188 0.4218-0.79685 0.3282-1.2187 0.9532-1.2187 1.7969-0.00002 1.25 0.875 2 2.2812 2 0.875 0.00002 1.7344-0.37498 2.3438-1.0156 0.125 0.51562 0.5937 0.90625 1.1406 0.90625 0.2187 0 0.3906-0.03125 0.75-0.125zm-1.9219-2.3594c0 0.9844-1.0156 1.625-2.0781 1.625-0.8594-0.00002-1.3594-0.2969-1.3594-1.0625 0-0.7188 0.4844-1.0313 1.6563-1.2031 1.1718-0.1563 1.4062-0.2188 1.7812-0.3907z"/>
  </symbol>
  <symbol id="l" overflow="visible">
   <path d="m4.2344-5.9531v-1.125c-0.1875-0.0313-0.2656-0.0313-0.4219-0.0313-0.7031 0-1.25 0.4219-1.8906 1.4375v-1.25h-1l-0.00002 6.9219h1.0937v-3.5938c0-1.5624 0.5156-2.3281 2.2188-2.3593z"/>
  </symbol>
  <symbol id="f" overflow="visible">
   <path d="m6.2969-2.375h-1.1094c-0.1875 1.1094-0.75 1.5625-1.6875 1.5625-1.2188 0-1.9375-0.9375-1.9375-2.5781 0-1.7344 0.7031-2.7032 1.9063-2.7032 0.9218 0 1.5156 0.5313 1.6406 1.5h1.1094c-0.125-1.6874-1.1876-2.5156-2.7344-2.5156-1.8594 0-3.0782 1.4219-3.0782 3.7188 0.00005 2.2344 1.1876 3.5937 3.0626 3.5937 1.6562 0.00002 2.7031-0.99998 2.8281-2.5781z"/>
  </symbol>
  <symbol id="e" overflow="visible">
   <path d="m6.7344-3.4062c0-2.3907-1.1563-3.7032-3.1406-3.7032-1.9376 0-3.125 1.3282-3.125 3.6563-0.00005 2.3125 1.1718 3.6562 3.1406 3.6562 1.9375 0.00002 3.125-1.3437 3.125-3.6093zm-1.1563-0.0157c0 1.625-0.7656 2.6094-1.9687 2.6094-1.2344 0-1.9844-0.9687-1.9844-2.6406s0.75-2.6407 1.9844-2.6407 1.9687 0.9532 1.9687 2.6719z"/>
  </symbol>
  <symbol id="s" overflow="visible">
   <path d="m6.5312 0v-9.625h-1.0937v3.5781c-0.4531-0.7031-1.2031-1.0625-2.125-1.0625-1.7969 0-2.9688 1.375-2.9688 3.5782 0.00005 2.3437 1.1407 3.7343 3.0157 3.7343 0.9375 0.00002 1.6094-0.35935 2.2031-1.2187v1.0156zm-1.0937-3.4375c0 1.6094-0.7656 2.6094-1.9219 2.6094-1.2187-0.00002-2.0312-1.0157-2.0312-2.625 0-1.6094 0.8125-2.6407 2.0156-2.6407 1.1875 0 1.9375 1.0626 1.9375 2.6563z"/>
  </symbol>
  <symbol id="k" overflow="visible">
   <path d="m6.7656-3.1406c0-1-0.0781-1.6406-0.2656-2.1563-0.4531-1.1406-1.5156-1.8125-2.7969-1.8125-1.9375 0-3.1718 1.4219-3.1718 3.6875-0.00005 2.2657 1.2031 3.625 3.1406 3.625 1.5781 0.00002 2.6719-0.90622 2.9531-2.2969h-1.1094c-0.2968 0.9063-0.9218 1.2813-1.8125 1.2813-1.1406 0-2-0.75-2.0312-2.3281zm-1.1718-0.9844s0 0.0625-0.0157 0.0781h-3.875c0.0938-1.2187 0.875-2.0469 1.9844-2.0469 1.0781 0 1.9063 0.8907 1.9063 1.9688z"/>
  </symbol>
  <symbol id="j" overflow="visible"></symbol>
  <symbol id="r" overflow="visible">
   <path d="m6.0625-1.9375c0-1.0313-0.5781-1.5469-1.9531-1.875l-1.0625-0.25c-0.8907-0.2187-1.2813-0.5-1.2813-1 0-0.625 0.5782-1.0313 1.4688-1.0313s1.3594 0.375 1.3906 1.1094h1.1562c-0.0156-1.3594-0.9062-2.125-2.5-2.125-1.625 0-2.6562 0.8282-2.6562 2.1094 0 1.0781 0.5469 1.5938 2.1875 1.9844l1.0313 0.25c0.7656 0.1875 1.0624 0.4218 1.0624 0.9218 0 0.6407-0.6406 1.0313-1.6093 1.0313-0.9844 0-1.5469-0.25-1.6875-1.2969h-1.1563c0.0469 1.5938 0.9531 2.3125 2.75 2.3125 1.75 0.00002 2.8594-0.81248 2.8594-2.1406z"/>
  </symbol>
  <symbol id="v" overflow="visible">
   <path d="m6.3594 0v-6.9219h-1.0938v3.8125c0 1.4219-0.7344 2.3438-1.8906 2.3438-0.8594-0.00002-1.4219-0.5313-1.4219-1.3594v-4.7969h-1.0937l-0.00002 5.2344c0 1.1406 0.85942 1.8906 2.2031 1.8906 1.0156 0.00002 1.6719-0.35935 2.3125-1.2656v1.0625z"/>
  </symbol>
  <symbol id="u" overflow="visible">
   <path d="m2 0v-9.625h-1.1094l0.00002 9.625z"/>
  </symbol>
  <clipPath id="eb">
   <path d="m0 67.895h378v243.1h-378z"/>
  </clipPath>
  <clipPath id="dq">
   <path d="m32.891 90.129h285.11v188.87h-285.11z"/>
  </clipPath>
  <clipPath id="df">
   <path d="m32.891 93h286.01v1h-286.01z"/>
  </clipPath>
  <clipPath id="cu">
   <path d="m32.891 98h286.01v1h-286.01z"/>
  </clipPath>
  <clipPath id="cj">
   <path d="m32.891 109h286.01v1h-286.01z"/>
  </clipPath>
  <clipPath id="by">
   <path d="m32.891 119h286.01v2h-286.01z"/>
  </clipPath>
  <clipPath id="bn">
   <path d="m32.891 130h286.01v2h-286.01z"/>
  </clipPath>
  <clipPath id="bc">
   <path d="m32.891 141h286.01v1h-286.01z"/>
  </clipPath>
  <clipPath id="ar">
   <path d="m32.891 151h286.01v2h-286.01z"/>
  </clipPath>
  <clipPath id="ea">
   <path d="m32.891 162h286.01v2h-286.01z"/>
  </clipPath>
  <clipPath id="dz">
   <path d="m32.891 173h286.01v1h-286.01z"/>
  </clipPath>
  <clipPath id="dy">
   <path d="m32.891 183h286.01v2h-286.01z"/>
  </clipPath>
  <clipPath id="dx">
   <path d="m32.891 194h286.01v2h-286.01z"/>
  </clipPath>
  <clipPath id="dw">
   <path d="m32.891 205h286.01v1h-286.01z"/>
  </clipPath>
  <clipPath id="dv">
   <path d="m32.891 215h286.01v2h-286.01z"/>
  </clipPath>
  <clipPath id="du">
   <path d="m32.891 226h286.01v2h-286.01z"/>
  </clipPath>
  <clipPath id="dt">
   <path d="m32.891 237h286.01v1h-286.01z"/>
  </clipPath>
  <clipPath id="ds">
   <path d="m32.891 248h286.01v1h-286.01z"/>
  </clipPath>
  <clipPath id="dr">
   <path d="m32.891 258h286.01v2h-286.01z"/>
  </clipPath>
  <clipPath id="dp">
   <path d="m32.891 269h286.01v1h-286.01z"/>
  </clipPath>
  <clipPath id="do">
   <path d="m32.891 274h286.01v2h-286.01z"/>
  </clipPath>
  <clipPath id="dn">
   <path d="m40 90.129h1v188.87h-1z"/>
  </clipPath>
  <clipPath id="dm">
   <path d="m45 90.129h2v188.87h-2z"/>
  </clipPath>
  <clipPath id="dl">
   <path d="m56 90.129h1v188.87h-1z"/>
  </clipPath>
  <clipPath id="dk">
   <path d="m67 90.129h1v188.87h-1z"/>
  </clipPath>
  <clipPath id="dj">
   <path d="m77 90.129h2v188.87h-2z"/>
  </clipPath>
  <clipPath id="di">
   <path d="m88 90.129h2v188.87h-2z"/>
  </clipPath>
  <clipPath id="dh">
   <path d="m99 90.129h2v188.87h-2z"/>
  </clipPath>
  <clipPath id="dg">
   <path d="m110 90.129h1v188.87h-1z"/>
  </clipPath>
  <clipPath id="de">
   <path d="m121 90.129h1v188.87h-1z"/>
  </clipPath>
  <clipPath id="dd">
   <path d="m131 90.129h2v188.87h-2z"/>
  </clipPath>
  <clipPath id="dc">
   <path d="m142 90.129h2v188.87h-2z"/>
  </clipPath>
  <clipPath id="db">
   <path d="m153 90.129h2v188.87h-2z"/>
  </clipPath>
  <clipPath id="da">
   <path d="m164 90.129h1v188.87h-1z"/>
  </clipPath>
  <clipPath id="cz">
   <path d="m175 90.129h1v188.87h-1z"/>
  </clipPath>
  <clipPath id="cy">
   <path d="m185 90.129h2v188.87h-2z"/>
  </clipPath>
  <clipPath id="cx">
   <path d="m196 90.129h2v188.87h-2z"/>
  </clipPath>
  <clipPath id="cw">
   <path d="m207 90.129h2v188.87h-2z"/>
  </clipPath>
  <clipPath id="cv">
   <path d="m218 90.129h1v188.87h-1z"/>
  </clipPath>
  <clipPath id="ct">
   <path d="m229 90.129h1v188.87h-1z"/>
  </clipPath>
  <clipPath id="cs">
   <path d="m239 90.129h2v188.87h-2z"/>
  </clipPath>
  <clipPath id="cr">
   <path d="m250 90.129h2v188.87h-2z"/>
  </clipPath>
  <clipPath id="cq">
   <path d="m261 90.129h2v188.87h-2z"/>
  </clipPath>
  <clipPath id="cp">
   <path d="m272 90.129h1v188.87h-1z"/>
  </clipPath>
  <clipPath id="co">
   <path d="m283 90.129h1v188.87h-1z"/>
  </clipPath>
  <clipPath id="cn">
   <path d="m293 90.129h2v188.87h-2z"/>
  </clipPath>
  <clipPath id="cm">
   <path d="m304 90.129h2v188.87h-2z"/>
  </clipPath>
  <clipPath id="cl">
   <path d="m310 90.129h1v188.87h-1z"/>
  </clipPath>
  <clipPath id="ck">
   <path d="m32.891 103h286.01v2h-286.01z"/>
  </clipPath>
  <clipPath id="ci">
   <path d="m32.891 114h286.01v2h-286.01z"/>
  </clipPath>
  <clipPath id="ch">
   <path d="m32.891 124h286.01v2h-286.01z"/>
  </clipPath>
  <clipPath id="cg">
   <path d="m32.891 135h286.01v2h-286.01z"/>
  </clipPath>
  <clipPath id="cf">
   <path d="m32.891 146h286.01v2h-286.01z"/>
  </clipPath>
  <clipPath id="ce">
   <path d="m32.891 156h286.01v2h-286.01z"/>
  </clipPath>
  <clipPath id="cd">
   <path d="m32.891 167h286.01v2h-286.01z"/>
  </clipPath>
  <clipPath id="cc">
   <path d="m32.891 178h286.01v2h-286.01z"/>
  </clipPath>
  <clipPath id="cb">
   <path d="m32.891 188h286.01v3h-286.01z"/>
  </clipPath>
  <clipPath id="ca">
   <path d="m32.891 199h286.01v2h-286.01z"/>
  </clipPath>
  <clipPath id="bz">
   <path d="m32.891 210h286.01v2h-286.01z"/>
  </clipPath>
  <clipPath id="bx">
   <path d="m32.891 221h286.01v2h-286.01z"/>
  </clipPath>
  <clipPath id="bw">
   <path d="m32.891 231h286.01v2h-286.01z"/>
  </clipPath>
  <clipPath id="bv">
   <path d="m32.891 242h286.01v2h-286.01z"/>
  </clipPath>
  <clipPath id="bu">
   <path d="m32.891 253h286.01v2h-286.01z"/>
  </clipPath>
  <clipPath id="bt">
   <path d="m32.891 263h286.01v2h-286.01z"/>
  </clipPath>
  <clipPath id="bs">
   <path d="m50 90.129h2v188.87h-2z"/>
  </clipPath>
  <clipPath id="br">
   <path d="m61 90.129h2v188.87h-2z"/>
  </clipPath>
  <clipPath id="bq">
   <path d="m72 90.129h2v188.87h-2z"/>
  </clipPath>
  <clipPath id="bp">
   <path d="m83 90.129h2v188.87h-2z"/>
  </clipPath>
  <clipPath id="bo">
   <path d="m93 90.129h2v188.87h-2z"/>
  </clipPath>
  <clipPath id="bm">
   <path d="m104 90.129h2v188.87h-2z"/>
  </clipPath>
  <clipPath id="bl">
   <path d="m115 90.129h2v188.87h-2z"/>
  </clipPath>
  <clipPath id="bk">
   <path d="m126 90.129h2v188.87h-2z"/>
  </clipPath>
  <clipPath id="bj">
   <path d="m137 90.129h2v188.87h-2z"/>
  </clipPath>
  <clipPath id="bi">
   <path d="m147 90.129h2v188.87h-2z"/>
  </clipPath>
  <clipPath id="bh">
   <path d="m158 90.129h2v188.87h-2z"/>
  </clipPath>
  <clipPath id="bg">
   <path d="m169 90.129h2v188.87h-2z"/>
  </clipPath>
  <clipPath id="bf">
   <path d="m180 90.129h2v188.87h-2z"/>
  </clipPath>
  <clipPath id="be">
   <path d="m191 90.129h2v188.87h-2z"/>
  </clipPath>
  <clipPath id="bd">
   <path d="m201 90.129h2v188.87h-2z"/>
  </clipPath>
  <clipPath id="bb">
   <path d="m212 90.129h2v188.87h-2z"/>
  </clipPath>
  <clipPath id="ba">
   <path d="m223 90.129h2v188.87h-2z"/>
  </clipPath>
  <clipPath id="az">
   <path d="m234 90.129h2v188.87h-2z"/>
  </clipPath>
  <clipPath id="ay">
   <path d="m245 90.129h2v188.87h-2z"/>
  </clipPath>
  <clipPath id="ax">
   <path d="m255 90.129h2v188.87h-2z"/>
  </clipPath>
  <clipPath id="aw">
   <path d="m266 90.129h2v188.87h-2z"/>
  </clipPath>
  <clipPath id="av">
   <path d="m277 90.129h2v188.87h-2z"/>
  </clipPath>
  <clipPath id="au">
   <path d="m288 90.129h2v188.87h-2z"/>
  </clipPath>
  <clipPath id="at">
   <path d="m299 90.129h2v188.87h-2z"/>
  </clipPath>
  <clipPath id="as">
   <path d="m32.891 90.129h286.01v188.87h-286.01z"/>
  </clipPath>
 </defs>
 <rect height="378" width="378" y="0" x="0" fill="#fff"/>
 <g>
  <g clip-path="url(#eb)">
   <path stroke-linejoin="round" d="m0 310.11h378v-242.22l-378 0.001zm0 0" stroke="#fff" stroke-linecap="round" stroke-miterlimit="10" stroke-width="1.067" fill="#fff"/>
  </g>
  <g clip-path="url(#dq)">
   <path fill="#fff" d="m32.891 278.21h285.01v-188.08l-285.01-0.005z"/>
  </g>
  <g clip-path="url(#df)">
   <path stroke-linejoin="round" d="m32.891 93.332h285.01" stroke="#ebebeb" stroke-miterlimit="10" stroke-width=".53349" fill="none"/>
  </g>
  <g clip-path="url(#cu)">
   <path stroke-linejoin="round" d="m32.891 98.676h285.01" stroke="#ebebeb" stroke-miterlimit="10" stroke-width=".53349" fill="none"/>
  </g>
  <g clip-path="url(#cj)">
   <path stroke-linejoin="round" d="m32.891 109.36h285.01" stroke="#ebebeb" stroke-miterlimit="10" stroke-width=".53349" fill="none"/>
  </g>
  <g clip-path="url(#by)">
   <path stroke-linejoin="round" d="m32.891 120.05h285.01" stroke="#ebebeb" stroke-miterlimit="10" stroke-width=".53349" fill="none"/>
  </g>
  <g clip-path="url(#bn)">
   <path stroke-linejoin="round" d="m32.891 130.74h285.01" stroke="#ebebeb" stroke-miterlimit="10" stroke-width=".53349" fill="none"/>
  </g>
  <g clip-path="url(#bc)">
   <path stroke-linejoin="round" d="m32.891 141.43h285.01" stroke="#ebebeb" stroke-miterlimit="10" stroke-width=".53349" fill="none"/>
  </g>
  <g clip-path="url(#ar)">
   <path stroke-linejoin="round" d="m32.891 152.11h285.01" stroke="#ebebeb" stroke-miterlimit="10" stroke-width=".53349" fill="none"/>
  </g>
  <g clip-path="url(#ea)">
   <path stroke-linejoin="round" d="m32.891 162.8h285.01" stroke="#ebebeb" stroke-miterlimit="10" stroke-width=".53349" fill="none"/>
  </g>
  <g clip-path="url(#dz)">
   <path stroke-linejoin="round" d="m32.891 173.48h285.01" stroke="#ebebeb" stroke-miterlimit="10" stroke-width=".53349" fill="none"/>
  </g>
  <g clip-path="url(#dy)">
   <path stroke-linejoin="round" d="m32.891 184.17h285.01" stroke="#ebebeb" stroke-miterlimit="10" stroke-width=".53349" fill="none"/>
  </g>
  <g clip-path="url(#dx)">
   <path stroke-linejoin="round" d="m32.891 194.86h285.01" stroke="#ebebeb" stroke-miterlimit="10" stroke-width=".53349" fill="none"/>
  </g>
  <g clip-path="url(#dw)">
   <path stroke-linejoin="round" d="m32.891 205.55h285.01" stroke="#ebebeb" stroke-miterlimit="10" stroke-width=".53349" fill="none"/>
  </g>
  <g clip-path="url(#dv)">
   <path stroke-linejoin="round" d="m32.891 216.23h285.01" stroke="#ebebeb" stroke-miterlimit="10" stroke-width=".53349" fill="none"/>
  </g>
  <g clip-path="url(#du)">
   <path stroke-linejoin="round" d="m32.891 226.92h285.01" stroke="#ebebeb" stroke-miterlimit="10" stroke-width=".53349" fill="none"/>
  </g>
  <g clip-path="url(#dt)">
   <path stroke-linejoin="round" d="m32.891 237.61h285.01" stroke="#ebebeb" stroke-miterlimit="10" stroke-width=".53349" fill="none"/>
  </g>
  <g clip-path="url(#ds)">
   <path stroke-linejoin="round" d="m32.891 248.29h285.01" stroke="#ebebeb" stroke-miterlimit="10" stroke-width=".53349" fill="none"/>
  </g>
  <g clip-path="url(#dr)">
   <path stroke-linejoin="round" d="m32.891 258.98h285.01" stroke="#ebebeb" stroke-miterlimit="10" stroke-width=".53349" fill="none"/>
  </g>
  <g clip-path="url(#dp)">
   <path stroke-linejoin="round" d="m32.891 269.67h285.01" stroke="#ebebeb" stroke-miterlimit="10" stroke-width=".53349" fill="none"/>
  </g>
  <g clip-path="url(#do)">
   <path stroke-linejoin="round" d="m32.891 275.01h285.01" stroke="#ebebeb" stroke-miterlimit="10" stroke-width=".53349" fill="none"/>
  </g>
  <g clip-path="url(#dn)">
   <path stroke-linejoin="round" d="m40.449 278.21v-188.08" stroke="#ebebeb" stroke-miterlimit="10" stroke-width=".53349" fill="none"/>
  </g>
  <g clip-path="url(#dm)">
   <path stroke-linejoin="round" d="m45.844 278.21v-188.08" stroke="#ebebeb" stroke-miterlimit="10" stroke-width=".53349" fill="none"/>
  </g>
  <g clip-path="url(#dl)">
   <path stroke-linejoin="round" d="m56.641 278.21v-188.08" stroke="#ebebeb" stroke-miterlimit="10" stroke-width=".53349" fill="none"/>
  </g>
  <g clip-path="url(#dk)">
   <path stroke-linejoin="round" d="m67.438 278.21v-188.08" stroke="#ebebeb" stroke-miterlimit="10" stroke-width=".53349" fill="none"/>
  </g>
  <g clip-path="url(#dj)">
   <path stroke-linejoin="round" d="m78.234 278.21v-188.08" stroke="#ebebeb" stroke-miterlimit="10" stroke-width=".53349" fill="none"/>
  </g>
  <g clip-path="url(#di)">
   <path stroke-linejoin="round" d="m89.027 278.21v-188.08" stroke="#ebebeb" stroke-miterlimit="10" stroke-width=".53349" fill="none"/>
  </g>
  <g clip-path="url(#dh)">
   <path stroke-linejoin="round" d="m99.824 278.21v-188.08" stroke="#ebebeb" stroke-miterlimit="10" stroke-width=".53349" fill="none"/>
  </g>
  <g clip-path="url(#dg)">
   <path stroke-linejoin="round" d="m110.62 278.21v-188.08" stroke="#ebebeb" stroke-miterlimit="10" stroke-width=".53349" fill="none"/>
  </g>
  <g clip-path="url(#de)">
   <path stroke-linejoin="round" d="m121.42 278.21v-188.08" stroke="#ebebeb" stroke-miterlimit="10" stroke-width=".53349" fill="none"/>
  </g>
  <g clip-path="url(#dd)">
   <path stroke-linejoin="round" d="m132.21 278.21v-188.08" stroke="#ebebeb" stroke-miterlimit="10" stroke-width=".53349" fill="none"/>
  </g>
  <g clip-path="url(#dc)">
   <path stroke-linejoin="round" d="m143.01 278.21v-188.08" stroke="#ebebeb" stroke-miterlimit="10" stroke-width=".53349" fill="none"/>
  </g>
  <g clip-path="url(#db)">
   <path stroke-linejoin="round" d="m153.8 278.21v-188.08" stroke="#ebebeb" stroke-miterlimit="10" stroke-width=".53349" fill="none"/>
  </g>
  <g clip-path="url(#da)">
   <path stroke-linejoin="round" d="m164.6 278.21v-188.08" stroke="#ebebeb" stroke-miterlimit="10" stroke-width=".53349" fill="none"/>
  </g>
  <g clip-path="url(#cz)">
   <path stroke-linejoin="round" d="m175.39 278.21v-188.08" stroke="#ebebeb" stroke-miterlimit="10" stroke-width=".53349" fill="none"/>
  </g>
  <g clip-path="url(#cy)">
   <path stroke-linejoin="round" d="m186.19 278.21v-188.08" stroke="#ebebeb" stroke-miterlimit="10" stroke-width=".53349" fill="none"/>
  </g>
  <g clip-path="url(#cx)">
   <path stroke-linejoin="round" d="m196.99 278.21v-188.08" stroke="#ebebeb" stroke-miterlimit="10" stroke-width=".53349" fill="none"/>
  </g>
  <g clip-path="url(#cw)">
   <path stroke-linejoin="round" d="m207.79 278.21v-188.08" stroke="#ebebeb" stroke-miterlimit="10" stroke-width=".53349" fill="none"/>
  </g>
  <g clip-path="url(#cv)">
   <path stroke-linejoin="round" d="m218.58 278.21v-188.08" stroke="#ebebeb" stroke-miterlimit="10" stroke-width=".53349" fill="none"/>
  </g>
  <g clip-path="url(#ct)">
   <path stroke-linejoin="round" d="m229.38 278.21v-188.08" stroke="#ebebeb" stroke-miterlimit="10" stroke-width=".53349" fill="none"/>
  </g>
  <g clip-path="url(#cs)">
   <path stroke-linejoin="round" d="m240.17 278.21v-188.08" stroke="#ebebeb" stroke-miterlimit="10" stroke-width=".53349" fill="none"/>
  </g>
  <g clip-path="url(#cr)">
   <path stroke-linejoin="round" d="m250.97 278.21v-188.08" stroke="#ebebeb" stroke-miterlimit="10" stroke-width=".53349" fill="none"/>
  </g>
  <g clip-path="url(#cq)">
   <path stroke-linejoin="round" d="m261.76 278.21v-188.08" stroke="#ebebeb" stroke-miterlimit="10" stroke-width=".53349" fill="none"/>
  </g>
  <g clip-path="url(#cp)">
   <path stroke-linejoin="round" d="m272.56 278.21v-188.08" stroke="#ebebeb" stroke-miterlimit="10" stroke-width=".53349" fill="none"/>
  </g>
  <g clip-path="url(#co)">
   <path stroke-linejoin="round" d="m283.36 278.21v-188.08" stroke="#ebebeb" stroke-miterlimit="10" stroke-width=".53349" fill="none"/>
  </g>
  <g clip-path="url(#cn)">
   <path stroke-linejoin="round" d="m294.15 278.21v-188.08" stroke="#ebebeb" stroke-miterlimit="10" stroke-width=".53349" fill="none"/>
  </g>
  <g clip-path="url(#cm)">
   <path stroke-linejoin="round" d="m304.95 278.21v-188.08" stroke="#ebebeb" stroke-miterlimit="10" stroke-width=".53349" fill="none"/>
  </g>
  <g clip-path="url(#cl)">
   <path stroke-linejoin="round" d="m310.34 278.21v-188.08" stroke="#ebebeb" stroke-miterlimit="10" stroke-width=".53349" fill="none"/>
  </g>
  <g clip-path="url(#ck)">
   <path stroke-linejoin="round" d="m32.891 104.02h285.01" stroke="#ebebeb" stroke-miterlimit="10" stroke-width="1.067" fill="none"/>
  </g>
  <g clip-path="url(#ci)">
   <path stroke-linejoin="round" d="m32.891 114.71h285.01" stroke="#ebebeb" stroke-miterlimit="10" stroke-width="1.067" fill="none"/>
  </g>
  <g clip-path="url(#ch)">
   <path stroke-linejoin="round" d="m32.891 125.39h285.01" stroke="#ebebeb" stroke-miterlimit="10" stroke-width="1.067" fill="none"/>
  </g>
  <g clip-path="url(#cg)">
   <path stroke-linejoin="round" d="m32.891 136.08h285.01" stroke="#ebebeb" stroke-miterlimit="10" stroke-width="1.067" fill="none"/>
  </g>
  <g clip-path="url(#cf)">
   <path stroke-linejoin="round" d="m32.891 146.77h285.01" stroke="#ebebeb" stroke-miterlimit="10" stroke-width="1.067" fill="none"/>
  </g>
  <g clip-path="url(#ce)">
   <path stroke-linejoin="round" d="m32.891 157.45h285.01" stroke="#ebebeb" stroke-miterlimit="10" stroke-width="1.067" fill="none"/>
  </g>
  <g clip-path="url(#cd)">
   <path stroke-linejoin="round" d="m32.891 168.14h285.01" stroke="#ebebeb" stroke-miterlimit="10" stroke-width="1.067" fill="none"/>
  </g>
  <g clip-path="url(#cc)">
   <path stroke-linejoin="round" d="m32.891 178.83h285.01" stroke="#ebebeb" stroke-miterlimit="10" stroke-width="1.067" fill="none"/>
  </g>
  <g clip-path="url(#cb)">
   <path stroke-linejoin="round" d="m32.891 189.52h285.01" stroke="#ebebeb" stroke-miterlimit="10" stroke-width="1.067" fill="none"/>
  </g>
  <g clip-path="url(#ca)">
   <path stroke-linejoin="round" d="m32.891 200.2h285.01" stroke="#ebebeb" stroke-miterlimit="10" stroke-width="1.067" fill="none"/>
  </g>
  <g clip-path="url(#bz)">
   <path stroke-linejoin="round" d="m32.891 210.89h285.01" stroke="#ebebeb" stroke-miterlimit="10" stroke-width="1.067" fill="none"/>
  </g>
  <g clip-path="url(#bx)">
   <path stroke-linejoin="round" d="m32.891 221.58h285.01" stroke="#ebebeb" stroke-miterlimit="10" stroke-width="1.067" fill="none"/>
  </g>
  <g clip-path="url(#bw)">
   <path stroke-linejoin="round" d="m32.891 232.26h285.01" stroke="#ebebeb" stroke-miterlimit="10" stroke-width="1.067" fill="none"/>
  </g>
  <g clip-path="url(#bv)">
   <path stroke-linejoin="round" d="m32.891 242.95h285.01" stroke="#ebebeb" stroke-miterlimit="10" stroke-width="1.067" fill="none"/>
  </g>
  <g clip-path="url(#bu)">
   <path stroke-linejoin="round" d="m32.891 253.64h285.01" stroke="#ebebeb" stroke-miterlimit="10" stroke-width="1.067" fill="none"/>
  </g>
  <g clip-path="url(#bt)">
   <path stroke-linejoin="round" d="m32.891 264.32h285.01" stroke="#ebebeb" stroke-miterlimit="10" stroke-width="1.067" fill="none"/>
  </g>
  <g clip-path="url(#bs)">
   <path stroke-linejoin="round" d="m51.242 278.21v-188.08" stroke="#ebebeb" stroke-miterlimit="10" stroke-width="1.067" fill="none"/>
  </g>
  <g clip-path="url(#br)">
   <path stroke-linejoin="round" d="m62.039 278.21v-188.08" stroke="#ebebeb" stroke-miterlimit="10" stroke-width="1.067" fill="none"/>
  </g>
  <g clip-path="url(#bq)">
   <path stroke-linejoin="round" d="m72.836 278.21v-188.08" stroke="#ebebeb" stroke-miterlimit="10" stroke-width="1.067" fill="none"/>
  </g>
  <g clip-path="url(#bp)">
   <path stroke-linejoin="round" d="m83.633 278.21v-188.08" stroke="#ebebeb" stroke-miterlimit="10" stroke-width="1.067" fill="none"/>
  </g>
  <g clip-path="url(#bo)">
   <path stroke-linejoin="round" d="m94.426 278.21v-188.08" stroke="#ebebeb" stroke-miterlimit="10" stroke-width="1.067" fill="none"/>
  </g>
  <g clip-path="url(#bm)">
   <path stroke-linejoin="round" d="m105.22 278.21v-188.08" stroke="#ebebeb" stroke-miterlimit="10" stroke-width="1.067" fill="none"/>
  </g>
  <g clip-path="url(#bl)">
   <path stroke-linejoin="round" d="m116.02 278.21v-188.08" stroke="#ebebeb" stroke-miterlimit="10" stroke-width="1.067" fill="none"/>
  </g>
  <g clip-path="url(#bk)">
   <path stroke-linejoin="round" d="m126.82 278.21v-188.08" stroke="#ebebeb" stroke-miterlimit="10" stroke-width="1.067" fill="none"/>
  </g>
  <g clip-path="url(#bj)">
   <path stroke-linejoin="round" d="m137.61 278.21v-188.08" stroke="#ebebeb" stroke-miterlimit="10" stroke-width="1.067" fill="none"/>
  </g>
  <g clip-path="url(#bi)">
   <path stroke-linejoin="round" d="m148.41 278.21v-188.08" stroke="#ebebeb" stroke-miterlimit="10" stroke-width="1.067" fill="none"/>
  </g>
  <g clip-path="url(#bh)">
   <path stroke-linejoin="round" d="m159.2 278.21v-188.08" stroke="#ebebeb" stroke-miterlimit="10" stroke-width="1.067" fill="none"/>
  </g>
  <g clip-path="url(#bg)">
   <path stroke-linejoin="round" d="m170 278.21v-188.08" stroke="#ebebeb" stroke-miterlimit="10" stroke-width="1.067" fill="none"/>
  </g>
  <g clip-path="url(#bf)">
   <path stroke-linejoin="round" d="m180.79 278.21v-188.08" stroke="#ebebeb" stroke-miterlimit="10" stroke-width="1.067" fill="none"/>
  </g>
  <g clip-path="url(#be)">
   <path stroke-linejoin="round" d="m191.59 278.21v-188.08" stroke="#ebebeb" stroke-miterlimit="10" stroke-width="1.067" fill="none"/>
  </g>
  <g clip-path="url(#bd)">
   <path stroke-linejoin="round" d="m202.39 278.21v-188.08" stroke="#ebebeb" stroke-miterlimit="10" stroke-width="1.067" fill="none"/>
  </g>
  <g clip-path="url(#bb)">
   <path stroke-linejoin="round" d="m213.18 278.21v-188.08" stroke="#ebebeb" stroke-miterlimit="10" stroke-width="1.067" fill="none"/>
  </g>
  <g clip-path="url(#ba)">
   <path stroke-linejoin="round" d="m223.98 278.21v-188.08" stroke="#ebebeb" stroke-miterlimit="10" stroke-width="1.067" fill="none"/>
  </g>
  <g clip-path="url(#az)">
   <path stroke-linejoin="round" d="m234.77 278.21v-188.08" stroke="#ebebeb" stroke-miterlimit="10" stroke-width="1.067" fill="none"/>
  </g>
  <g clip-path="url(#ay)">
   <path stroke-linejoin="round" d="m245.57 278.21v-188.08" stroke="#ebebeb" stroke-miterlimit="10" stroke-width="1.067" fill="none"/>
  </g>
  <g clip-path="url(#ax)">
   <path stroke-linejoin="round" d="m256.37 278.21v-188.08" stroke="#ebebeb" stroke-miterlimit="10" stroke-width="1.067" fill="none"/>
  </g>
  <g clip-path="url(#aw)">
   <path stroke-linejoin="round" d="m267.16 278.21v-188.08" stroke="#ebebeb" stroke-miterlimit="10" stroke-width="1.067" fill="none"/>
  </g>
  <g clip-path="url(#av)">
   <path stroke-linejoin="round" d="m277.96 278.21v-188.08" stroke="#ebebeb" stroke-miterlimit="10" stroke-width="1.067" fill="none"/>
  </g>
  <g clip-path="url(#au)">
   <path stroke-linejoin="round" d="m288.75 278.21v-188.08" stroke="#ebebeb" stroke-miterlimit="10" stroke-width="1.067" fill="none"/>
  </g>
  <g clip-path="url(#at)">
   <path stroke-linejoin="round" d="m299.55 278.21v-188.08" stroke="#ebebeb" stroke-miterlimit="10" stroke-width="1.067" fill="none"/>
  </g>
 </g>
 <g stroke-linejoin="round" stroke-opacity=".10196" fill-opacity=".10196" stroke="#e5e5e5" stroke-linecap="round" stroke-miterlimit="10" stroke-width=".70866" fill="#fff">
  <path d="m48.094 107.17h6.301v-6.3h-6.301z"/>
  <path d="m58.887 107.17h6.301v-6.3h-6.301z"/>
  <path d="m69.684 107.17h6.3v-6.3h-6.3z"/>
  <path d="m80.48 107.17h6.301v-6.3h-6.301z"/>
  <path d="m91.277 107.17h6.301v-6.3h-6.301z"/>
  <path d="m102.07 107.17h6.3v-6.3h-6.3z"/>
  <path d="m112.87 107.17h6.3v-6.3h-6.3z"/>
  <path d="m123.66 107.17h6.3v-6.3h-6.3z"/>
  <path d="m134.46 107.17h6.3v-6.3h-6.3z"/>
  <path d="m145.25 107.17h6.3v-6.3h-6.3z"/>
  <path d="m156.05 107.17h6.3v-6.3h-6.3z"/>
  <path d="m166.85 107.17h6.3v-6.3h-6.3z"/>
  <path d="m177.64 107.17h6.31v-6.3h-6.31z"/>
  <path d="m188.44 107.17h6.3v-6.3h-6.3z"/>
  <path d="m199.23 107.17h6.31v-6.3h-6.31z"/>
  <path d="m210.03 107.17h6.3v-6.3h-6.3z"/>
  <path d="m220.83 107.17h6.3v-6.3h-6.3z"/>
  <path d="m231.62 107.17h6.31v-6.3h-6.31z"/>
  <path d="m242.42 107.17h6.3v-6.3h-6.3z"/>
  <path d="m253.21 107.17h6.31v-6.3h-6.31z"/>
  <path d="m264.01 107.17h6.3v-6.3h-6.3z"/>
  <path d="m274.81 107.17h6.3v-6.3h-6.3z"/>
  <path d="m285.6 107.17h6.3v-6.3h-6.3z"/>
  <path d="m296.4 107.17h6.3v-6.3h-6.3z"/>
  <path d="m48.094 117.86h6.301v-6.3h-6.301z"/>
  <path d="m58.887 117.86h6.301v-6.3h-6.301z"/>
  <path d="m69.684 117.86h6.3v-6.3h-6.3z"/>
  <path d="m80.48 117.86h6.301v-6.3h-6.301z"/>
  <path d="m91.277 117.86h6.301v-6.3h-6.301z"/>
  <path d="m102.07 117.86h6.3v-6.3h-6.3z"/>
  <path d="m112.87 117.86h6.3v-6.3h-6.3z"/>
  <path d="m123.66 117.86h6.3v-6.3h-6.3z"/>
  <path d="m134.46 117.86h6.3v-6.3h-6.3z"/>
  <path d="m145.25 117.86h6.3v-6.3h-6.3z"/>
  <path d="m156.05 117.86h6.3v-6.3h-6.3z"/>
  <path d="m166.85 117.86h6.3v-6.3h-6.3z"/>
  <path d="m177.64 117.86h6.31v-6.3h-6.31z"/>
  <path d="m188.44 117.86h6.3v-6.3h-6.3z"/>
  <path d="m199.23 117.86h6.31v-6.3h-6.31z"/>
  <path d="m210.03 117.86h6.3v-6.3h-6.3z"/>
  <path d="m220.83 117.86h6.3v-6.3h-6.3z"/>
  <path d="m231.62 117.86h6.31v-6.3h-6.31z"/>
  <path d="m242.42 117.86h6.3v-6.3h-6.3z"/>
  <path d="m253.21 117.86h6.31v-6.3h-6.31z"/>
  <path d="m264.01 117.86h6.3v-6.3h-6.3z"/>
  <path d="m274.81 117.86h6.3v-6.3h-6.3z"/>
  <path d="m285.6 117.86h6.3v-6.3h-6.3z"/>
  <path d="m296.4 117.86h6.3v-6.3h-6.3z"/>
  <path d="m48.094 128.55h6.301v-6.3h-6.301z"/>
  <path d="m58.887 128.55h6.301v-6.3h-6.301z"/>
  <path d="m69.684 128.55h6.3v-6.3h-6.3z"/>
  <path d="m80.48 128.55h6.301v-6.3h-6.301z"/>
  <path d="m91.277 128.55h6.301v-6.3h-6.301z"/>
  <path d="m102.07 128.55h6.3v-6.3h-6.3z"/>
  <path d="m112.87 128.55h6.3v-6.3h-6.3z"/>
  <path d="m123.66 128.55h6.3v-6.3h-6.3z"/>
  <path d="m134.46 128.55h6.3v-6.3h-6.3z"/>
  <path d="m145.25 128.55h6.3v-6.3h-6.3z"/>
  <path d="m156.05 128.55h6.3v-6.3h-6.3z"/>
  <path d="m166.85 128.55h6.3v-6.3h-6.3z"/>
  <path d="m177.64 128.55h6.31v-6.3h-6.31z"/>
  <path d="m188.44 128.55h6.3v-6.3h-6.3z"/>
  <path d="m199.23 128.55h6.31v-6.3h-6.31z"/>
  <path d="m210.03 128.55h6.3v-6.3h-6.3z"/>
  <path d="m220.83 128.55h6.3v-6.3h-6.3z"/>
  <path d="m231.62 128.55h6.31v-6.3h-6.31z"/>
  <path d="m242.42 128.55h6.3v-6.3h-6.3z"/>
  <path d="m253.21 128.55h6.31v-6.3h-6.31z"/>
  <path d="m264.01 128.55h6.3v-6.3h-6.3z"/>
  <path d="m274.81 128.55h6.3v-6.3h-6.3z"/>
  <path d="m285.6 128.55h6.3v-6.3h-6.3z"/>
  <path d="m296.4 128.55h6.3v-6.3h-6.3z"/>
  <path d="m48.094 139.23h6.301v-6.3h-6.301z"/>
  <path d="m58.887 139.23h6.301v-6.3h-6.301z"/>
  <path d="m69.684 139.23h6.3v-6.3h-6.3z"/>
  <path d="m80.48 139.23h6.301v-6.3h-6.301z"/>
  <path d="m91.277 139.23h6.301v-6.3h-6.301z"/>
  <path d="m102.07 139.23h6.3v-6.3h-6.3z"/>
  <path d="m112.87 139.23h6.3v-6.3h-6.3z"/>
  <path d="m123.66 139.23h6.3v-6.3h-6.3z"/>
  <path d="m134.46 139.23h6.3v-6.3h-6.3z"/>
  <path d="m145.25 139.23h6.3v-6.3h-6.3z"/>
  <path d="m156.05 139.23h6.3v-6.3h-6.3z"/>
  <path d="m166.85 139.23h6.3v-6.3h-6.3z"/>
  <path d="m177.64 139.23h6.31v-6.3h-6.31z"/>
  <path d="m188.44 139.23h6.3v-6.3h-6.3z"/>
  <path d="m199.23 139.23h6.31v-6.3h-6.31z"/>
  <path d="m210.03 139.23h6.3v-6.3h-6.3z"/>
  <path d="m220.83 139.23h6.3v-6.3h-6.3z"/>
  <path d="m231.62 139.23h6.31v-6.3h-6.31z"/>
  <path d="m242.42 139.23h6.3v-6.3h-6.3z"/>
  <path d="m253.21 139.23h6.31v-6.3h-6.31z"/>
  <path d="m264.01 139.23h6.3v-6.3h-6.3z"/>
  <path d="m274.81 139.23h6.3v-6.3h-6.3z"/>
  <path d="m285.6 139.23h6.3v-6.3h-6.3z"/>
  <path d="m296.4 139.23h6.3v-6.3h-6.3z"/>
  <path d="m48.094 149.92h6.301v-6.3h-6.301z"/>
  <path d="m58.887 149.92h6.301v-6.3h-6.301z"/>
  <path d="m69.684 149.92h6.3v-6.3h-6.3z"/>
  <path d="m80.48 149.92h6.301v-6.3h-6.301z"/>
  <path d="m91.277 149.92h6.301v-6.3h-6.301z"/>
  <path d="m102.07 149.92h6.3v-6.3h-6.3z"/>
  <path d="m112.87 149.92h6.3v-6.3h-6.3z"/>
  <path d="m123.66 149.92h6.3v-6.3h-6.3z"/>
  <path d="m134.46 149.92h6.3v-6.3h-6.3z"/>
  <path d="m145.25 149.92h6.3v-6.3h-6.3z"/>
  <path d="m156.05 149.92h6.3v-6.3h-6.3z"/>
  <path d="m166.85 149.92h6.3v-6.3h-6.3z"/>
  <path d="m177.64 149.92h6.31v-6.3h-6.31z"/>
  <path d="m188.44 149.92h6.3v-6.3h-6.3z"/>
  <path d="m199.23 149.92h6.31v-6.3h-6.31z"/>
  <path d="m210.03 149.92h6.3v-6.3h-6.3z"/>
  <path d="m220.83 149.92h6.3v-6.3h-6.3z"/>
  <path d="m231.62 149.92h6.31v-6.3h-6.31z"/>
  <path d="m242.42 149.92h6.3v-6.3h-6.3z"/>
  <path d="m253.21 149.92h6.31v-6.3h-6.31z"/>
  <path d="m264.01 149.92h6.3v-6.3h-6.3z"/>
  <path d="m274.81 149.92h6.3v-6.3h-6.3z"/>
  <path d="m285.6 149.92h6.3v-6.3h-6.3z"/>
  <path d="m296.4 149.92h6.3v-6.3h-6.3z"/>
  <path d="m48.094 160.61h6.301v-6.31h-6.301z"/>
  <path d="m58.887 160.61h6.301v-6.31h-6.301z"/>
  <path d="m69.684 160.61h6.3v-6.31h-6.3z"/>
  <path d="m80.48 160.61h6.301v-6.31h-6.301z"/>
  <path d="m91.277 160.61h6.301v-6.31h-6.301z"/>
  <path d="m102.07 160.61h6.3v-6.31h-6.3z"/>
  <path d="m112.87 160.61h6.3v-6.31h-6.3z"/>
  <path d="m123.66 160.61h6.3v-6.31h-6.3z"/>
  <path d="m134.46 160.61h6.3v-6.31h-6.3z"/>
  <path d="m145.25 160.61h6.3v-6.31h-6.3z"/>
  <path d="m156.05 160.61h6.3v-6.31h-6.3z"/>
  <path d="m166.85 160.61h6.3v-6.31h-6.3z"/>
  <path d="m177.64 160.61h6.31v-6.31h-6.31z"/>
  <path d="m188.44 160.61h6.3v-6.31h-6.3z"/>
  <path d="m199.23 160.61h6.31v-6.31h-6.31z"/>
  <path d="m210.03 160.61h6.3v-6.31h-6.3z"/>
  <path d="m220.83 160.61h6.3v-6.31h-6.3z"/>
  <path d="m231.62 160.61h6.31v-6.31h-6.31z"/>
  <path d="m242.42 160.61h6.3v-6.31h-6.3z"/>
  <path d="m253.21 160.61h6.31v-6.31h-6.31z"/>
  <path d="m264.01 160.61h6.3v-6.31h-6.3z"/>
  <path d="m274.81 160.61h6.3v-6.31h-6.3z"/>
  <path d="m285.6 160.61h6.3v-6.31h-6.3z"/>
  <path d="m296.4 160.61h6.3v-6.31h-6.3z"/>
  <path d="m48.094 171.29h6.301v-6.3h-6.301z"/>
  <path d="m58.887 171.29h6.301v-6.3h-6.301z"/>
  <path d="m69.684 171.29h6.3v-6.3h-6.3z"/>
  <path d="m80.48 171.29h6.301v-6.3h-6.301z"/>
  <path d="m91.277 171.29h6.301v-6.3h-6.301z"/>
  <path d="m102.07 171.29h6.3v-6.3h-6.3z"/>
  <path d="m112.87 171.29h6.3v-6.3h-6.3z"/>
  <path d="m123.66 171.29h6.3v-6.3h-6.3z"/>
  <path d="m134.46 171.29h6.3v-6.3h-6.3z"/>
  <path d="m145.25 171.29h6.3v-6.3h-6.3z"/>
  <path d="m156.05 171.29h6.3v-6.3h-6.3z"/>
  <path d="m166.85 171.29h6.3v-6.3h-6.3z"/>
  <path d="m177.64 171.29h6.31v-6.3h-6.31z"/>
  <path d="m188.44 171.29h6.3v-6.3h-6.3z"/>
  <path d="m199.23 171.29h6.31v-6.3h-6.31z"/>
  <path d="m210.03 171.29h6.3v-6.3h-6.3z"/>
  <path d="m220.83 171.29h6.3v-6.3h-6.3z"/>
  <path d="m231.62 171.29h6.31v-6.3h-6.31z"/>
  <path d="m242.42 171.29h6.3v-6.3h-6.3z"/>
  <path d="m253.21 171.29h6.31v-6.3h-6.31z"/>
  <path d="m264.01 171.29h6.3v-6.3h-6.3z"/>
  <path d="m274.81 171.29h6.3v-6.3h-6.3z"/>
  <path d="m285.6 171.29h6.3v-6.3h-6.3z"/>
  <path d="m296.4 171.29h6.3v-6.3h-6.3z"/>
  <path d="m48.094 181.98h6.301v-6.3h-6.301z"/>
  <path d="m58.887 181.98h6.301v-6.3h-6.301z"/>
  <path d="m69.684 181.98h6.3v-6.3h-6.3z"/>
  <path d="m80.48 181.98h6.301v-6.3h-6.301z"/>
  <path d="m91.277 181.98h6.301v-6.3h-6.301z"/>
  <path d="m102.07 181.98h6.3v-6.3h-6.3z"/>
  <path d="m112.87 181.98h6.3v-6.3h-6.3z"/>
  <path d="m123.66 181.98h6.3v-6.3h-6.3z"/>
  <path d="m134.46 181.98h6.3v-6.3h-6.3z"/>
  <path d="m145.25 181.98h6.3v-6.3h-6.3z"/>
  <path d="m156.05 181.98h6.3v-6.3h-6.3z"/>
  <path d="m166.85 181.98h6.3v-6.3h-6.3z"/>
  <path d="m177.64 181.98h6.31v-6.3h-6.31z"/>
  <path d="m188.44 181.98h6.3v-6.3h-6.3z"/>
  <path d="m199.23 181.98h6.31v-6.3h-6.31z"/>
  <path d="m210.03 181.98h6.3v-6.3h-6.3z"/>
  <path d="m220.83 181.98h6.3v-6.3h-6.3z"/>
  <path d="m231.62 181.98h6.31v-6.3h-6.31z"/>
  <path d="m242.42 181.98h6.3v-6.3h-6.3z"/>
  <path d="m253.21 181.98h6.31v-6.3h-6.31z"/>
  <path d="m264.01 181.98h6.3v-6.3h-6.3z"/>
  <path d="m274.81 181.98h6.3v-6.3h-6.3z"/>
  <path d="m285.6 181.98h6.3v-6.3h-6.3z"/>
  <path d="m296.4 181.98h6.3v-6.3h-6.3z"/>
  <path d="m48.094 192.67h6.301v-6.3h-6.301z"/>
  <path d="m58.887 192.67h6.301v-6.3h-6.301z"/>
  <path d="m69.684 192.67h6.3v-6.3h-6.3z"/>
  <path d="m80.48 192.67h6.301v-6.3h-6.301z"/>
  <path d="m91.277 192.67h6.301v-6.3h-6.301z"/>
  <path d="m102.07 192.67h6.3v-6.3h-6.3z"/>
  <path d="m112.87 192.67h6.3v-6.3h-6.3z"/>
  <path d="m123.66 192.67h6.3v-6.3h-6.3z"/>
  <path d="m134.46 192.67h6.3v-6.3h-6.3z"/>
  <path d="m145.25 192.67h6.3v-6.3h-6.3z"/>
  <path d="m156.05 192.67h6.3v-6.3h-6.3z"/>
  <path d="m166.85 192.67h6.3v-6.3h-6.3z"/>
  <path d="m177.64 192.67h6.31v-6.3h-6.31z"/>
  <path d="m188.44 192.67h6.3v-6.3h-6.3z"/>
  <path d="m199.23 192.67h6.31v-6.3h-6.31z"/>
  <path d="m210.03 192.67h6.3v-6.3h-6.3z"/>
  <path d="m220.83 192.67h6.3v-6.3h-6.3z"/>
  <path d="m231.62 192.67h6.31v-6.3h-6.31z"/>
  <path d="m242.42 192.67h6.3v-6.3h-6.3z"/>
  <path d="m253.21 192.67h6.31v-6.3h-6.31z"/>
  <path d="m264.01 192.67h6.3v-6.3h-6.3z"/>
  <path d="m274.81 192.67h6.3v-6.3h-6.3z"/>
  <path d="m285.6 192.67h6.3v-6.3h-6.3z"/>
  <path d="m296.4 192.67h6.3v-6.3h-6.3z"/>
  <path d="m48.094 203.35h6.301v-6.3h-6.301z"/>
  <path d="m58.887 203.35h6.301v-6.3h-6.301z"/>
  <path d="m69.684 203.35h6.3v-6.3h-6.3z"/>
  <path d="m80.48 203.35h6.301v-6.3h-6.301z"/>
  <path d="m91.277 203.35h6.301v-6.3h-6.301z"/>
  <path d="m102.07 203.35h6.3v-6.3h-6.3z"/>
  <path d="m112.87 203.35h6.3v-6.3h-6.3z"/>
  <path d="m123.66 203.35h6.3v-6.3h-6.3z"/>
  <path d="m134.46 203.35h6.3v-6.3h-6.3z"/>
  <path d="m145.25 203.35h6.3v-6.3h-6.3z"/>
  <path d="m156.05 203.35h6.3v-6.3h-6.3z"/>
  <path d="m166.85 203.35h6.3v-6.3h-6.3z"/>
  <path d="m177.64 203.35h6.31v-6.3h-6.31z"/>
  <path d="m188.44 203.35h6.3v-6.3h-6.3z"/>
  <path d="m199.23 203.35h6.31v-6.3h-6.31z"/>
  <path d="m210.03 203.35h6.3v-6.3h-6.3z"/>
  <path d="m220.83 203.35h6.3v-6.3h-6.3z"/>
  <path d="m231.62 203.35h6.31v-6.3h-6.31z"/>
  <path d="m242.42 203.35h6.3v-6.3h-6.3z"/>
  <path d="m253.21 203.35h6.31v-6.3h-6.31z"/>
  <path d="m264.01 203.35h6.3v-6.3h-6.3z"/>
  <path d="m274.81 203.35h6.3v-6.3h-6.3z"/>
  <path d="m285.6 203.35h6.3v-6.3h-6.3z"/>
  <path d="m296.4 203.35h6.3v-6.3h-6.3z"/>
  <path d="m48.094 214.04h6.301v-6.3h-6.301z"/>
  <path d="m58.887 214.04h6.301v-6.3h-6.301z"/>
  <path d="m69.684 214.04h6.3v-6.3h-6.3z"/>
  <path d="m80.48 214.04h6.301v-6.3h-6.301z"/>
  <path d="m91.277 214.04h6.301v-6.3h-6.301z"/>
  <path d="m102.07 214.04h6.3v-6.3h-6.3z"/>
  <path d="m112.87 214.04h6.3v-6.3h-6.3z"/>
  <path d="m123.66 214.04h6.3v-6.3h-6.3z"/>
  <path d="m134.46 214.04h6.3v-6.3h-6.3z"/>
  <path d="m145.25 214.04h6.3v-6.3h-6.3z"/>
  <path d="m156.05 214.04h6.3v-6.3h-6.3z"/>
  <path d="m166.85 214.04h6.3v-6.3h-6.3z"/>
  <path d="m177.64 214.04h6.31v-6.3h-6.31z"/>
  <path d="m188.44 214.04h6.3v-6.3h-6.3z"/>
  <path d="m199.23 214.04h6.31v-6.3h-6.31z"/>
  <path d="m210.03 214.04h6.3v-6.3h-6.3z"/>
  <path d="m220.83 214.04h6.3v-6.3h-6.3z"/>
  <path d="m231.62 214.04h6.31v-6.3h-6.31z"/>
  <path d="m242.42 214.04h6.3v-6.3h-6.3z"/>
  <path d="m253.21 214.04h6.31v-6.3h-6.31z"/>
  <path d="m264.01 214.04h6.3v-6.3h-6.3z"/>
  <path d="m274.81 214.04h6.3v-6.3h-6.3z"/>
  <path d="m285.6 214.04h6.3v-6.3h-6.3z"/>
  <path d="m296.4 214.04h6.3v-6.3h-6.3z"/>
  <path d="m48.094 224.73h6.301v-6.3h-6.301z"/>
  <path d="m58.887 224.73h6.301v-6.3h-6.301z"/>
  <path d="m69.684 224.73h6.3v-6.3h-6.3z"/>
  <path d="m80.48 224.73h6.301v-6.3h-6.301z"/>
  <path d="m91.277 224.73h6.301v-6.3h-6.301z"/>
  <path d="m102.07 224.73h6.3v-6.3h-6.3z"/>
  <path d="m112.87 224.73h6.3v-6.3h-6.3z"/>
  <path d="m123.66 224.73h6.3v-6.3h-6.3z"/>
  <path d="m134.46 224.73h6.3v-6.3h-6.3z"/>
  <path d="m145.25 224.73h6.3v-6.3h-6.3z"/>
  <path d="m156.05 224.73h6.3v-6.3h-6.3z"/>
  <path d="m166.85 224.73h6.3v-6.3h-6.3z"/>
  <path d="m177.64 224.73h6.31v-6.3h-6.31z"/>
  <path d="m188.44 224.73h6.3v-6.3h-6.3z"/>
  <path d="m199.23 224.73h6.31v-6.3h-6.31z"/>
  <path d="m210.03 224.73h6.3v-6.3h-6.3z"/>
  <path d="m220.83 224.73h6.3v-6.3h-6.3z"/>
  <path d="m231.62 224.73h6.31v-6.3h-6.31z"/>
  <path d="m242.42 224.73h6.3v-6.3h-6.3z"/>
  <path d="m253.21 224.73h6.31v-6.3h-6.31z"/>
  <path d="m264.01 224.73h6.3v-6.3h-6.3z"/>
  <path d="m274.81 224.73h6.3v-6.3h-6.3z"/>
  <path d="m285.6 224.73h6.3v-6.3h-6.3z"/>
  <path d="m296.4 224.73h6.3v-6.3h-6.3z"/>
  <path d="m48.094 235.41h6.301v-6.3h-6.301z"/>
  <path d="m58.887 235.41h6.301v-6.3h-6.301z"/>
  <path d="m69.684 235.41h6.3v-6.3h-6.3z"/>
  <path d="m80.48 235.41h6.301v-6.3h-6.301z"/>
  <path d="m91.277 235.41h6.301v-6.3h-6.301z"/>
  <path d="m102.07 235.41h6.3v-6.3h-6.3z"/>
  <path d="m112.87 235.41h6.3v-6.3h-6.3z"/>
  <path d="m123.66 235.41h6.3v-6.3h-6.3z"/>
  <path d="m134.46 235.41h6.3v-6.3h-6.3z"/>
  <path d="m145.25 235.41h6.3v-6.3h-6.3z"/>
  <path d="m156.05 235.41h6.3v-6.3h-6.3z"/>
  <path d="m166.85 235.41h6.3v-6.3h-6.3z"/>
  <path d="m177.64 235.41h6.31v-6.3h-6.31z"/>
  <path d="m188.44 235.41h6.3v-6.3h-6.3z"/>
  <path d="m199.23 235.41h6.31v-6.3h-6.31z"/>
  <path d="m210.03 235.41h6.3v-6.3h-6.3z"/>
  <path d="m220.83 235.41h6.3v-6.3h-6.3z"/>
  <path d="m231.62 235.41h6.31v-6.3h-6.31z"/>
  <path d="m242.42 235.41h6.3v-6.3h-6.3z"/>
  <path d="m253.21 235.41h6.31v-6.3h-6.31z"/>
  <path d="m264.01 235.41h6.3v-6.3h-6.3z"/>
  <path d="m274.81 235.41h6.3v-6.3h-6.3z"/>
  <path d="m285.6 235.41h6.3v-6.3h-6.3z"/>
  <path d="m296.4 235.41h6.3v-6.3h-6.3z"/>
  <path d="m48.094 246.1h6.301v-6.3h-6.301z"/>
  <path d="m58.887 246.1h6.301v-6.3h-6.301z"/>
  <path d="m69.684 246.1h6.3v-6.3h-6.3z"/>
  <path d="m80.48 246.1h6.301v-6.3h-6.301z"/>
  <path d="m91.277 246.1h6.301v-6.3h-6.301z"/>
  <path d="m102.07 246.1h6.3v-6.3h-6.3z"/>
  <path d="m112.87 246.1h6.3v-6.3h-6.3z"/>
  <path d="m123.66 246.1h6.3v-6.3h-6.3z"/>
  <path d="m134.46 246.1h6.3v-6.3h-6.3z"/>
  <path d="m145.25 246.1h6.3v-6.3h-6.3z"/>
  <path d="m156.05 246.1h6.3v-6.3h-6.3z"/>
  <path d="m166.85 246.1h6.3v-6.3h-6.3z"/>
  <path d="m177.64 246.1h6.31v-6.3h-6.31z"/>
  <path d="m188.44 246.1h6.3v-6.3h-6.3z"/>
  <path d="m199.23 246.1h6.31v-6.3h-6.31z"/>
  <path d="m210.03 246.1h6.3v-6.3h-6.3z"/>
  <path d="m220.83 246.1h6.3v-6.3h-6.3z"/>
  <path d="m231.62 246.1h6.31v-6.3h-6.31z"/>
  <path d="m242.42 246.1h6.3v-6.3h-6.3z"/>
  <path d="m253.21 246.1h6.31v-6.3h-6.31z"/>
  <path d="m264.01 246.1h6.3v-6.3h-6.3z"/>
  <path d="m274.81 246.1h6.3v-6.3h-6.3z"/>
  <path d="m285.6 246.1h6.3v-6.3h-6.3z"/>
  <path d="m296.4 246.1h6.3v-6.3h-6.3z"/>
  <path d="m48.094 256.79h6.301v-6.3h-6.301z"/>
  <path d="m58.887 256.79h6.301v-6.3h-6.301z"/>
  <path d="m69.684 256.79h6.3v-6.3h-6.3z"/>
  <path d="m80.48 256.79h6.301v-6.3h-6.301z"/>
  <path d="m91.277 256.79h6.301v-6.3h-6.301z"/>
  <path d="m102.07 256.79h6.3v-6.3h-6.3z"/>
  <path d="m112.87 256.79h6.3v-6.3h-6.3z"/>
  <path d="m123.66 256.79h6.3v-6.3h-6.3z"/>
  <path d="m134.46 256.79h6.3v-6.3h-6.3z"/>
  <path d="m145.25 256.79h6.3v-6.3h-6.3z"/>
  <path d="m156.05 256.79h6.3v-6.3h-6.3z"/>
  <path d="m166.85 256.79h6.3v-6.3h-6.3z"/>
  <path d="m177.64 256.79h6.31v-6.3h-6.31z"/>
  <path d="m188.44 256.79h6.3v-6.3h-6.3z"/>
  <path d="m199.23 256.79h6.31v-6.3h-6.31z"/>
  <path d="m210.03 256.79h6.3v-6.3h-6.3z"/>
  <path d="m220.83 256.79h6.3v-6.3h-6.3z"/>
  <path d="m231.62 256.79h6.31v-6.3h-6.31z"/>
  <path d="m242.42 256.79h6.3v-6.3h-6.3z"/>
  <path d="m253.21 256.79h6.31v-6.3h-6.31z"/>
  <path d="m264.01 256.79h6.3v-6.3h-6.3z"/>
  <path d="m274.81 256.79h6.3v-6.3h-6.3z"/>
  <path d="m285.6 256.79h6.3v-6.3h-6.3z"/>
  <path d="m296.4 256.79h6.3v-6.3h-6.3z"/>
  <path d="m48.094 267.47h6.301v-6.3h-6.301z"/>
  <path d="m58.887 267.47h6.301v-6.3h-6.301z"/>
  <path d="m69.684 267.47h6.3v-6.3h-6.3z"/>
  <path d="m80.48 267.47h6.301v-6.3h-6.301z"/>
  <path d="m91.277 267.47h6.301v-6.3h-6.301z"/>
  <path d="m102.07 267.47h6.3v-6.3h-6.3z"/>
  <path d="m112.87 267.47h6.3v-6.3h-6.3z"/>
  <path d="m123.66 267.47h6.3v-6.3h-6.3z"/>
  <path d="m134.46 267.47h6.3v-6.3h-6.3z"/>
  <path d="m145.25 267.47h6.3v-6.3h-6.3z"/>
  <path d="m156.05 267.47h6.3v-6.3h-6.3z"/>
  <path d="m166.85 267.47h6.3v-6.3h-6.3z"/>
  <path d="m177.64 267.47h6.31v-6.3h-6.31z"/>
  <path d="m188.44 267.47h6.3v-6.3h-6.3z"/>
  <path d="m199.23 267.47h6.31v-6.3h-6.31z"/>
  <path d="m210.03 267.47h6.3v-6.3h-6.3z"/>
  <path d="m220.83 267.47h6.3v-6.3h-6.3z"/>
  <path d="m231.62 267.47h6.31v-6.3h-6.31z"/>
  <path d="m242.42 267.47h6.3v-6.3h-6.3z"/>
  <path d="m253.21 267.47h6.31v-6.3h-6.31z"/>
  <path d="m264.01 267.47h6.3v-6.3h-6.3z"/>
  <path d="m274.81 267.47h6.3v-6.3h-6.3z"/>
  <path d="m285.6 267.47h6.3v-6.3h-6.3z"/>
  <path d="m296.4 267.47h6.3v-6.3h-6.3z"/>
 </g>
 <g stroke-linejoin="round" stroke="#333" stroke-linecap="round" stroke-miterlimit="10" stroke-width=".70866">
  <path d="m46.203 109.06h10.082v-10.08h-10.082z" fill="#f8766c"/>
  <path d="m56.996 109.06h10.082v-10.08h-10.082z" fill="#c39a00"/>
  <path d="m67.793 109.06h10.082v-10.08h-10.082z" fill="#53b300"/>
  <path d="m78.59 109.06h10.082v-10.08h-10.082z" fill="#00c094"/>
  <path d="m89.387 109.06h10.082v-10.08h-10.082z" fill="#00b5eb"/>
  <path d="m100.18 109.06h10.08v-10.08h-10.08z" fill="#a489ff"/>
  <path d="m110.98 109.06h10.08v-10.08h-10.08z" fill="#fb61d6"/>
  <path d="m121.77 109.06h10.09v-10.08h-10.09z" fill="#f8766c"/>
  <path d="m132.57 109.06h10.08v-10.08h-10.08z" fill="#c39a00"/>
  <path d="m143.36 109.06h10.09v-10.08h-10.09z" fill="#53b300"/>
  <path d="m154.16 109.06h10.08v-10.08h-10.08z" fill="#00c094"/>
  <path d="m164.96 109.06h10.08v-10.08h-10.08z" fill="#00b5eb"/>
  <path d="m175.75 109.06h10.09v-10.08h-10.09z" fill="#a489ff"/>
  <path d="m186.55 109.06h10.08v-10.08h-10.08z" fill="#fb61d6"/>
  <path d="m197.34 109.06h10.09v-10.08h-10.09z" fill="#f8766c"/>
  <path d="m208.14 109.06h10.08v-10.08h-10.08z" fill="#c39a00"/>
  <path d="m218.94 109.06h10.08v-10.08h-10.08z" fill="#53b300"/>
  <path d="m229.73 109.06h10.08v-10.08h-10.08z" fill="#00c094"/>
  <path d="m240.53 109.06h10.08v-10.08h-10.08z" fill="#00b5eb"/>
  <path d="m251.32 109.06h10.09v-10.08h-10.09z" fill="#a489ff"/>
  <path d="m262.12 109.06h10.08v-10.08h-10.08z" fill="#fb61d6"/>
 </g>
 <g stroke-linejoin="round" stroke="#333" stroke-linecap="round" stroke-miterlimit="10" stroke-width=".70866" fill="#7f7f7f">
  <path d="m272.91 109.06h10.09v-10.08h-10.09z"/>
  <path d="m283.71 109.06h10.08v-10.08h-10.08z"/>
  <path d="m294.51 109.06h10.08v-10.08h-10.08z"/>
 </g>
 <g stroke-linejoin="round" stroke="#333" stroke-linecap="round" stroke-miterlimit="10" stroke-width=".70866">
  <path d="m46.203 119.75h10.082v-10.08h-10.082z" fill="#f8766c"/>
  <path d="m56.996 119.75h10.082v-10.08h-10.082z" fill="#c39a00"/>
  <path d="m67.793 119.75h10.082v-10.08h-10.082z" fill="#53b300"/>
  <path d="m78.59 119.75h10.082v-10.08h-10.082z" fill="#00c094"/>
  <path d="m89.387 119.75h10.082v-10.08h-10.082z" fill="#00b5eb"/>
  <path d="m100.18 119.75h10.08v-10.08h-10.08z" fill="#a489ff"/>
  <path d="m110.98 119.75h10.08v-10.08h-10.08z" fill="#fb61d6"/>
  <path d="m121.77 119.75h10.09v-10.08h-10.09z" fill="#f8766c"/>
  <path d="m132.57 119.75h10.08v-10.08h-10.08z" fill="#c39a00"/>
  <path d="m143.36 119.75h10.09v-10.08h-10.09z" fill="#53b300"/>
  <path d="m154.16 119.75h10.08v-10.08h-10.08z" fill="#00c094"/>
  <path d="m164.96 119.75h10.08v-10.08h-10.08z" fill="#00b5eb"/>
  <path d="m175.75 119.75h10.09v-10.08h-10.09z" fill="#a489ff"/>
  <path d="m186.55 119.75h10.08v-10.08h-10.08z" fill="#fb61d6"/>
  <path d="m197.34 119.75h10.09v-10.08h-10.09z" fill="#f8766c"/>
  <path d="m208.14 119.75h10.08v-10.08h-10.08z" fill="#c39a00"/>
  <path d="m218.94 119.75h10.08v-10.08h-10.08z" fill="#53b300"/>
  <path d="m229.73 119.75h10.08v-10.08h-10.08z" fill="#00c094"/>
  <path d="m240.53 119.75h10.08v-10.08h-10.08z" fill="#00b5eb"/>
  <path d="m251.32 119.75h10.09v-10.08h-10.09z" fill="#a489ff"/>
  <path d="m262.12 119.75h10.08v-10.08h-10.08z" fill="#fb61d6"/>
 </g>
 <g stroke-linejoin="round" stroke="#333" stroke-linecap="round" stroke-miterlimit="10" stroke-width=".70866" fill="#7f7f7f">
  <path d="m272.91 119.75h10.09v-10.08h-10.09z"/>
  <path d="m283.71 119.75h10.08v-10.08h-10.08z"/>
  <path d="m294.51 119.75h10.08v-10.08h-10.08z"/>
 </g>
 <g stroke-linejoin="round" stroke="#333" stroke-linecap="round" stroke-miterlimit="10" stroke-width=".70866">
  <path d="m46.203 130.44h10.082v-10.08h-10.082z" fill="#f8766c"/>
  <path d="m56.996 130.44h10.082v-10.08h-10.082z" fill="#c39a00"/>
  <path d="m67.793 130.44h10.082v-10.08h-10.082z" fill="#53b300"/>
  <path d="m78.59 130.44h10.082v-10.08h-10.082z" fill="#00c094"/>
  <path d="m89.387 130.44h10.082v-10.08h-10.082z" fill="#00b5eb"/>
  <path d="m100.18 130.44h10.08v-10.08h-10.08z" fill="#a489ff"/>
  <path d="m110.98 130.44h10.08v-10.08h-10.08z" fill="#fb61d6"/>
  <path d="m121.77 130.44h10.09v-10.08h-10.09z" fill="#f8766c"/>
  <path d="m132.57 130.44h10.08v-10.08h-10.08z" fill="#c39a00"/>
  <path d="m143.36 130.44h10.09v-10.08h-10.09z" fill="#53b300"/>
  <path d="m154.16 130.44h10.08v-10.08h-10.08z" fill="#00c094"/>
  <path d="m164.96 130.44h10.08v-10.08h-10.08z" fill="#00b5eb"/>
  <path d="m175.75 130.44h10.09v-10.08h-10.09z" fill="#a489ff"/>
  <path d="m186.55 130.44h10.08v-10.08h-10.08z" fill="#fb61d6"/>
  <path d="m197.34 130.44h10.09v-10.08h-10.09z" fill="#f8766c"/>
  <path d="m208.14 130.44h10.08v-10.08h-10.08z" fill="#c39a00"/>
  <path d="m218.94 130.44h10.08v-10.08h-10.08z" fill="#53b300"/>
  <path d="m229.73 130.44h10.08v-10.08h-10.08z" fill="#00c094"/>
  <path d="m240.53 130.44h10.08v-10.08h-10.08z" fill="#00b5eb"/>
  <path d="m251.32 130.44h10.09v-10.08h-10.09z" fill="#a489ff"/>
  <path d="m262.12 130.44h10.08v-10.08h-10.08z" fill="#fb61d6"/>
 </g>
 <g stroke-linejoin="round" stroke="#333" stroke-linecap="round" stroke-miterlimit="10" stroke-width=".70866" fill="#7f7f7f">
  <path d="m272.91 130.44h10.09v-10.08h-10.09z"/>
  <path d="m283.71 130.44h10.08v-10.08h-10.08z"/>
  <path d="m294.51 130.44h10.08v-10.08h-10.08z"/>
 </g>
 <g stroke-linejoin="round" stroke="#333" stroke-linecap="round" stroke-miterlimit="10" stroke-width=".70866">
  <path d="m46.203 141.12h10.082v-10.08h-10.082z" fill="#f8766c"/>
  <path d="m56.996 141.12h10.082v-10.08h-10.082z" fill="#c39a00"/>
  <path d="m67.793 141.12h10.082v-10.08h-10.082z" fill="#53b300"/>
  <path d="m78.59 141.12h10.082v-10.08h-10.082z" fill="#00c094"/>
  <path d="m89.387 141.12h10.082v-10.08h-10.082z" fill="#00b5eb"/>
  <path d="m100.18 141.12h10.08v-10.08h-10.08z" fill="#a489ff"/>
  <path d="m110.98 141.12h10.08v-10.08h-10.08z" fill="#fb61d6"/>
  <path d="m121.77 141.12h10.09v-10.08h-10.09z" fill="#f8766c"/>
  <path d="m132.57 141.12h10.08v-10.08h-10.08z" fill="#c39a00"/>
  <path d="m143.36 141.12h10.09v-10.08h-10.09z" fill="#53b300"/>
  <path d="m154.16 141.12h10.08v-10.08h-10.08z" fill="#00c094"/>
  <path d="m164.96 141.12h10.08v-10.08h-10.08z" fill="#00b5eb"/>
  <path d="m175.75 141.12h10.09v-10.08h-10.09z" fill="#a489ff"/>
  <path d="m186.55 141.12h10.08v-10.08h-10.08z" fill="#fb61d6"/>
  <path d="m197.34 141.12h10.09v-10.08h-10.09z" fill="#f8766c"/>
  <path d="m208.14 141.12h10.08v-10.08h-10.08z" fill="#c39a00"/>
  <path d="m218.94 141.12h10.08v-10.08h-10.08z" fill="#53b300"/>
  <path d="m229.73 141.12h10.08v-10.08h-10.08z" fill="#00c094"/>
  <path d="m240.53 141.12h10.08v-10.08h-10.08z" fill="#00b5eb"/>
  <path d="m251.32 141.12h10.09v-10.08h-10.09z" fill="#a489ff"/>
  <path d="m262.12 141.12h10.08v-10.08h-10.08z" fill="#fb61d6"/>
 </g>
 <g stroke-linejoin="round" stroke="#333" stroke-linecap="round" stroke-miterlimit="10" stroke-width=".70866" fill="#7f7f7f">
  <path d="m272.91 141.12h10.09v-10.08h-10.09z"/>
  <path d="m283.71 141.12h10.08v-10.08h-10.08z"/>
  <path d="m294.51 141.12h10.08v-10.08h-10.08z"/>
 </g>
 <g stroke-linejoin="round" stroke="#333" stroke-linecap="round" stroke-miterlimit="10" stroke-width=".70866">
  <path d="m46.203 151.81h10.082v-10.08h-10.082z" fill="#f8766c"/>
  <path d="m56.996 151.81h10.082v-10.08h-10.082z" fill="#c39a00"/>
  <path d="m67.793 151.81h10.082v-10.08h-10.082z" fill="#53b300"/>
  <path d="m78.59 151.81h10.082v-10.08h-10.082z" fill="#00c094"/>
  <path d="m89.387 151.81h10.082v-10.08h-10.082z" fill="#00b5eb"/>
  <path d="m100.18 151.81h10.08v-10.08h-10.08z" fill="#a489ff"/>
  <path d="m110.98 151.81h10.08v-10.08h-10.08z" fill="#fb61d6"/>
  <path d="m121.77 151.81h10.09v-10.08h-10.09z" fill="#f8766c"/>
  <path d="m132.57 151.81h10.08v-10.08h-10.08z" fill="#c39a00"/>
  <path d="m143.36 151.81h10.09v-10.08h-10.09z" fill="#53b300"/>
  <path d="m154.16 151.81h10.08v-10.08h-10.08z" fill="#00c094"/>
  <path d="m164.96 151.81h10.08v-10.08h-10.08z" fill="#00b5eb"/>
  <path d="m175.75 151.81h10.09v-10.08h-10.09z" fill="#a489ff"/>
  <path d="m186.55 151.81h10.08v-10.08h-10.08z" fill="#fb61d6"/>
  <path d="m197.34 151.81h10.09v-10.08h-10.09z" fill="#f8766c"/>
  <path d="m208.14 151.81h10.08v-10.08h-10.08z" fill="#c39a00"/>
  <path d="m218.94 151.81h10.08v-10.08h-10.08z" fill="#53b300"/>
  <path d="m229.73 151.81h10.08v-10.08h-10.08z" fill="#00c094"/>
  <path d="m240.53 151.81h10.08v-10.08h-10.08z" fill="#00b5eb"/>
  <path d="m251.32 151.81h10.09v-10.08h-10.09z" fill="#a489ff"/>
  <path d="m262.12 151.81h10.08v-10.08h-10.08z" fill="#fb61d6"/>
 </g>
 <g stroke-linejoin="round" stroke="#333" stroke-linecap="round" stroke-miterlimit="10" stroke-width=".70866" fill="#7f7f7f">
  <path d="m272.91 151.81h10.09v-10.08h-10.09z"/>
  <path d="m283.71 151.81h10.08v-10.08h-10.08z"/>
  <path d="m294.51 151.81h10.08v-10.08h-10.08z"/>
 </g>
 <g stroke-linejoin="round" stroke="#333" stroke-linecap="round" stroke-miterlimit="10" stroke-width=".70866">
  <path d="m46.203 162.5h10.082v-10.09h-10.082z" fill="#f8766c"/>
  <path d="m56.996 162.5h10.082v-10.09h-10.082z" fill="#c39a00"/>
  <path d="m67.793 162.5h10.082v-10.09h-10.082z" fill="#53b300"/>
  <path d="m78.59 162.5h10.082v-10.09h-10.082z" fill="#00c094"/>
  <path d="m89.387 162.5h10.082v-10.09h-10.082z" fill="#00b5eb"/>
  <path d="m100.18 162.5h10.08v-10.09h-10.08z" fill="#a489ff"/>
  <path d="m110.98 162.5h10.08v-10.09h-10.08z" fill="#fb61d6"/>
  <path d="m121.77 162.5h10.09v-10.09h-10.09z" fill="#f8766c"/>
  <path d="m132.57 162.5h10.08v-10.09h-10.08z" fill="#c39a00"/>
  <path d="m143.36 162.5h10.09v-10.09h-10.09z" fill="#53b300"/>
  <path d="m154.16 162.5h10.08v-10.09h-10.08z" fill="#00c094"/>
  <path d="m164.96 162.5h10.08v-10.09h-10.08z" fill="#00b5eb"/>
  <path d="m175.75 162.5h10.09v-10.09h-10.09z" fill="#a489ff"/>
  <path d="m186.55 162.5h10.08v-10.09h-10.08z" fill="#fb61d6"/>
  <path d="m197.34 162.5h10.09v-10.09h-10.09z" fill="#f8766c"/>
  <path d="m208.14 162.5h10.08v-10.09h-10.08z" fill="#c39a00"/>
  <path d="m218.94 162.5h10.08v-10.09h-10.08z" fill="#53b300"/>
  <path d="m229.73 162.5h10.08v-10.09h-10.08z" fill="#00c094"/>
  <path d="m240.53 162.5h10.08v-10.09h-10.08z" fill="#00b5eb"/>
  <path d="m251.32 162.5h10.09v-10.09h-10.09z" fill="#a489ff"/>
  <path d="m262.12 162.5h10.08v-10.09h-10.08z" fill="#fb61d6"/>
 </g>
 <g stroke-linejoin="round" stroke="#333" stroke-linecap="round" stroke-miterlimit="10" stroke-width=".70866" fill="#7f7f7f">
  <path d="m272.91 162.5h10.09v-10.09h-10.09z"/>
  <path d="m283.71 162.5h10.08v-10.09h-10.08z"/>
  <path d="m294.51 162.5h10.08v-10.09h-10.08z"/>
 </g>
 <g stroke-linejoin="round" stroke="#333" stroke-linecap="round" stroke-miterlimit="10" stroke-width=".70866">
  <path d="m46.203 173.18h10.082v-10.08h-10.082z" fill="#f8766c"/>
  <path d="m56.996 173.18h10.082v-10.08h-10.082z" fill="#c39a00"/>
  <path d="m67.793 173.18h10.082v-10.08h-10.082z" fill="#53b300"/>
  <path d="m78.59 173.18h10.082v-10.08h-10.082z" fill="#00c094"/>
  <path d="m89.387 173.18h10.082v-10.08h-10.082z" fill="#00b5eb"/>
  <path d="m100.18 173.18h10.08v-10.08h-10.08z" fill="#a489ff"/>
  <path d="m110.98 173.18h10.08v-10.08h-10.08z" fill="#fb61d6"/>
  <path d="m121.77 173.18h10.09v-10.08h-10.09z" fill="#f8766c"/>
  <path d="m132.57 173.18h10.08v-10.08h-10.08z" fill="#c39a00"/>
  <path d="m143.36 173.18h10.09v-10.08h-10.09z" fill="#53b300"/>
  <path d="m154.16 173.18h10.08v-10.08h-10.08z" fill="#00c094"/>
  <path d="m164.96 173.18h10.08v-10.08h-10.08z" fill="#00b5eb"/>
  <path d="m175.75 173.18h10.09v-10.08h-10.09z" fill="#a489ff"/>
  <path d="m186.55 173.18h10.08v-10.08h-10.08z" fill="#fb61d6"/>
  <path d="m197.34 173.18h10.09v-10.08h-10.09z" fill="#f8766c"/>
  <path d="m208.14 173.18h10.08v-10.08h-10.08z" fill="#c39a00"/>
  <path d="m218.94 173.18h10.08v-10.08h-10.08z" fill="#53b300"/>
  <path d="m229.73 173.18h10.08v-10.08h-10.08z" fill="#00c094"/>
  <path d="m240.53 173.18h10.08v-10.08h-10.08z" fill="#00b5eb"/>
  <path d="m251.32 173.18h10.09v-10.08h-10.09z" fill="#a489ff"/>
  <path d="m262.12 173.18h10.08v-10.08h-10.08z" fill="#fb61d6"/>
 </g>
 <g stroke-linejoin="round" stroke="#333" stroke-linecap="round" stroke-miterlimit="10" stroke-width=".70866" fill="#7f7f7f">
  <path d="m272.91 173.18h10.09v-10.08h-10.09z"/>
  <path d="m283.71 173.18h10.08v-10.08h-10.08z"/>
  <path d="m294.51 173.18h10.08v-10.08h-10.08z"/>
 </g>
 <g stroke-linejoin="round" stroke="#333" stroke-linecap="round" stroke-miterlimit="10" stroke-width=".70866">
  <path d="m46.203 183.87h10.082v-10.08h-10.082z" fill="#f8766c"/>
  <path d="m56.996 183.87h10.082v-10.08h-10.082z" fill="#c39a00"/>
  <path d="m67.793 183.87h10.082v-10.08h-10.082z" fill="#53b300"/>
  <path d="m78.59 183.87h10.082v-10.08h-10.082z" fill="#00c094"/>
  <path d="m89.387 183.87h10.082v-10.08h-10.082z" fill="#00b5eb"/>
  <path d="m100.18 183.87h10.08v-10.08h-10.08z" fill="#a489ff"/>
  <path d="m110.98 183.87h10.08v-10.08h-10.08z" fill="#fb61d6"/>
  <path d="m121.77 183.87h10.09v-10.08h-10.09z" fill="#f8766c"/>
  <path d="m132.57 183.87h10.08v-10.08h-10.08z" fill="#c39a00"/>
  <path d="m143.36 183.87h10.09v-10.08h-10.09z" fill="#53b300"/>
  <path d="m154.16 183.87h10.08v-10.08h-10.08z" fill="#00c094"/>
  <path d="m164.96 183.87h10.08v-10.08h-10.08z" fill="#00b5eb"/>
  <path d="m175.75 183.87h10.09v-10.08h-10.09z" fill="#a489ff"/>
  <path d="m186.55 183.87h10.08v-10.08h-10.08z" fill="#fb61d6"/>
  <path d="m197.34 183.87h10.09v-10.08h-10.09z" fill="#f8766c"/>
  <path d="m208.14 183.87h10.08v-10.08h-10.08z" fill="#c39a00"/>
  <path d="m218.94 183.87h10.08v-10.08h-10.08z" fill="#53b300"/>
  <path d="m229.73 183.87h10.08v-10.08h-10.08z" fill="#00c094"/>
  <path d="m240.53 183.87h10.08v-10.08h-10.08z" fill="#00b5eb"/>
  <path d="m251.32 183.87h10.09v-10.08h-10.09z" fill="#a489ff"/>
  <path d="m262.12 183.87h10.08v-10.08h-10.08z" fill="#fb61d6"/>
 </g>
 <g stroke-linejoin="round" stroke="#333" stroke-linecap="round" stroke-miterlimit="10" stroke-width=".70866" fill="#7f7f7f">
  <path d="m272.91 183.87h10.09v-10.08h-10.09z"/>
  <path d="m283.71 183.87h10.08v-10.08h-10.08z"/>
  <path d="m294.51 183.87h10.08v-10.08h-10.08z"/>
 </g>
 <g stroke-linejoin="round" stroke="#333" stroke-linecap="round" stroke-miterlimit="10" stroke-width=".70866">
  <path d="m46.203 194.56h10.082v-10.08h-10.082z" fill="#f8766c"/>
  <path d="m56.996 194.56h10.082v-10.08h-10.082z" fill="#c39a00"/>
  <path d="m67.793 194.56h10.082v-10.08h-10.082z" fill="#53b300"/>
  <path d="m78.59 194.56h10.082v-10.08h-10.082z" fill="#00c094"/>
  <path d="m89.387 194.56h10.082v-10.08h-10.082z" fill="#00b5eb"/>
  <path d="m100.18 194.56h10.08v-10.08h-10.08z" fill="#a489ff"/>
  <path d="m110.98 194.56h10.08v-10.08h-10.08z" fill="#fb61d6"/>
  <path d="m121.77 194.56h10.09v-10.08h-10.09z" fill="#f8766c"/>
  <path d="m132.57 194.56h10.08v-10.08h-10.08z" fill="#c39a00"/>
  <path d="m143.36 194.56h10.09v-10.08h-10.09z" fill="#53b300"/>
  <path d="m154.16 194.56h10.08v-10.08h-10.08z" fill="#00c094"/>
  <path d="m164.96 194.56h10.08v-10.08h-10.08z" fill="#00b5eb"/>
  <path d="m175.75 194.56h10.09v-10.08h-10.09z" fill="#a489ff"/>
  <path d="m186.55 194.56h10.08v-10.08h-10.08z" fill="#fb61d6"/>
  <path d="m197.34 194.56h10.09v-10.08h-10.09z" fill="#f8766c"/>
  <path d="m208.14 194.56h10.08v-10.08h-10.08z" fill="#c39a00"/>
  <path d="m218.94 194.56h10.08v-10.08h-10.08z" fill="#53b300"/>
  <path d="m229.73 194.56h10.08v-10.08h-10.08z" fill="#00c094"/>
  <path d="m240.53 194.56h10.08v-10.08h-10.08z" fill="#00b5eb"/>
  <path d="m251.32 194.56h10.09v-10.08h-10.09z" fill="#a489ff"/>
  <path d="m262.12 194.56h10.08v-10.08h-10.08z" fill="#fb61d6"/>
 </g>
 <g stroke-linejoin="round" stroke="#333" stroke-linecap="round" stroke-miterlimit="10" stroke-width=".70866" fill="#7f7f7f">
  <path d="m272.91 194.56h10.09v-10.08h-10.09z"/>
  <path d="m283.71 194.56h10.08v-10.08h-10.08z"/>
  <path d="m294.51 194.56h10.08v-10.08h-10.08z"/>
 </g>
 <g stroke-linejoin="round" stroke="#333" stroke-linecap="round" stroke-miterlimit="10" stroke-width=".70866">
  <path d="m46.203 205.25h10.082v-10.09h-10.082z" fill="#f8766c"/>
  <path d="m56.996 205.25h10.082v-10.09h-10.082z" fill="#c39a00"/>
  <path d="m67.793 205.25h10.082v-10.09h-10.082z" fill="#53b300"/>
  <path d="m78.59 205.25h10.082v-10.09h-10.082z" fill="#00c094"/>
  <path d="m89.387 205.25h10.082v-10.09h-10.082z" fill="#00b5eb"/>
  <path d="m100.18 205.25h10.08v-10.09h-10.08z" fill="#a489ff"/>
  <path d="m110.98 205.25h10.08v-10.09h-10.08z" fill="#fb61d6"/>
  <path d="m121.77 205.25h10.09v-10.09h-10.09z" fill="#f8766c"/>
  <path d="m132.57 205.25h10.08v-10.09h-10.08z" fill="#c39a00"/>
  <path d="m143.36 205.25h10.09v-10.09h-10.09z" fill="#53b300"/>
  <path d="m154.16 205.25h10.08v-10.09h-10.08z" fill="#00c094"/>
  <path d="m164.96 205.25h10.08v-10.09h-10.08z" fill="#00b5eb"/>
  <path d="m175.75 205.25h10.09v-10.09h-10.09z" fill="#a489ff"/>
  <path d="m186.55 205.25h10.08v-10.09h-10.08z" fill="#fb61d6"/>
  <path d="m197.34 205.25h10.09v-10.09h-10.09z" fill="#f8766c"/>
  <path d="m208.14 205.25h10.08v-10.09h-10.08z" fill="#c39a00"/>
  <path d="m218.94 205.25h10.08v-10.09h-10.08z" fill="#53b300"/>
  <path d="m229.73 205.25h10.08v-10.09h-10.08z" fill="#00c094"/>
  <path d="m240.53 205.25h10.08v-10.09h-10.08z" fill="#00b5eb"/>
  <path d="m251.32 205.25h10.09v-10.09h-10.09z" fill="#a489ff"/>
  <path d="m262.12 205.25h10.08v-10.09h-10.08z" fill="#fb61d6"/>
 </g>
 <g stroke-linejoin="round" stroke="#333" stroke-linecap="round" stroke-miterlimit="10" stroke-width=".70866" fill="#7f7f7f">
  <path d="m272.91 205.25h10.09v-10.09h-10.09z"/>
  <path d="m283.71 205.25h10.08v-10.09h-10.08z"/>
  <path d="m294.51 205.25h10.08v-10.09h-10.08z"/>
 </g>
 <g stroke-linejoin="round" stroke="#333" stroke-linecap="round" stroke-miterlimit="10" stroke-width=".70866">
  <path d="m46.203 215.93h10.082v-10.08h-10.082z" fill="#f8766c"/>
  <path d="m56.996 215.93h10.082v-10.08h-10.082z" fill="#c39a00"/>
  <path d="m67.793 215.93h10.082v-10.08h-10.082z" fill="#53b300"/>
  <path d="m78.59 215.93h10.082v-10.08h-10.082z" fill="#00c094"/>
  <path d="m89.387 215.93h10.082v-10.08h-10.082z" fill="#00b5eb"/>
  <path d="m100.18 215.93h10.08v-10.08h-10.08z" fill="#a489ff"/>
  <path d="m110.98 215.93h10.08v-10.08h-10.08z" fill="#fb61d6"/>
  <path d="m121.77 215.93h10.09v-10.08h-10.09z" fill="#f8766c"/>
  <path d="m132.57 215.93h10.08v-10.08h-10.08z" fill="#c39a00"/>
  <path d="m143.36 215.93h10.09v-10.08h-10.09z" fill="#53b300"/>
  <path d="m154.16 215.93h10.08v-10.08h-10.08z" fill="#00c094"/>
  <path d="m164.96 215.93h10.08v-10.08h-10.08z" fill="#00b5eb"/>
  <path d="m175.75 215.93h10.09v-10.08h-10.09z" fill="#a489ff"/>
  <path d="m186.55 215.93h10.08v-10.08h-10.08z" fill="#fb61d6"/>
  <path d="m197.34 215.93h10.09v-10.08h-10.09z" fill="#f8766c"/>
  <path d="m208.14 215.93h10.08v-10.08h-10.08z" fill="#c39a00"/>
  <path d="m218.94 215.93h10.08v-10.08h-10.08z" fill="#53b300"/>
  <path d="m229.73 215.93h10.08v-10.08h-10.08z" fill="#00c094"/>
  <path d="m240.53 215.93h10.08v-10.08h-10.08z" fill="#00b5eb"/>
  <path d="m251.32 215.93h10.09v-10.08h-10.09z" fill="#a489ff"/>
  <path d="m262.12 215.93h10.08v-10.08h-10.08z" fill="#fb61d6"/>
  <path d="m272.91 215.93h10.09v-10.08h-10.09z" fill="#c39a00"/>
  <path d="m283.71 215.93h10.08v-10.08h-10.08z" fill="#53b300"/>
  <path d="m294.51 215.93h10.08v-10.08h-10.08z" fill="#00c094"/>
  <path d="m46.203 226.62h10.082v-10.08h-10.082z" fill="#f8766c"/>
  <path d="m56.996 226.62h10.082v-10.08h-10.082z" fill="#c39a00"/>
  <path d="m67.793 226.62h10.082v-10.08h-10.082z" fill="#53b300"/>
  <path d="m78.59 226.62h10.082v-10.08h-10.082z" fill="#00c094"/>
  <path d="m89.387 226.62h10.082v-10.08h-10.082z" fill="#00b5eb"/>
  <path d="m100.18 226.62h10.08v-10.08h-10.08z" fill="#a489ff"/>
  <path d="m110.98 226.62h10.08v-10.08h-10.08z" fill="#fb61d6"/>
  <path d="m121.77 226.62h10.09v-10.08h-10.09z" fill="#f8766c"/>
  <path d="m132.57 226.62h10.08v-10.08h-10.08z" fill="#c39a00"/>
  <path d="m143.36 226.62h10.09v-10.08h-10.09z" fill="#53b300"/>
  <path d="m154.16 226.62h10.08v-10.08h-10.08z" fill="#00c094"/>
  <path d="m164.96 226.62h10.08v-10.08h-10.08z" fill="#00b5eb"/>
  <path d="m175.75 226.62h10.09v-10.08h-10.09z" fill="#a489ff"/>
  <path d="m186.55 226.62h10.08v-10.08h-10.08z" fill="#fb61d6"/>
  <path d="m197.34 226.62h10.09v-10.08h-10.09z" fill="#f8766c"/>
  <path d="m208.14 226.62h10.08v-10.08h-10.08z" fill="#c39a00"/>
  <path d="m218.94 226.62h10.08v-10.08h-10.08z" fill="#53b300"/>
  <path d="m229.73 226.62h10.08v-10.08h-10.08z" fill="#00c094"/>
  <path d="m240.53 226.62h10.08v-10.08h-10.08z" fill="#00b5eb"/>
  <path d="m251.32 226.62h10.09v-10.08h-10.09z" fill="#a489ff"/>
  <path d="m262.12 226.62h10.08v-10.08h-10.08z" fill="#fb61d6"/>
  <path d="m272.91 226.62h10.09v-10.08h-10.09z" fill="#00b5eb"/>
  <path d="m283.71 226.62h10.08v-10.08h-10.08z" fill="#a489ff"/>
  <path d="m294.51 226.62h10.08v-10.08h-10.08z" fill="#fb61d6"/>
  <path d="m46.203 237.3h10.082v-10.08h-10.082z" fill="#f8766c"/>
  <path d="m56.996 237.3h10.082v-10.08h-10.082z" fill="#c39a00"/>
  <path d="m67.793 237.3h10.082v-10.08h-10.082z" fill="#53b300"/>
  <path d="m78.59 237.3h10.082v-10.08h-10.082z" fill="#00c094"/>
  <path d="m89.387 237.3h10.082v-10.08h-10.082z" fill="#00b5eb"/>
  <path d="m100.18 237.3h10.08v-10.08h-10.08z" fill="#a489ff"/>
  <path d="m110.98 237.3h10.08v-10.08h-10.08z" fill="#fb61d6"/>
  <path d="m121.77 237.3h10.09v-10.08h-10.09z" fill="#f8766c"/>
  <path d="m132.57 237.3h10.08v-10.08h-10.08z" fill="#c39a00"/>
  <path d="m143.36 237.3h10.09v-10.08h-10.09z" fill="#53b300"/>
  <path d="m154.16 237.3h10.08v-10.08h-10.08z" fill="#00c094"/>
  <path d="m164.96 237.3h10.08v-10.08h-10.08z" fill="#00b5eb"/>
  <path d="m175.75 237.3h10.09v-10.08h-10.09z" fill="#a489ff"/>
  <path d="m186.55 237.3h10.08v-10.08h-10.08z" fill="#fb61d6"/>
  <path d="m197.34 237.3h10.09v-10.08h-10.09z" fill="#f8766c"/>
  <path d="m208.14 237.3h10.08v-10.08h-10.08z" fill="#c39a00"/>
  <path d="m218.94 237.3h10.08v-10.08h-10.08z" fill="#53b300"/>
  <path d="m229.73 237.3h10.08v-10.08h-10.08z" fill="#00c094"/>
  <path d="m240.53 237.3h10.08v-10.08h-10.08z" fill="#00b5eb"/>
  <path d="m251.32 237.3h10.09v-10.08h-10.09z" fill="#a489ff"/>
  <path d="m262.12 237.3h10.08v-10.08h-10.08z" fill="#fb61d6"/>
  <path d="m272.91 237.3h10.09v-10.08h-10.09z" fill="#7f7f7f"/>
  <path d="m283.71 237.3h10.08v-10.08h-10.08z" fill="#f8766c"/>
  <path d="m294.51 237.3h10.08v-10.08h-10.08z" fill="#7f7f7f"/>
  <path d="m46.203 247.99h10.082v-10.08h-10.082z" fill="#f8766c"/>
  <path d="m56.996 247.99h10.082v-10.08h-10.082z" fill="#c39a00"/>
  <path d="m67.793 247.99h10.082v-10.08h-10.082z" fill="#53b300"/>
  <path d="m78.59 247.99h10.082v-10.08h-10.082z" fill="#00c094"/>
  <path d="m89.387 247.99h10.082v-10.08h-10.082z" fill="#00b5eb"/>
  <path d="m100.18 247.99h10.08v-10.08h-10.08z" fill="#a489ff"/>
  <path d="m110.98 247.99h10.08v-10.08h-10.08z" fill="#fb61d6"/>
  <path d="m121.77 247.99h10.09v-10.08h-10.09z" fill="#f8766c"/>
  <path d="m132.57 247.99h10.08v-10.08h-10.08z" fill="#c39a00"/>
  <path d="m143.36 247.99h10.09v-10.08h-10.09z" fill="#53b300"/>
  <path d="m154.16 247.99h10.08v-10.08h-10.08z" fill="#00c094"/>
  <path d="m164.96 247.99h10.08v-10.08h-10.08z" fill="#00b5eb"/>
  <path d="m175.75 247.99h10.09v-10.08h-10.09z" fill="#a489ff"/>
  <path d="m186.55 247.99h10.08v-10.08h-10.08z" fill="#fb61d6"/>
  <path d="m197.34 247.99h10.09v-10.08h-10.09z" fill="#f8766c"/>
  <path d="m208.14 247.99h10.08v-10.08h-10.08z" fill="#c39a00"/>
  <path d="m218.94 247.99h10.08v-10.08h-10.08z" fill="#53b300"/>
  <path d="m229.73 247.99h10.08v-10.08h-10.08z" fill="#00c094"/>
  <path d="m240.53 247.99h10.08v-10.08h-10.08z" fill="#00b5eb"/>
  <path d="m251.32 247.99h10.09v-10.08h-10.09z" fill="#a489ff"/>
  <path d="m262.12 247.99h10.08v-10.08h-10.08z" fill="#fb61d6"/>
  <path d="m272.91 247.99h10.09v-10.08h-10.09z" fill="#c39a00"/>
  <path d="m283.71 247.99h10.08v-10.08h-10.08z" fill="#53b300"/>
  <path d="m294.51 247.99h10.08v-10.08h-10.08z" fill="#00c094"/>
  <path d="m46.203 258.68h10.082v-10.08h-10.082z" fill="#f8766c"/>
  <path d="m56.996 258.68h10.082v-10.08h-10.082z" fill="#c39a00"/>
  <path d="m67.793 258.68h10.082v-10.08h-10.082z" fill="#53b300"/>
  <path d="m78.59 258.68h10.082v-10.08h-10.082z" fill="#00c094"/>
  <path d="m89.387 258.68h10.082v-10.08h-10.082z" fill="#00b5eb"/>
  <path d="m100.18 258.68h10.08v-10.08h-10.08z" fill="#a489ff"/>
  <path d="m110.98 258.68h10.08v-10.08h-10.08z" fill="#fb61d6"/>
  <path d="m121.77 258.68h10.09v-10.08h-10.09z" fill="#f8766c"/>
  <path d="m132.57 258.68h10.08v-10.08h-10.08z" fill="#c39a00"/>
  <path d="m143.36 258.68h10.09v-10.08h-10.09z" fill="#53b300"/>
  <path d="m154.16 258.68h10.08v-10.08h-10.08z" fill="#00c094"/>
  <path d="m164.96 258.68h10.08v-10.08h-10.08z" fill="#00b5eb"/>
  <path d="m175.75 258.68h10.09v-10.08h-10.09z" fill="#a489ff"/>
  <path d="m186.55 258.68h10.08v-10.08h-10.08z" fill="#fb61d6"/>
  <path d="m197.34 258.68h10.09v-10.08h-10.09z" fill="#f8766c"/>
  <path d="m208.14 258.68h10.08v-10.08h-10.08z" fill="#c39a00"/>
  <path d="m218.94 258.68h10.08v-10.08h-10.08z" fill="#53b300"/>
  <path d="m229.73 258.68h10.08v-10.08h-10.08z" fill="#00c094"/>
  <path d="m240.53 258.68h10.08v-10.08h-10.08z" fill="#00b5eb"/>
  <path d="m251.32 258.68h10.09v-10.08h-10.09z" fill="#a489ff"/>
  <path d="m262.12 258.68h10.08v-10.08h-10.08z" fill="#fb61d6"/>
  <path d="m272.91 258.68h10.09v-10.08h-10.09z" fill="#00b5eb"/>
  <path d="m283.71 258.68h10.08v-10.08h-10.08z" fill="#a489ff"/>
  <path d="m294.51 258.68h10.08v-10.08h-10.08z" fill="#fb61d6"/>
  <path d="m46.203 269.37h10.082v-10.08h-10.082z" fill="#f8766c"/>
  <path d="m56.996 269.37h10.082v-10.08h-10.082z" fill="#c39a00"/>
  <path d="m67.793 269.37h10.082v-10.08h-10.082z" fill="#53b300"/>
  <path d="m78.59 269.37h10.082v-10.08h-10.082z" fill="#00c094"/>
  <path d="m89.387 269.37h10.082v-10.08h-10.082z" fill="#00b5eb"/>
  <path d="m100.18 269.37h10.08v-10.08h-10.08z" fill="#a489ff"/>
  <path d="m110.98 269.37h10.08v-10.08h-10.08z" fill="#fb61d6"/>
  <path d="m121.77 269.37h10.09v-10.08h-10.09z" fill="#f8766c"/>
  <path d="m132.57 269.37h10.08v-10.08h-10.08z" fill="#c39a00"/>
  <path d="m143.36 269.37h10.09v-10.08h-10.09z" fill="#53b300"/>
  <path d="m154.16 269.37h10.08v-10.08h-10.08z" fill="#00c094"/>
  <path d="m164.96 269.37h10.08v-10.08h-10.08z" fill="#00b5eb"/>
  <path d="m175.75 269.37h10.09v-10.08h-10.09z" fill="#a489ff"/>
  <path d="m186.55 269.37h10.08v-10.08h-10.08z" fill="#fb61d6"/>
  <path d="m197.34 269.37h10.09v-10.08h-10.09z" fill="#f8766c"/>
  <path d="m208.14 269.37h10.08v-10.08h-10.08z" fill="#c39a00"/>
  <path d="m218.94 269.37h10.08v-10.08h-10.08z" fill="#53b300"/>
  <path d="m229.73 269.37h10.08v-10.08h-10.08z" fill="#00c094"/>
  <path d="m240.53 269.37h10.08v-10.08h-10.08z" fill="#00b5eb"/>
  <path d="m251.32 269.37h10.09v-10.08h-10.09z" fill="#a489ff"/>
  <path d="m262.12 269.37h10.08v-10.08h-10.08z" fill="#fb61d6"/>
  <path d="m272.91 269.37h10.09v-10.08h-10.09z" fill="#7f7f7f"/>
  <path d="m283.71 269.37h10.08v-10.08h-10.08z" fill="#f8766c"/>
  <path d="m294.51 269.37h10.08v-10.08h-10.08z" fill="#7f7f7f"/>
 </g>
 <g clip-path="url(#as)">
  <path stroke-linejoin="round" d="m32.891 278.21h285.01v-188.08l-285.01-0.005zm0 0" stroke="#333" stroke-linecap="round" stroke-miterlimit="10" stroke-width="1.067" fill="none"/>
 </g>
 <g fill="#4c4c4c">
  <use y="106.62207" x="21.957031" xlink:href="#q"/>
  <use y="117.30957" x="21.957031" xlink:href="#ak"/>
  <use y="127.99707" x="20.957031" xlink:href="#aj"/>
  <use y="138.68457" x="20.957031" xlink:href="#ai"/>
  <use y="149.37207" x="21.957031" xlink:href="#ah"/>
  <use y="160.055664" x="21.957031" xlink:href="#ag"/>
  <use y="170.743164" x="20.957031" xlink:href="#af"/>
  <use y="181.430664" x="20.957031" xlink:href="#ae"/>
  <use y="192.118164" x="24.957031" xlink:href="#ad"/>
  <use y="202.805664" x="22.957031" xlink:href="#aq"/>
  <use y="213.493164" x="21.957031" xlink:href="#ap"/>
  <use y="224.180664" x="22.957031" xlink:href="#ao"/>
  <use y="234.864258" x="19.957031" xlink:href="#an"/>
  <use y="245.551758" x="20.957031" xlink:href="#p"/>
  <use y="256.239258" x="20.957031" xlink:href="#am"/>
  <use y="266.926758" x="21.957031" xlink:href="#al"/>
 </g>
 <g stroke-linejoin="round" stroke="#333" stroke-miterlimit="10" stroke-width="1.067" fill="none">
  <path d="m30.152 104.02h2.739"/>
  <path d="m30.152 114.71h2.739"/>
  <path d="m30.152 125.39h2.739"/>
  <path d="m30.152 136.08h2.739"/>
  <path d="m30.152 146.77h2.739"/>
  <path d="m30.152 157.45h2.739"/>
  <path d="m30.152 168.14h2.739"/>
  <path d="m30.152 178.83h2.739"/>
  <path d="m30.152 189.52h2.739"/>
  <path d="m30.152 200.2h2.739"/>
  <path d="m30.152 210.89h2.739"/>
  <path d="m30.152 221.58h2.739"/>
  <path d="m30.152 232.26h2.739"/>
  <path d="m30.152 242.95h2.739"/>
  <path d="m30.152 253.64h2.739"/>
  <path d="m30.152 264.32h2.739"/>
  <path d="m51.242 280.96v-2.75"/>
  <path d="m62.039 280.96v-2.75"/>
  <path d="m72.836 280.96v-2.75"/>
  <path d="m83.633 280.96v-2.75"/>
  <path d="m94.426 280.96v-2.75"/>
  <path d="m105.22 280.96v-2.75"/>
  <path d="m116.02 280.96v-2.75"/>
  <path d="m126.82 280.96v-2.75"/>
  <path d="m137.61 280.96v-2.75"/>
  <path d="m148.41 280.96v-2.75"/>
  <path d="m159.2 280.96v-2.75"/>
  <path d="m170 280.96v-2.75"/>
  <path d="m180.79 280.96v-2.75"/>
  <path d="m191.59 280.96v-2.75"/>
  <path d="m202.39 280.96v-2.75"/>
  <path d="m213.18 280.96v-2.75"/>
  <path d="m223.98 280.96v-2.75"/>
  <path d="m234.77 280.96v-2.75"/>
  <path d="m245.57 280.96v-2.75"/>
  <path d="m256.37 280.96v-2.75"/>
  <path d="m267.16 280.96v-2.75"/>
  <path d="m277.96 280.96v-2.75"/>
  <path d="m288.75 280.96v-2.75"/>
  <path d="m299.55 280.96v-2.75"/>
 </g>
 <g fill="#4c4c4c">
  <use y="289.250977" x="48.742188" xlink:href="#a"/>
  <use y="289.250977" x="59.539062" xlink:href="#b"/>
  <use y="289.250977" x="70.335938" xlink:href="#d"/>
  <use y="289.250977" x="81.132812" xlink:href="#c"/>
  <use y="289.250977" x="91.925781" xlink:href="#i"/>
  <use y="289.250977" x="102.722656" xlink:href="#h"/>
  <use y="289.250977" x="113.519531" xlink:href="#g"/>
  <use y="289.250977" x="124.316406" xlink:href="#o"/>
  <use y="289.250977" x="135.109375" xlink:href="#n"/>
  <use y="289.250977" x="143.40625" xlink:href="#a"/>
  <use y="289.250977" x="148.296875" xlink:href="#m"/>
  <use y="289.250977" x="154.203125" xlink:href="#a"/>
  <use y="289.250977" x="159.09375" xlink:href="#a"/>
  <use y="289.250977" x="165" xlink:href="#a"/>
  <use y="289.250977" x="169.890625" xlink:href="#b"/>
  <use y="289.250977" x="175.792969" xlink:href="#a"/>
  <use y="289.250977" x="180.683594" xlink:href="#d"/>
  <use y="289.250977" x="186.589844" xlink:href="#a"/>
  <use y="289.250977" x="191.480469" xlink:href="#c"/>
  <use y="289.250977" x="197.386719" xlink:href="#a"/>
  <use y="289.250977" x="202.277344" xlink:href="#i"/>
  <use y="289.250977" x="208.183594" xlink:href="#a"/>
  <use y="289.250977" x="213.074219" xlink:href="#h"/>
  <use y="289.250977" x="218.976562" xlink:href="#a"/>
  <use y="289.250977" x="223.867188" xlink:href="#g"/>
  <use y="289.250977" x="229.773438" xlink:href="#a"/>
  <use y="289.250977" x="234.664062" xlink:href="#o"/>
  <use y="289.250977" x="240.570312" xlink:href="#a"/>
  <use y="289.250977" x="245.460938" xlink:href="#n"/>
  <use y="289.250977" x="251.367188" xlink:href="#b"/>
  <use y="289.250977" x="256.257812" xlink:href="#m"/>
  <use y="289.250977" x="262.160156" xlink:href="#b"/>
  <use y="289.250977" x="267.050781" xlink:href="#a"/>
  <use y="289.250977" x="272.957031" xlink:href="#b"/>
  <use y="289.250977" x="277.847656" xlink:href="#b"/>
  <use y="289.250977" x="283.753906" xlink:href="#b"/>
  <use y="289.250977" x="288.644531" xlink:href="#d"/>
  <use y="289.250977" x="294.550781" xlink:href="#b"/>
  <use y="289.250977" x="299.441406" xlink:href="#c"/>
 </g>
 <g>
  <path fill="#fff" d="m329.24 265.07h43.28v-161.8h-43.28z"/>
  <g>
   <use y="117.018555" x="334.910156" xlink:href="#ac"/>
   <use y="117.018555" x="340.19043" xlink:href="#ab"/>
   <use y="117.018555" x="346.306641" xlink:href="#aa"/>
   <use y="117.018555" x="348.749023" xlink:href="#z"/>
   <use y="117.018555" x="354.865234" xlink:href="#y"/>
   <use y="117.018555" x="360.981445" xlink:href="#x"/>
  </g>
  <g>
   <path fill="#fff" d="m334.91 138.44h17.28v-17.28h-17.28z"/>
   <path stroke-linejoin="round" d="m338.51 134.84h10.08v-10.08h-10.08zm0 0" stroke="#333" stroke-linecap="round" stroke-miterlimit="10" stroke-width=".70866" fill="#f8766c"/>
   <path fill="#fff" d="m334.91 155.72h17.28v-17.28h-17.28z"/>
   <path stroke-linejoin="round" d="m338.51 152.12h10.08v-10.08h-10.08zm0 0" stroke="#333" stroke-linecap="round" stroke-miterlimit="10" stroke-width=".70866" fill="#c39a00"/>
   <path fill="#fff" d="m334.91 173h17.28v-17.28h-17.28z"/>
   <path stroke-linejoin="round" d="m338.51 169.4h10.08v-10.08h-10.08zm0 0" stroke="#333" stroke-linecap="round" stroke-miterlimit="10" stroke-width=".70866" fill="#53b300"/>
   <path fill="#fff" d="m334.91 190.28h17.28v-17.28h-17.28z"/>
   <path stroke-linejoin="round" d="m338.51 186.68h10.08v-10.08h-10.08zm0 0" stroke="#333" stroke-linecap="round" stroke-miterlimit="10" stroke-width=".70866" fill="#00c094"/>
   <path fill="#fff" d="m334.91 207.56h17.28v-17.28h-17.28z"/>
   <path stroke-linejoin="round" d="m338.51 203.96h10.08v-10.08h-10.08zm0 0" stroke="#333" stroke-linecap="round" stroke-miterlimit="10" stroke-width=".70866" fill="#00b5eb"/>
   <path fill="#fff" d="m334.91 224.84h17.28v-17.28h-17.28z"/>
   <path stroke-linejoin="round" d="m338.51 221.24h10.08v-10.08h-10.08zm0 0" stroke="#333" stroke-linecap="round" stroke-miterlimit="10" stroke-width=".70866" fill="#a489ff"/>
   <path fill="#fff" d="m334.91 242.12h17.28v-17.28h-17.28z"/>
   <path stroke-linejoin="round" d="m338.51 238.52h10.08v-10.08h-10.08zm0 0" stroke="#333" stroke-linecap="round" stroke-miterlimit="10" stroke-width=".70866" fill="#fb61d6"/>
   <path fill="#fff" d="m334.91 259.4h17.28v-17.28h-17.28z"/>
   <path stroke-linejoin="round" d="m338.51 255.8h10.08v-10.08h-10.08zm0 0" stroke="#333" stroke-linecap="round" stroke-miterlimit="10" stroke-width=".70866" fill="#7f7f7f"/>
  </g>
 </g>
 <g>
  <use y="132.40332" x="354.351562" xlink:href="#a"/>
  <use y="149.68457" x="354.351562" xlink:href="#b"/>
  <use y="166.961914" x="354.351562" xlink:href="#d"/>
  <use y="184.243164" x="354.351562" xlink:href="#c"/>
  <use y="201.524414" x="354.351562" xlink:href="#i"/>
  <use y="218.805664" x="354.351562" xlink:href="#h"/>
  <use y="236.083008" x="354.351562" xlink:href="#g"/>
  <use y="253.364258" x="354.351562" xlink:href="#p"/>
  <use y="253.364258" x="360.615234" xlink:href="#q"/>
  <use y="82.523438" x="32.890625" xlink:href="#w"/>
  <use y="82.523438" x="41.697266" xlink:href="#t"/>
  <use y="82.523438" x="49.038086" xlink:href="#l"/>
  <use y="82.523438" x="53.368164" xlink:href="#f"/>
  <use y="82.523438" x="59.969727" xlink:href="#e"/>
  <use y="82.523438" x="67.310547" xlink:href="#s"/>
  <use y="82.523438" x="74.651367" xlink:href="#k"/>
  <use y="82.523438" x="81.992188" xlink:href="#j"/>
  <use y="82.523438" x="85.663086" xlink:href="#r"/>
  <use y="82.523438" x="92.264648" xlink:href="#e"/>
  <use y="82.523438" x="99.605469" xlink:href="#v"/>
  <use y="82.523438" x="106.946289" xlink:href="#l"/>
  <use y="82.523438" x="111.276367" xlink:href="#f"/>
  <use y="82.523438" x="117.87793" xlink:href="#k"/>
  <use y="82.523438" x="125.21875" xlink:href="#j"/>
  <use y="82.523438" x="128.889648" xlink:href="#f"/>
  <use y="82.523438" x="135.491211" xlink:href="#e"/>
  <use y="82.523438" x="142.832031" xlink:href="#u"/>
 </g>
</svg>
